<?xml version="1.0" encoding="UTF-8" standalone="no"?>
<!-- Created with Inkscape (http://www.inkscape.org/) -->

<svg
   xmlns:dc="http://purl.org/dc/elements/1.1/"
   xmlns:cc="http://creativecommons.org/ns#"
   xmlns:rdf="http://www.w3.org/1999/02/22-rdf-syntax-ns#"
   xmlns:svg="http://www.w3.org/2000/svg"
   xmlns="http://www.w3.org/2000/svg"
   xmlns:sodipodi="http://sodipodi.sourceforge.net/DTD/sodipodi-0.dtd"
   xmlns:inkscape="http://www.inkscape.org/namespaces/inkscape"
   width="100"
   height="100"
   viewBox="0 0 100 100"
   id="svg4405"
   version="1.1"
   inkscape:version="0.91 r13725">
  <defs
     id="defs4407" />
  <sodipodi:namedview
     id="base"
     pagecolor="#ffffff"
     bordercolor="#666666"
     borderopacity="1.0"
     inkscape:pageopacity="0.0"
     inkscape:pageshadow="2"
     inkscape:zoom="7.9195959"
     inkscape:cx="43.020422"
     inkscape:cy="49.526596"
     inkscape:document-units="px"
     inkscape:current-layer="layer7"
     showgrid="false"
     units="px"
     inkscape:window-width="1920"
     inkscape:window-height="1017"
     inkscape:window-x="-8"
     inkscape:window-y="-8"
     inkscape:window-maximized="1">
    <inkscape:grid
       type="xygrid"
       id="grid4953" />
  </sodipodi:namedview>
  <metadata
     id="metadata4410">
    <rdf:RDF>
      <cc:Work
         rdf:about="">
        <dc:format>image/svg+xml</dc:format>
        <dc:type
           rdf:resource="http://purl.org/dc/dcmitype/StillImage" />
        <dc:title></dc:title>
        <cc:license
           rdf:resource="http://creativecommons.org/licenses/by/3.0/" />
      </cc:Work>
      <cc:License
         rdf:about="http://creativecommons.org/licenses/by/3.0/">
        <cc:permits
           rdf:resource="http://creativecommons.org/ns#Reproduction" />
        <cc:permits
           rdf:resource="http://creativecommons.org/ns#Distribution" />
        <cc:requires
           rdf:resource="http://creativecommons.org/ns#Notice" />
        <cc:requires
           rdf:resource="http://creativecommons.org/ns#Attribution" />
        <cc:permits
           rdf:resource="http://creativecommons.org/ns#DerivativeWorks" />
      </cc:License>
    </rdf:RDF>
  </metadata>
  <g
     inkscape:groupmode="layer"
     id="layer6"
     inkscape:label="Layer 1"
     style="display:none;opacity:0.28500001">
    <path
       style="fill:none;fill-rule:evenodd;stroke:#000000;stroke-width:1px;stroke-linecap:butt;stroke-linejoin:miter;stroke-opacity:1"
       d="m 70.079333,36.612928 c -0.195357,-0.08758 -0.771369,0.0597 -1.010153,0 -0.09131,-0.02283 -0.161232,-0.103443 -0.252538,-0.126269 -0.08167,-0.02042 -0.170872,0.02042 -0.252538,0 -0.09131,-0.02283 -0.168359,-0.08418 -0.252538,-0.126269 -0.168359,-0.08418 -0.336718,-0.168359 -0.505076,-0.252539 -0.08418,-0.04209 -0.168359,-0.08418 -0.252538,-0.126269 -0.08418,-0.04209 -0.177246,-0.0698 -0.252539,-0.126269 -0.09524,-0.07143 -0.1573,-0.181109 -0.252538,-0.252538 -0.145476,-0.109107 -0.654562,-0.275755 -0.757614,-0.378807 -0.06655,-0.06655 -0.05098,-0.196069 -0.126269,-0.252538 -0.10648,-0.07986 -0.264676,-0.05779 -0.378807,-0.126269 -0.102083,-0.06125 -0.153485,-0.186503 -0.252539,-0.252538 -0.156617,-0.104412 -0.354491,-0.1396 -0.505076,-0.252539 -0.03367,-0.02525 0.02976,-0.09651 0,-0.126269 -0.06655,-0.06655 -0.185988,-0.05972 -0.252538,-0.126269 -0.107308,-0.107308 -0.157737,-0.260305 -0.252538,-0.378807 -0.07437,-0.09296 -0.186502,-0.153484 -0.252538,-0.252538 -0.04669,-0.07004 0.04669,-0.182497 0,-0.252538 -0.06604,-0.09905 -0.199299,-0.146059 -0.252538,-0.252538 -0.03765,-0.07529 0,-0.168359 0,-0.252538 0,-0.08418 0,-0.168359 0,-0.252539 0,-0.294627 0,-0.589255 0,-0.883883 0,-0.08879 -0.02482,-0.720384 0,-0.757614 0.06603,-0.09905 0.199298,-0.146059 0.252538,-0.252539 0.07529,-0.150584 -0.09339,-0.364993 0,-0.505076 0.05221,-0.07831 0.185988,-0.05972 0.252538,-0.126269 0.107308,-0.107308 0.18467,-0.243072 0.252538,-0.378807 0.03765,-0.07529 -0.05952,-0.193014 0,-0.252538 0.06655,-0.06655 0.177246,-0.0698 0.252538,-0.126269 0.49982,-0.374865 0.0081,-0.13434 0.505076,-0.631346 0.06655,-0.06655 0.171835,-0.07785 0.252539,-0.126269 0.13013,-0.07808 0.252538,-0.168359 0.378807,-0.252538 0.126269,-0.08418 0.271499,-0.14523 0.378807,-0.252538 0.02976,-0.02976 -0.02976,-0.09651 0,-0.126269 0.142369,-0.142369 0.650586,-0.216862 0.757614,-0.252538 0.334393,-0.111464 0.423222,-0.393612 0.757615,-0.505077 0.02316,-0.0077 1.002314,-0.248618 1.010152,-0.252538 0.03765,-0.01882 -0.03765,-0.107446 0,-0.126269 0.07529,-0.03765 0.170873,0.02042 0.252539,0 0.0913,-0.02283 0.16025,-0.107811 0.252538,-0.126269 0.123817,-0.02476 0.256308,0.03063 0.378807,0 0.05775,-0.01444 0.08418,-0.08418 0.126269,-0.126269 0.08418,-0.04209 0.161233,-0.103443 0.252538,-0.126269 0.163332,-0.04083 0.354492,0.07529 0.505076,0 0.03765,-0.01882 -0.03765,-0.107446 0,-0.126269 0.150585,-0.07529 0.354492,0.07529 0.505077,0 0.03765,-0.01882 -0.03765,-0.107446 0,-0.126269 0.07529,-0.03765 0.170872,0.02042 0.252538,0 0.09131,-0.02283 0.159703,-0.110797 0.252538,-0.126269 0.196957,-0.03283 0.757727,0 1.010152,0 0.167682,0 0.771433,-0.02811 0.883884,0 0.05775,0.01444 0.0698,0.107446 0.126269,0.126269 0.07986,0.02662 0.168359,0 0.252538,0 0.08418,0 0.168359,0 0.252538,0 0.420897,0 0.841794,0 1.262691,0 0.13131,0 0.658289,-0.02483 0.757614,0 0.09131,0.02283 0.161233,0.103443 0.252538,0.126269 0.227041,0.05676 0.677508,-0.06879 0.883884,0 0.03993,0.01331 -0.02976,0.09651 0,0.126269 0.02976,0.02976 0.08418,0 0.126269,0 0.08418,0 0.168359,0 0.252538,0 0.252538,0 0.505076,0 0.757615,0 0.08418,0 0.177245,-0.03765 0.252538,0 0.03765,0.01882 -0.03765,0.107446 0,0.126269 0.07529,0.03765 0.168358,0 0.252538,0 0.252538,0 0.505076,0 0.757614,0 0.08418,0 0.177246,-0.03765 0.252538,0 0.03765,0.01882 -0.03765,0.107446 0,0.126269 0.07529,0.03765 0.168359,0 0.252539,0 0.167681,0 0.771432,-0.02811 0.883883,0 0.05775,0.01444 0.0698,0.107446 0.126269,0.126269 0.06961,0.0232 0.650457,0 0.757615,0 0.673435,0 1.34687,0 2.020305,0 0.294627,0 0.589255,0 0.883883,0 0.04209,0 0.08634,0.01331 0.126269,0 0.08929,-0.02976 0.161233,-0.103442 0.252538,-0.126269 0.219234,-0.05481 0.538381,0.05481 0.757615,0 0.806245,-0.201561 -0.562706,-0.126269 0.757614,-0.126269 0.08418,0 0.168359,0 0.252538,0 0.08418,0 0.170872,0.02042 0.252538,0 0.09131,-0.02283 0.161233,-0.103443 0.252539,-0.126269 0.08167,-0.02042 0.252538,-0.08418 0.252538,0 0,0.08418 -0.168359,0 -0.252538,0 -0.08418,0 -0.168359,0 -0.252539,0"
       id="path5056"
       inkscape:connector-curvature="0" />
    <path
       style="fill:none;fill-rule:evenodd;stroke:#000000;stroke-width:1px;stroke-linecap:butt;stroke-linejoin:miter;stroke-opacity:1"
       d="m 70.836947,36.865466 c -0.08418,0.252538 -0.168358,0.505076 -0.252538,0.757614 -0.08418,0.04209 -0.210448,0.04209 -0.252538,0.126269 -0.04453,0.08905 0.04176,0.547829 0,0.631346 -0.06787,0.135735 -0.204548,0.234838 -0.252538,0.378807 -0.03993,0.119789 0,0.252538 0,0.378807 0,0.08418 0,0.168359 0,0.252538 0,0.505076 0,1.010153 0,1.515229 0,0.252538 0,0.505076 0,0.757614 0,0.04209 -0.02976,0.09651 0,0.126269 0.06655,0.06655 0.200332,0.04796 0.252538,0.12627 0.04669,0.07004 0,0.168358 0,0.252538 0,0.04209 -0.02976,0.09651 0,0.126269 0.06655,0.06655 0.185989,0.05972 0.252538,0.126269 0.05952,0.05952 -0.05952,0.193014 0,0.252538 0.06655,0.06655 0.200333,0.04796 0.252538,0.126269 0.04669,0.07004 -0.04669,0.182497 0,0.252538 0.05221,0.07831 0.200333,0.04796 0.252538,0.126269 0.04669,0.07004 -0.03765,0.177246 0,0.252538 0.227063,0.454126 0.218811,0.09254 0.505077,0.378808 0.02976,0.02976 -0.03765,0.107446 0,0.126269 0.400086,0.200043 0.117506,-0.261302 0.505076,0.126269 0.02976,0.02976 0,0.08418 0,0.126269 0.08418,0 0.177246,-0.03765 0.252538,0 0.03765,0.01882 -0.03765,0.107446 0,0.126269 0.03642,0.01821 0.676913,0 0.757615,0 0.252538,0 0.505076,0 0.757614,0 0.08418,0 0.168359,0 0.252538,0 0.08418,0 0.170872,0.02042 0.252538,0 0.09131,-0.02283 0.161233,-0.103443 0.252538,-0.126269 0.163332,-0.04083 0.341745,0.04083 0.505077,0 0.09131,-0.02283 0.161232,-0.103443 0.252538,-0.126269 0.08167,-0.02042 0.170872,0.02042 0.252538,0 0.182611,-0.04565 0.326505,-0.193015 0.505076,-0.252538 0.164635,-0.05488 0.340442,-0.07139 0.505076,-0.126269 0.08929,-0.02976 0.162044,-0.100414 0.252539,-0.12627 0.785442,-0.224412 0.413117,-0.01372 1.010152,-0.252538 0.539712,-0.215885 -0.04257,-0.01371 0.505076,-0.378807 0.156618,-0.104412 0.354492,-0.1396 0.505077,-0.252538 0.03367,-0.02525 -0.02976,-0.09651 0,-0.126269 0.06655,-0.06655 0.168358,-0.08418 0.252538,-0.126269 0.168359,-0.08418 0.354491,-0.1396 0.505076,-0.252538 0.03367,-0.02525 -0.02976,-0.09651 0,-0.126269 0.06655,-0.06655 0.177246,-0.0698 0.252538,-0.126269 0.09524,-0.07143 0.153485,-0.186503 0.252538,-0.252539 0.156618,-0.104411 0.354492,-0.139599 0.505077,-0.252538 0.03367,-0.02525 -0.02335,-0.09125 0,-0.126269 0.06603,-0.09905 0.159577,-0.178169 0.252538,-0.252538 0.496624,-0.397299 0.307698,-0.09145 0.757614,-0.631345 0.09715,-0.116583 0.14523,-0.271499 0.252538,-0.378807 0.06655,-0.06655 0.168359,-0.08418 0.252539,-0.12627 0.08418,-0.08418 0.178169,-0.159577 0.252538,-0.252538 0.0948,-0.118502 0.18467,-0.243072 0.252538,-0.378807 0.01882,-0.03765 -0.02976,-0.09651 0,-0.126269 0.06655,-0.06655 0.185988,-0.05972 0.252538,-0.126269 0.107308,-0.107308 0.168359,-0.252538 0.252538,-0.378807 0.08418,-0.126269 0.184671,-0.243072 0.252538,-0.378807 0.03765,-0.07529 -0.04669,-0.182497 0,-0.252539 0.06604,-0.09905 0.208325,-0.142005 0.252538,-0.252538 0.0469,-0.117238 -0.05647,-0.265868 0,-0.378807 0.04209,-0.08418 0.200333,-0.04796 0.252538,-0.126269 0.04669,-0.07004 -0.03765,-0.177246 0,-0.252538 0.05324,-0.10648 0.208325,-0.142005 0.252539,-0.252538 0.0469,-0.117238 -0.0469,-0.26157 0,-0.378807 0.04421,-0.110533 0.178169,-0.159578 0.252538,-0.252539 0.0948,-0.118502 0.18467,-0.243072 0.252538,-0.378807 0.01882,-0.03765 -0.02976,-0.09651 0,-0.126269 0.107308,-0.107308 0.300729,-0.122408 0.378807,-0.252538 0.06497,-0.108275 -0.03063,-0.256308 0,-0.378807 0.01444,-0.05775 0.08418,-0.08418 0.126269,-0.126269 0,-0.08418 0,-0.168359 0,-0.252538 0,-0.04209 0,-0.08418 0,-0.126269 0,-0.08418 -0.04669,-0.182497 0,-0.252539 0.05221,-0.07831 0.217585,-0.03888 0.252538,-0.126269 0.06253,-0.156317 0,-0.336717 0,-0.505076 0,-0.04209 -0.02335,-0.09125 0,-0.126269 0.06604,-0.09905 0.199299,-0.146059 0.252538,-0.252538 0.05052,-0.101038 -0.05581,-0.547636 0,-0.631346 0.05221,-0.07831 0.210449,-0.04209 0.252539,-0.126269 0,-0.679134 -0.08929,-0.118609 0.252538,-0.631345 0.0318,-0.0477 -0.0318,-0.457373 0,-0.505076 0.06603,-0.09905 0.186502,-0.153485 0.252538,-0.252538 0.0318,-0.0477 -0.0318,-0.457373 0,-0.505077 0.05221,-0.07831 0.210448,-0.04209 0.252538,-0.126269 0.05647,-0.112938 0,-0.252538 0,-0.378807 0,-0.04209 -0.02976,-0.09651 0,-0.126269 0.06655,-0.06655 0.200332,-0.04796 0.252538,-0.126269 0.01049,-0.01574 -0.01475,-0.490328 0,-0.505076 0.06655,-0.06655 0.200332,-0.04796 0.252538,-0.126269 0.04669,-0.07004 0,-0.168359 0,-0.252538 0,-0.04209 -0.02976,-0.09651 0,-0.12627 0.06655,-0.06655 0.185989,-0.05972 0.252538,-0.126269 0.05952,-0.05952 -0.05952,-0.193014 0,-0.252538 0.06655,-0.06655 0.185989,-0.05972 0.252539,-0.126269 0.04408,-0.04407 -0.05241,-0.3526 0,-0.378807 0.07529,-0.03765 0.177245,0.03765 0.252538,0 0.03765,-0.01882 -0.03765,-0.107446 0,-0.126269 0.07529,-0.03765 0.177245,0.03765 0.252538,0 0.03765,-0.01882 -0.03765,-0.107446 0,-0.126269 0.07529,-0.03765 0.177246,0.03765 0.252538,0 0.07529,-0.03765 -0.07986,-0.225918 0,-0.252538 0.119789,-0.03993 0.259018,0.03993 0.378807,0 0.03993,-0.01331 -0.02976,-0.09651 0,-0.126269 0.02976,-0.02976 0.09651,0.02976 0.126269,0 0.02976,-0.02976 -0.04209,-0.126269 0,-0.126269 0.04209,0 0,0.08418 0,0.126269 0,0.185792 0.02976,0.09651 -0.126269,0.252538"
       id="path5058"
       inkscape:connector-curvature="0" />
    <path
       style="fill:none;fill-rule:evenodd;stroke:#000000;stroke-width:1px;stroke-linecap:butt;stroke-linejoin:miter;stroke-opacity:1"
       d="m 69.574257,36.865466 c -0.538748,0.404061 -0.505077,0.168359 -0.505077,0.505076 0,0.04209 0.03765,0.107446 0,0.126269 -0.07529,0.03765 -0.177245,-0.03765 -0.252538,0 -0.03765,0.01882 0.02976,0.09651 0,0.126269 -0.06655,0.06655 -0.185988,0.05972 -0.252538,0.126269 -0.02976,0.02976 0.02976,0.09651 0,0.126269 -0.133099,0.1331 -0.354491,0.1396 -0.505076,0.252538 -0.09524,0.07143 -0.1573,0.18111 -0.252538,0.252539 -0.07529,0.05647 -0.177246,0.0698 -0.252538,0.126269 -0.09524,0.07143 -0.153485,0.186502 -0.252539,0.252538 -0.156617,0.104412 -0.348458,0.148126 -0.505076,0.252538 -0.09905,0.06604 -0.159577,0.17817 -0.252538,0.252538 -0.118502,0.0948 -0.252538,0.168359 -0.378807,0.252538 -0.126269,0.08418 -0.247046,0.177246 -0.378807,0.252538 -0.326861,0.186778 -0.690914,0.305552 -1.010153,0.505077 -0.01865,0.01166 -1.00074,0.752908 -1.010152,0.757614 -0.15522,0.07761 -0.349858,0.04866 -0.505077,0.126269 -0.919638,0.459819 -0.125718,0.252171 -0.883883,0.757615 -0.110746,0.07383 -0.25647,0.07384 -0.378807,0.126269 -0.173012,0.07415 -0.345457,0.152776 -0.505077,0.252538 -0.17846,0.111537 -0.324618,0.270532 -0.505076,0.378807 -0.403516,0.24211 -0.841794,0.420897 -1.262691,0.631345 -0.08418,0.04209 -0.174229,0.07406 -0.252538,0.126269 -0.171586,0.114391 -0.658002,0.518405 -0.883883,0.631346 -0.202731,0.101365 -0.423012,0.163252 -0.631346,0.252538 -0.0865,0.03707 -0.185988,0.05972 -0.252538,0.126269 -0.107308,0.107308 -0.135955,0.281655 -0.252538,0.378807 -0.144603,0.120503 -0.336717,0.168359 -0.505076,0.252538 -0.252538,0.126269 -0.522688,0.22219 -0.757615,0.378807 -0.09905,0.06604 -0.153484,0.186503 -0.252538,0.252539 -0.378807,0.252538 -0.441941,0.189403 -0.757614,0.378807 -0.13013,0.07808 -0.243072,0.18467 -0.378807,0.252538 -0.05353,0.02677 -0.704822,0.259433 -0.883884,0.378807 -0.175103,0.116736 -0.326616,0.26727 -0.505076,0.378807 -0.239429,0.149644 -0.522688,0.22219 -0.757614,0.378808 -0.350208,0.233471 -0.659946,0.524142 -1.010153,0.757614 -0.07831,0.05221 -0.179046,0.06748 -0.252538,0.126269 -0.139441,0.111553 -0.219088,0.298948 -0.378807,0.378807 -0.191959,0.09598 -0.435227,0.0391 -0.631346,0.126269 -0.19231,0.08547 -0.329972,0.262072 -0.505076,0.378808 -0.07831,0.05221 -0.174229,0.07406 -0.252538,0.126269 -0.175104,0.116735 -0.329973,0.262071 -0.505076,0.378807 -0.07831,0.05221 -0.177246,0.0698 -0.252539,0.126269 -0.09524,0.07143 -0.153484,0.186502 -0.252538,0.252538 -0.156617,0.104412 -0.336717,0.168359 -0.505076,0.252538 -0.08418,0.04209 -0.177246,0.0698 -0.252538,0.126269 -0.469783,0.352337 -0.01334,0.196075 -0.631345,0.505076 -0.254654,0.127327 -0.410685,0.08704 -0.631346,0.252539 -0.190476,0.142857 -0.3146,0.362219 -0.505076,0.505076 -0.07529,0.05647 -0.185989,0.05972 -0.252538,0.126269 -0.107308,0.107308 -0.131133,0.287753 -0.252538,0.378807 -0.06734,0.05051 -0.170872,-0.02042 -0.252538,0 -0.09131,0.02283 -0.168359,0.08418 -0.252539,0.126269 -0.08418,0.04209 -0.177245,0.0698 -0.252538,0.126269 -0.09524,0.07143 -0.1573,0.18111 -0.252538,0.252538 -0.145477,0.109108 -0.654562,0.275755 -0.757614,0.378808 -0.107308,0.107308 -0.135956,0.281655 -0.252538,0.378807 -0.757615,0.631345 -0.252539,0 -0.757615,0.378807 -0.190476,0.142857 -0.306969,0.373005 -0.505076,0.505076 -0.156618,0.104412 -0.348459,0.148127 -0.505076,0.252538 -0.09905,0.06604 -0.1573,0.18111 -0.252539,0.252539 -0.07529,0.05647 -0.177245,0.0698 -0.252538,0.126269 -0.09524,0.07143 -0.1573,0.181109 -0.252538,0.252538 -0.07529,0.05647 -0.177246,0.0698 -0.252538,0.126269 -0.282843,0.212132 -0.474772,0.545482 -0.757614,0.757614 -0.07529,0.05647 -0.168359,0.08418 -0.252538,0.126269 -0.168359,0.126269 -0.343406,0.244082 -0.505077,0.378808 -0.18291,0.152424 -0.306969,0.373004 -0.505076,0.505076 -0.156618,0.104411 -0.348459,0.148126 -0.505076,0.252538 -0.09905,0.06604 -0.153485,0.186502 -0.252538,0.252538 -0.156618,0.104412 -0.348459,0.148127 -0.505077,0.252538 -0.09905,0.06604 -0.161083,0.176326 -0.252538,0.252538 -0.161671,0.134726 -0.343405,0.244082 -0.505076,0.378808 -0.09145,0.07621 -0.155665,0.183343 -0.252538,0.252538 -0.199709,0.142649 -0.423227,0.248733 -0.631346,0.378807 -0.235711,0.147319 -0.698665,0.469279 -0.883883,0.631345 -0.179185,0.156787 -0.3146,0.362219 -0.505076,0.505077 -0.150585,0.112938 -0.354492,0.139599 -0.505077,0.252538 -0.282842,0.212132 -0.474771,0.545482 -0.757614,0.757614 -0.24281,0.182108 -0.514804,0.322969 -0.757614,0.505076 -0.09524,0.07143 -0.1573,0.18111 -0.252539,0.252538 -0.24281,0.182108 -0.505076,0.336718 -0.757614,0.505077 -0.252538,0.168359 -0.497354,0.34892 -0.757614,0.505076 -0.161407,0.09684 -0.354492,0.1396 -0.505077,0.252538 -0.190476,0.142857 -0.3146,0.362219 -0.505076,0.505076 -0.150585,0.112939 -0.354492,0.1396 -0.505076,0.252539 -0.282843,0.212132 -0.474772,0.545482 -0.757615,0.757614 -0.24281,0.182108 -0.52061,0.315473 -0.757614,0.505076 -0.185921,0.148737 -0.336718,0.336718 -0.505076,0.505077 -0.08418,0.08418 -0.1573,0.181109 -0.252538,0.252538 -1.142224,0.856668 -0.430994,0.178456 -1.010153,0.757614 -0.168359,0.168359 -0.336718,0.336718 -0.505076,0.505076 -0.08418,0.08418 -0.155011,0.184269 -0.252538,0.252538 -0.325296,0.227707 -0.679768,0.411089 -1.010153,0.631346 -1.009646,0.673097 -0.124714,0.103928 -0.757614,0.631345 -0.161671,0.134726 -0.343406,0.244082 -0.505077,0.378807 -0.773213,0.773213 0.212959,-0.159719 -0.505076,0.378808 -0.768,0.576 0.262924,-0.07092 -0.505076,0.505076 -0.07529,0.05647 -0.177246,0.0698 -0.252538,0.126269 -0.09524,0.07143 -0.1573,0.181109 -0.252538,0.252538 -0.07529,0.05647 -0.185989,0.05972 -0.252539,0.126269 -0.02976,0.02976 0.02976,0.09651 0,0.126269 -0.290184,0.290185 -0.252538,0.155497 -0.252538,0"
       id="path5060"
       inkscape:connector-curvature="0" />
    <path
       style="fill:none;fill-rule:evenodd;stroke:#000000;stroke-width:1px;stroke-linecap:butt;stroke-linejoin:miter;stroke-opacity:1"
       d="m 9.9752564,70.579307 c 0.4208966,0 0.8417936,0 1.2626906,0 0.08418,0 0.170872,0.02042 0.252538,0 0.655661,-0.163915 -0.134798,-0.126269 0.505076,-0.126269 0.505077,0 1.010153,0 1.515229,0 0.131311,0 0.658289,0.02483 0.757615,0 0.09131,-0.02283 0.161233,-0.103443 0.252538,-0.126269 0.09932,-0.02483 0.626304,0 0.757614,0 0.547166,0 1.094332,0 1.641498,0 0.799704,0 1.599408,0 2.399112,0 0.08418,0 0.168359,0 0.252539,0 0.08418,0 0.252538,-0.08418 0.252538,0 0,0.08418 -0.168359,0 -0.252538,0"
       id="path5062"
       inkscape:connector-curvature="0" />
    <path
       style="fill:none;fill-rule:evenodd;stroke:#000000;stroke-width:1px;stroke-linecap:butt;stroke-linejoin:miter;stroke-opacity:1"
       d="m 11.490485,67.296311 c 0.930457,-0.141077 1.847103,-0.126269 2.77792,-0.126269 0.883883,0 1.767767,0 2.65165,0 0.126269,0 0.252538,0 0.378807,0 0.168359,0 0.339009,-0.02768 0.505077,0 0.09284,0.01547 0.159703,0.110797 0.252538,0.126269 0.631117,0.105187 0.379035,-0.105186 1.010152,0 0.09284,0.01547 0.168359,0.08418 0.252538,0.126269 0.168359,0 0.336718,0 0.505077,0 0.933094,0 -0.478415,-0.03765 0.505076,0.126269 0.249102,0.04152 0.505076,0 0.757614,0 0.08418,0 0.168359,0 0.252539,0 0.08418,0 0.177245,0.03765 0.252538,0 0.03765,-0.01882 0.02976,-0.09651 0,-0.126269 -0.06655,-0.06655 -0.168359,-0.08418 -0.252538,-0.126269"
       id="path5064"
       inkscape:connector-curvature="0" />
    <path
       style="fill:none;fill-rule:evenodd;stroke:#000000;stroke-width:1px;stroke-linecap:butt;stroke-linejoin:miter;stroke-opacity:1"
       d="m 13.258252,63.760777 c 1.344331,0.154094 2.692312,0.126269 4.04061,0.126269 1.013131,0 2.036862,0.03963 3.030458,0.252539 0.339376,0.07272 0.667794,0.195478 1.010153,0.252538 0.166068,0.02768 0.339008,-0.02768 0.505076,0 0.09284,0.01547 0.168359,0.08418 0.252538,0.126269 0.252538,0.04209 0.502863,0.100794 0.757614,0.126269 0.167524,0.01675 0.339009,-0.02768 0.505077,0 0.983491,0.163915 -0.428019,0.126269 0.505076,0.126269 0.757614,0 1.515229,0 2.272843,0 0.333333,0 0.171743,0 0.505076,0 0.08418,0 0.252539,-0.08418 0.252539,0 0,0.08418 -0.168359,0 -0.252539,0"
       id="path5066"
       inkscape:connector-curvature="0" />
    <path
       style="fill:none;fill-rule:evenodd;stroke:#000000;stroke-width:1px;stroke-linecap:butt;stroke-linejoin:miter;stroke-opacity:1"
       d="m 20.834396,70.705576 c -0.17731,0.709241 -0.126269,0.331536 -0.126269,1.136422 0,0.168359 0.05911,0.347437 0,0.505076 -0.07389,0.197049 -0.284692,0.316845 -0.378807,0.505076 -0.7272,1.454401 0.0701,0.09839 -0.252538,1.38896 -0.03681,0.147226 -0.190904,0.24013 -0.252538,0.378807 -0.108114,0.243256 -0.161567,0.507443 -0.252538,0.757615 -0.58258,1.602092 0.05643,-0.112857 -0.505077,1.010152 -0.101365,0.202731 -0.151172,0.428615 -0.252538,0.631346 -0.06787,0.135735 -0.204548,0.234838 -0.252538,0.378807 -0.160866,0.482599 0.305699,0.505076 -0.252538,0.505076"
       id="path5068"
       inkscape:connector-curvature="0" />
    <path
       style="fill:none;fill-rule:evenodd;stroke:#000000;stroke-width:1px;stroke-linecap:butt;stroke-linejoin:miter;stroke-opacity:1"
       d="m 22.854701,68.432733 c 0.08418,0.210448 0.19027,0.413406 0.252539,0.631345 0.02385,0.08349 0,0.937929 0,1.010153 0,0.978669 0.0119,-0.756346 -0.252539,2.020305 -0.02793,0.293301 0,0.589256 0,0.883883 0,0.673435 0,1.34687 0,2.020305 0,0.547166 0,1.094332 0,1.641498 0,0.168359 0,0.336718 0,0.505077 0,0.04209 0.04209,0.126269 0,0.126269 -0.04209,0 0,-0.08418 0,-0.126269"
       id="path5070"
       inkscape:connector-curvature="0" />
    <path
       style="fill:none;fill-rule:evenodd;stroke:#000000;stroke-width:1px;stroke-linecap:butt;stroke-linejoin:miter;stroke-opacity:1"
       d="m 27.652926,65.528544 c 0,2.169372 -0.14881,-0.320159 0.252538,0.883884 0.05324,0.159719 0,0.336717 0,0.505076 0,0.168359 0.04625,0.343195 0,0.505076 -0.04169,0.145918 -0.210847,0.23289 -0.252538,0.378808 -0.04625,0.161881 0,0.336717 0,0.505076 0,0.673435 0,1.34687 0,2.020305 0,0.252538 0.04152,0.508512 0,0.757614 -0.04376,0.262577 -0.208775,0.495038 -0.252538,0.757615 -0.04152,0.249102 0,0.505076 0,0.757614 0,0.210449 0,0.420897 0,0.631346 0,0.968062 0,1.936125 0,2.904188"
       id="path5072"
       inkscape:connector-curvature="0" />
    <path
       style="fill:none;fill-rule:evenodd;stroke:#000000;stroke-width:1px;stroke-linecap:butt;stroke-linejoin:miter;stroke-opacity:1"
       d="m 21.844549,11.737921 c 0.789913,0.302517 1.495813,0.803409 2.272843,1.136422 0.122338,0.05243 0.25976,0.06675 0.378807,0.126269 0.126269,0.08418 0.252538,0.168359 0.378807,0.252538 0,0.04209 -0.02976,0.09651 0,0.126269 0.06655,0.06655 0.185989,0.05972 0.252539,0.126269 0.107308,0.107308 0.14523,0.271499 0.252538,0.378807 0.06655,0.06655 0.168358,0.08418 0.252538,0.126269 0.168359,0.08418 0.348459,0.148127 0.505076,0.252539 0.09905,0.06603 0.1573,0.181109 0.252538,0.252538 0.07529,0.05647 0.168359,0.08418 0.252538,0.126269 0.168359,0.126269 0.343406,0.244081 0.505077,0.378807 0.09146,0.07621 0.153484,0.186502 0.252538,0.252538 1.258322,0.838881 -0.149394,-0.269882 0.883883,0.505076 0.252538,0.189404 0,0.126269 0.378808,0.378808 0.156617,0.104411 0.348458,0.148126 0.505076,0.252538 0.09905,0.06603 0.146059,0.199298 0.252538,0.252538 0.155219,0.07761 0.366244,0.02215 0.505076,0.126269 0.06734,0.05051 -0.04669,0.182497 0,0.252538 0.05221,0.07831 0.17423,0.07406 0.252538,0.126269 0.175104,0.116736 0.329973,0.262072 0.505077,0.378807 0.07831,0.05221 0.168358,0.08418 0.252538,0.126269 0.319247,0.159624 0.872171,0.419945 1.136421,0.631346 0.03287,0.02629 -0.01882,0.08862 0,0.126269 0.02662,0.05324 0.07979,0.08909 0.126269,0.126269 0.164333,0.131466 0.326617,0.26727 0.505077,0.378807 0.159619,0.09976 0.371977,0.119439 0.505076,0.252538 0.05952,0.05952 -0.04669,0.182497 0,0.252538 0.05221,0.07831 0.168359,0.08418 0.252538,0.126269 0.168359,0.08418 0.360473,0.132036 0.505076,0.252539 0.116583,0.09715 0.135956,0.281655 0.252539,0.378807 0.144602,0.120502 0.348458,0.148126 0.505076,0.252538 1.169335,0.779557 -1.200323,-0.487476 0.757614,0.631345 0.115563,0.06604 0.272328,0.04641 0.378807,0.126269 0.07529,0.05647 0.08418,0.168359 0.126269,0.252538 0.08418,0.08418 0.151586,0.189443 0.252539,0.252539 0.239429,0.149643 0.518185,0.229164 0.757614,0.378807 0.100952,0.0631 0.1573,0.181109 0.252538,0.252538 0.07529,0.05647 0.177246,0.0698 0.252538,0.126269 0.190476,0.142857 0.306969,0.373005 0.505077,0.505076 0.156617,0.104412 0.348458,0.148127 0.505076,0.252538 0.09905,0.06604 0.1573,0.18111 0.252538,0.252539 0.07529,0.05647 0.177246,0.0698 0.252538,0.126269 0.09524,0.07143 0.153485,0.186502 0.252538,0.252538 0.156618,0.104411 0.348459,0.148126 0.505077,0.252538 0.374864,0.24991 0.167357,0.293626 0.505076,0.631345 0.06655,0.06655 0.185988,0.05972 0.252538,0.126269 0.107308,0.107308 0.135955,0.281655 0.252538,0.378808 0.144603,0.120502 0.354492,0.139599 0.505076,0.252538 0.03367,0.02525 -0.02976,0.09651 0,0.126269 0.49114,0.491139 0.418026,0.206859 0.757615,0.631345 0.0948,0.118502 0.14523,0.271499 0.252538,0.378807 1.333292,1.333292 -0.01987,-0.116913 0.757614,0.505077 0.139441,0.111552 0.252538,0.252538 0.378808,0.378807 0.126269,0.126269 0.264488,0.241625 0.378807,0.378807 0.09715,0.116583 0.157736,0.260305 0.252538,0.378807 0.07437,0.09296 0.161083,0.176326 0.252538,0.252538 0.161671,0.134726 0.37361,0.214475 0.505076,0.378808 0.05259,0.06573 -0.04669,0.182496 0,0.252538 0.05221,0.07831 0.177246,0.0698 0.252538,0.126269 0.09524,0.07143 0.161084,0.176325 0.252539,0.252538 0.161671,0.134726 0.356266,0.229998 0.505076,0.378807 0.534347,-0.200915 0.180854,0.39755 0.252538,0.505076 0.06604,0.09905 0.17817,0.159578 0.252538,0.252538 0.0948,0.118502 0.137316,0.280046 0.252538,0.378808 0.186339,0.159719 0.457805,0.205267 0.631346,0.378807 0.05952,0.05952 -0.02662,0.172678 0,0.252538 0.01882,0.05647 0.09055,0.07865 0.126269,0.126269 0.09105,0.121405 0.153776,0.263585 0.252538,0.378807 0.15495,0.180776 0.350126,0.324301 0.505076,0.505077 0.09876,0.115222 0.153776,0.263585 0.252538,0.378807 0.154951,0.180775 0.362219,0.3146 0.505076,0.505076 0.112939,0.150585 0.13004,0.362161 0.252539,0.505076 0.136958,0.159785 0.368118,0.219023 0.505076,0.378808 0.122499,0.142915 0.148126,0.348458 0.252538,0.505076 0.06604,0.09905 0.168359,0.168359 0.252538,0.252538 0.457154,0.457154 0.536107,0.488488 0.883884,1.010152 0.126269,0.210449 0.252538,0.420897 0.378807,0.631346 0,0.08418 -0.03765,0.177246 0,0.252538 0.05324,0.106479 0.175063,0.16215 0.252538,0.252538 0.175392,0.204624 0.355581,0.407103 0.505076,0.631345 0.104412,0.156618 0.176091,0.333069 0.252538,0.505077 0.09206,0.207124 0.12681,0.442753 0.252539,0.631345 0.06934,0.104006 0.653608,0.601605 0.757614,0.757614 0.208823,0.313235 0.279199,0.708984 0.505076,1.010153 0.142857,0.190476 0.336718,0.336718 0.505076,0.505076 0.12627,0.126269 0.290211,0.223764 0.378808,0.378807 0.0861,0.150676 0.04199,0.353375 0.126269,0.505077 0.130883,0.23559 0.355581,0.407103 0.505076,0.631345 0.725522,1.088283 -0.369691,-0.131797 0.757614,1.136422 0.158182,0.177954 0.373005,0.306969 0.505077,0.505076 0.125728,0.188592 0.140083,0.434549 0.252538,0.631345 0.05906,0.103363 0.168359,0.168359 0.252538,0.252538 0.168359,0.168359 0.362219,0.314601 0.505076,0.505077 0.112939,0.150584 0.136976,0.356496 0.252538,0.505076 0.182721,0.234926 0.478222,0.376139 0.631346,0.631345 0.110419,0.184032 0.04173,0.434082 0.126269,0.631346 0.04689,0.109422 0.193474,0.149176 0.252538,0.252538 0.22491,0.393592 0.271845,0.873972 0.505076,1.262691 0.13866,0.231099 0.366417,0.400246 0.505076,0.631345 0.0052,0.0087 0.496391,1.24532 0.505077,1.262691 0.06787,0.135735 0.190904,0.24013 0.252538,0.378807 0.471456,1.060776 0.0283,0.435412 0.505076,1.388959 0.151757,0.303514 0.362874,0.575779 0.505076,0.883884 0.111553,0.241697 0.123261,0.524915 0.252539,0.757614 0.08672,0.1561 0.326291,0.208133 0.378807,0.378808 0.124397,0.40429 0.03115,0.850527 0.126269,1.26269 0.03412,0.147871 0.196177,0.237905 0.252538,0.378807 0.113801,0.284502 0.168359,0.589256 0.252538,0.883884 0.251701,0.880954 0.287173,0.967946 0.505076,1.894036 0.08888,0.377732 0.138419,0.765534 0.252539,1.136422 0.05536,0.179907 0.168358,0.336717 0.252538,0.505076 0,0.336717 -0.05536,0.678016 0,1.010152 0.03095,0.18567 0.168358,0.336718 0.252538,0.505077 0.08418,0.336717 0.209488,0.665752 0.252538,1.010152 0.04176,0.334118 -0.06023,0.678867 0,1.010153 0.02715,0.149308 0.210847,0.232889 0.252538,0.378807 0.04625,0.161881 -0.04083,0.341744 0,0.505076 0.449919,1.799677 0.129143,-1.49224 0.505076,1.515229 0.04176,0.334117 -0.05536,0.678017 0,1.010153 0.03095,0.185669 0.206886,0.322465 0.252538,0.505076 0.04083,0.163332 -0.04083,0.341744 0,0.505076 0.04565,0.182611 0.221594,0.319407 0.252539,0.505076 0.05536,0.332137 -0.07572,0.682058 0,1.010153 0.05518,0.239138 0.301197,0.398517 0.378807,0.631345 0.0056,0.01683 -0.0054,0.961303 0,1.010153 0.0237,0.213303 0.109809,0.417361 0.126269,0.631345 0.02582,0.335726 -0.05536,0.678017 0,1.010153 0.03094,0.18567 0.221593,0.319406 0.252538,0.505076 0.05536,0.332136 0,0.673435 0,1.010153 0,0.168358 -0.04083,0.341744 0,0.505076 0.04565,0.182611 0.221593,0.319406 0.252538,0.505076 0.05536,0.332136 0,0.673435 0,1.010153 0,0.168358 -0.04083,0.341744 0,0.505076 0.04565,0.182611 0.218867,0.319882 0.252538,0.505076 0.05271,0.289876 0,0.589256 0,0.883884 0,0.168358 0,0.336717 0,0.505076 0,0.126269 -0.03469,0.257396 0,0.378807 0.05171,0.180989 0.206886,0.322466 0.252538,0.505076 0.04083,0.163332 0,0.336718 0,0.505077 0,0.462986 0,0.925973 0,1.388959 0,1.133138 -0.07529,-0.137254 0.252539,1.010153 0.03469,0.121411 0,0.252538 0,0.378807 0,0.168359 0,0.336718 0,0.505077 0,0.420896 0,0.841793 0,1.26269 0,1.43105 0,2.862099 0,4.293149 0,0.462986 0,0.925973 0,1.388959 0,0.168359 0,0.336718 0,0.505077 0,0.04209 0,0.08418 0,0.126269 0,0.04209 0.04209,0.126269 0,0.126269 -0.04209,0 0,-0.08418 0,-0.126269 0,-0.08418 0,-0.168359 0,-0.252539 0,-0.210448 0,-0.420896 0,-0.631345"
       id="path5074"
       inkscape:connector-curvature="0" />
    <path
       style="fill:none;fill-rule:evenodd;stroke:#000000;stroke-width:1px;stroke-linecap:butt;stroke-linejoin:miter;stroke-opacity:1"
       d="m 22.349625,12.369267 c 0,1.220601 0,2.441202 0,3.661803 0,0.252538 0,0.505076 0,0.757614 0,0.126269 0.03993,0.259018 0,0.378807 -0.04799,0.143969 -0.204548,0.234838 -0.252538,0.378807 -0.03993,0.11979 0,0.252538 0,0.378808 0,0.168358 0.04083,0.341744 0,0.505076 -0.04565,0.182611 -0.218866,0.319881 -0.252538,0.505076 -0.0527,0.289876 0.0527,0.594008 0,0.883884 -0.03367,0.185194 -0.206886,0.322465 -0.252538,0.505076 -0.08167,0.326664 0.08167,0.683488 0,1.010152 -0.04565,0.182611 -0.200827,0.324088 -0.252538,0.505077 -0.03469,0.12141 0,0.252538 0,0.378807 0,0.168359 0,0.336717 0,0.505076 0,0.589256 0,1.178511 0,1.767767 0,0.168359 0,0.336718 0,0.505076 0,0.126269 0.03469,0.257397 0,0.378808 -0.05171,0.180988 -0.200828,0.324087 -0.252539,0.505076 -0.03469,0.121411 0,0.252538 0,0.378807 0,0.294628 0,0.589256 0,0.883884 0,0.883883 0,1.767767 0,2.65165 0,1.557318 0,3.114637 0,4.671956 0,0.505076 0,1.010152 0,1.515228 0,0.168359 0,0.336718 0,0.505077 0,0.168358 0.04083,0.341744 0,0.505076 -0.04565,0.182611 -0.221593,0.319406 -0.252538,0.505076 -0.05536,0.332136 0,0.673435 0,1.010153 0,0.168358 0,0.336717 0,0.505076 0,0.505076 0,1.010153 0,1.515229 0,0.126269 0.01786,0.253807 0,0.378807 -0.02454,0.171796 -0.110557,0.332249 -0.126269,0.505076 -0.02667,0.293418 0,0.589256 0,0.883884 0,0.631345 0,1.26269 0,1.894036 0,0.168359 0,0.336717 0,0.505076 0,0.126269 0.04974,0.262748 0,0.378807 -0.0829,0.193433 -0.295907,0.311644 -0.378807,0.505077 -0.04974,0.116059 0,0.252538 0,0.378807 0,0.294628 0,0.589255 0,0.883883 0,0.841794 0,1.683588 0,2.525382 0,0.126269 0,0.252538 0,0.378807 0,0.126269 0.03993,0.259018 0,0.378807 -0.04799,0.143969 -0.204548,0.234838 -0.252538,0.378807 -0.03993,0.11979 0,0.252538 0,0.378807 0,0.378808 0,0.757615 0,1.136422 0,0.168359 0.03652,0.340727 0,0.505076 -0.04917,0.221263 -0.211992,0.408342 -0.252538,0.631346 -0.04518,0.248464 0,0.505076 0,0.757614 0,0.126269 0,0.252538 0,0.378807 0,0.210449 0.05104,0.427181 0,0.631346 -0.03681,0.147225 -0.215732,0.231581 -0.252538,0.378807 -0.05104,0.204165 0,0.420897 0,0.631345 0,0.378807 0,0.757615 0,1.136422 0,0.08418 0,0.168359 0,0.252538 0,0.126269 0.0469,0.261569 0,0.378807 -0.04421,0.110533 -0.214892,0.1396 -0.252539,0.252538 -0.05324,0.159719 0,0.336718 0,0.505077 0,0.547165 0,1.094331 0,1.641497 0,0.336718 0,0.673435 0,1.010153 0,0.08418 0,0.168359 0,0.252538 0,0.08418 -0.03765,0.177246 0,0.252538 0.05324,0.10648 0.214892,0.1396 0.252539,0.252538 0.05324,0.159719 0,0.336718 0,0.505077 0,0.252538 0,0.505076 0,0.757614 0,0.925973 0,1.851946 0,2.77792 0,1.725677 0,3.451354 0,5.177031 0,0.462987 0,0.925974 0,1.38896 0,0.168359 0,0.336718 0,0.505076 0,0.04209 0,0.08418 0,0.126269 0,0.04209 0.04209,0.12627 0,0.12627 -0.04209,0 0,-0.08418 0,-0.12627 0,-0.168358 0,-0.336717 0,-0.505076"
       id="path5076"
       inkscape:connector-curvature="0" />
    <path
       style="fill:none;fill-rule:evenodd;stroke:#000000;stroke-width:1px;stroke-linecap:butt;stroke-linejoin:miter;stroke-opacity:1"
       d="m 19.824244,71.968267 c 0.168358,0.08418 0.341646,0.159149 0.505076,0.252538 0.279255,-0.01233 0.329973,0.262071 0.505076,0.378807 0.07831,0.05221 0.168359,0.08418 0.252538,0.126269 0.168359,0.08418 0.336718,0.168359 0.505077,0.252538 0.420897,0.210449 0.841793,0.420897 1.26269,0.631346 0.08418,0.04209 0.17423,0.07406 0.252539,0.126269 0.175103,0.116736 0.329972,0.262071 0.505076,0.378807 0.07831,0.05221 0.168359,0.08418 0.252538,0.126269 0.252538,0.126269 0.515504,0.233541 0.757614,0.378807 0.180458,0.108275 0.326617,0.26727 0.505077,0.378807 0.159619,0.09976 0.336717,0.168359 0.505076,0.252539 0.420897,0.210448 0.841794,0.420896 1.262691,0.631345 0.08418,0.04209 0.174229,0.07406 0.252538,0.126269 0.175103,0.116736 0.329972,0.262071 0.505076,0.378807 0.263353,0.175569 0.8061,0.293785 1.010153,0.378807 0.260627,0.108595 0.518185,0.229164 0.757614,0.378808 0.100952,0.0631 0.151586,0.189443 0.252538,0.252538 0.239429,0.149643 0.51373,0.236541 0.757614,0.378807 0.262169,0.152931 0.499125,0.346006 0.757615,0.505076 0.289,0.177846 0.601537,0.316846 0.883883,0.505077 0.224243,0.149494 0.407104,0.355581 0.631346,0.505076 0.156617,0.104411 0.343669,0.155694 0.505076,0.252538 0.520521,0.312312 0.994708,0.69784 1.515229,1.010152 0.161406,0.09684 0.343669,0.155695 0.505076,0.252539 0.26026,0.156156 0.494091,0.354491 0.757614,0.505076 0.326861,0.186777 0.68734,0.311388 1.010153,0.505076 0.102083,0.06125 0.150456,0.191289 0.252538,0.252538 0.322813,0.193688 0.683292,0.318299 1.010153,0.505077 0.263523,0.150584 0.486144,0.369341 0.757614,0.505076 0.321649,0.160824 0.688504,0.217983 1.010153,0.378807 0.106479,0.05324 0.150455,0.191289 0.252538,0.252538 0.322813,0.193688 0.673435,0.336718 1.010152,0.505076 0.420897,0.210449 0.835426,0.434147 1.262691,0.631346 0.291042,0.134327 0.597179,0.235455 0.883884,0.378807 0.135735,0.06787 0.246148,0.178839 0.378807,0.252538 0.246815,0.13712 0.513729,0.236541 0.757614,0.378807 0.262168,0.152932 0.486144,0.369341 0.757615,0.505077 1.141502,0.570751 0.356428,0.0163 1.26269,0.378807 0.262152,0.104861 0.505077,0.252538 0.757615,0.378807 0.336717,0.08418 0.680883,0.142782 1.010152,0.252538 0.178572,0.05952 0.326505,0.193014 0.505076,0.252538 0.32927,0.109757 0.683293,0.135803 1.010153,0.252538 0.265897,0.09496 0.505076,0.252539 0.757614,0.378808 0.168359,0.08418 0.326505,0.193014 0.505077,0.252538 0.329269,0.109756 0.678871,0.149012 1.010152,0.252538 0.343245,0.107264 0.666908,0.271543 1.010153,0.378807 0.331281,0.103526 0.67196,0.174494 1.010152,0.252538 0.20912,0.04826 0.427743,0.0584 0.631346,0.126269 0.304096,0.101366 0.584703,0.263738 0.883883,0.378808 0.248455,0.09556 0.510455,0.153674 0.757615,0.252538 0.174767,0.06991 0.326504,0.193014 0.505076,0.252538 0.329269,0.109756 0.678871,0.149013 1.010152,0.252538 0.68649,0.214528 1.333816,0.543086 2.020305,0.757614 0.496923,0.155288 1.021325,0.214173 1.515229,0.378808 0.877016,0.292338 0.952047,0.398282 1.767767,0.631345 0.333726,0.09535 0.673435,0.168359 1.010153,0.252538 0.168359,0.04209 0.343948,0.06182 0.505076,0.126269 0.262152,0.104861 0.496987,0.270213 0.757614,0.378807 0.245722,0.102384 0.510456,0.153675 0.757615,0.252538 0.174768,0.06991 0.324784,0.198451 0.505076,0.252539 0.245224,0.07357 0.509237,0.06417 0.757615,0.126269 0.09131,0.02283 0.168358,0.08418 0.252538,0.126269 0.168358,0.08418 0.32883,0.186446 0.505076,0.252538 0.162491,0.06093 0.342585,0.06533 0.505076,0.126269 1.010153,0.378807 0.126269,0.126269 0.757615,0.378807 0.123579,0.04943 0.259759,0.06675 0.378807,0.126269 0.05324,0.02662 0.0698,0.107446 0.126269,0.126269 0.197593,0.06587 0.505076,-0.105703 0.505076,0 0,0.08418 -0.177246,0.03765 -0.252538,0 -0.07529,-0.03765 0.05952,-0.193014 0,-0.252538 -0.32783,-0.32783 -0.252538,0.114457 -0.252538,-0.378807"
       id="path5078"
       inkscape:connector-curvature="0" />
    <path
       style="fill:none;fill-rule:evenodd;stroke:#000000;stroke-width:1px;stroke-linecap:butt;stroke-linejoin:miter;stroke-opacity:1"
       d="m 22.854701,11.86419 c -0.08418,-0.168358 -0.119438,-0.371977 -0.252538,-0.505076 -0.05952,-0.05952 -0.177246,0.03765 -0.252538,0 -0.07529,-0.03765 0.05952,-0.193014 0,-0.252538 -0.06655,-0.06655 -0.185988,-0.05972 -0.252538,-0.126269 -0.05952,-0.05952 0.05952,-0.193015 0,-0.252538 -0.06655,-0.06655 -0.185989,-0.05972 -0.252538,-0.126269 -0.05952,-0.05952 0.05952,-0.193015 0,-0.252539 -0.06655,-0.06655 -0.185989,-0.05972 -0.252538,-0.126269 -0.02976,-0.02976 0,-0.08418 0,-0.126269 0,-0.05954 -0.0057,-0.6256223 0,-0.631345 0.06655,-0.06655 0.185988,-0.059719 0.252538,-0.1262691 0.06313,-0.063135 -0.06313,-0.3156727 0,-0.3788072 0.06655,-0.06655 0.185988,-0.059719 0.252538,-0.1262691 0.05952,-0.059524 -0.05952,-0.1930143 0,-0.2525381 0.06655,-0.06655 0.185988,-0.059719 0.252538,-0.1262691 0.02976,-0.029762 -0.03765,-0.107446 0,-0.126269 0.07529,-0.037646 0.177246,0.037646 0.252538,0 0.03765,-0.018823 -0.03765,-0.107446 0,-0.1262691 0.03642,-0.018212 0.676913,0 0.757615,0 0.0807,0 0.72119,-0.018212 0.757614,0 0.03765,0.018823 -0.03993,0.1129591 0,0.1262691 0.134175,0.044725 0.370901,-0.044725 0.505076,0 0.07216,0.024053 0.717538,0.3387309 0.757615,0.3788072 0.02976,0.029762 -0.02976,0.096507 0,0.126269 0.06655,0.06655 0.185988,0.059719 0.252538,0.1262691 0.02976,0.029762 -0.02976,0.096507 0,0.1262691 0.133099,0.1330993 0.371977,0.1194388 0.505076,0.2525381 0.02976,0.029762 -0.02976,0.096507 0,0.1262691 0.06655,0.06655 0.168359,0.084179 0.252538,0.126269 0.168359,0.084179 0.336718,0.1683588 0.505077,0.2525382 0.08418,0.04209 0.177245,0.0698 0.252538,0.1262691 0.09524,0.071429 0.1573,0.1811097 0.252538,0.2525377 0.07529,0.05647 0.168359,0.08418 0.252538,0.126269 0.08418,0.04209 0.165154,0.09132 0.252538,0.12627 0.12358,0.04943 0.272328,0.04641 0.378807,0.126269 0.07529,0.05647 0.05972,0.185988 0.126269,0.252538 0.1331,0.133099 0.371977,0.119439 0.505077,0.252538 0.02976,0.02976 -0.02976,0.09651 0,0.126269 0.02486,0.02486 0.71254,0.367539 0.757614,0.378807 0.08167,0.02042 0.177246,-0.03765 0.252538,0 0,0.284106 -0.04209,-0.02104 0.252538,0.126269 0.03765,0.01882 -0.03765,0.107446 0,0.126269 0.07529,0.03765 0.170872,-0.02042 0.252538,0 0.09131,0.02283 0.168359,0.08418 0.252539,0.126269 0.168358,0.08418 0.336717,0.168359 0.505076,0.252538 0.08418,0.04209 0.162044,0.100414 0.252538,0.12627 0.206359,0.05896 0.432079,0.04656 0.631345,0.126269 0.03908,0.01563 -0.01882,0.08862 0,0.126269 0.02662,0.05324 0.07674,0.09325 0.126269,0.126269 0.07831,0.05221 0.168359,0.08418 0.252539,0.126269 0.168358,0.08418 0.336717,0.168359 0.505076,0.252538 0.08418,0.04209 0.177246,0.0698 0.252538,0.126269 0.49982,0.374865 0.0081,0.134339 0.505076,0.631345 0.06655,0.06655 0.168359,0.08418 0.252538,0.126269 0.168359,0.08418 0.348459,0.148127 0.505077,0.252539 0.09905,0.06603 0.1573,0.181109 0.252538,0.252538 0.07529,0.05647 0.177246,0.0698 0.252538,0.126269 0.09524,0.07143 0.149176,0.193474 0.252538,0.252538 0.196796,0.112455 0.436986,0.135922 0.631345,0.252538 0.03609,0.02166 -0.01882,0.08862 0,0.126269 0.02662,0.05324 0.08418,0.08418 0.126269,0.126269 0.08418,0.08418 0.157301,0.18111 0.252539,0.252538 0.07529,0.05647 0.177245,0.0698 0.252538,0.126269 0.09524,0.07143 0.161083,0.176326 0.252538,0.252539 0.161671,0.134725 0.343405,0.244081 0.505076,0.378807 0.09145,0.07621 0.1573,0.181109 0.252538,0.252538 0.07529,0.05647 0.177246,0.0698 0.252538,0.126269 0.09524,0.07143 0.168359,0.168359 0.252539,0.252538 0.08418,0.126269 0.135955,0.281655 0.252538,0.378807 0.144603,0.120503 0.348458,0.148127 0.505076,0.252538 0.817839,0.545226 -0.1051,-0.03138 0.252538,0.505077 0.05221,0.07831 0.179046,0.06747 0.252538,0.126269 0.139441,0.111552 0.252538,0.252538 0.378807,0.378807 0.04209,0.04209 0.09055,0.07865 0.12627,0.126269 0.892732,1.19031 -0.594774,-0.594774 0.757614,0.757614 0.107308,0.107309 0.157737,0.260306 0.252538,0.378808 0.228457,0.285571 0.462931,0.385775 0.757614,0.631345 0.74973,0.624775 -0.310503,-0.184234 0.505077,0.631345 0.811738,0.811738 0.213374,0.116333 0.757614,0.505077 2.005081,1.4322 -0.377054,-0.225882 1.010153,0.883883 0.777486,0.621989 -0.575678,-0.828215 0.757614,0.505076 0.02976,0.02976 -0.02976,0.09651 0,0.126269 0.06655,0.06655 0.17423,0.07406 0.252538,0.12627 0.175104,0.116735 0.356267,0.229997 0.505077,0.378807 0.02976,0.02976 -0.02335,0.09125 0,0.126269 0.06603,0.09905 0.168358,0.168359 0.252538,0.252538 0.08418,0.08418 0.1573,0.181109 0.252538,0.252538 0.07529,0.05647 0.185988,0.05972 0.252538,0.126269 0.214616,0.214616 0.29046,0.542998 0.505076,0.757615 0.06655,0.06655 0.171835,0.07785 0.252538,0.126269 0.130131,0.07808 0.271499,0.14523 0.378808,0.252538 0.06655,0.06655 0.07785,0.171835 0.126269,0.252538 0.07808,0.13013 0.18467,0.243072 0.252538,0.378807 0.01882,0.03765 -0.02976,0.09651 0,0.126269 0.06655,0.06655 0.177246,0.0698 0.252538,0.126269 0.585813,-0.108047 0.14523,0.271499 0.252538,0.378807 0.06655,0.06655 0.177246,0.0698 0.252538,0.126269 0.09524,0.07143 0.168359,0.168359 0.252538,0.252539 0.08418,0.08418 0.168359,0.168358 0.252538,0.252538 0.08418,0.08418 0.168359,0.168359 0.252539,0.252538 0.08418,0.08418 0.186502,0.153484 0.252538,0.252538 0.02335,0.03502 -0.02976,0.09651 0,0.126269 0.286265,0.286265 0.278013,-0.07532 0.505076,0.378807 0.03765,0.07529 -0.04669,0.182497 0,0.252538 0.05221,0.07831 0.177246,0.0698 0.252538,0.12627 0.190476,0.142857 0.300911,0.382577 0.505076,0.505076 0.114132,0.06848 0.284692,0.03215 0.378808,0.126269 0.09412,0.09411 0.09399,0.249682 0.126269,0.378807 0.01021,0.04083 -0.02976,0.09651 0,0.126269 0.06655,0.06655 0.185988,0.05972 0.252538,0.126269 0.107308,0.107308 0.168359,0.252538 0.252538,0.378807 0.08418,0.126269 0.184671,0.243072 0.252538,0.378808 0.01882,0.03765 -0.02335,0.09125 0,0.126269 0.06604,0.09905 0.17817,0.159577 0.252538,0.252538 0.0948,0.118502 0.168359,0.252538 0.252538,0.378807 0.08418,0.126269 0.184671,0.243072 0.252539,0.378807 0.01882,0.03765 -0.02335,0.09125 0,0.126269 0.06603,0.09905 0.178169,0.159578 0.252538,0.252538 0.0948,0.118502 0.14523,0.2715 0.252538,0.378808 0.06655,0.06655 0.185988,0.05972 0.252538,0.126269 0.107308,0.107308 0.168359,0.252538 0.252538,0.378807 0.08418,0.126269 0.196177,0.237905 0.252538,0.378807 0.03126,0.07816 -0.04669,0.182497 0,0.252538 0.05221,0.07831 0.200332,0.04796 0.252538,0.126269 0.04669,0.07004 -0.04669,0.182497 0,0.252538 0.05221,0.07831 0.179047,0.06748 0.252538,0.12627 0.139441,0.111552 0.252539,0.252538 0.378808,0.378807 0.04209,0.04209 0.09055,0.07865 0.126269,0.126269 0.09105,0.121405 0.157736,0.260305 0.252538,0.378807 0.07437,0.09296 0.186502,0.153485 0.252538,0.252538 0.02335,0.03502 -0.02976,0.09651 0,0.126269 0.06655,0.06655 0.210448,0.04209 0.252538,0.126269 0.05647,0.112939 -0.05647,0.265869 0,0.378807 0.04209,0.08418 0.185989,0.05972 0.252538,0.12627 0.05952,0.05952 -0.05952,0.193014 0,0.252538 0.06655,0.06655 0.185989,0.05972 0.252538,0.126269 0.05952,0.05952 -0.05952,0.193014 0,0.252538 0.06655,0.06655 0.185989,0.05972 0.252539,0.126269 0.02976,0.02976 -0.02976,0.09651 0,0.126269 0.06655,0.06655 0.185988,0.05972 0.252538,0.126269 0.05952,0.05952 -0.05952,0.193014 0,0.252538 0.715401,0.357701 -0.09412,-0.141173 0.252538,0.378807 0.05221,0.07831 0.185988,0.05972 0.252538,0.126269 0.05952,0.05952 -0.05952,0.193015 0,0.252539 0.06655,0.06655 0.185988,0.05972 0.252538,0.126269 0.05952,0.05952 -0.05952,0.193014 0,0.252538 0.06655,0.06655 0.185989,0.05972 0.252538,0.126269 0.05952,0.05952 -0.05952,0.193014 0,0.252538 0.06655,0.06655 0.185989,0.05972 0.252538,0.126269 0.02976,0.02976 -0.02976,0.09651 0,0.126269 0.06655,0.06655 0.210449,0.04209 0.252539,0.126269 0.05647,0.112939 -0.07576,0.277792 0,0.378807 0.07986,0.10648 0.268061,0.05244 0.378807,0.12627 0.07004,0.04669 -0.03765,0.177245 0,0.252538 0.07576,0.151523 0.303045,0.227284 0.378807,0.378807 0.03765,0.07529 0,0.168359 0,0.252538 0,0.04209 -0.02976,0.09651 0,0.126269 0.487913,0.487913 0.03967,-0.42574 0.505076,0.505076 0.126269,0.252538 -0.252538,0 0,0.378808 0.05221,0.07831 0.185989,0.05972 0.252538,0.126269 0.02976,0.02976 -0.02335,0.09125 0,0.126269 0.28986,0.434789 0.275719,0.05795 0.505077,0.631345 0.03126,0.07816 0,0.168359 0,0.252538 0.08418,0.08418 0.186502,0.153485 0.252538,0.252538 0.02335,0.03502 -0.02976,0.09651 0,0.126269 0.06655,0.06655 0.185988,0.05972 0.252538,0.126269 0.652347,-0.02392 0.148126,0.348459 0.252538,0.505077 0.06604,0.09905 0.199298,0.146058 0.252538,0.252538 0.03765,0.07529 -0.04669,0.182497 0,0.252538 0.05221,0.07831 0.168359,0.08418 0.252538,0.126269 0.08418,0.126269 0.184671,0.243072 0.252538,0.378807 0.03765,0.07529 -0.05952,0.193015 0,0.252538 0.06655,0.06655 0.200333,0.04796 0.252539,0.126269 0.04669,0.07004 -0.05952,0.193015 0,0.252539 0.09412,0.09412 0.284691,0.03215 0.378807,0.126269 0.126269,0.126269 -0.06313,0.252538 0,0.378807 0.02662,0.05324 0.107446,0.0698 0.126269,0.126269 1.91e-4,5.72e-4 -1.21e-4,0.378687 0,0.378807 0.06655,0.06655 0.200332,0.04796 0.252538,0.126269 0.04669,0.07004 0,0.168359 0,0.252538 0,0.04209 -0.02976,0.09651 0,0.126269 0.06655,0.06655 0.185988,0.05972 0.252538,0.126269 0.06313,0.06313 -0.06313,0.315673 0,0.378808 0.06655,0.06655 0.200332,0.04796 0.252538,0.126269 0.04669,0.07004 0,0.168359 0,0.252538 0,0.04209 -0.02976,0.09651 0,0.126269 0.715401,0.3577 -0.09412,-0.141173 0.252538,0.378807 0.05221,0.07831 0.210449,0.04209 0.252539,0.126269 0.05647,0.112939 0,0.252538 0,0.378807 0,0.04209 -0.02976,0.09651 0,0.12627 0.06655,0.06655 0.200332,0.04796 0.252538,0.126269 0.04669,0.07004 0,0.168358 0,0.252538 0,0.04209 -0.02976,0.09651 0,0.126269 0.06655,0.06655 0.210448,0.04209 0.252538,0.126269 0.05647,0.112938 0,0.252538 0,0.378807 0,0.04209 -0.02976,0.09651 0,0.126269 0.06655,0.06655 0.185988,0.05972 0.252538,0.126269 0.01475,0.01475 -0.01049,0.489336 0,0.505076 0.05221,0.07831 0.185988,0.05972 0.252538,0.12627 0.05952,0.05952 -0.05952,0.193014 0,0.252538 0.06655,0.06655 0.210449,0.04209 0.252538,0.126269 0.05647,0.112938 0,0.252538 0,0.378807 0,0.04209 -0.02335,0.09125 0,0.126269 0.06604,0.09905 0.186503,0.153485 0.252538,0.252538 0.02335,0.03502 -0.02335,0.09125 0,0.126269 0.06604,0.09905 0.186503,0.153485 0.252538,0.252538 0.04669,0.07004 -0.04669,0.182497 0,0.252538 0.06604,0.09905 0.199299,0.146059 0.252539,0.252539 0.05267,0.105347 -0.05879,0.446283 0,0.505076 0.09412,0.09411 0.298947,0.01979 0.378807,0.126269 0.07576,0.101015 -0.02476,0.25499 0,0.378807 0.01846,0.09229 0.09651,0.163253 0.126269,0.252538 0.04209,0.126269 -0.08418,0.252538 0,0.378808 0.05221,0.07831 0.210448,0.04209 0.252538,0.126269 0.05647,0.112938 -0.0469,0.261569 0,0.378807 0.04421,0.110533 0.199298,0.146059 0.252538,0.252538 0.03765,0.07529 0,0.168359 0,0.252538 0,0.04209 -0.02335,0.09125 0,0.126269 0.06604,0.09905 0.186503,0.153485 0.252538,0.252538 0.02335,0.03502 0,0.08418 0,0.126269 0,0.08418 -0.03765,0.177246 0,0.252538 0.05324,0.10648 0.208325,0.142006 0.252538,0.252539 0.0469,0.117238 -0.04689,0.261569 0,0.378807 0.04421,0.110533 0.186503,0.153484 0.252539,0.252538 0.02335,0.03502 -0.01882,0.08862 0,0.126269 0.06787,0.135735 0.196177,0.237905 0.252538,0.378807 0.03126,0.07816 0,0.168359 0,0.252538 0,0.04209 -0.02335,0.09125 0,0.126269 0.06603,0.09905 0.199298,0.146059 0.252538,0.252539 0.04107,0.08213 -0.04272,0.567268 0,0.631345 0.06604,0.09905 0.168359,0.168359 0.252538,0.252538 0,0.168359 -0.06253,0.348759 0,0.505076 0.03495,0.08738 0.200332,0.04796 0.252538,0.126269 0.09339,0.140083 -0.07529,0.354492 0,0.505077 0.05324,0.106479 0.208325,0.142005 0.252538,0.252538 0.04689,0.117238 0,0.252538 0,0.378807 0,0.08418 -0.03765,0.177246 0,0.252538 0.05324,0.10648 0.186503,0.153485 0.252538,0.252538 0.04157,0.06236 -0.04039,0.570755 0,0.631346 0.05221,0.07831 0.217585,0.03889 0.252539,0.126269 0.01088,0.02719 0,0.740247 0,0.883883 0,0.08418 -0.04669,0.182497 0,0.252538 0.32783,0.491746 0.252538,-0.261067 0.252538,0.378808 0,0.252538 0,0.505076 0,0.757614 0,0.04209 -0.02976,0.09651 0,0.126269 0.107308,0.107308 0.271499,0.14523 0.378807,0.252538 0.02976,0.02976 0,0.08418 0,0.126269 0,0.04209 0,0.08418 0,0.126269 0,0.210449 0,0.420897 0,0.631346 0,0.08418 -0.02662,0.172678 0,0.252538 0.02976,0.08929 0.103443,0.161233 0.126269,0.252538 0.02042,0.08167 0,0.168359 0,0.252538 0,0.210448 0,0.420897 0,0.631345 0,0.252538 0,0.505077 0,0.757615 0,0.04209 -0.02976,0.09651 0,0.126269 0.06655,0.06655 0.185988,0.05972 0.252538,0.126269 0.02976,0.02976 0,0.08418 0,0.126269 0,0.04209 0,0.08418 0,0.126269 0,0.589256 0,1.178511 0,1.767767 0,0.08589 -0.01676,0.60621 0,0.631345 0.05221,0.07831 0.185989,0.05972 0.252538,0.126269 0.01014,0.01014 0,0.531958 0,0.631346 0,1.178511 0,2.357022 0,3.535534 0,0.210448 0,0.420897 0,0.631345 0,0.04209 -0.02976,0.09651 0,0.126269 0.06655,0.06655 0.200333,0.04796 0.252538,0.126269 0.04669,0.07004 0,0.168359 0,0.252538 0,0.08418 0,0.168359 0,0.252538 0,0.505077 0,1.010153 0,1.515229 0,0.04637 -0.0051,0.499995 0,0.505077 0.06655,0.06655 0.200333,0.04796 0.252538,0.126269 0.0243,0.03644 0,0.655754 0,0.757614 0,0.589256 0,1.178511 0,1.767767 0,2.188664 0,4.377328 0,6.565992 0,1.136421 0,2.272843 0,3.409264 0,0.378808 0,0.757615 0,1.136422 0,0.08418 0,0.168359 0,0.252538 0,0.04209 0.01882,0.08862 0,0.126269 -0.06787,0.135735 -0.210847,0.23289 -0.252538,0.378807 -0.04625,0.161881 0,0.336718 0,0.505077 0,0.294627 0,0.589255 0,0.883883 0,0.04209 0.02976,0.09651 0,0.126269 -0.06655,0.06655 -0.200332,0.04796 -0.252538,0.126269 -0.0086,0.01293 0,0.433204 0,0.505077 0,0.04209 0.03765,0.107446 0,0.126269 -0.07529,0.03765 -0.177246,-0.03765 -0.252538,0 -0.0135,0.0067 0.02616,0.478913 0,0.505076 -0.06655,0.06655 -0.185988,0.05972 -0.252538,0.126269 -0.08333,0.08333 0.08333,0.169205 0,0.252538 -0.02976,0.02976 -0.09651,-0.02976 -0.126269,0 -0.05952,0.05952 0.07986,0.225918 0,0.252538 -0.126269,0 -0.252538,0 -0.378807,0 0,-0.04209 0.03765,-0.107446 0,-0.126269 -0.07529,-0.03765 -0.177246,0.03765 -0.252538,0 -0.03765,-0.01882 0.02335,-0.09125 0,-0.126269 -0.06604,-0.09905 -0.186503,-0.153484 -0.252539,-0.252538 -0.03328,-0.04991 0.0232,-0.584937 0,-0.631345 -0.04209,-0.08418 -0.210448,-0.04209 -0.252538,-0.126269 -0.0077,-0.01547 0,-0.672189 0,-0.757615 0,-0.420897 0,-0.841794 0,-1.262691 0,-0.04209 0,-0.08418 0,-0.126269 0,-0.04209 -0.02976,-0.09651 0,-0.126269 0.06655,-0.06655 0.185989,-0.05972 0.252538,-0.126269 0.02976,-0.02976 0,-0.08418 0,-0.126269 0,-0.210448 0,-0.420897 0,-0.631345 0,-0.210449 0,-0.420897 0,-0.631346 0,-0.04209 0.03765,-0.107445 0,-0.126269 -0.07529,-0.03765 -0.168358,0 -0.252538,0"
       id="path5080"
       inkscape:connector-curvature="0" />
    <path
       style="fill:none;fill-rule:evenodd;stroke:#000000;stroke-width:1px;stroke-linecap:butt;stroke-linejoin:miter;stroke-opacity:1"
       d="m 20.076782,73.609765 c 0.210448,-0.126269 0.427141,-0.242671 0.631345,-0.378807 0.06902,-0.04601 0.602436,-0.587982 0.631346,-0.631346 0.02335,-0.03502 -0.02976,-0.09651 0,-0.126269 0.06655,-0.06655 0.177245,-0.0698 0.252538,-0.126269 0.585813,0.108047 0.14523,-0.271499 0.252538,-0.378807 0.06655,-0.06655 0.185988,-0.05972 0.252538,-0.126269 0.02976,-0.02976 -0.02335,-0.09125 0,-0.126269 0.06604,-0.09905 0.17817,-0.159578 0.252538,-0.252538 0.0948,-0.118502 0.14523,-0.2715 0.252538,-0.378808 0.06655,-0.06655 0.168359,-0.08418 0.252538,-0.126269 0.168359,-0.168358 0.350126,-0.324301 0.505077,-0.505076 0.263597,-0.30753 0.188357,-0.405117 0.505076,-0.631345 0.199709,-0.14265 0.435007,-0.231554 0.631345,-0.378808 0.142857,-0.107142 0.252538,-0.252538 0.378807,-0.378807 0.316451,-0.31645 0.307379,-0.331188 0.757615,-0.631345 0.07831,-0.05221 0.174229,-0.07406 0.252538,-0.126269 0.175104,-0.116736 0.336718,-0.252538 0.505076,-0.378807 0.168359,-0.126269 0.356267,-0.229998 0.505077,-0.378808 0.02976,-0.02976 -0.02976,-0.09651 0,-0.126269 0.06655,-0.06655 0.174229,-0.07406 0.252538,-0.126269 1.289351,-0.859567 -0.03351,0.0016 0.757614,-0.631345 0.118502,-0.0948 0.271499,-0.14523 0.378807,-0.252538 0.06655,-0.06655 0.05972,-0.185989 0.126269,-0.252538 0.06655,-0.06655 0.185989,-0.05972 0.252539,-0.126269 0.107308,-0.107308 0.135955,-0.281655 0.252538,-0.378808 0.757614,-0.631345 0.252538,0 0.757614,-0.378807 0.09524,-0.07143 0.1573,-0.181109 0.252538,-0.252538 0.150585,-0.112938 0.371977,-0.119439 0.505076,-0.252538 0.02976,-0.02976 -0.02976,-0.09651 0,-0.126269 0.1331,-0.133099 0.354492,-0.1396 0.505077,-0.252538 0.09524,-0.07143 0.1573,-0.18111 0.252538,-0.252538 0.07529,-0.05647 0.168359,-0.08418 0.252538,-0.126269 0.08418,-0.04209 0.165154,-0.09132 0.252538,-0.12627 0.12358,-0.04943 0.25976,-0.06674 0.378807,-0.126269 0.05324,-0.02662 0.07674,-0.09325 0.126269,-0.126269 0.07831,-0.05221 0.185989,-0.05972 0.252539,-0.126269 0.02976,-0.02976 -0.03765,-0.107446 0,-0.126269 0.07529,-0.03765 0.177245,0.03765 0.252538,0 0.03765,-0.01882 -0.02976,-0.09651 0,-0.126269 0.133099,-0.133099 0.371977,-0.119439 0.505076,-0.252538 0.02976,-0.02976 -0.03765,-0.107446 0,-0.126269 0.07529,-0.03765 0.177246,0.03765 0.252538,0 0.03765,-0.01882 -0.02976,-0.09651 0,-0.126269 0.05801,-0.05801 0.650457,-0.325228 0.757615,-0.378807 0.08418,-0.04209 0.185988,-0.05972 0.252538,-0.126269 0.02976,-0.02976 -0.03765,-0.107446 0,-0.12627 0.07529,-0.03765 0.177245,0.03765 0.252538,0 0.03765,-0.01882 -0.03765,-0.107445 0,-0.126269 0.07529,-0.03765 0.177246,0.03765 0.252538,0 0.03765,-0.01882 -0.02976,-0.09651 0,-0.126269 0.38757,-0.38757 0.10499,0.07378 0.505076,-0.126269 0.03765,-0.01882 -0.03502,-0.102922 0,-0.126269 0.110746,-0.07383 0.268062,-0.05244 0.378807,-0.126269 0.03502,-0.02335 -0.01882,-0.08862 0,-0.126269 0.02036,-0.04072 0.604616,-0.613525 0.631346,-0.631345 0.156617,-0.104412 0.336717,-0.168359 0.505076,-0.252538 0.168359,-0.08418 0.336718,-0.168359 0.505076,-0.252539 0.168359,-0.08418 0.345457,-0.152776 0.505077,-0.252538 0.17846,-0.111537 0.316845,-0.284691 0.505076,-0.378807 0.238095,-0.119047 0.505076,-0.168359 0.757614,-0.252538 0.126269,-0.04209 0.268062,-0.05244 0.378807,-0.126269 0.148581,-0.09905 0.222708,-0.292085 0.378808,-0.378807 0.232699,-0.129278 0.510455,-0.153675 0.757614,-0.252538 1.033246,-0.516623 -0.02138,-0.03496 1.010153,-0.378808 0.08928,-0.02976 0.163252,-0.09651 0.252538,-0.126269 0.164634,-0.05488 0.342585,-0.06533 0.505076,-0.126269 0.176246,-0.06609 0.324088,-0.200827 0.505076,-0.252538 0.121411,-0.03469 0.259018,0.03993 0.378808,0 0.03993,-0.01331 -0.02976,-0.09651 0,-0.126269 0.02976,-0.02976 0.09651,0.02976 0.126269,0 0.02976,-0.02976 -0.03765,-0.107446 0,-0.126269 0.07529,-0.03765 0.177245,0.03765 0.252538,0 0.05051,-0.02525 -0.05051,-0.353553 0,-0.378807 0.07529,-0.03765 0.177246,0.03765 0.252538,0 0.07529,-0.03765 -0.07529,-0.214892 0,-0.252538 0.07529,-0.03765 0.177246,0.03765 0.252538,0 0.07529,-0.03765 -0.05952,-0.193015 0,-0.252539 0.133099,-0.133099 0.371977,-0.119438 0.505076,-0.252538 0.02976,-0.02976 -0.03765,-0.107446 0,-0.126269 0.07529,-0.03765 0.177246,0.03765 0.252538,0 0.03765,-0.01882 -0.02976,-0.09651 0,-0.126269 0.06655,-0.06655 0.185989,-0.05972 0.252539,-0.126269 0.02976,-0.02976 -0.02976,-0.09651 0,-0.126269 0.103052,-0.103052 0.612137,-0.2697 0.757614,-0.378807 0.599626,-0.44972 -0.192287,-0.09798 0.757614,-0.505076 0.122338,-0.05243 0.272328,-0.04641 0.378808,-0.126269 0.07529,-0.05647 0.05972,-0.185989 0.126269,-0.252539 0.06655,-0.06655 0.168358,-0.08418 0.252538,-0.126269 0.336717,-0.168358 0.673435,-0.336717 1.010152,-0.505076 0.611279,-0.305639 -0.133099,0.09982 0.505077,-0.378807 0.07529,-0.05647 0.177245,-0.0698 0.252538,-0.126269 0.09524,-0.07143 0.1573,-0.18111 0.252538,-0.252538 0.775141,-0.581356 -0.241664,0.247101 0.505076,-0.126269 0.03765,-0.01882 -0.03765,-0.107446 0,-0.12627 0.07529,-0.03765 0.177246,0.03765 0.252538,0 0.05241,-0.02621 -0.04407,-0.334732 0,-0.378807 0.06655,-0.06655 0.185989,-0.05972 0.252538,-0.126269 0.02976,-0.02976 -0.03993,-0.112959 0,-0.126269 0.11979,-0.03993 0.273745,0.07004 0.378808,0 0.07004,-0.04669 -0.02662,-0.172678 0,-0.252538 0.04835,-0.145043 0.301458,-0.175189 0.378807,-0.252538 0.107308,-0.107308 0.135955,-0.281655 0.252538,-0.378807 0.144603,-0.120503 0.348459,-0.148127 0.505076,-0.252538 0.09905,-0.06604 0.168359,-0.168359 0.252538,-0.252539 0.168359,-0.126269 0.324619,-0.270532 0.505077,-0.378807 0.841793,-0.505076 0.505076,-0.224478 1.010152,-0.505076 2.295482,-1.275268 -0.273908,0.138481 1.515229,-0.883884 0.08171,-0.04669 0.174229,-0.07406 0.252538,-0.126269 0.350208,-0.233471 0.659945,-0.524142 1.010153,-0.757614 0.07831,-0.05221 0.168358,-0.08418 0.252538,-0.126269 0.168359,-0.08418 0.336717,-0.168359 0.505076,-0.252538 0.08418,-0.04209 0.177246,-0.0698 0.252538,-0.126269 0.09524,-0.07143 0.1573,-0.18111 0.252538,-0.252538 0.580796,-0.435597 -0.132614,0.256768 0.631346,-0.252539 0.03502,-0.02335 -0.02976,-0.09651 0,-0.126269 0.02976,-0.02976 0.09651,0.02976 0.126269,0 0.04407,-0.04407 -0.05241,-0.3526 0,-0.378807 0.07529,-0.03765 0.177246,0.03765 0.252538,0 0.07529,-0.03765 -0.07529,-0.214892 0,-0.252538 0.07529,-0.03765 0.177246,0.03765 0.252538,0 0.05051,-0.02525 -0.05051,-0.353553 0,-0.378807 0.07529,-0.03765 0.177246,0.03765 0.252538,0 0.07529,-0.03765 -0.07529,-0.214892 0,-0.252538 0.07529,-0.03765 0.177246,0.03765 0.252538,0 0.07529,-0.03765 -0.07529,-0.214892 0,-0.252538 0.07529,-0.03765 0.177246,0.03765 0.252538,0 0.07529,-0.03765 -0.07529,-0.214892 0,-0.252539 0.07529,-0.03765 0.177246,0.03765 0.252539,0 0.03765,-0.01882 -0.03765,-0.107446 0,-0.126269 0.07529,-0.03765 0.177245,0.03765 0.252538,0 0.03765,-0.01882 -0.02976,-0.09651 0,-0.126269 0.06655,-0.06655 0.185988,-0.05972 0.252538,-0.126269 0.02976,-0.02976 -0.02976,-0.09651 0,-0.126269 0.06655,-0.06655 0.185988,-0.05972 0.252538,-0.126269 0.02976,-0.02976 -0.02976,-0.09651 0,-0.126269 0.06655,-0.06655 0.174229,-0.07406 0.252538,-0.126269 1.009646,-0.673098 0.124714,-0.103928 0.757615,-0.631345 0.161671,-0.134726 0.343405,-0.244082 0.505076,-0.378808 0.383934,-0.319944 0.312129,-0.438398 0.757614,-0.883883 0.06655,-0.06655 0.185989,-0.05972 0.252538,-0.126269 0.107308,-0.107308 0.157737,-0.260305 0.252539,-0.378807 0.07437,-0.09296 0.168358,-0.168359 0.252538,-0.252539 0.08418,-0.08418 0.1573,-0.181109 0.252538,-0.252538 0.07529,-0.05647 0.177246,-0.0698 0.252538,-0.126269 0.09524,-0.07143 0.1573,-0.181109 0.252538,-0.252538 0.150585,-0.112938 0.354492,-0.1396 0.505076,-0.252538 0.09524,-0.07143 0.143116,-0.205643 0.252538,-0.252538 0.210449,-0.04209 0.420897,-0.08418 0.631346,-0.126269 0,-0.04209 -0.02976,-0.09651 0,-0.126269 0.02976,-0.02976 0.08634,0.01331 0.126269,0 0.08929,-0.02976 0.185988,-0.05972 0.252538,-0.126269 0.02976,-0.02976 -0.03765,-0.107446 0,-0.126269 0.07529,-0.03765 0.177246,0.03765 0.252538,0 0.03765,-0.01882 -0.02976,-0.09651 0,-0.126269 0.06655,-0.06655 0.185989,-0.05972 0.252538,-0.12627 0.02976,-0.02976 -0.03765,-0.107446 0,-0.126269 0.07529,-0.03765 0.177246,0.03765 0.252538,0 0.03765,-0.01882 -0.03765,-0.107446 0,-0.126269 0.07529,-0.03765 0.177246,0.03765 0.252539,0 0.03765,-0.01882 -0.03765,-0.107446 0,-0.126269 0.07529,-0.03765 0.177245,0.03765 0.252538,0 0.03765,-0.01882 -0.03765,-0.107446 0,-0.126269 0.07529,-0.03765 0.177246,0.03765 0.252538,0 0.03765,-0.01882 -0.03765,-0.107446 0,-0.126269 0.07529,-0.03765 0.177246,0.03765 0.252538,0 0.03765,-0.01882 -0.03765,-0.107446 0,-0.126269 0.07529,-0.03765 0.177246,0.03765 0.252538,0 0.03765,-0.01882 -0.02976,-0.09651 0,-0.126269 0.06655,-0.06655 0.168359,-0.08418 0.252538,-0.126269 0.08418,-0.04209 0.161233,-0.103443 0.252538,-0.126269 0.08167,-0.02042 0.177246,0.03765 0.252539,0 0.03765,-0.01882 0,-0.08418 0,-0.126269 0.08418,-0.04209 0.16025,-0.107812 0.252538,-0.126269 0.123817,-0.02476 0.378807,-0.126269 0.378807,0 0,0.133099 -0.252538,0.08418 -0.378807,0.126269"
       id="path5082"
       inkscape:connector-curvature="0" />
  </g>
  <g
     inkscape:groupmode="layer"
     id="layer7"
     inkscape:label="Layer 2">
    <path
       style="fill:none;fill-rule:evenodd;stroke:#000000;stroke-width:1px;stroke-linecap:butt;stroke-linejoin:miter;stroke-opacity:1"
       d="m 21.844549,11.106576 c 31.749344,17.544482 49.454812,52.305477 45.961941,83.842661 0.508696,3.173477 1.605376,2.231068 2.777919,0.757615 C 77.483693,56.028658 50.079847,21.962162 23.864854,8.7074636 21.710551,8.0262997 21.310988,9.0998763 21.844549,11.106576 Z"
       id="path5087"
       inkscape:connector-curvature="0"
       sodipodi:nodetypes="ccccc" />
    <path
       style="fill:none;fill-rule:evenodd;stroke:#000000;stroke-width:1px;stroke-linecap:butt;stroke-linejoin:miter;stroke-opacity:1"
       d="M 22.097087,11.106576 19.319167,72.978419 67.80649,96.211928"
       id="path5089"
       inkscape:connector-curvature="0" />
    <path
       style="fill:none;fill-rule:evenodd;stroke:#000000;stroke-width:1px;stroke-linecap:butt;stroke-linejoin:miter;stroke-opacity:1"
       d="m 55.937197,45.199224 -36.61803,27.14785 0.757615,1.262691"
       id="path5091"
       inkscape:connector-curvature="0" />
    <path
       style="fill:none;fill-rule:evenodd;stroke:#000000;stroke-width:1px;stroke-linecap:butt;stroke-linejoin:miter;stroke-opacity:1"
       d="M 57.452426,46.588184 20.708127,73.230958"
       id="path5093"
       inkscape:connector-curvature="0" />
    <path
       style="fill:none;fill-rule:evenodd;stroke:#000000;stroke-width:1px;stroke-linecap:butt;stroke-linejoin:miter;stroke-opacity:1"
       d="m 69.321719,36.107852 -9.343911,6.313453"
       id="path5095"
       inkscape:connector-curvature="0"
       sodipodi:nodetypes="cc" />
    <path
       style="fill:none;fill-rule:evenodd;stroke:#000000;stroke-width:1px;stroke-linecap:butt;stroke-linejoin:miter;stroke-opacity:1"
       d="m 60.98796,44.062803 9.47018,-6.313454"
       id="path5097"
       inkscape:connector-curvature="0"
       sodipodi:nodetypes="cc" />
    <path
       style="fill:none;fill-rule:evenodd;stroke:#000000;stroke-width:1px;stroke-linecap:butt;stroke-linejoin:miter;stroke-opacity:1"
       d="m 69.06918,36.486659 c -5.392011,-1.884035 -6.891355,-4.631607 -3.563169,-7.879235 6.52055,-4.745667 9.278728,2.139614 19.220534,-2.222291 -8.505466,4.602037 0.720949,13.646288 -7.886444,16.841881 -4.642965,0.907216 -6.699723,-1.264941 -6.760768,-5.477665"
       id="path5099"
       inkscape:connector-curvature="0"
       sodipodi:nodetypes="ccccc" />
    <path
       style="fill:none;fill-rule:evenodd;stroke:#000000;stroke-width:1px;stroke-linecap:butt;stroke-linejoin:miter;stroke-opacity:1"
       d="M 21.465741,70.831845 11.743023,70.579307"
       id="path5101"
       inkscape:connector-curvature="0"
       sodipodi:nodetypes="cc" />
    <path
       style="fill:none;fill-rule:evenodd;stroke:#000000;stroke-width:1px;stroke-linecap:butt;stroke-linejoin:miter;stroke-opacity:1"
       d="m 14.015867,67.675118 10.354064,0.505077"
       id="path5103"
       inkscape:connector-curvature="0"
       sodipodi:nodetypes="cc" />
    <path
       style="fill:none;fill-rule:evenodd;stroke:#000000;stroke-width:1px;stroke-linecap:butt;stroke-linejoin:miter;stroke-opacity:1"
       d="m 16.162441,65.149737 11.237947,0.631345"
       id="path5105"
       inkscape:connector-curvature="0"
       sodipodi:nodetypes="cc" />
    <path
       style="fill:none;fill-rule:evenodd;stroke:#000000;stroke-width:1px;stroke-linecap:butt;stroke-linejoin:miter;stroke-opacity:1"
       d="M 22.349625,71.589459 19.319168,81.817254"
       id="path5107"
       inkscape:connector-curvature="0"
       sodipodi:nodetypes="cc" />
    <path
       style="fill:none;fill-rule:evenodd;stroke:#000000;stroke-width:1px;stroke-linecap:butt;stroke-linejoin:miter;stroke-opacity:1"
       d="M 24.875007,70.453038 22.349626,81.690985"
       id="path5109"
       inkscape:connector-curvature="0"
       sodipodi:nodetypes="cc" />
    <path
       style="fill:none;fill-rule:evenodd;stroke:#000000;stroke-width:1px;stroke-linecap:butt;stroke-linejoin:miter;stroke-opacity:1"
       d="M 27.905464,68.053925 25.380083,80.302026"
       id="path5111"
       inkscape:connector-curvature="0"
       sodipodi:nodetypes="cc" />
  </g>
</svg>
