<?xml version="1.0" encoding="UTF-8" standalone="no"?>
<!-- Created with Inkscape (http://www.inkscape.org/) -->

<svg
   xmlns:dc="http://purl.org/dc/elements/1.1/"
   xmlns:cc="http://creativecommons.org/ns#"
   xmlns:rdf="http://www.w3.org/1999/02/22-rdf-syntax-ns#"
   xmlns:svg="http://www.w3.org/2000/svg"
   xmlns="http://www.w3.org/2000/svg"
   xmlns:sodipodi="http://sodipodi.sourceforge.net/DTD/sodipodi-0.dtd"
   xmlns:inkscape="http://www.inkscape.org/namespaces/inkscape"
   width="100"
   height="100"
   viewBox="0 0 100 100"
   id="svg4405"
   version="1.1"
   inkscape:version="0.91 r13725">
  <defs
     id="defs4407" />
  <sodipodi:namedview
     id="base"
     pagecolor="#ffffff"
     bordercolor="#666666"
     borderopacity="1.0"
     inkscape:pageopacity="0.0"
     inkscape:pageshadow="2"
     inkscape:zoom="7.9195959"
     inkscape:cx="44.861757"
     inkscape:cy="49.864638"
     inkscape:document-units="px"
     inkscape:current-layer="layer19"
     showgrid="false"
     units="px"
     inkscape:window-width="1920"
     inkscape:window-height="1017"
     inkscape:window-x="-8"
     inkscape:window-y="-8"
     inkscape:window-maximized="1"
     showguides="false">
    <inkscape:grid
       type="xygrid"
       id="grid4953" />
  </sodipodi:namedview>
  <metadata
     id="metadata4410">
    <rdf:RDF>
      <cc:Work
         rdf:about="">
        <dc:format>image/svg+xml</dc:format>
        <dc:type
           rdf:resource="http://purl.org/dc/dcmitype/StillImage" />
        <dc:title></dc:title>
        <cc:license
           rdf:resource="http://creativecommons.org/licenses/by/3.0/" />
      </cc:Work>
      <cc:License
         rdf:about="http://creativecommons.org/licenses/by/3.0/">
        <cc:permits
           rdf:resource="http://creativecommons.org/ns#Reproduction" />
        <cc:permits
           rdf:resource="http://creativecommons.org/ns#Distribution" />
        <cc:requires
           rdf:resource="http://creativecommons.org/ns#Notice" />
        <cc:requires
           rdf:resource="http://creativecommons.org/ns#Attribution" />
        <cc:permits
           rdf:resource="http://creativecommons.org/ns#DerivativeWorks" />
      </cc:License>
    </rdf:RDF>
  </metadata>
  <g
     inkscape:groupmode="layer"
     id="layer18"
     inkscape:label="Layer 1"
     style="display:none;opacity:0.32900002"
     sodipodi:insensitive="true">
    <path
       style="fill:none;fill-rule:evenodd;stroke:#000000;stroke-width:1.56662786px;stroke-linecap:butt;stroke-linejoin:miter;stroke-opacity:1"
       d="m 19.914614,49.213044 c 0,-0.2581 -0.100113,-0.534663 0,-0.774304 0.05595,-0.133957 0.297757,-0.09155 0.404301,-0.193576 0.343588,-0.329015 0.46501,-0.83244 0.808599,-1.161454 0.421098,-0.403239 1.338167,-0.884989 1.819354,-1.161457 0.336917,-0.193576 0.653059,-0.425036 1.010751,-0.580728 0.775941,-0.33774 1.639028,-0.460385 2.425803,-0.774303 0.417251,-0.16648 0.789661,-0.428745 1.212902,-0.580727 0.714968,-0.256742 2.791336,-0.794003 3.638704,-0.967881 0.40078,-0.08223 0.815263,-0.09838 1.212903,-0.193575 0.682499,-0.163388 1.339003,-0.417341 2.021502,-0.580728 0.666663,-0.159596 1.354842,-0.227556 2.021503,-0.387151 0.682499,-0.163388 1.339005,-0.417341 2.021503,-0.580728 0.397639,-0.09519 0.812785,-0.108432 1.212902,-0.193576 0.813638,-0.17314 1.612164,-0.407589 2.425804,-0.580729 0.400116,-0.08514 0.808601,-0.129051 1.212901,-0.193575 0.808602,-0.129052 1.617203,-0.258101 2.425804,-0.387152 0.808602,-0.129052 1.617202,-0.258102 2.425803,-0.387152 0.4043,-0.06452 0.805532,-0.150238 1.212902,-0.193576 0.806441,-0.0858 1.618858,-0.112235 2.425804,-0.193575 0.473854,-0.04777 0.939507,-0.165116 1.415052,-0.193576 1.008783,-0.06037 2.021504,0 3.032254,0 0.673834,0 1.347669,0 2.021503,0 0.336917,0 0.675506,-0.0321 1.010752,0 0.341883,0.03273 0.669263,0.157241 1.01075,0.193576 0.267885,0.0285 0.540406,-0.02568 0.808603,0 0.407843,0.03906 0.806187,0.144887 1.212901,0.193575 6.42216,0.76872 -0.701848,-0.2088 3.032254,0.387152 1.005821,0.160526 2.026432,0.226625 3.032254,0.387152 0.274048,0.04374 0.534552,0.149839 0.808601,0.193576 1.071742,0.171048 2.168979,0.183104 3.234404,0.387151 0.147752,0.02831 0.259982,0.152124 0.4043,0.193576 0.532225,0.15289 1.078136,0.258102 1.617204,0.387153 0.539068,0.129052 1.078135,0.2581 1.617203,0.387152 0.259076,0.06202 1.125044,0.248297 1.41505,0.387151 0.217306,0.10405 0.395509,0.271726 0.606452,0.387151 0.523286,0.286338 1.11573,0.454169 1.617202,0.774304 0.158575,0.101242 0.251829,0.27765 0.404301,0.387151 0.120531,0.08657 0.278932,0.113538 0.4043,0.193578 0.280333,0.17896 0.52827,0.401766 0.808601,0.580728 0.12537,0.08004 0.283762,0.107005 0.4043,0.193575 0.152475,0.109508 0.251832,0.277648 0.404303,0.387152 0.12053,0.08657 0.283759,0.107005 0.4043,0.193575 0.152474,0.109507 0.29858,0.2353 0.404304,0.387153 0.03739,0.05369 -0.06396,0.173171 0,0.193575 0.191774,0.06122 0.414668,-0.06122 0.606444,0 0.12786,0.0408 -0.09533,0.2959 0,0.387151 0.0476,0.04563 0.15451,-0.04563 0.20215,0 0.0476,0.04563 0,0.129053 0,0.193576 0,0.322628 -0.0674,0.193577 0.4043,0.193577"
       id="path5335"
       inkscape:connector-curvature="0" />
    <path
       style="fill:none;fill-rule:evenodd;stroke:#000000;stroke-width:1.56662786px;stroke-linecap:butt;stroke-linejoin:miter;stroke-opacity:1"
       d="m 19.914614,49.793771 c 1.646471,3.547431 0.120936,0.822274 1.2129,2.129335 0.356361,0.426557 0.353046,0.656286 0.808602,0.967881 0.319724,0.218686 0.708909,0.339861 1.010752,0.580726 0.115746,0.09237 0.105697,0.276312 0.20215,0.387153 0.244024,0.280409 0.539067,0.516202 0.808601,0.774302 0.269534,0.258102 0.503658,0.555298 0.808601,0.774306 0.241078,0.173138 0.557864,0.227083 0.8086,0.387151 0.158574,0.101242 0.251831,0.277648 0.404302,0.387151 0.388727,0.27918 0.808601,0.516203 1.212901,0.774304 0.404301,0.258101 0.796238,0.53491 1.212901,0.774303 0.258405,0.14846 0.539068,0.258101 0.808602,0.387154 0.404301,0.193575 0.797428,0.410218 1.212901,0.580727 0.529175,0.217169 1.085765,0.368688 1.617204,0.580727 0.278166,0.110991 0.522717,0.295899 0.808601,0.387152 0.527143,0.168261 1.081815,0.244741 1.617201,0.387151 0.964459,0.256543 1.861547,0.57556 2.830104,0.774306 0.671926,0.137881 1.346095,0.265882 2.021503,0.387151 0.402859,0.07232 0.815263,0.09838 1.212904,0.193575 0.682498,0.163388 1.325782,0.480796 2.0215,0.580728 0.666379,0.09572 1.348982,-0.04026 2.021504,0 0.40908,0.02448 0.805058,0.154522 1.212902,0.193576 0.670489,0.06421 1.349996,-0.05358 2.021503,0 0.408461,0.0326 0.805058,0.154521 1.212901,0.193575 0.268197,0.02568 0.539068,0 0.808602,0 0.4043,0 0.8086,0 1.212901,0 0.741218,0 1.486115,0.07063 2.223654,0 0.212028,-0.0203 0.393838,-0.180002 0.606451,-0.193575 0.8086,0 1.617202,0 2.425803,0 0.269534,-0.06452 0.53215,-0.167104 0.808601,-0.193576 0.402294,-0.03853 0.8086,0 1.212902,0 0.336917,0 0.680377,0.06327 1.010752,0 0.355823,-0.06815 0.654927,-0.319007 1.01075,-0.387152 0.664044,-0.127181 1.351115,-0.101865 2.021504,-0.193576 0.275036,-0.03762 0.533208,-0.158415 0.808601,-0.193575 0.737745,-0.09419 1.487613,-0.08786 2.223653,-0.193576 0.917699,-0.0058 1.741179,-0.439202 2.627954,-0.580729 0.53587,-0.08553 1.0794,-0.120007 1.617201,-0.193575 0.405759,-0.05551 0.807144,-0.138066 1.212902,-0.193577 2.208367,-0.3021 0.928822,-0.02877 2.425805,-0.387151 3.54314,-0.848214 -0.06998,0.05882 2.830104,-0.774304 0.266111,-0.07645 0.548461,-0.100166 0.8086,-0.193575 0.282161,-0.101322 0.528807,-0.279982 0.808601,-0.387152 0.395688,-0.151557 0.813867,-0.243861 1.212903,-0.387152 0.141075,-0.05067 0.269532,-0.129051 0.4043,-0.193577 0.269533,-0.129052 0.539067,-0.2581 0.808601,-0.387152 0.134767,-0.06452 0.278932,-0.113537 0.4043,-0.193576 0.280333,-0.178961 0.52827,-0.401765 0.808601,-0.580726 0.12537,-0.08004 0.278933,-0.113538 0.4043,-0.193576 0.280333,-0.178962 0.52827,-0.401767 0.808603,-0.580728 0.12537,-0.08004 0.297757,-0.09155 0.404304,-0.193576 0.238233,-0.228132 0.395972,-0.522375 0.606444,-0.774304 0.27367,-0.327577 0.40495,-0.195428 0.60645,-0.774304 0,-1.476721 -0.1808,0.06613 0.4043,-0.774303 0.0509,-0.07313 -0.0509,-0.701172 0,-0.774304 0.13478,-0.129051 0.26954,-0.258101 0.4043,-0.387152 0,-0.129052 -0.0748,-0.279775 0,-0.387152 0.0836,-0.120053 0.32073,-0.07353 0.40431,-0.193576 0.0748,-0.107378 0,-0.2581 0,-0.387151 0,-0.06453 0,-0.129052 0,-0.193576 0,-0.06452 0,-0.129052 0,-0.193576 0,-0.06453 -0.0603,-0.164719 0,-0.193576 0.12054,-0.05772 0.28376,0.05772 0.4043,0 0.0603,-0.02885 0,-0.129051 0,-0.193576 0,-0.06452 0.0674,-0.193575 0,-0.193575 -0.15068,0 -0.26954,0.129051 -0.4043,0.193575"
       id="path5337"
       inkscape:connector-curvature="0" />
    <path
       style="fill:none;fill-rule:evenodd;stroke:#000000;stroke-width:1.56662786px;stroke-linecap:butt;stroke-linejoin:miter;stroke-opacity:1"
       d="m 46.19415,40.889279 c -0.626277,0.390866 -1.399534,0.57082 -2.021502,0.967881 -0.158574,0.101242 -0.257886,0.270315 -0.4043,0.387151 -0.258827,0.20654 -0.549776,0.374186 -0.808602,0.580728 -0.146407,0.116832 -0.251829,0.277648 -0.404302,0.387151 -0.388726,0.279179 -0.869311,0.445288 -1.212901,0.774305 -0.150681,0.144274 -0.106865,0.398221 -0.202149,0.580727 -0.175716,0.336523 -0.395509,0.650456 -0.60645,0.96788 -0.260874,0.392554 -0.628141,0.729436 -0.808603,1.161455 -0.100112,0.239641 0.07405,0.526133 0,0.774304 -0.06674,0.223697 -0.337556,0.357029 -0.404301,0.580727 -0.148087,0.496341 0.09642,1.040731 0,1.548608 -0.51537,2.714308 -0.4043,0.0718 -0.4043,2.516486 0,0.258101 -0.07405,0.526134 0,0.774305 0.06674,0.223696 0.269534,0.387151 0.4043,0.580726 0,0.387153 -0.0877,0.783523 0,1.161455 0.05271,0.227111 0.345377,0.355026 0.404301,0.580729 0.08171,0.312994 -0.08171,0.654886 0,0.967879 0.05893,0.225703 0.283761,0.378732 0.4043,0.580728 0.149513,0.250545 0.244587,0.5296 0.404303,0.774304 0.178564,0.273586 0.439291,0.494185 0.60645,0.774304 0.438436,0.73472 -0.09786,0.48702 0.606451,1.161455 0.106545,0.102023 0.297757,0.09155 0.4043,0.193576 0.04764,0.04563 -0.04764,0.147954 0,0.193575 0.106545,0.102023 0.297758,0.09155 0.404299,0.193576 0.04765,0.04563 -0.06027,0.16472 0,0.193577 0.120531,0.05772 0.283762,-0.05772 0.404302,0 0.12053,0.05772 -0.120531,0.329438 0,0.387151 0.12053,0.05772 0.269534,0 0.4043,0 0.134768,0 0.269534,0 0.404302,0"
       id="path5339"
       inkscape:connector-curvature="0" />
    <path
       style="fill:none;fill-rule:evenodd;stroke:#000000;stroke-width:1.56662786px;stroke-linecap:butt;stroke-linejoin:miter;stroke-opacity:1"
       d="m 65.600578,40.308552 c 1.581934,-0.225361 0.147719,0.722175 0.404301,0.96788 0.106545,0.102023 0.320721,0.07352 0.4043,0.193575 0.07475,0.107379 0,0.2581 0,0.387153 0,0.06452 -0.03738,0.139889 0,0.193575 0.105721,0.151848 0.344031,0.214013 0.4043,0.387151 0.08524,0.244857 -0.08523,0.529448 0,0.774304 0.06027,0.17314 0.333518,0.217702 0.404302,0.387151 0.07508,0.179731 -0.07508,0.400998 0,0.580729 0.07078,0.169453 0.358074,0.210097 0.4043,0.387152 0.09806,0.375593 0,0.774303 0,1.161455 0,0.193576 -0.06392,0.397085 0,0.580727 0.07683,0.220711 0.327471,0.360019 0.404301,0.580729 0.06392,0.183642 0,0.387152 0,0.580728 0,0.387151 0,0.774303 0,1.161455 0,0.774304 0,1.548608 0,2.322911 0,0.129051 0,0.258101 0,0.387151 0,0.193576 0.0463,0.392299 0,0.580728 -0.224715,0.914529 -0.570645,1.798612 -0.808601,2.710062 -0.112302,0.430169 0.168458,0.483941 0,0.967881 -0.07683,0.220711 -0.295649,0.37264 -0.404302,0.580727 -0.32456,0.62159 -0.513848,1.300698 -0.8086,1.935761 -0.122388,0.263693 -0.309006,0.500544 -0.404301,0.774302 -0.216536,0.622054 0.302365,0.170411 -0.20215,0.774304 -0.178591,0.213769 -0.43492,0.361721 -0.606451,0.580728 -0.04042,0.05162 0,0.129051 0,0.193575 -0.134767,0.193576 -0.232506,0.416221 -0.4043,0.580729 -0.106545,0.102023 -0.310176,0.08091 -0.404303,0.193576 -0.188248,0.22533 -0.191213,0.570256 -0.404299,0.774303 -0.09529,0.09125 -0.273558,-0.0313 -0.4043,0 -0.146183,0.035 -0.283762,0.107005 -0.404302,0.193576 -0.262994,0.188878 -0.381014,0.591877 -0.808599,0.387151 -0.06027,-0.02885 0.04764,-0.147953 0,-0.193576 -0.106546,-0.102023 -0.269534,-0.129051 -0.404302,-0.193575"
       id="path5341"
       inkscape:connector-curvature="0" />
    <path
       style="fill:none;fill-rule:evenodd;stroke:#000000;stroke-width:1.56662786px;stroke-linecap:butt;stroke-linejoin:miter;stroke-opacity:1"
       d="m 55.493064,48.825891 c -0.269534,0 -0.547116,-0.06259 -0.808602,0 -0.06536,0.01565 0.06027,0.164719 0,0.193576 -0.120531,0.05772 -0.271367,-0.02122 -0.4043,0 -0.274049,0.04374 -0.539067,0.129052 -0.808601,0.193577 -0.269534,0.06452 -0.560103,0.0746 -0.8086,0.193576 -0.17047,0.08162 -0.269534,0.2581 -0.404303,0.387151 -0.134768,0.129053 -0.344029,0.214012 -0.404299,0.387153 -0.08523,0.244855 0,0.516201 0,0.774303 0,0.193576 -0.09041,0.407589 0,0.580727 0.08523,0.163238 0.28524,0.24464 0.404299,0.387152 0.15177,0.181669 0.217659,0.431789 0.404303,0.580728 0.702131,0.560291 1.135258,0.387153 2.021501,0.387153 0.134768,0 0.269534,0 0.404301,0 0.134767,0 0.273559,0.03131 0.404301,0 0.340284,-0.08146 1.100741,-0.680326 1.212901,-0.774305 0.286866,-0.24036 0.653791,-0.440753 0.808601,-0.774304 0.136833,-0.294819 0,-0.645253 0,-0.967879 0,-0.129051 0,-0.258101 0,-0.387151 0,-0.193577 0,-0.387152 0,-0.580728 0,-0.129051 0.107812,-0.309722 0,-0.387153 -2.27442,-1.63346 -1.723719,-1.467082 -3.638704,-1.161455"
       id="path5343"
       inkscape:connector-curvature="0" />
    <path
       style="fill:none;fill-rule:evenodd;stroke:#000000;stroke-width:1.56662786px;stroke-linecap:butt;stroke-linejoin:miter;stroke-opacity:1"
       d="m 71.665086,25.790358 c 0.269534,-0.129051 0.522718,-0.295899 0.808601,-0.387151 0.04069,-0.01303 1.15961,-0.01273 1.212903,0 0.146183,0.035 0.261358,0.147953 0.404301,0.193576 0.263572,0.08413 0.550643,0.09478 0.8086,0.193575 0.706985,0.2708 1.711204,0.782533 2.223653,1.355033 0.877687,0.980533 -0.198143,0.201249 0.202151,0.967879 0.08523,0.163237 0.333518,0.217699 0.4043,0.387151 0.04185,0.100189 0,1.363112 0,1.548608 0,0.387151 0,0.774304 0,1.161455 0,0.129052 0.07475,0.279776 0,0.387152 -0.08358,0.120053 -0.297757,0.09155 -0.4043,0.193576 -0.04132,0.03957 0.04007,0.503977 0,0.580727 -0.09266,0.177449 -0.764701,0.547099 -0.808601,0.580729 -0.29765,0.22802 -0.503658,0.555297 -0.808602,0.774303 -0.120531,0.08657 -0.283761,0.107005 -0.4043,0.193576 -0.04742,0.03407 -0.78417,0.762606 -0.808601,0.774303 -0.120531,0.05772 -0.283762,-0.05772 -0.4043,0 -0.06027,0.02885 0.06027,0.164719 0,0.193576 -0.120531,0.05772 -0.269534,0 -0.404301,0 -0.134767,0 -0.269534,0 -0.4043,0"
       id="path5347"
       inkscape:connector-curvature="0" />
    <path
       style="fill:none;fill-rule:evenodd;stroke:#000000;stroke-width:1.56662786px;stroke-linecap:butt;stroke-linejoin:miter;stroke-opacity:1"
       d="m 72.069388,35.856306 c -0.124555,-0.135291 -1.389674,0.08716 -1.617203,0 -0.176957,-0.06777 -0.223492,-0.329438 -0.4043,-0.387151 -0.255703,-0.08162 -0.539068,0 -0.808602,0 -0.404301,0 -0.808601,0 -1.212901,0 -0.269534,0 -0.541149,0.03201 -0.808601,0 -0.275685,-0.033 -0.532919,-0.160578 -0.808602,-0.193576 -0.267452,-0.03201 -0.539067,0 -0.808601,0 -0.673834,0 -1.347669,0 -2.021503,0 -0.269533,0 -0.539067,0 -0.808602,0 -0.269534,0 -0.541149,0.03201 -0.808599,0 -0.275685,-0.033 -0.534553,-0.149839 -0.808601,-0.193578 -0.132943,-0.02122 -0.269535,0 -0.404303,0 -0.269531,0 -0.539066,0 -0.8086,0 -0.539067,0 -1.078135,0 -1.617202,0 -0.134768,0 -0.271368,-0.02122 -0.404302,0 -0.274048,0.04374 -0.539066,0.129053 -0.8086,0.193578"
       id="path5349"
       inkscape:connector-curvature="0" />
    <path
       style="fill:none;fill-rule:evenodd;stroke:#000000;stroke-width:1.56662786px;stroke-linecap:butt;stroke-linejoin:miter;stroke-opacity:1"
       d="m 58.929619,37.017761 c -0.741219,0 -1.482435,0 -2.223654,0 -0.269534,0 -0.54115,-0.03201 -0.8086,0 -0.275684,0.03299 -0.532473,0.164197 -0.808602,0.193576 -0.939987,0.10002 -1.888217,0.111579 -2.830105,0.193576 -0.541031,0.0471 -1.076634,0.141807 -1.617202,0.193576 -0.807377,0.07731 -1.624329,0.07239 -2.425803,0.193575 -0.484556,0.07326 -0.935383,0.288726 -1.415051,0.387154 -0.465897,0.0956 -0.944121,0.124191 -1.415053,0.193575 -0.405111,0.05968 -0.808601,0.129051 -1.212901,0.193576"
       id="path5351"
       inkscape:connector-curvature="0" />
    <path
       style="fill:none;fill-rule:evenodd;stroke:#000000;stroke-width:1.56662786px;stroke-linecap:butt;stroke-linejoin:miter;stroke-opacity:1"
       d="m 54.280162,37.404913 c -0.841508,0.06715 -2.632072,0.14616 -3.638706,0.387151 -0.682498,0.163389 -1.345066,0.395659 -2.021503,0.580729 -0.267139,0.07308 -0.541462,0.120482 -0.8086,0.193576 -0.676437,0.185069 -1.339005,0.41734 -2.021503,0.580728 -0.397639,0.09518 -0.815263,0.09838 -1.212902,0.193575 -0.682499,0.163388 -1.343665,0.400427 -2.021504,0.580728 -0.535385,0.142405 -1.078133,0.258101 -1.6172,0.387152"
       id="path5353"
       inkscape:connector-curvature="0" />
    <path
       style="fill:none;fill-rule:evenodd;stroke:#000000;stroke-width:1.56662786px;stroke-linecap:butt;stroke-linejoin:miter;stroke-opacity:1"
       d="m 69.643583,22.88672 c -0.773522,-0.246904 -1.257723,-0.434451 -2.021502,-0.580727 -0.401917,-0.07698 -0.810984,-0.116604 -1.212902,-0.193577 -0.272433,-0.05217 -0.533564,-0.155951 -0.808601,-0.193575 -0.670389,-0.09171 -1.347669,-0.129052 -2.021503,-0.193576 -1.648856,-0.157893 -2.382268,-0.292969 -4.043006,-0.193576 -0.409078,0.02448 -0.810044,0.121248 -1.212901,0.193576 -0.675409,0.121264 -1.359394,0.211033 -2.021503,0.387151 -1.14775,0.305297 -1.803145,0.669757 -2.830104,1.161455"
       id="path5355"
       inkscape:connector-curvature="0" />
    <path
       style="fill:none;fill-rule:evenodd;stroke:#000000;stroke-width:1.56662786px;stroke-linecap:butt;stroke-linejoin:miter;stroke-opacity:1"
       d="m 56.705965,23.467448 c -0.539068,0.129051 -1.078134,0.258101 -1.617202,0.387151 -0.269533,0.129051 -0.518847,0.307877 -0.808601,0.387153 -0.660739,0.180775 -1.354842,0.227556 -2.021504,0.387151 -0.413445,0.09898 -0.802278,0.277928 -1.212901,0.387152 -3.032254,0.806567 -1.57228,0.322626 -4.043005,0.967879 -1.893094,0.494399 -3.780728,1.00868 -5.660209,1.548608 -0.408196,0.117263 -0.801748,0.279775 -1.212902,0.387152 -1.072157,0.280004 -2.15627,0.516201 -3.234404,0.774303"
       id="path5357"
       inkscape:connector-curvature="0" />
    <path
       style="fill:none;fill-rule:evenodd;stroke:#000000;stroke-width:1.56662786px;stroke-linecap:butt;stroke-linejoin:miter;stroke-opacity:1"
       d="m 40.736093,26.371086 c -1.001973,0.188526 -2.026432,0.226625 -3.032254,0.387154 -0.274049,0.04374 -0.536941,0.137834 -0.808602,0.193575 -0.671925,0.137881 -1.346094,0.265883 -2.021502,0.387151 -0.402858,0.07233 -0.815263,0.09838 -1.212902,0.193576 -0.951824,0.227862 -1.87828,0.546441 -2.830105,0.774303 -4.241465,1.01539 -1.394187,0.17053 -4.447306,0.96788 -0.946545,0.2472 -1.883557,0.527104 -2.830103,0.774304 -0.536079,0.139997 -1.081124,0.247149 -1.617203,0.387151 -0.946547,0.2472 -1.873385,0.566091 -2.830105,0.774304 -5.571126,1.212459 3.119351,-1.167118 -3.638704,0.774303"
       id="path5359"
       inkscape:connector-curvature="0" />
    <path
       style="fill:none;fill-rule:evenodd;stroke:#000000;stroke-width:1.56662786px;stroke-linecap:butt;stroke-linejoin:miter;stroke-opacity:1"
       d="m 22.744718,29.855454 c -1.863743,0.446172 0.439286,-0.126201 -2.021503,0.580726 -0.266114,0.07646 -0.548464,0.100167 -0.808601,0.193577 -0.282161,0.101321 -0.532521,0.27149 -0.808603,0.387151 -2.695017,1.12906 -2.490386,0.866391 -5.255906,2.322912 -0.42576,0.224235 -0.805495,0.520721 -1.212902,0.774302 -0.940302,0.585272 -1.871474,1.184845 -2.8301049,1.742184 -0.928749,0.539966 -1.886735,1.032405 -2.830104,1.548607"
       id="path5361"
       inkscape:connector-curvature="0" />
    <path
       style="fill:none;fill-rule:evenodd;stroke:#000000;stroke-width:1.56662786px;stroke-linecap:butt;stroke-linejoin:miter;stroke-opacity:1"
       d="m 71.665086,26.17751 c -0.4043,-0.129052 -0.799455,-0.288173 -1.212901,-0.387152 -0.134768,0 -0.269534,0 -0.4043,0 0,-0.06452 0.06027,-0.164719 0,-0.193575 -0.0583,-0.02792 -1.083704,0 -1.212903,0 -0.129196,0 -1.154589,0.02792 -1.212901,0 -0.06027,-0.02885 0.06027,-0.164719 0,-0.193576 -0.120531,-0.05772 -0.269534,0 -0.4043,0 -0.404302,0 -0.808602,0 -1.212902,0 -0.194164,0 -1.513646,-0.03305 -1.617202,0 -0.06392,0.0204 0.06027,0.164719 0,0.193576 -0.181801,0.08704 -1.031103,-0.08704 -1.212902,0 -0.06027,0.02885 0.06027,0.164719 0,0.193575 -0.120531,0.05772 -0.283762,-0.05772 -0.404302,0 -0.06027,0.02885 0.04765,0.147955 0,0.193576 -0.458294,0.438859 -0.445085,-0.115468 -0.808599,0.580728 -0.100555,0.192576 0.07999,0.542435 0,0.580729 -0.120531,0.05772 -0.283762,-0.05772 -0.404302,0 -0.03338,0.01599 0,0.529225 0,0.580727 0,0.774303 0,1.548607 0,2.322911 0,0.06452 0,0.129051 0,0.193576 0,0.06452 -0.04764,0.147954 0,0.193575 0.106546,0.102023 0.297758,0.09155 0.404302,0.193577 0.09529,0.09125 -0.09529,0.295899 0,0.387151 0.106545,0.102023 0.297757,0.09155 0.4043,0.193576 0.09529,0.09124 -0.120531,0.329439 0,0.387152 0.12053,0.05772 0.283761,-0.05772 0.404299,0 0.06027,0.02885 -0.04764,0.147954 0,0.193576 0.106546,0.102023 0.29776,0.09155 0.404302,0.193575 0.04764,0.04563 -0.04764,0.147954 0,0.193576 0.106545,0.102023 0.297758,0.09155 0.4043,0.193576 0.04764,0.04563 -0.06027,0.16472 0,0.193577 0.12053,0.05772 0.283761,-0.05772 0.404299,0 0.107862,0.05163 -0.107861,0.335512 0,0.387152 0.120531,0.05772 0.283762,-0.05772 0.404303,0 0.06027,0.02885 -0.05607,0.157784 0,0.193575 0.177298,0.113187 0.429154,0.0804 0.60645,0.193577 0.05607,0.0358 -0.04764,0.147953 0,0.193576 0.04764,0.04563 0.154508,-0.04563 0.202151,0 0.04764,0.04563 -0.04764,0.147953 0,0.193575 0.106545,0.102023 0.297757,0.09155 0.4043,0.193576 0.04764,0.04563 -0.06027,0.164719 0,0.193575 0.12053,0.05772 0.283762,-0.05772 0.404301,0 0.06027,0.02885 -0.06027,0.16472 0,0.193576 0.120531,0.05772 0.283761,-0.05772 0.4043,0 0.06027,0.02885 -0.06027,0.16472 0,0.193577 0.120531,0.05772 0.283762,-0.05772 0.4043,0 0.06027,0.02885 -0.06027,0.164719 0,0.193575 0.12053,0.05772 0.283762,-0.05772 0.404302,0 0.120531,0.05772 -0.120531,0.329438 0,0.387151 0.120531,0.05772 0.283761,-0.05772 0.4043,0 0.06027,0.02885 -0.06027,0.164719 0,0.193578 0.0583,0.02792 1.083704,0 1.212901,0 0.741219,0 1.482435,0 2.223654,0"
       id="path5365"
       inkscape:connector-curvature="0" />
    <path
       style="fill:none;fill-rule:evenodd;stroke:#000000;stroke-width:1.56662786px;stroke-linecap:butt;stroke-linejoin:miter;stroke-opacity:1"
       d="m 22.744718,52.890987 c 0.896317,0.446757 1.900023,0.611627 2.830102,0.967879 0.279795,0.107174 0.522718,0.295898 0.808602,0.387151 0.527143,0.168263 1.078135,0.258101 1.617202,0.387151 1.078135,0.258102 2.156269,0.516204 3.234404,0.774306 0.808603,0.193575 1.63509,0.328334 2.425805,0.580727 0.428824,0.136886 0.799838,0.40493 1.212902,0.580728 0.800484,0.340679 1.628336,0.620768 2.425802,0.967879 0.685843,0.298524 1.324879,0.693201 2.021503,0.96788 0.45361,0.178857 0.955729,0.22221 1.415053,0.387151 1.58922,0.570681 1.854001,0.922052 3.436555,1.355032 0.394106,0.107831 0.808601,0.129051 1.212901,0.193575"
       id="path5369"
       inkscape:connector-curvature="0" />
    <path
       style="fill:none;fill-rule:evenodd;stroke:#000000;stroke-width:1.56662786px;stroke-linecap:butt;stroke-linejoin:miter;stroke-opacity:1"
       d="m 42.555444,59.859718 c 1.098521,0.843916 2.408293,0.850079 3.638706,1.355033 0.553965,0.227342 1.045435,0.591797 1.617203,0.774303 0.255701,0.08162 0.54115,-0.03201 0.8086,0 0.275684,0.03299 0.536939,0.137836 0.808602,0.193576 0.671925,0.137881 1.352591,0.236436 2.021502,0.387151 2.493411,0.561801 0.345415,0.23016 3.234405,0.967879 0.396037,0.10114 0.812785,0.108432 1.212903,0.193578 0.813638,0.173138 1.613042,0.403843 2.425803,0.580727 0.67009,0.145838 1.354842,0.227555 2.021502,0.387152 0.413447,0.09898 0.79688,0.298623 1.212902,0.387151 0.800235,0.170288 1.626434,0.213183 2.425802,0.387151 0.686011,0.149303 1.343666,0.400427 2.021505,0.580728 0.535385,0.142405 1.090058,0.218891 1.617202,0.387154 2.350413,0.750238 -1.0871,0.08461 2.021502,0.580727"
       id="path5371"
       inkscape:connector-curvature="0" />
    <path
       style="fill:none;fill-rule:evenodd;stroke:#000000;stroke-width:1.56662786px;stroke-linecap:butt;stroke-linejoin:miter;stroke-opacity:1"
       d="m 67.217781,64.699117 c 0.83742,0.329305 1.602791,0.803227 2.425802,1.161455 1.35969,0.591826 1.556709,0.542109 2.830104,1.355031 0.158575,0.101242 0.269535,0.258103 0.4043,0.387153 0.269534,0.258101 0.510953,0.546282 0.808603,0.774302 0.379431,0.29067 0.833469,0.483634 1.212901,0.774303 0.29765,0.228021 0.570482,0.48928 0.808601,0.774305 0.04209,0.05039 0,0.129052 0,0.193576 0.134768,0.129052 0.238822,0.296604 0.404302,0.387152 0.315059,0.172398 0.699592,0.208376 1.01075,0.387151 0.05778,0.03319 -0.03014,0.135858 0,0.193576 0.04262,0.08162 0.134769,0.129052 0.202151,0.193577 0.134767,0.129051 0.251829,0.277648 0.4043,0.387151 0.46457,0.33365 0.404301,-4.45e-4 0.404301,0.387153"
       id="path5373"
       inkscape:connector-curvature="0" />
    <path
       style="fill:none;fill-rule:evenodd;stroke:#000000;stroke-width:1.56662786px;stroke-linecap:butt;stroke-linejoin:miter;stroke-opacity:1"
       d="m 74.090891,68.76421 c 0.4043,0.387151 0.8086,0.774305 1.212901,1.161456 0,0.06453 -0.04764,0.147955 0,0.193576 0.106545,0.102023 0.297758,0.09155 0.4043,0.193576 0.171794,0.164508 0.269534,0.387152 0.404302,0.580727 0.134767,0.193576 0.314069,0.364719 0.4043,0.580728 0.05005,0.119823 -0.09529,0.2959 0,0.387151 0.150681,0.144291 0.496819,0.01861 0.60645,0.193578 0.138675,0.221319 -0.05287,0.521213 0,0.774303 0.01869,0.08949 0.172017,0.107004 0.202151,0.193576 0.06392,0.183642 0,0.387151 0,0.580727 0,0.451678 0,0.903355 0,1.355033 0,0.06452 0,0.129051 0,0.193575 0,0.06452 0.04764,0.147955 0,0.193576 -0.04764,0.04563 -0.154508,-0.04563 -0.202151,0 -0.04764,0.04563 0.06392,0.173171 0,0.193575 -0.191775,0.06122 -0.404299,0 -0.60645,0 -0.134768,0 -0.269534,0 -0.4043,0"
       id="path5375"
       inkscape:connector-curvature="0" />
    <path
       style="fill:none;fill-rule:evenodd;stroke:#000000;stroke-width:1.56662786px;stroke-linecap:butt;stroke-linejoin:miter;stroke-opacity:1"
       d="m 74.899491,74.958641 c -0.4043,0.193575 -0.784076,0.443847 -1.212901,0.580726 -2.025398,0.646497 -0.579585,0.05163 -1.617202,0.193577 -1.946173,0.266231 -0.07063,0.231714 -2.830105,0.387151 -0.538137,0.03031 -1.079997,-0.04287 -1.617202,0 -0.276869,0.02209 -0.530772,0.193576 -0.808602,0.193576 -0.0084,0 -3.209586,-0.385171 -3.234404,-0.387151 -0.951922,-0.07596 -0.685762,0.140902 -1.617201,-0.193576 -0.282162,-0.101321 -0.539069,-0.258102 -0.808601,-0.387152 -0.269535,-0.129051 -0.539069,-0.258101 -0.808603,-0.387151"
       id="path5377"
       inkscape:connector-curvature="0" />
    <path
       style="fill:none;fill-rule:evenodd;stroke:#000000;stroke-width:1.56662786px;stroke-linecap:butt;stroke-linejoin:miter;stroke-opacity:1"
       d="m 58.929619,76.507246 c -1.368612,-0.714301 -2.841032,0.168072 -4.245157,0 -0.275683,-0.033 -0.532917,-0.160576 -0.8086,-0.193575 -1.78867,-0.2141 0.324348,0.368011 -2.021503,-0.193576 -0.6825,-0.163387 -1.345068,-0.395658 -2.021503,-0.580728 -2.287968,-0.625977 1.489239,0.578731 -3.032254,-0.774304 C 46.454248,74.661409 46.140469,74.467444 45.78985,74.377912 45.125873,74.208361 44.439162,74.133508 43.768348,73.99076 43.22592,73.875338 42.690213,73.732658 42.151145,73.603608"
       id="path5379"
       inkscape:connector-curvature="0" />
    <path
       style="fill:none;fill-rule:evenodd;stroke:#000000;stroke-width:1.56662786px;stroke-linecap:butt;stroke-linejoin:miter;stroke-opacity:1"
       d="m 40.129641,73.022881 c -0.93097,-0.209508 -1.890123,-0.237135 -2.830104,-0.387152 -0.677829,-0.108182 -1.346094,-0.265885 -2.021502,-0.387151 -1.481365,-0.265976 -2.981933,-0.423501 -4.447307,-0.774305 -0.682499,-0.163387 -1.339003,-0.41734 -2.021502,-0.580728 -3.209764,-0.768403 1.148782,0.562308 -2.830104,-0.580727 -0.144326,-0.04145 -0.269534,-0.129052 -0.404302,-0.193576 -0.4043,-0.06452 -0.8086,-0.129051 -1.212901,-0.193576"
       id="path5381"
       inkscape:connector-curvature="0" />
    <path
       style="fill:none;fill-rule:evenodd;stroke:#000000;stroke-width:1.56662786px;stroke-linecap:butt;stroke-linejoin:miter;stroke-opacity:1"
       d="m 27.596324,70.506394 c -2.030648,-0.48613 -1.090059,-0.218891 -2.830104,-0.774304 -0.566083,-0.180689 -1.661077,-0.504947 -2.223654,-0.774304 -0.217305,-0.10405 -0.398119,-0.267454 -0.60645,-0.387151 -0.129197,-0.07423 -0.297758,-0.09155 -0.4043,-0.193577 -0.04765,-0.04563 0,-0.129051 0,-0.193576"
       id="path5383"
       inkscape:connector-curvature="0" />
    <path
       style="fill:none;fill-rule:evenodd;stroke:#000000;stroke-width:1.56662786px;stroke-linecap:butt;stroke-linejoin:miter;stroke-opacity:1"
       d="m 70.047885,68.76421 c -1.345836,-0.214792 -0.803025,-0.193575 -1.617203,-0.193575 -0.134768,0 -0.283762,0.05772 -0.4043,0 -0.06027,-0.02885 0.06027,-0.164721 0,-0.193577 -0.12053,-0.05772 -0.273557,0.03131 -0.404301,0 -0.146182,-0.035 -0.258126,-0.158583 -0.4043,-0.193576 -0.13075,-0.03131 -0.273559,0.03131 -0.404302,0 -0.146166,-0.035 -0.258125,-0.158582 -0.4043,-0.193575 -0.261486,-0.06259 -0.567523,0.115423 -0.808601,0 -0.06027,-0.02885 0.06027,-0.164719 0,-0.193576 -0.180807,-0.08657 -0.4043,0 -0.606451,0 -0.471684,0 -0.943368,0 -1.415052,0 -0.4043,0 -0.808602,0 -1.212901,0 -0.134769,0 -0.283762,-0.05772 -0.4043,0 -0.06027,0.02885 0.06027,0.164719 0,0.193576 -0.120531,0.05772 -0.283762,-0.05772 -0.404302,0 -0.12053,0.05772 0.09529,0.295898 0,0.387151 -0.106545,0.102023 -0.297758,0.09155 -0.404299,0.193577 -0.04764,0.04563 0,0.129051 0,0.193575 0,0.322627 0,0.645254 0,0.96788 0,0.06453 -0.04764,0.147955 0,0.193576 0.106545,0.102023 0.297757,0.09155 0.404299,0.193576 0.04765,0.04563 0,0.129052 0,0.193576 0,0.09127 -0.0091,0.959105 0,0.96788 0.106546,0.102023 0.320722,0.07353 0.404302,0.193575 0.07475,0.107379 -0.09529,0.2959 0,0.387151 0.09529,0.09125 0.283761,-0.05772 0.4043,0 0.06027,0.02885 -0.04764,0.147955 0,0.193578 0.106545,0.102023 0.297757,0.09155 0.404299,0.193576 0.04765,0.04563 -0.04764,0.147953 0,0.193575 0.106546,0.102023 0.29776,0.09155 0.404302,0.193576 0.04764,0.04563 -0.04764,0.147954 0,0.193576 0.106545,0.102023 0.283761,0.107004 0.4043,0.193576 0.304944,0.219005 0.51095,0.546283 0.808602,0.774303 0.189716,0.145333 0.454677,0.205483 0.60645,0.387152 0.133119,0.159333 0.07431,0.41749 0.202151,0.580727 0.09041,0.115423 0.283762,0.107005 0.4043,0.193578 0.152474,0.109507 0.251829,0.277647 0.404301,0.387151 0.120531,0.08657 0.269534,0.129052 0.4043,0.193575 0.134768,0.06453 0.258125,0.158582 0.4043,0.193577 0.13075,0.03131 0.269534,0 0.404302,0 0.134768,0 0.269533,0 0.4043,0 0.404301,0 0.808601,0 1.212901,0"
       id="path5385"
       inkscape:connector-curvature="0" />
    <path
       style="fill:none;fill-rule:evenodd;stroke:#000000;stroke-width:1.56662786px;stroke-linecap:butt;stroke-linejoin:miter;stroke-opacity:1"
       d="m 69.239283,68.377058 c 1.116777,0.143815 2.151797,0.515132 3.234404,0.774303 0.954777,0.228571 0.560103,0.0746 1.212903,0.387154"
       id="path5387"
       inkscape:connector-curvature="0" />
    <path
       style="fill:none;fill-rule:evenodd;stroke:#000000;stroke-width:1.56662786px;stroke-linecap:butt;stroke-linejoin:miter;stroke-opacity:1"
       d="m 58.929619,78.443007 c 0.336916,0.193576 0.673835,0.387151 1.010751,0.580727 0,0.06452 -0.0539,0.154861 0,0.193575 0.980517,0.704196 0.594601,0.0342 1.212903,0.774304 0.151769,0.181668 0.217656,0.431789 0.404299,0.580729 0.231503,0.184734 0.557865,0.227083 0.808602,0.387151 0.317159,0.202471 0.467664,0.611065 0.808601,0.774304 0.12053,0.05772 0.283761,-0.05772 0.4043,0 0.01095,0.0052 0.01095,0.575494 0,0.580727 -0.120531,0.05772 -0.269533,0 -0.4043,0"
       id="path5393"
       inkscape:connector-curvature="0" />
    <path
       style="fill:none;fill-rule:evenodd;stroke:#000000;stroke-width:1.56662786px;stroke-linecap:butt;stroke-linejoin:miter;stroke-opacity:1"
       d="m 62.366174,81.540221 c 0.410049,0.739356 0.404299,1.059555 0.404299,1.742183 0,0.06452 -0.04764,0.147953 0,0.193576 0.106546,0.102023 0.320722,0.07353 0.404302,0.193576 0.07475,0.107378 0,0.2581 0,0.387152 0,0.06453 0,0.129051 0,0.193576 0,0.451677 0,0.903353 0,1.35503 0,0.110175 0.01376,0.754488 0,0.774305 -0.08358,0.120052 -0.297758,0.09155 -0.404302,0.193575 -0.04764,0.04563 0.04765,0.147955 0,0.193577 -0.106545,0.102023 -0.269534,0.129051 -0.404299,0.193576 -0.269535,0.129051 -0.522718,0.295898 -0.808602,0.387151 -0.263572,0.08413 -0.560104,0.0746 -0.808602,0.193575 -0.301346,0.144275 -0.493135,0.467447 -0.8086,0.580728 -2.021504,0.72591 -0.252687,-0.181476 -1.010751,0 -0.206724,0.04949 -0.395508,0.164719 -0.606451,0.193576 -0.266825,0.0365 -0.547116,-0.06259 -0.808602,0 -0.06536,0.01565 0,0.129051 0,0.193576 -0.134768,0 -0.269533,0 -0.4043,0"
       id="path5395"
       inkscape:connector-curvature="0" />
    <path
       style="fill:none;fill-rule:evenodd;stroke:#000000;stroke-width:1.56662786px;stroke-linecap:butt;stroke-linejoin:miter;stroke-opacity:1"
       d="m 58.323168,87.541073 c -1.347669,0 -2.695337,0 -4.043006,0 -0.269534,0 -0.539067,0 -0.808601,0 -0.20215,0 -0.405861,0.024 -0.606451,0 -0.340936,-0.0408 -0.671157,-0.143553 -1.010751,-0.193575 -0.536947,-0.07911 -1.09016,-0.06741 -1.617203,-0.193576 -0.558534,-0.133712 -1.071023,-0.406389 -1.617203,-0.580728 -0.26357,-0.08413 -0.560103,-0.0746 -0.8086,-0.193575 C 47.510004,86.235335 47.3041,85.943174 47.002752,85.79889 46.621573,85.616386 46.171029,85.594245 45.78985,85.411739 45.619382,85.330119 45.544129,85.125822 45.385549,85.024587 45.134813,84.864518 44.846482,84.766485 44.576948,84.637435"
       id="path5397"
       inkscape:connector-curvature="0" />
    <path
       style="fill:none;fill-rule:evenodd;stroke:#000000;stroke-width:1.56662786px;stroke-linecap:butt;stroke-linejoin:miter;stroke-opacity:1"
       d="m 44.172648,85.79889 c -0.657105,-0.09543 -1.365991,0.104616 -2.021503,0 -0.148616,-0.02372 -0.269535,-0.129051 -0.4043,-0.193576 -0.336919,-0.06452 -0.670615,-0.14705 -1.010752,-0.193575 -6.985117,-0.955548 2.973862,0.588514 -3.436556,-0.580728 -5.228129,-0.953594 -0.605882,9.7e-5 -4.043005,-0.580727 -1.353446,-0.228714 -2.692188,-0.531768 -4.043006,-0.774304 -0.402857,-0.07233 -0.810044,-0.121248 -1.212902,-0.193576 -0.675408,-0.121264 -1.34123,-0.294092 -2.021502,-0.387153 -0.266825,-0.0365 -0.540405,0.02568 -0.808602,0 -0.407844,-0.03906 -0.806189,-0.144887 -1.212901,-0.193575 -0.671966,-0.08044 -1.353522,-0.08697 -2.021503,-0.193576 -0.822147,-0.131214 -1.617201,-0.387152 -2.425805,-0.580728"
       id="path5399"
       inkscape:connector-curvature="0" />
    <path
       style="fill:none;fill-rule:evenodd;stroke:#000000;stroke-width:1.56662786px;stroke-linecap:butt;stroke-linejoin:miter;stroke-opacity:1"
       d="m 22.744718,83.47598 c -0.404303,-0.06452 -0.80619,-0.144887 -1.212902,-0.193576 -0.133728,-0.01601 -0.271368,0.02122 -0.404302,0 -0.819528,-0.1308 -1.606274,-0.449934 -2.425803,-0.580728 -0.265866,-0.04243 -0.541148,0.03201 -0.808601,0 -0.275683,-0.03299 -0.535532,-0.144551 -0.808601,-0.193576 -1.441837,-0.258878 -3.015008,-0.431417 -4.447306,-0.774303 -0.413445,-0.09898 -0.803129,-0.275041 -1.212901,-0.387152 -4.6127649,-1.262032 0.345814,0.28732 -2.4258049,-0.774303 -0.395688,-0.151557 -0.799455,-0.288175 -1.212902,-0.387154 -0.13075,-0.03131 -0.283761,0.05772 -0.4043,0 -0.170467,-0.08162 -0.269533,-0.2581 -0.404301,-0.387151"
       id="path5401"
       inkscape:connector-curvature="0" />
    <path
       style="fill:none;fill-rule:evenodd;stroke:#000000;stroke-width:1.56662786px;stroke-linecap:butt;stroke-linejoin:miter;stroke-opacity:1"
       d="m 58.929619,78.443007 c -0.336918,0.06452 -0.667161,0.193576 -1.010753,0.193576 -0.277828,0 -0.534552,-0.14984 -0.8086,-0.193576 -0.132927,-0.02122 -0.273557,0.03131 -0.404301,0 -0.146166,-0.035 -0.263219,-0.142911 -0.4043,-0.193577 -0.399037,-0.143293 -0.804706,-0.269887 -1.212902,-0.387151 -0.266112,-0.07646 -0.542488,-0.117124 -0.808601,-0.193578 C 53.08081,77.324158 52.710144,77.131766 51.450057,76.700823 50.513131,76.3804 49.58164,76.156743 48.619953,75.92652"
       id="path5403"
       inkscape:connector-curvature="0" />
    <path
       style="fill:none;fill-rule:evenodd;stroke:#000000;stroke-width:1.56662786px;stroke-linecap:butt;stroke-linejoin:miter;stroke-opacity:1"
       d="M 60.34467,81.346645 C 60.738734,79.18 59.266535,81.475697 58.929619,81.15307 c -0.04764,-0.04563 0.06392,-0.173172 0,-0.193577 -0.505377,-0.161314 -0.56153,0.107548 -1.010753,0 -0.146166,-0.035 -0.258123,-0.158582 -0.4043,-0.193576 -1.109949,-0.265717 0.33672,0.354794 -0.808601,-0.193575 -1.14532,-0.548371 0.301349,0.07214 -0.8086,-0.193578 -0.292351,-0.06998 -0.516252,-0.317163 -0.808602,-0.387151 -0.13075,-0.03131 -0.273558,0.03131 -0.404301,0 -0.146166,-0.035 -0.258125,-0.158582 -0.4043,-0.193576 -0.261486,-0.0626 -0.547115,0.06259 -0.808601,0 -0.929141,-0.222432 -0.04587,-0.193575 -0.606451,-0.193575 -0.202149,0 -0.4043,0 -0.606452,0 -0.134768,0 -0.273557,0.0313 -0.404299,0 -0.146167,-0.035 -0.258125,-0.158583 -0.404302,-0.193577 -0.159022,-0.03807 -1.00268,0 -1.212901,0 -0.134768,0 -0.283761,-0.05772 -0.4043,0 -0.06027,0.02885 0.06027,0.16472 0,0.193577 -0.12053,0.05772 -0.283761,-0.05772 -0.404301,0 -0.06027,0.02885 0.06027,0.164719 0,0.193575 -0.12053,0.05772 -0.283762,-0.05772 -0.404301,0 -0.06027,0.02885 0,0.129051 0,0.193576 0,0.06452 0,0.129051 0,0.193575 0,0.387154 0,0.774305 0,1.161457 0,0.06452 -0.04764,0.147954 0,0.193576 0.106545,0.102023 0.297759,0.09155 0.404301,0.193576 0.04864,0.04658 -0.04864,0.727723 0,0.774303 1.14532,0.548371 -0.150681,-0.216425 0.404301,0.580727 0.08358,0.120053 0.336917,0.06452 0.4043,0.193577 0.09041,0.17314 -0.09041,0.407588 0,0.580728 0.04055,0.07767 0.698022,0.281263 0.808601,0.387152 0.04764,0.04563 -0.04764,0.147953 0,0.193575 0.106546,0.102024 0.283762,0.107005 0.4043,0.193576 0.304943,0.219006 0.481745,0.586507 0.808601,0.774304 0.18272,0.104978 0.415863,0.102328 0.606452,0.193575 0.217305,0.10405 0.395507,0.271726 0.606451,0.387152 0.261643,0.143171 0.539067,0.258102 0.808601,0.387153 0.269534,0.129052 0.526439,0.285829 0.808601,0.387152 0.188977,0.06785 0.894753,0.269738 1.212902,0.193576 0.146167,-0.035 0.269534,-0.129053 0.4043,-0.193576"
       id="path5405"
       inkscape:connector-curvature="0" />
    <path
       style="fill:none;fill-rule:evenodd;stroke:#000000;stroke-width:1.56662786px;stroke-linecap:butt;stroke-linejoin:miter;stroke-opacity:1"
       d="m 56.301665,11.272166 c 0.380158,0.187796 0.820671,-0.09389 1.212901,0 0.146183,0.035 0.265811,0.136747 0.4043,0.193576 0.333532,0.136884 0.708826,0.194404 1.010753,0.387151 0.125371,0.08004 0.09561,0.285129 0.20215,0.387151 0.106546,0.102023 0.269534,0.129052 0.4043,0.193577 0.269534,0.129051 0.567524,0.214012 0.808601,0.387152 0.0539,0.03871 -0.04764,0.147954 0,0.193577 0.213087,0.204046 0.595516,0.183105 0.808603,0.387151 0.04764,0.04563 0,0.129051 0,0.193575 0,0.06452 0,0.129052 0,0.193576"
       id="path5407"
       inkscape:connector-curvature="0" />
    <path
       style="fill:none;fill-rule:evenodd;stroke:#000000;stroke-width:1.56662786px;stroke-linecap:butt;stroke-linejoin:miter;stroke-opacity:1"
       d="m 59.536069,12.240044 c 0.269534,0.06452 0.539067,0.129052 0.808601,0.193577 0.134769,0.06452 0.26136,0.147953 0.4043,0.193576 0.263572,0.08413 0.54503,0.109439 0.808602,0.193576 0.14295,0.04563 0.269533,0.129052 0.404302,0.193577 0.269534,0.129051 0.539065,0.2581 0.808599,0.387151 0.404302,0.193575 0.836798,0.340625 1.212901,0.580727 0.158575,0.101242 0.240874,0.293255 0.404303,0.387152 0.182718,0.104978 0.455775,0.04929 0.60645,0.193576 0.150681,0.144289 0.106853,0.398223 0.202151,0.580728 0.108661,0.208088 0.314068,0.364717 0.4043,0.580727 0.02406,0.0576 0,0.888505 0,0.96788 0,0.03645 0.0076,0.956752 0,0.967879 -0.08358,0.120053 -0.297757,0.09155 -0.4043,0.193576 -0.09529,0.09125 0.06027,0.271725 0,0.387153 -0.141124,0.270286 -0.58511,0.315813 -0.808601,0.387152"
       id="path5409"
       inkscape:connector-curvature="0" />
    <path
       style="fill:none;fill-rule:evenodd;stroke:#000000;stroke-width:1.56662786px;stroke-linecap:butt;stroke-linejoin:miter;stroke-opacity:1"
       d="m 63.983374,17.079443 c -0.134767,0.451677 -0.205064,0.925768 -0.404299,1.355031 -0.195156,0.420478 -0.901436,0.575467 -1.212901,0.774304 -0.158575,0.101242 -0.233833,0.305532 -0.4043,0.387152 -0.381178,0.182505 -0.808601,0.258101 -1.212904,0.387151 -0.4043,0.129051 -0.8086,0.258101 -1.212901,0.387151 -0.202149,0.06452 -0.399728,0.144092 -0.60645,0.193576 -0.602697,0.144291 -1.214018,0.253386 -1.819353,0.387152 -0.270714,0.05982 -0.534553,0.14984 -0.808601,0.193577 -0.535871,0.08553 -1.078135,0.129052 -1.617203,0.193577"
       id="path5411"
       inkscape:connector-curvature="0" />
    <path
       style="fill:none;fill-rule:evenodd;stroke:#000000;stroke-width:1.56662786px;stroke-linecap:butt;stroke-linejoin:miter;stroke-opacity:1"
       d="m 56.301665,10.497862 c -1.60672,-0.266322 -3.231433,-0.193575 -4.851608,-0.193575 -0.4043,0 -0.808601,0 -1.212901,0 -0.269534,0 -0.540405,-0.02568 -0.808601,0 -0.407842,0.03906 -0.805058,0.154521 -1.212902,0.193575 -0.268196,0.02568 -0.540405,-0.02568 -0.808601,0 -1.240582,0.118796 -2.430813,0.517269 -3.638704,0.774304 -0.400118,0.08514 -0.810985,0.116603 -1.212904,0.193576 -0.946048,0.181183 -1.886735,0.387151 -2.830103,0.580726"
       id="path5413"
       inkscape:connector-curvature="0" />
    <path
       style="fill:none;fill-rule:evenodd;stroke:#000000;stroke-width:1.56662786px;stroke-linecap:butt;stroke-linejoin:miter;stroke-opacity:1"
       d="m 42.555444,11.272166 c -1.755225,0.192185 -3.244448,0.501889 -4.851605,1.161455 -0.415474,0.170508 -0.79984,0.404931 -1.212903,0.580729 -0.800483,0.340679 -1.6423,0.592743 -2.425803,0.967878 -0.434609,0.208088 -0.787141,0.550069 -1.212901,0.774303 -0.924161,0.486729 -1.905945,0.868304 -2.830105,1.355033 -0.425761,0.224234 -0.787139,0.550066 -1.212901,0.774303 -1.189614,1.140763 -3.019099,1.251944 -4.447307,1.93576 -0.301348,0.144274 -0.516076,0.420658 -0.8086,0.580726 -1.046574,0.572675 -2.15627,1.032405 -3.234404,1.548607"
       id="path5415"
       inkscape:connector-curvature="0" />
    <path
       style="fill:none;fill-rule:evenodd;stroke:#000000;stroke-width:1.56662786px;stroke-linecap:butt;stroke-linejoin:miter;stroke-opacity:1"
       d="m 27.596324,17.466594 c -1.878179,0.44963 0.456749,-0.08747 -2.021504,0.387152 -0.272434,0.05217 -0.539066,0.129052 -0.8086,0.193576 -0.345899,0.0828 -1.656856,0.35458 -2.223654,0.580729 -1.67186,0.66706 -2.174706,0.944442 -3.840855,1.742181 -0.673835,0.322628 -1.360123,0.62243 -2.021503,0.967882 -0.821815,0.429249 -1.603988,0.925781 -2.425802,1.35503 -0.661381,0.345451 -1.347669,0.645254 -2.021504,0.967879 -0.8086,0.387154 -1.617203,0.774305 -2.4258039,1.161456"
       id="path5417"
       inkscape:connector-curvature="0" />
    <path
       style="fill:none;fill-rule:evenodd;stroke:#000000;stroke-width:1.56662786px;stroke-linecap:butt;stroke-linejoin:miter;stroke-opacity:1"
       d="m 22.542566,67.989907 c -0.471682,0 -0.943367,0 -1.415052,0 -0.134767,-0.06453 -0.255676,-0.169857 -0.404299,-0.193576 -0.265867,-0.04243 -0.542735,0.04243 -0.808601,0 -0.148632,-0.02372 -0.258126,-0.158582 -0.404303,-0.193575 -0.130748,-0.03131 -0.273556,0.03131 -0.4043,0 -0.146183,-0.035 -0.26322,-0.142911 -0.4043,-0.193576 -0.399035,-0.143294 -0.824931,-0.218283 -1.212901,-0.387152 -0.357693,-0.155691 -0.648066,-0.436019 -1.010753,-0.580727 -0.452823,-0.180674 -0.941778,-0.263554 -1.415051,-0.387154 -0.268038,-0.07 -0.560103,-0.0746 -0.8086,-0.193575 -0.17047,-0.08162 -0.269534,-0.2581 -0.404301,-0.387153"
       id="path5419"
       inkscape:connector-curvature="0" />
    <path
       style="fill:none;fill-rule:evenodd;stroke:#000000;stroke-width:1.56662786px;stroke-linecap:butt;stroke-linejoin:miter;stroke-opacity:1"
       d="m 56.705965,12.240044 c -0.939344,-0.224874 -0.530772,-0.193576 -1.212901,-0.193576 -0.134767,0 -0.273559,-0.0313 -0.404301,0 -0.146167,0.035 -0.269533,0.129053 -0.404301,0.193576 -0.134767,0.06452 -0.269532,0.129052 -0.4043,0.193577 -1.848351,0.884976 0.417894,-0.240102 -2.021504,1.161455 -0.258402,0.14846 -0.553057,0.234213 -0.808601,0.387152 -0.285705,0.170991 -0.522895,0.409736 -0.808601,0.580728 -2.443519,1.169938 0.501474,-0.400169 -1.212901,0.96788 -0.231501,0.184735 -0.557864,0.227084 -0.808602,0.387152 -0.2259,0.144213 -0.744991,0.754693 -0.8086,0.967879 -0.09257,0.310212 0,0.645253 0,0.967879 0,0.451677 0,0.903355 0,1.355032 0,0.06452 -0.04765,0.147954 0,0.193575 0.106545,0.102023 0.297757,0.09155 0.4043,0.193577 0.04764,0.04563 -0.06027,0.164719 0,0.193576 0.120531,0.05772 0.273558,-0.03131 0.4043,0 0.146183,0.035 0.255678,0.169856 0.404301,0.193575 0.265866,0.04244 0.539068,0 0.808602,0 0.269532,0 0.539066,0 0.8086,0 0.741219,0 1.482437,0 2.223654,0 0.471685,0 0.947012,0.05602 1.415052,0 2.401661,-0.287473 -1.216692,-0.193575 2.021503,-0.193575"
       id="path5421"
       inkscape:connector-curvature="0" />
    <path
       style="fill:none;fill-rule:evenodd;stroke:#000000;stroke-width:1.56662786px;stroke-linecap:butt;stroke-linejoin:miter;stroke-opacity:1"
       d="m -6.7692239,3.5291284 c 0.2695317,-0.1935756 0.539066,-0.3871512 0.8086,-0.5807279 0,-0.064524 -0.04764,-0.1479533 0,-0.1935756 0.106545,-0.1020231 0.297758,-0.09155 0.404301,-0.1935756 0.04764,-0.045628 -0.06027,-0.164719 0,-0.1935756 0.120531,-0.05772 0.273558,0.031306 0.4043,0 0.134768,-0.064524 0.269534,-0.1290511 0.404301,-0.1935756 0,-0.064524 -0.06027,-0.1647202 0,-0.1935756 0.120531,-0.05772 0.273556,0.031306 0.4043,0 0.146183,-0.034997 0.261359,-0.1479544 0.4043,-0.1935767 0.263572,-0.084134 0.539068,-0.1290512 0.808602,-0.1935756 0.539067,-0.1290511 1.072335,-0.2828002 1.617202,-0.3871534 1.82656801,-0.34981671 0.72637301,-0.00521 2.830105,-0.58072681 0.409773,-0.11211111 0.804705,-0.26988634 1.212902,-0.38715235 0.568711,-0.16337626 1.475089,-0.33482627 2.021502,-0.38715119 0.268197,-0.0256784 0.539068,0 0.808602,0 0.4043,0 0.8086,0 1.212901,0 0.4043,0 0.808601,0 1.212901,0 0.134768,0 0.273559,-0.0313055 0.404302,0 0.146166,0.0349965 0.258124,0.15858249 0.4043,0.19357559 0.13075,0.0313055 0.269533,0 0.4043,0 0.134769,0.0645245 0.258126,0.15858249 0.404301,0.1935756 0.130749,0.0313055 0.283762,-0.0577199 0.4043,0 0.06027,0.0288486 -0.06392,0.1731721 0,0.19357672 0.191777,0.0612184 0.4103359,-0.0469526 0.6064509,0 0.560868,0.13426383 -0.0178,0.1765223 0.20215,0.38715123 0.106546,0.1020231 0.297759,0.09155 0.404302,0.19357561 0.04765,0.045628 0,0.1290522 0,0.1935756 0,0.064524 0,0.1290522 0,0.1935778 0,0.3871512 0,0.7743035 0,1.1614547 0,0.064524 0.04765,0.1479545 0,0.1935756 -0.106546,0.1020231 -0.297759,0.09155 -0.404302,0.1935756 -0.07095,0.067944 0.06982,0.83417 0,0.9678791 -0.04262,0.081621 -0.159534,0.1119639 -0.20215,0.1935779 -0.03654,0.069993 0,0.8332393 0,0.9678791 0,0.044677 0.02332,0.5732825 0,0.5807267 -0.191777,0.061218 -0.4146739,-0.061218 -0.6064509,0 -0.06392,0.020402 0,0.1290523 0,0.1935768 0,0.3226267 0,0.6452523 0,0.9678791 0,0.4355462 0.06738,-0.032257 -0.4043,0.1935767 -0.02161,0.010303 0.04188,0.734194 0,0.7743035 -0.106545,0.1020231 -0.297757,0.09155 -0.404301,0.1935756 -0.04864,0.046579 0.04864,0.7277234 0,0.7743035 -0.106545,0.1020231 -0.297758,0.09155 -0.4043,0.1935756 -0.04865,0.046579 0.04864,0.7277237 0,0.7743037 -0.09529,0.09124 -0.283761,-0.05772 -0.4043,0 -0.08391,0.04018 0.07055,0.5131602 0,0.5807292 -0.106545,0.102023 -0.297759,0.09155 -0.404302,0.193575 -0.09529,0.09125 0.09529,0.295899 0,0.387152 -0.106545,0.102023 -0.297757,0.09155 -0.4043,0.193575 -0.09529,0.09125 0.09529,0.295899 0,0.387153 -0.106545,0.102023 -0.320722,0.07353 -0.404301,0.193575 -0.224265,0.128561 0.11213,0.419663 0,0.580727 -0.105721,0.151848 -0.29858,0.2353 -0.4043,0.387153 -0.03738,0.05369 0.06027,0.164719 0,0.193576 -0.120531,0.05772 -0.283762,-0.05772 -0.404301,0 -0.120531,0.05772 0.09529,0.295899 0,0.387152 -0.106545,0.102023 -0.297758,0.09155 -0.4043,0.193576 -0.09529,0.09124 0.09529,0.295899 0,0.387151 -0.106545,0.102023 -0.320723,0.07353 -0.4043,0.193576 -0.07475,0.107378 0.07475,0.279776 0,0.387152 -0.08358,0.120052 -0.297759,0.09155 -0.404302,0.193576 -0.04764,0.04563 0.04764,0.147954 0,0.193575 -0.106545,0.102023 -0.297757,0.09155 -0.4043,0.193576 -0.09529,0.09124 0.06027,0.271726 0,0.387152 -0.04262,0.08162 -0.159535,0.111953 -0.202151,0.193577 -0.03012,0.05772 0.05607,0.157783 0,0.193575 -0.177296,0.113187 -0.429154,0.0804 -0.60645,0.193577 -0.11213,0.07158 0.09529,0.295899 0,0.387151 -0.106545,0.102023 -0.297757,0.09155 -0.4043,0.193576 -0.09529,0.09124 0.09529,0.295899 0,0.387152 -0.106545,0.102023 -0.29776,0.09155 -0.404301,0.193576 -0.09529,0.09124 0.09529,0.295899 0,0.387151 -0.106545,0.102023 -0.297759,0.09155 -0.4043,0.193576 -0.04764,0.04563 0.04764,0.147954 0,0.193576 -0.106545,0.102023 -0.297759,0.09155 -0.4043,0.193576 -0.04765,0.04563 0.04764,0.147953 0,0.193577 -0.106545,0.102023 -0.29776,0.09155 -0.404302,0.193575 -0.09529,0.09125 0.09529,0.295899 0,0.387153 -0.106546,0.102023 -0.297758,0.09155 -0.4043,0.193575 -0.04765,0.04563 0.04764,0.147955 0,0.193576 -0.106546,0.102023 -0.297759,0.09155 -0.40430199,0.193575 -0.04764,0.04563 0.04764,0.147955 0,0.193577 -0.106545,0.102023 -0.32072,0.07353 -0.404299,0.193576 -0.07475,0.107378 0,0.258101 0,0.387151 -0.134769,0.06452 -0.29776,0.09155 -0.404302,0.193575 -0.09529,0.09125 0.09529,0.295901 0,0.387153 -0.74568,0.714051 -0.08156,-0.463562 -0.808599,0.580729 -0.07476,0.107378 0.09529,0.295899 0,0.387151 -0.106546,0.102023 -0.29776001,0.09155 -0.40430301,0.193576 -0.04764,0.04563 0,0.129052 0,0.193575 0,0.129052 0.07475,0.279776 0,0.387153 -0.539067,0.774302 -0.336916,-0.451678 -0.60645,0.580726 -0.03269,0.125204 0.09529,0.295901 0,0.387153 -0.150681,0.144289 -0.429154,0.08039 -0.606451,0.193575 -0.05607,0.0358 0.04764,0.147954 0,0.193576 -0.74568,0.714053 -0.08156,-0.463562 -0.808601,0.580729 -0.07475,0.107378 0.09529,0.295899 0,0.387151 -0.106545,0.102023 -0.320723,0.07353 -0.4043,0.193576 -0.07475,0.107378 0.09529,0.295898 0,0.387152 -0.09529,0.09124 -0.283762,-0.05772 -0.404302,0 -0.06027,0.02885 0.04764,0.147953 0,0.193576 -0.106545,0.102023 -0.297757,0.09155 -0.4043,0.193575 -0.04764,0.04563 0.04764,0.147955 0,0.193576 -0.106545,0.102023 -0.283761,0.107005 -0.4043,0.193576 -0.937858,-0.16564 -0.232506,0.41622 -0.404301,0.58073 -0.106545,0.102023 -0.297757,0.09155 -0.4043,0.193575 -0.04764,0.04563 0.04764,0.147953 0,0.193576 -0.106545,0.102023 -0.269534,0.129051 -0.404301,0.193575 -0.269534,0.129051 -0.5955157,0.183105 -0.8086,0.387152 -0.09529,0.09124 0.074749,0.279776 0,0.387152 -0.083581,0.120052 -0.286645,0.10345 -0.4043024,0.193575 -0.2232357,0.171016 -0.3685798,0.428876 -0.6064505,0.580728 -0.1772965,0.113187 -0.4400593,0.0661 -0.6064504,0.193576 -0.1897162,0.145332 -0.2325053,0.416219 -0.4043,0.580729 -0.1065452,0.102023 -0.2977596,0.09155 -0.4043011,0.193576 -0.1717947,0.164507 -0.2525289,0.399058 -0.4042999,0.580726 -0.119067,0.142512 -0.2985813,0.235299 -0.4043028,0.387153 -0.03738,0.05369 0.047639,0.147953 0,0.193575 -0.106545,0.102023 -0.297757,0.09155 -0.404299,0.193576 -0.04764,0.04563 0.04764,0.147954 0,0.193575 -0.745681,0.714052 -0.08156,-0.463562 -0.808602,0.580728 -0.03738,0.05369 0.04764,0.147954 0,0.193576 -0.213084,0.204048 -0.595515,0.183105 -0.808601,0.387153 -0.336917,0.322626 0.741218,0.193576 -0.404299,0.193576"
       id="path5423"
       inkscape:connector-curvature="0" />
    <path
       style="fill:none;fill-rule:evenodd;stroke:#000000;stroke-width:1.56662786px;stroke-linecap:butt;stroke-linejoin:miter;stroke-opacity:1"
       d="m 10.615699,22.693144 c -0.597174,0.09531 -1.4183809,0.19464 -2.0215019,0.387151 -0.142949,0.04563 -0.261359,0.147955 -0.4043,0.193576 -0.263572,0.08413 -0.54249,0.117124 -0.808602,0.193577 -0.408198,0.117262 -0.804704,0.269887 -1.212902,0.387151 -1.452478,0.417262 -0.371612,-0.08629 -2.425803,0.774304 -0.828246,0.346988 -1.591302,0.828496 -2.425803,1.161455 -0.53143899,0.21204 -1.08576399,0.368688 -1.61720199,0.580728 -0.91053301,0.363297 -1.53745901,0.85881 -2.42580401,1.355032 -0.260299,0.145394 -0.539068,0.258102 -0.808601,0.387152 -0.673834,0.322625 -1.347669,0.645253 -2.021503,0.967879 -0.269534,0.129051 -0.550199,0.238687 -0.808601,0.387151 -0.4166643,0.239396 -0.8086024,0.516204 -1.2129023,0.774305 -0.4043011,0.2581 -0.8241745,0.495124 -1.212901,0.774303 -0.5551434,0.398698 -0.7919255,1.044707 -1.2129038,1.548608 -0.82318,0.985331 0.0064,-0.399264 -0.808599,1.161455"
       id="path5425"
       inkscape:connector-curvature="0" />
    <path
       style="fill:none;fill-rule:evenodd;stroke:#000000;stroke-width:1.56662786px;stroke-linecap:butt;stroke-linejoin:miter;stroke-opacity:1"
       d="m -7.5778262,4.1098575 c -0.6788414,0.3696382 -1.031544,1.0812582 -1.6172021,1.5486058 -0.2588267,0.2065417 -0.5497744,0.3741875 -0.8086027,0.580728 -0.146406,0.1168335 -0.269531,0.2581011 -0.404299,0.3871511 -0.134769,0.1290523 -0.257886,0.2703155 -0.4043,0.3871535 -0.185954,0.577894 -0.839617,0.4764257 -1.212903,0.7743035 -0.292828,0.2336738 -0.539068,0.5162012 -0.808602,0.7743035 -0.539066,0.3871512 -1.078134,0.7743024 -1.617201,1.1614549"
       id="path5427"
       inkscape:connector-curvature="0" />
    <path
       style="fill:none;fill-rule:evenodd;stroke:#000000;stroke-width:1.56662786px;stroke-linecap:butt;stroke-linejoin:miter;stroke-opacity:1"
       d="m -12.833735,8.1749506 c -0.336916,0.5162023 -0.613635,1.0732683 -1.01075,1.5486072 -0.41671,0.4987932 -0.992642,0.8606532 -1.415052,1.3550312 -0.190824,0.223339 -0.237144,0.534204 -0.4043,0.774304 -0.239334,0.343773 -0.579926,0.617518 -0.808602,0.96788 -1.211101,1.855571 -1.300769,2.513079 -2.425804,4.452245 -0.235978,0.406744 -0.572623,0.754711 -0.8086,1.161456 -0.05225,0.09007 -1.408155,2.540116 -1.617202,3.290791 -0.177062,0.635813 -0.269535,1.290506 -0.404302,1.935758"
       id="path5429"
       inkscape:connector-curvature="0" />
    <path
       style="fill:none;fill-rule:evenodd;stroke:#000000;stroke-width:1.56662786px;stroke-linecap:butt;stroke-linejoin:miter;stroke-opacity:1"
       d="m 0.91248511,2.5612493 c -0.404299,0.2581012 -0.808601,0.5162012 -1.2129,0.7743035 -0.134769,0.1290512 -0.25183,0.2776487 -0.4043,0.3871512 -0.62490001,0.4487953 -0.31541301,-0.1702363 -0.80860301,0.7743046 -0.319507,0.6119112 0.74457701,-0.4769385 -0.20215,0.580728 -0.310085,0.34642 -0.696992,0.6245058 -1.010751,0.9678791 -0.578979,0.6336234 -0.28632,0.6048405 -0.808601,1.3550314 -0.105721,0.1518481 -0.319067,0.2239142 -0.404302,0.3871523 -0.06027,0.1154228 0.07475,0.2797739 0,0.3871512 -0.08358,0.1200524 -0.310174,0.080919 -0.4043,0.1935756 -0.549677,0.6579546 -0.4043,1.1908694 -0.4043,1.9357608 0,0.129051 0,0.2581 0,0.387151 0,0.06452 -0.03738,0.13989 0,0.193576 0.105721,0.151848 0.298581,0.235297 0.4043,0.387152 0.03738,0.05369 -0.04764,0.147953 0,0.193576 0.106545,0.102023 0.269534,0.129051 0.4043,0.193575 0.64538,0.309003 0.253627,0.193576 1.212903,0.193576 0.682128,0 0.273557,0.0313 1.212901,-0.193576 0.269534,-0.06452 0.54503001,-0.109439 0.80860301,-0.193575 0.546179,-0.174339 1.063628,-0.429273 1.6172,-0.580728 0.39410799,-0.107832 0.80860199,-0.129052 1.21290399,-0.193576 0.8086,-0.258101 1.617201,-0.516203 2.425802,-0.7743032"
       id="path5431"
       inkscape:connector-curvature="0" />
    <path
       style="fill:none;fill-rule:evenodd;stroke:#000000;stroke-width:1.56662786px;stroke-linecap:butt;stroke-linejoin:miter;stroke-opacity:1"
       d="m 5.3597931,8.9492541 c 2.604897,-2.2865418 1.817339,-1.255352 2.830104,-2.7100628"
       id="path5433"
       inkscape:connector-curvature="0" />
    <path
       style="fill:none;fill-rule:evenodd;stroke:#000000;stroke-width:1.56662786px;stroke-linecap:butt;stroke-linejoin:miter;stroke-opacity:1"
       d="m -0.30041489,1.3997946 c 0.158558,-0.3036498 0.522871,-1.08142242 0.808601,-1.35503256 0.238237,-0.22813053 0.53906799,-0.38715119 0.80860099,-0.58072678"
       id="path5435"
       inkscape:connector-curvature="0" />
    <path
       style="fill:none;fill-rule:evenodd;stroke:#000000;stroke-width:1.56662786px;stroke-linecap:butt;stroke-linejoin:miter;stroke-opacity:1"
       d="m 5.3597931,81.15307 c -2.691009,0 0.280006,-0.230854 -1.010753,0.387151 -0.307314,0.147142 -0.684792,0.08953 -1.01075,0.193576 -0.285884,0.09124 -0.539068,0.258101 -0.808601,0.387151 -0.673834,0.322628 -1.378666,0.591698 -2.02150299,0.967879 -0.0054,0.0032 -3.21943501,2.312878 -3.23440501,2.322912 -0.796144,0.533663 -1.64835,0.990249 -2.425804,1.548608 -0.573037,0.411547 -1.036516,0.953434 -1.617201,1.35503 -3.3816411,2.338704 -0.9646329,0.14941 -2.8301043,1.935759"
       id="path5437"
       inkscape:connector-curvature="0" />
    <path
       style="fill:none;fill-rule:evenodd;stroke:#000000;stroke-width:1.56662786px;stroke-linecap:butt;stroke-linejoin:miter;stroke-opacity:1"
       d="m -3.5348199,88.508953 c -0.539068,0.258102 -1.106118,0.468424 -1.617203,0.774304 -3.6646948,2.193283 -0.02878,0.359453 -2.6279539,1.742183 -0.3480075,0.185138 -3.4406972,1.803425 -4.2451562,2.129335 -2.72007,1.101986 -4.408242,1.68888 -7.27741,2.322911 -0.52935,0.116972 -1.076311,0.145011 -1.617201,0.193576 -1.615724,0.145057 -3.234406,0.258102 -4.851608,0.387152"
       id="path5439"
       inkscape:connector-curvature="0" />
    <path
       style="fill:none;fill-rule:evenodd;stroke:#000000;stroke-width:1.56662786px;stroke-linecap:butt;stroke-linejoin:miter;stroke-opacity:1"
       d="m -21.728347,24.822479 c -0.539067,0.06452 -1.090159,0.06741 -1.617202,0.193576 -1.475997,0.353348 -1.323858,0.506228 -2.425803,0.967879 -2.791729,1.169576 -2.373944,0.817607 -5.255908,2.322911 -0.558073,0.291491 -1.061505,0.672255 -1.617202,0.96788 -0.658564,0.350351 -1.383977,0.5835 -2.021503,0.96788 -1.186552,0.715399 -2.265168,1.584948 -3.436555,2.322911 -7.297311,4.597229 -1.318711,0.223681 -8.692462,6.000853"
       id="path5441"
       inkscape:connector-curvature="0" />
  </g>
  <g
     inkscape:groupmode="layer"
     id="layer19"
     inkscape:label="Layer 2">
    <path
       style="fill:none;fill-rule:evenodd;stroke:#000000;stroke-width:1px;stroke-linecap:butt;stroke-linejoin:miter;stroke-opacity:1"
       d="m -3.5355339,84.973981 c 3.11786652,-2.407677 5.9347297,-4.736975 10.3540636,-4.798225 l 50.7601653,8.333759 c 3.435967,0.265482 6.72027,-1.00458 6.81853,-3.788072 1.168037,-2.551696 -2.043335,-5.046925 -5.050763,-6.060916 -14.506148,-3.279159 -27.76159,-5.102336 -42.426406,-11.616753 17.410903,4.246117 31.826348,6.813223 48.234783,9.722717 5.007619,0.106876 11.523881,2.153435 12.121831,-3.409264 C 77.17891,69.07184 72.926838,66.655267 67.680221,65.654813 64.274162,65.22849 22.858423,60.410584 19.445437,50.755063 20.381222,42.917855 47.635332,38.605127 67.175144,35.855313 72.273588,34.519108 77.719839,35.641054 78.034285,29.036784 75.483099,22.368069 68.06736,22.27274 63.260803,22.8496 31.598498,27.229718 26.853782,30.74199 14.015867,35.350237 24.28423,31.589383 32.337628,25.834734 56.821081,21.713178 62.773704,19.966439 66.013445,17.7231 65.407377,14.768379 64.226708,11.126507 59.095613,10.153004 55.053313,10.348961 38.878924,11.665105 16.924638,18.401225 5.555839,23.733483 -1.1154105,26.127309 -5.7704244,30.033311 -11.237947,33.329932 -3.9837653,26.473817 5.9079524,14.784287 9.0913729,8.8337323 10.659338,4.9301724 11.009225,2.2195365 8.0812208,-0.25764028 2.6436725,-2.2683181 -1.3830715,0.80027178 -5.555839,3.2778936 -19.511944,16.566222 -18.865555,18.65863 -22.475894,23.859752"
       id="path5446"
       inkscape:connector-curvature="0"
       sodipodi:nodetypes="ccccccccccccccccccccccc" />
    <path
       style="fill:none;fill-rule:evenodd;stroke:#000000;stroke-width:1px;stroke-linecap:butt;stroke-linejoin:miter;stroke-opacity:1"
       d="m 59.093924,10.854038 c -12.685895,2.256303 -19.043004,11.908499 0.883883,9.47018"
       id="path5450"
       inkscape:connector-curvature="0"
       sodipodi:nodetypes="cc" />
    <path
       style="fill:none;fill-rule:evenodd;stroke:#000000;stroke-width:1px;stroke-linecap:butt;stroke-linejoin:miter;stroke-opacity:1"
       d="m 72.730983,23.859752 c -18.191966,-0.302511 -13.380289,11.548538 0,10.85914"
       id="path5452"
       inkscape:connector-curvature="0"
       sodipodi:nodetypes="cc" />
    <path
       style="fill:none;fill-rule:evenodd;stroke:#000000;stroke-width:1px;stroke-linecap:butt;stroke-linejoin:miter;stroke-opacity:1"
       d="m 73.741136,68.053926 c -22.987572,-2.738744 -8.61444,9.347681 -2.525382,9.091372"
       id="path5454"
       inkscape:connector-curvature="0"
       sodipodi:nodetypes="cc" />
    <path
       style="fill:none;fill-rule:evenodd;stroke:#000000;stroke-width:1px;stroke-linecap:butt;stroke-linejoin:miter;stroke-opacity:1"
       d="m 61.114229,79.291873 c -8.546787,-2.937171 -23.270248,3.52241 -3.535534,9.217641"
       id="path5456"
       inkscape:connector-curvature="0"
       sodipodi:nodetypes="cc" />
    <path
       style="fill:none;fill-rule:evenodd;stroke:#000000;stroke-width:1px;stroke-linecap:butt;stroke-linejoin:miter;stroke-opacity:1"
       d="M -0.75761445,0.62624319 C -11.531168,13.233938 -1.0501721,17.944885 8.8388348,9.0862708"
       id="path5458"
       inkscape:connector-curvature="0"
       sodipodi:nodetypes="cc" />
    <path
       style="fill:none;fill-rule:evenodd;stroke:#000000;stroke-width:1px;stroke-linecap:butt;stroke-linejoin:miter;stroke-opacity:1"
       d="M 20.203051,50.249987 C 42.690361,39.11187 67.365137,33.112035 91.039998,49.618641 67.414136,69.829923 41.170789,63.608184 20.203051,50.249987 Z"
       id="path5460"
       inkscape:connector-curvature="0"
       sodipodi:nodetypes="ccc" />
    <path
       style="fill:none;fill-rule:evenodd;stroke:#000000;stroke-width:1px;stroke-linecap:butt;stroke-linejoin:miter;stroke-opacity:1"
       d="m 45.330596,41.158614 c -8.918069,6.78972 -8.024092,12.865712 -2.146575,19.319168"
       id="path5462"
       inkscape:connector-curvature="0"
       sodipodi:nodetypes="cc" />
    <path
       style="fill:none;fill-rule:evenodd;stroke:#000000;stroke-width:1px;stroke-linecap:butt;stroke-linejoin:miter;stroke-opacity:1"
       d="m 65.659916,40.148462 c 9.415705,9.000741 6.920132,16.042864 -1.515229,21.718279"
       id="path5464"
       inkscape:connector-curvature="0"
       sodipodi:nodetypes="cc" />
    <ellipse
       style="fill:none;fill-opacity:1;stroke:#000000;stroke-width:1;stroke-linecap:round;stroke-miterlimit:4;stroke-dasharray:none;stroke-opacity:1"
       id="path5466"
       cx="54.800777"
       cy="50.186852"
       rx="3.5355339"
       ry="3.2198613" />
  </g>
</svg>
