<?xml version="1.0" encoding="UTF-8" standalone="no"?>
<!-- Created with Inkscape (http://www.inkscape.org/) -->

<svg
   xmlns:dc="http://purl.org/dc/elements/1.1/"
   xmlns:cc="http://creativecommons.org/ns#"
   xmlns:rdf="http://www.w3.org/1999/02/22-rdf-syntax-ns#"
   xmlns:svg="http://www.w3.org/2000/svg"
   xmlns="http://www.w3.org/2000/svg"
   xmlns:sodipodi="http://sodipodi.sourceforge.net/DTD/sodipodi-0.dtd"
   xmlns:inkscape="http://www.inkscape.org/namespaces/inkscape"
   width="100"
   height="100"
   viewBox="0 0 100 100"
   id="svg4405"
   version="1.1"
   inkscape:version="0.91 r13725">
  <defs
     id="defs4407" />
  <sodipodi:namedview
     id="base"
     pagecolor="#ffffff"
     bordercolor="#666666"
     borderopacity="1.0"
     inkscape:pageopacity="0.0"
     inkscape:pageshadow="2"
     inkscape:zoom="7.9195959"
     inkscape:cx="43.020422"
     inkscape:cy="49.526596"
     inkscape:document-units="px"
     inkscape:current-layer="layer13"
     showgrid="true"
     units="px"
     inkscape:window-width="1920"
     inkscape:window-height="1017"
     inkscape:window-x="-8"
     inkscape:window-y="-8"
     inkscape:window-maximized="1"
     showguides="false">
    <inkscape:grid
       type="xygrid"
       id="grid4953" />
  </sodipodi:namedview>
  <metadata
     id="metadata4410">
    <rdf:RDF>
      <cc:Work
         rdf:about="">
        <dc:format>image/svg+xml</dc:format>
        <dc:type
           rdf:resource="http://purl.org/dc/dcmitype/StillImage" />
        <dc:title></dc:title>
        <cc:license
           rdf:resource="http://creativecommons.org/licenses/by/3.0/" />
      </cc:Work>
      <cc:License
         rdf:about="http://creativecommons.org/licenses/by/3.0/">
        <cc:permits
           rdf:resource="http://creativecommons.org/ns#Reproduction" />
        <cc:permits
           rdf:resource="http://creativecommons.org/ns#Distribution" />
        <cc:requires
           rdf:resource="http://creativecommons.org/ns#Notice" />
        <cc:requires
           rdf:resource="http://creativecommons.org/ns#Attribution" />
        <cc:permits
           rdf:resource="http://creativecommons.org/ns#DerivativeWorks" />
      </cc:License>
    </rdf:RDF>
  </metadata>
  <g
     inkscape:groupmode="layer"
     id="layer12"
     inkscape:label="Layer 1"
     style="display:none;opacity:0.32300002">
    <path
       style="fill:none;fill-rule:evenodd;stroke:#000000;stroke-width:0.88230097px;stroke-linecap:butt;stroke-linejoin:miter;stroke-opacity:1"
       d="m 24.136333,77.836 c 0.145373,-0.03795 0.293959,-0.06436 0.436116,-0.113838 0.456151,0.206143 0.126117,-0.179677 0.218058,-0.227675 0.06501,-0.03394 0.147541,0.01841 0.218057,0 0.07884,-0.02058 0.140963,-0.08701 0.218058,-0.113838 0.777642,-0.270646 0.09176,0.0026 0.872231,-0.113837 0.113772,-0.01697 0.213724,-0.09411 0.327087,-0.113838 0.107545,-0.01872 0.218058,0 0.327086,0 0.145373,0 0.290745,0 0.436117,0 0.581487,0 1.162975,0 1.744462,0 1.889834,0 3.779668,0 5.669502,0 0.581488,0 1.162975,0 1.744463,0 0.218058,0 0.436869,0.01891 0.654173,0 0.220302,-0.01917 0.43367,-0.09739 0.654173,-0.113837 0.290005,-0.02163 0.581488,0 0.872232,0 0.218058,0 0.436115,0 0.654173,0 0.218058,0 0.43667,0.01622 0.654174,0 0.292261,-0.0218 0.579969,-0.09204 0.872231,-0.113838 0.217504,-0.01622 0.436115,0 0.654174,0 0.218057,0 0.436115,0 0.654173,0 1.017602,0 2.035206,0 3.052809,0 1.162975,0 2.32595,0 3.488924,0 0.436116,0 0.872232,0 1.308347,0 0.290744,0 0.582227,-0.02163 0.872231,0 0.220504,0.01644 0.433448,0.101034 0.654174,0.113838 0.435444,0.02526 0.872902,-0.02526 1.308347,0 0.220725,0.0128 0.434459,0.08835 0.654173,0.113837 0.869901,0.100919 1.750236,0.09844 2.616694,0.227675 0.585674,0.08736 1.159721,0.247585 1.744462,0.341513 0.360995,0.05799 0.729087,0.05727 1.090289,0.113838 0.366526,0.0574 0.723763,0.170271 1.090289,0.227675 0.361201,0.05657 0.729088,0.05727 1.090289,0.113837 0.366526,0.0574 0.722524,0.179678 1.090289,0.227676 0.216374,0.02824 0.437198,-0.02266 0.654173,0 0.149102,0.01557 0.287776,0.09171 0.436116,0.113838 0.361571,0.05393 0.728717,0.05991 1.090289,0.113837 0.14834,0.02212 0.28665,0.10269 0.436115,0.113838 0.362506,0.02704 0.727784,-0.02704 1.090289,0 0.149465,0.01114 0.288309,0.08812 0.436116,0.113838 0.28902,0.0503 0.579969,0.09204 0.872231,0.113837 0.362506,0.02704 0.72686,0 1.090289,0 0.145372,0 0.291866,-0.01882 0.436116,0 0.148689,0.01941 0.290743,0.07589 0.436115,0.113838 0.36343,0 0.727783,-0.02704 1.09029,0 0.149465,0.01114 0.286787,0.100844 0.436115,0.113837 0.289739,0.02521 0.582492,-0.02521 0.872231,0 0.149328,0.01299 0.287776,0.09171 0.436116,0.113838 0.361572,0.05393 0.725974,0.08667 1.090288,0.113837 0.145003,0.01081 0.292723,-0.02495 0.436117,0 0.08016,0.01395 0.137195,0.105395 0.218057,0.113838 0.290744,0 0.581488,0 0.872231,0 0.07269,0.03795 0.137899,0.09989 0.218058,0.113838 0.25094,0.04367 0.512263,-0.04367 0.763202,0 0.113363,0.01973 0.216582,0.08087 0.327087,0.113837 0.288161,0.08596 0.591621,0.117805 0.872231,0.227675 0.152183,0.05958 0.281926,0.174013 0.436116,0.227676 0.131902,0.04591 0.505661,-0.03877 0.654173,0 0.07884,0.02058 0.139219,0.09326 0.218058,0.113838 0.07052,0.01841 0.147542,-0.01841 0.218058,0 0.07884,0.02058 0.13837,0.0972 0.218058,0.113838 0.106911,0.02232 0.223653,-0.036 0.327086,0 0.03448,0.012 -0.0257,0.08701 0,0.113837 0.0257,0.02683 0.08333,-0.02683 0.109029,0 0.181715,0.189729 -0.399772,0.113838 0.218058,0.113838"
       id="path5198"
       inkscape:connector-curvature="0" />
    <path
       style="fill:none;fill-rule:evenodd;stroke:#000000;stroke-width:0.88230097px;stroke-linecap:butt;stroke-linejoin:miter;stroke-opacity:1"
       d="m 23.918276,76.925299 c -0.03415,-0.04549 0.03454,-0.742766 0,-0.796864 -0.05702,-0.0893 -0.172088,-0.131679 -0.218058,-0.227675 -0.04493,-0.09381 0.04517,-0.702541 0,-0.796863 -0.04597,-0.096 -0.172088,-0.131679 -0.218058,-0.227676 -0.03251,-0.06788 0,-0.151783 0,-0.227675 0,-0.265622 0,-0.531242 0,-0.796863 0,-0.265622 0,-0.531243 0,-0.796864 0,-0.113838 0.0405,-0.235817 0,-0.341513 -0.03817,-0.09965 -0.179882,-0.128024 -0.218058,-0.227675 -0.04049,-0.105696 0,-0.227675 0,-0.341513 0,-0.07589 0,-0.151783 0,-0.227675 0,-0.341513 0,-0.683026 0,-1.024539 0,-0.720971 0,-1.441943 0,-2.162915 0,-0.18973 -0.03942,-0.383977 0,-0.569188 0.03525,-0.165658 0.1828,-0.289692 0.218058,-0.455351 0.03942,-0.185211 0,-0.379459 0,-0.569188 0,-0.379458 0,-0.758917 0,-1.138376 0,-1.252214 0,-2.504428 0,-3.756642 0,-0.227675 0,-0.45535 0,-0.683026 0,-0.227675 -0.03585,-0.458448 0,-0.683026 0.03779,-0.236725 0.183107,-0.445825 0.218058,-0.683025 0.07737,-0.525065 -0.07195,-1.067824 0,-1.593727 0.03741,-0.273474 0.18064,-0.52339 0.218058,-0.796864 0.07195,-0.525903 -0.07195,-1.067823 0,-1.593727 0.03741,-0.273473 0.170728,-0.525068 0.218057,-0.796863 0.481064,-0.803061 0.111951,-1.673529 0.218058,-2.504428 0.03961,-0.310165 0.164447,-0.602838 0.218058,-0.910701 0.391676,-2.249233 0.04758,-0.968649 0.436115,-3.301291 0.05135,-0.308283 0.166708,-0.602419 0.218058,-0.910701 0.09423,-0.565734 0.123826,-1.141831 0.218058,-1.707565 0.05135,-0.308282 0.166709,-0.602419 0.218058,-0.9107 0.0025,-0.01502 0.434699,-3.408627 0.436115,-3.415129 0.06134,-0.281802 0.275298,-0.512981 0.327087,-0.796864 0.09545,-0.523189 0.05468,-1.064162 0.109029,-1.593727 0.05475,-0.533582 0.169329,-1.059509 0.218057,-1.593727 0.02412,-0.264425 -0.03598,-0.533912 0,-0.796863 0.03741,-0.273474 0.16617,-0.525979 0.218059,-0.796864 0.187494,-0.978815 0.248622,-1.980963 0.436115,-2.959779 0.05189,-0.270885 0.168552,-0.525491 0.218058,-0.796863 0.07269,-0.531242 0.145372,-1.062484 0.218058,-1.593727 0.07269,-0.265621 0.166169,-0.525977 0.218057,-0.796863 0.09375,-0.489408 0.110571,-0.99357 0.218058,-1.479889 0.111152,-0.502903 0.339173,-0.973793 0.436116,-1.479889 0.04989,-0.260464 -0.03868,-0.534332 0,-0.796864 0.03495,-0.2372 0.145372,-0.45535 0.218058,-0.683026 1.099413,-3.44371 -0.321073,0.838085 1.090288,-2.845941 0.09826,-0.256491 0.142032,-0.532264 0.218059,-0.796863 0.142041,-0.494353 0.252531,-1.000684 0.436115,-1.479889 0.181087,-0.472685 0.456144,-0.900833 0.654173,-1.366052 0.09335,-0.219306 0.120188,-0.465877 0.218058,-0.683026 0.250986,-0.556867 1.139811,-2.125593 1.417376,-2.618265 0.107445,-0.190713 0.218057,-0.379459 0.327087,-0.569188 0.218058,-0.379459 0.407828,-0.778282 0.654173,-1.138377 0.119495,-0.174671 0.290743,-0.303567 0.436116,-0.45535 0.290744,-0.303567 0.581487,-0.607134 0.872231,-0.910701 0.145372,-0.151784 0.284566,-0.310303 0.436115,-0.455351 0.284786,-0.272567 0.599054,-0.511637 0.872232,-0.796864 0.83339,-0.870146 -1.034272,0.331069 1.090288,-1.024538 0.346712,-0.221224 0.72686,-0.379459 1.09029,-0.5691882 0.145372,-0.07589 0.286087,-0.162406 0.436115,-0.227675 0.579932,-0.252296 1.366111,-0.527348 1.96252,-0.683026 0.214466,-0.05598 0.436894,-0.0713 0.654174,-0.113838 0.277547,-0.05433 1.338773,-0.294448 1.744462,-0.341513 0.434951,-0.05046 0.871393,-0.08849 1.308347,-0.113837 0.217722,-0.01263 0.436115,0 0.654173,0 0.654174,0 1.308347,0 1.96252,0 0.508802,0 1.017604,0 1.526405,0 0.218058,0 0.436869,-0.01891 0.654174,0 0.220301,0.01917 0.433669,0.09739 0.654173,0.113837 0.290005,0.02163 0.582226,-0.02163 0.872231,0 0.220504,0.01645 0.435554,0.0796 0.654173,0.113838 0.508281,0.07961 1.018125,0.14807 1.526405,0.227675 0.21862,0.03424 0.439708,0.05786 0.654174,0.113838 1.124813,0.293606 1.757279,0.535703 2.83475,0.910701 0.218058,0.07589 0.444131,0.1302062 0.654174,0.2276752 0.445567,0.206764 0.872231,0.455351 1.308347,0.683026 0.436116,0.227675 0.882114,0.435786 1.308346,0.683025 0.229093,0.132888 0.438215,0.300331 0.654174,0.455352 0.365564,0.262409 0.724725,0.534453 1.090289,0.796863 0.82994,0.595749 0.890461,0.538684 1.744463,1.479889 0.320087,0.352772 0.554668,0.783124 0.872231,1.138377 0.193674,0.21666 0.467258,0.346149 0.654173,0.569187 0.32551,0.38842 0.589944,0.828529 0.872231,1.252215 0.366305,0.549787 0.985861,1.489496 1.308347,2.162914 0.232708,0.485945 0.436115,0.986593 0.654173,1.47989 0.218058,0.493296 0.421465,0.993945 0.654174,1.479889 0.131036,0.273632 0.327296,0.512815 0.436115,0.796863 0.147934,0.386146 0.7754,2.71976 0.872231,3.073616 0.313933,1.147224 0.275957,0.990655 0.654174,2.504429 0.07565,0.302776 0.168788,0.602048 0.218058,0.9107 0.09634,0.603534 0.106702,1.220692 0.218057,1.821402 0.10721,0.578346 0.299279,1.136075 0.436116,1.707565 0.353376,1.475846 0.13413,0.789498 0.436116,2.618266 0.09446,0.57202 0.255181,1.13198 0.327086,1.707564 0.0376,0.301017 -0.01263,0.607421 0,0.910701 0.02373,0.569913 0.03836,1.141905 0.109029,1.707564 0.03876,0.310282 0.19317,0.598872 0.218058,0.910702 0.04829,0.605037 -0.04829,1.216365 0,1.821402 0.02488,0.311829 0.180885,0.600207 0.218058,0.910701 0.145745,1.217387 -0.145745,0.604015 0,1.821402 0.03717,0.310493 0.192096,0.598968 0.218057,0.910701 0.04722,0.567048 0,1.138376 0,1.707564 0,0.303568 -0.03606,0.609479 0,0.910702 0.03717,0.310493 0.17845,0.600536 0.218059,0.9107 0.03362,0.263292 0,0.531243 0,0.796864 0,0.569188 0,1.138377 0,1.707565 0,0.834809 0,1.669618 0,2.504427 0,0.303568 -0.03842,0.609797 0,0.910702 0.03497,0.273827 0.183089,0.523036 0.218058,0.796863 0.03842,0.300904 0,0.607134 0,0.910701 0,0.796863 0,1.593727 0,2.39059 0,0.493296 0,0.986593 0,1.479889 0,0.265622 -0.03868,0.534332 0,0.796864 0.03495,0.2372 0.193995,0.444353 0.218057,0.683026 0.04946,0.490586 0,0.986593 0,1.479889 0,0.720972 0,1.441943 0,2.162915 0,0.265621 0,0.531242 0,0.796864 0,0.227675 -0.03316,0.457998 0,0.683025 0.04023,0.273038 0.177826,0.523826 0.218058,0.796864 0.03316,0.225027 0,0.45535 0,0.683025 0,0.417405 0,0.83481 0,1.252215 0,0.227675 -0.03901,0.459023 0,0.683025 0.03501,0.201049 0.192192,0.366636 0.218058,0.569189 0.04803,0.376129 0,0.758917 0,1.138375 0,0.151784 -0.03153,0.307182 0,0.455352 0.04246,0.199478 0.175602,0.369709 0.218057,0.569188 0.06307,0.296337 -0.06307,0.614362 0,0.910701 0.04246,0.199478 0.145372,0.379458 0.218058,0.569188 0.07269,0.303566 0.164448,0.602838 0.218058,0.9107 0.0318,0.182615 -0.0424,0.641919 0,0.796864 0.036,0.131551 0.164838,0.216489 0.218058,0.341513 0.275521,0.647265 0.218058,0.613604 0.218058,1.252214 0,0.588955 -0.06048,-0.21908 0.327086,0.45535 0.02182,0.03796 0,0.69222 0,0.796864 0,0.03795 0,0.07589 0,0.113838 0,0.03795 -0.01625,0.07989 0,0.113838 0.02299,0.048 0.05763,0.113837 0.109029,0.113837 0.03634,0 0,-0.07589 0,-0.113837 0,-0.03795 0,-0.07589 0,-0.113838"
       id="path5200"
       inkscape:connector-curvature="0" />
    <path
       style="fill:none;fill-rule:evenodd;stroke:#000000;stroke-width:0.88230097px;stroke-linecap:butt;stroke-linejoin:miter;stroke-opacity:1"
       d="m 38.092033,30.593382 c -0.257478,1.20975 -0.218059,0.674695 -0.218059,1.593727 0,0.07589 0.02699,0.157211 0,0.227675 -0.04866,0.12703 -0.186276,0.208783 -0.218058,0.341513 -0.04407,0.184065 0,0.379459 0,0.569188 0,0.607134 0,1.214269 0,1.821403 0,0.189729 0,0.379458 0,0.569188 0,0.07589 0,0.151783 0,0.227675 0,0.03795 -0.02016,0.08227 0,0.113837 0.05702,0.0893 0.161039,0.138374 0.218058,0.227676 0.02016,0.03157 -0.03251,0.09687 0,0.113837 0.06501,0.03394 0.153046,-0.03394 0.218059,0 0.03251,0.01697 -0.03251,0.09687 0,0.113838 0.02495,0.01303 0.613495,0.01062 0.654173,0 0.07883,-0.02058 0.137419,-0.103313 0.218057,-0.113838 0.360624,-0.04707 0.729666,0.04707 1.09029,0 0.148688,-0.01941 0.287013,-0.09827 0.436115,-0.113837 0.216976,-0.02266 0.436115,0 0.654173,0 0.218059,0 0.436116,0 0.654174,0 0.145372,0 0.290743,0 0.436115,0 0.181716,0 0.365902,-0.03119 0.545144,0 0.05069,0.0088 0.05863,0.103313 0.10903,0.113837 1.090289,0.227675 0,-0.113837 0.654173,0 0.147807,0.02572 0.288309,0.08812 0.436116,0.113838 0.07169,0.01248 0.147542,-0.01841 0.218057,0 0.07884,0.02058 0.140963,0.08701 0.218058,0.113837 0.142156,0.04948 0.290744,0.07589 0.436116,0.113838 0.145372,0.03795 0.288308,0.08812 0.436115,0.113838 0.07169,0.01248 0.153046,-0.03394 0.218058,0 0.03251,0.01697 -0.03251,0.09687 0,0.113838 0.06501,0.03394 0.145372,0 0.218058,0 0.109029,0 0.223653,-0.036 0.327087,0 0.03448,0.012 0,0.07589 0,0.113837 0,0.03795 0,0.07589 0,0.113838 0,0.03795 0,0.07589 0,0.113838 0,0.03795 0.03024,0.09279 0,0.113837 -0.09562,0.06656 -0.245821,0.02898 -0.327087,0.113838 -0.007,0.0073 0,0.627808 0,0.683025 0,0.786012 0.02298,-0.851019 -0.218058,0.910702 -0.04112,0.300515 0,0.607134 0,0.9107 0,0.18973 0,0.379459 0,0.569189 0,0.910701 0,1.821402 0,2.732103 0,0.303567 0,0.607134 0,0.910701 0,0.341513 -0.04973,0.686997 0,1.024539 0.02471,0.167726 0.193344,0.287625 0.218058,0.45535 0.04974,0.337542 0,0.683026 0,1.024539 0,0.151783 0,0.303567 0,0.455351 0,0.341512 -0.07355,0.691771 0,1.024538 0.04086,0.184871 0.286226,0.27048 0.327087,0.455351 0.07355,0.332767 0,0.683025 0,1.024538 0,0.303568 0,0.607134 0,0.910702 0,0.341512 0,0.683025 0,1.024538 0,0.113838 0.04295,0.23688 0,0.341513 -0.07158,0.174389 -0.291449,0.269305 -0.327087,0.455351 -0.0784,0.409299 0,0.834809 0,1.252214 0,0.45535 0,0.9107 0,1.366052 0,1.745509 0,3.49102 0,5.236531 0,0.872755 0,1.745509 0,2.618265 0,0.18973 0,0.379459 0,0.569188 0,0.03795 -0.03024,0.09279 0,0.113838 0.09563,0.06656 0.231462,0.04728 0.327087,0.113838 0.06048,0.04209 -0.07269,0.227675 0,0.227675 0.05139,0 0.06626,-0.08407 0.109029,-0.113838 0.06762,-0.04707 0.145371,-0.07589 0.218058,-0.113837 0.07269,-0.03795 0.137898,-0.09989 0.218057,-0.113838 0.143394,-0.02496 0.292722,0.02496 0.436116,0 0.08016,-0.01395 0.137898,-0.09989 0.218057,-0.113838 0.143394,-0.02495 0.290745,0 0.436117,0 0.436115,0 0.87223,0 1.308346,0 0.290744,0 0.581487,0 0.872231,0 0.145372,0 0.292722,-0.02495 0.436116,0 0.08016,0.01395 0.139219,0.09326 0.218057,0.113838 0.428931,0.111961 0.874802,0.137142 1.308347,0.227675 0.293873,0.06137 0.578359,0.166309 0.872232,0.227675 0.402604,0.08407 0.710418,0.09547 1.090288,0.227675 0.0771,0.02683 0.140963,0.08701 0.218059,0.113838 0.142155,0.04948 0.302089,0.04387 0.436115,0.113838 0.118114,0.06166 -0.272572,0.369972 0.218058,0.113837 0.06501,-0.03394 -0.05139,-0.174011 0,-0.227675 0.05746,-0.06 0.172979,-0.04324 0.218058,-0.113838 0.04031,-0.06314 0,-0.151783 0,-0.227675 0,-0.03795 0,-0.07589 0,-0.113837 0,-0.303568 0,-0.607134 0,-0.910702 0,-0.113837 -0.03448,-0.233517 0,-0.341513 0.04144,-0.129794 0.186277,-0.208782 0.218057,-0.341512 0.04407,-0.184065 0,-0.379459 0,-0.569188 0,-0.151784 0,-0.303568 0,-0.455351 0,-0.531242 0,-1.062485 0,-1.593727 0,-0.986593 0,-1.973186 0,-2.959778 0,-0.18973 0,-0.379459 0,-0.569189 0,-0.227675 0.02548,-0.45691 0,-0.683025 -0.04747,-0.421342 -0.170582,-0.830872 -0.218057,-1.252214 -0.04671,-0.414546 0.04959,-0.838032 0,-1.252214 -0.100798,-0.841944 -0.335318,-1.662485 -0.436116,-2.504428 -0.02254,-0.188265 0,-0.379459 0,-0.569189 0,-0.151783 0.03153,-0.307181 0,-0.45535 -0.479996,-2.255247 0.05569,2.143717 -0.436115,-1.707564 -0.04803,-0.376131 0.07127,-0.766287 0,-1.138377 -0.03838,-0.200376 -0.188299,-0.36722 -0.218059,-0.569188 -0.04421,-0.300037 0,-0.607134 0,-0.9107 0,-0.569189 0,-1.138377 0,-1.707565 0,-0.341514 0,-0.683026 0,-1.024539 0,-0.03795 0,-0.07589 0,-0.113838 0,-0.07589 -0.04031,-0.164529 0,-0.227675 0.04508,-0.0706 0.172981,-0.04324 0.218059,-0.113837 0.04031,-0.06314 0,-0.151784 0,-0.227675 0,-0.227676 0,-0.455352 0,-0.683027 0,-0.03795 0.0257,-0.08701 0,-0.113837 -0.05746,-0.06 -0.181715,-0.03795 -0.218059,-0.113838 -0.03321,-0.06935 0.03585,-0.740722 0,-0.796864 -0.04508,-0.0706 -0.160594,-0.05384 -0.218057,-0.113837 -0.03376,-0.03525 0.03376,-0.533939 0,-0.569188 -0.05746,-0.06 -0.160595,-0.05384 -0.218058,-0.113838 -0.05451,-0.05691 0.05452,-0.284594 0,-0.341513 -0.05746,-0.06 -0.160594,-0.05384 -0.218058,-0.113837 -0.0257,-0.02683 -0.03251,-0.09687 0,-0.113838 0.06501,-0.03394 0.145372,0 0.218058,0 0.218058,0 0.436115,0 0.654174,0 0.508801,0 1.017603,0 1.526404,0 0.109029,0 0.218058,0 0.327087,0 0.03634,0 0.07339,-0.0075 0.109029,0 0.146936,0.03068 0.288308,0.08812 0.436115,0.113838 0.143394,0.02495 0.292722,-0.02496 0.436115,0 0.147808,0.02572 0.287014,0.09827 0.436117,0.113837 0.341426,0.03565 0.737481,0 1.090288,0 0.145372,0 0.290744,0 0.436116,0 0.109029,0 0.219541,0.01872 0.327087,0 0.113362,-0.01973 0.212863,-0.100586 0.327086,-0.113837 1.275264,0 0.118795,0.05522 1.09029,-0.113838 0.212928,-0.03705 0.441244,0.03705 0.654173,0 0.08016,-0.01395 0.13742,-0.103313 0.218057,-0.113837 0.216374,-0.02824 0.437198,0.02266 0.654174,0 0.149102,-0.01557 0.287427,-0.09443 0.436116,-0.113838 0.216374,-0.02824 0.436115,0 0.654173,0 0.07269,0 0.147542,0.01841 0.218057,0 0.07884,-0.02058 0.139219,-0.09326 0.218059,-0.113838 0.141031,-0.03681 0.30609,0.06788 0.436115,0 0.03251,-0.01697 0,-0.07589 0,-0.113838 0,-0.03795 0,-0.07589 0,-0.113837 0,-0.07589 0.04032,-0.164529 0,-0.227676 -0.04508,-0.0706 -0.187877,-0.03506 -0.218057,-0.113837 -0.01207,-0.03152 0,-0.91766 0,-1.024539 0,-0.07589 0.02699,-0.157211 0,-0.227675 -0.04866,-0.12703 -0.189633,-0.207955 -0.218058,-0.341513 -0.0473,-0.222253 0,-0.45535 0,-0.683025 0,-0.113838 0.04049,-0.235818 0,-0.341513 -0.03817,-0.09965 -0.189819,-0.124478 -0.218059,-0.227676 -0.022,-0.08042 0,-0.955253 0,-1.138376 0,-0.07589 0,-0.151784 0,-0.227675 0,-0.07589 0.02699,-0.157212 0,-0.227676 -0.04866,-0.12703 -0.182059,-0.209961 -0.218057,-0.341513 -0.03994,-0.145943 0,-0.303566 0,-0.45535 0,-0.227675 0,-0.45535 0,-0.683026 0,-0.189729 0,-0.379458 0,-0.569188 0,-0.03795 0.03251,-0.09687 0,-0.113838 -0.06501,-0.03394 -0.147542,0.01841 -0.218058,0 -0.07883,-0.02058 -0.139219,-0.09326 -0.218058,-0.113837 -0.105773,-0.02761 -0.221313,0.02761 -0.327086,0 -0.111495,-0.0291 -0.212863,-0.100587 -0.327087,-0.113838 -0.216724,-0.02514 -0.436116,0 -0.654174,0 -0.07269,0 -0.145933,-0.0094 -0.218057,0 -0.219359,0.02863 -0.434205,0.09087 -0.654173,0.113838 -0.289302,0.0302 -0.585444,-0.04991 -0.872232,0 -0.08016,0.01395 -0.139219,0.09326 -0.218058,0.113837 -0.07052,0.01841 -0.145372,0 -0.218057,0 -0.145372,0 -0.292722,-0.02496 -0.436116,0 -0.08016,0.01395 -0.13742,0.103314 -0.218058,0.113838 -0.216374,0.02824 -0.436116,0 -0.654173,0 -0.07269,0 -0.147542,-0.01841 -0.218058,0 -0.07884,0.02058 -0.145372,0.07589 -0.218058,0.113837 -0.290744,0.03795 -0.579969,0.09204 -0.872231,0.113838 -0.217504,0.01622 -0.438307,-0.03219 -0.654173,0 -0.05088,0.0076 -0.05833,0.105016 -0.109029,0.113837 -0.179242,0.03119 -0.36343,0 -0.545145,0 -0.0332,0 -0.784466,0.02291 -0.872231,0 -0.07884,-0.02058 -0.140963,-0.08701 -0.218058,-0.113837 -0.142156,-0.04948 -0.30209,-0.04387 -0.436116,-0.113838 -0.588479,-0.307217 0.0075,-0.102049 -0.218057,-0.45535 -0.04508,-0.0706 -0.17298,-0.04324 -0.218058,-0.113838 -0.04031,-0.06314 0.03251,-0.159795 0,-0.227675 -0.04597,-0.096 -0.172087,-0.131679 -0.218058,-0.227675 -0.03251,-0.06788 0,-0.151784 0,-0.227675 0,-0.18973 0,-0.379459 0,-0.569189 0,-0.03182 -0.0085,-0.551377 0,-0.569188 0.04597,-0.096 0.172087,-0.131679 0.218058,-0.227675 0.03251,-0.06788 0,-0.151784 0,-0.227675 0,-0.303567 0,-0.607134 0,-0.910701 0,-0.113838 -0.04049,-0.235817 0,-0.341513 0.03817,-0.09965 0.193127,-0.123553 0.218058,-0.227675 0.02343,-0.09788 0,-1.127146 0,-1.366052 0,-0.796864 0,-1.593727 0,-2.390591 0,-0.841295 0.06048,0.189438 -0.218058,-0.683025 -0.03448,-0.107996 0,-0.227675 0,-0.341513 0,-0.113838 0,-0.227675 0,-0.341513 0,-0.303567 0,-0.607134 0,-0.910701 0,-0.07589 0,-0.151784 0,-0.227675 0,-0.07589 0.03251,-0.159796 0,-0.227675 -0.269455,-0.562678 -0.218058,0.07859 -0.218058,-0.455351 0,-0.18973 0,-0.379459 0,-0.569188 0,-0.03795 0.03251,-0.09687 0,-0.113838 -0.06501,-0.03394 -0.153045,0.03394 -0.218057,0 -0.03251,-0.01697 -0.03634,-0.113838 0,-0.113838 0.03634,0 0.03251,0.09687 0,0.113838 -0.06501,0.03394 -0.153046,-0.03394 -0.218058,0 -0.06501,0.03394 0.03251,0.159796 0,0.227675 -0.02299,0.048 -0.08604,0.06584 -0.109029,0.113838 -0.181747,0.379525 0.609211,-0.35888 -0.327087,0.227675 -0.08815,0.05522 -0.135823,0.163279 -0.218058,0.227676 -0.06501,0.05091 -0.145371,0.07589 -0.218058,0.113837 -0.49172,0.256705 0.118259,-0.04115 -0.654173,0.227676 -0.0771,0.02683 -0.139219,0.09326 -0.218057,0.113837 -0.141032,0.03681 -0.295085,-0.03681 -0.436117,0 -0.07883,0.02058 -0.139218,0.09326 -0.218057,0.113838 -0.141032,0.03681 -0.306091,-0.06788 -0.436116,0 -0.03251,0.01697 0.03251,0.09687 0,0.113837 -0.06501,0.03394 -0.147542,-0.01841 -0.218057,0 -0.194776,-0.06106 -0.204394,0.179636 -0.327087,0.227675 -0.247735,0.097 -0.512199,0.140318 -0.763203,0.227676 -0.231285,0.0805 -0.425899,0.252135 -0.654173,0.341512 -0.140305,0.05494 -0.293959,0.06436 -0.436116,0.113839 -0.15419,0.05366 -0.278437,0.186517 -0.436115,0.227675 -0.141032,0.03681 -0.306091,-0.06788 -0.436116,0 -0.03251,0.01697 0,0.07589 0,0.113837 0,0.227676 0,0.455351 0,0.683026 0,0.64508 0,1.29016 0,1.93524 0,0.113837 0,0.227675 0,0.341513 0,0.113838 -0.03448,0.233516 0,0.341513 0.04144,0.129795 0.182059,0.20996 0.218058,0.341513 0.03993,0.145943 0,0.303566 0,0.45535 0,0.265621 0,0.531242 0,0.796864 0,0.796863 0,1.593727 0,2.39059 0,0.03029 -0.018,0.332113 0,0.341512 0.06501,0.03394 0.153046,-0.03394 0.218058,0 0.03251,0.01697 0,0.07589 0,0.113838 0,0.265621 0,0.531243 0,0.796864 0,0.113837 0,0.227675 0,0.341513 0,0.03795 0.03634,0.113837 0,0.113837 -0.07269,0 0.06501,-0.193735 0,-0.227675 -0.06501,-0.03394 -0.147542,0.01841 -0.218058,0 -0.456151,0.206143 -0.126117,-0.179677 -0.218058,-0.227675 -0.130024,-0.06788 -0.298203,0.048 -0.436115,0 -0.04876,-0.01697 -0.05916,-0.100823 -0.109029,-0.113838 -0.105773,-0.02761 -0.218058,0 -0.327087,0 -0.518678,0 0.0956,-0.01248 -0.872231,0.113838 -3.66095,0.477801 1.090984,-0.151844 -1.96252,0.113837 -0.149328,0.01299 -0.286788,0.100845 -0.436116,0.113838 -0.434609,0.03781 -0.872231,0 -1.308347,0 -0.654173,0 -1.308346,0 -1.96252,0 -0.06968,0 -0.622722,0.01642 -0.654173,0 -0.162531,-0.08485 -0.290744,-0.227675 -0.436115,-0.341513 z"
       id="path5202"
       inkscape:connector-curvature="0" />
    <path
       style="fill:none;fill-rule:evenodd;stroke:#000000;stroke-width:1px;stroke-linecap:butt;stroke-linejoin:miter;stroke-opacity:1"
       d="m 104.04571,99.873731 c 0,0.205769 0.0421,0.266569 -0.3788,0.126269 -0.0399,-0.01331 0.0376,-0.107449 0,-0.126269 -0.0753,-0.03765 -0.17724,0.03765 -0.25254,0 -0.0376,-0.01882 0.0337,-0.101019 0,-0.126269 -0.15059,-0.112939 -0.33672,-0.168358 -0.50508,-0.252538 -0.0842,-0.04209 -0.18604,-0.05972 -0.25254,-0.126269 -0.0298,-0.02976 0.0298,-0.09651 0,-0.126269 -0.55148,-0.551486 -0.41002,-0.231259 -1.01015,-0.631346 -0.27352,-0.182347 -0.38327,-0.568255 -0.75761,-0.631345 -0.15962,-0.09976 -0.34546,-0.152778 -0.50508,-0.252538 -0.40021,-0.250131 -0.469464,-0.343194 -0.757615,-0.631346 -0.168359,-0.168358 -0.319155,-0.356339 -0.505076,-0.505076 -0.237004,-0.189603 -0.520611,-0.315473 -0.757615,-0.505076 -0.185921,-0.148737 -0.3146,-0.362219 -0.505076,-0.505076 -0.150585,-0.112939 -0.354492,-0.1396 -0.505076,-0.252539 -0.190476,-0.142857 -0.328102,-0.345798 -0.505077,-0.505076 -0.244343,-0.219909 -0.525166,-0.398897 -0.757614,-0.631345 -0.190569,-0.190569 -0.329684,-0.426722 -0.505076,-0.631345 -0.07747,-0.09039 -0.168358,-0.168359 -0.252538,-0.252539 -1.191661,-1.191661 0.304849,0.274365 -1.262691,-1.136421 -0.01406,-0.01265 -1.005153,-1.006653 -1.010153,-1.010153 -0.108307,-0.07736 -0.265939,-0.05573 -0.378807,-0.126269 -0.22854,-0.142837 -0.407103,-0.355581 -0.631345,-0.505076 -0.156618,-0.104412 -0.354492,-0.1396 -0.505076,-0.252538 -0.190477,-0.142857 -0.310021,-0.368538 -0.505077,-0.505077 -0.210448,-0.147313 -0.982092,-0.462986 -1.26269,-0.631345 -0.260261,-0.156156 -0.505077,-0.336717 -0.757615,-0.505076 -0.04209,-0.08418 -0.05098,-0.196068 -0.126269,-0.252538 -0.557013,-0.41776 -1.056316,-0.542528 -1.641498,-0.883884 -0.262168,-0.152931 -0.505076,-0.336717 -0.757614,-0.505076 -0.08418,-0.08418 -0.151586,-0.189438 -0.252538,-0.252538 -0.239429,-0.149643 -0.505077,-0.252538 -0.757615,-0.378807 -0.505076,-0.252539 -1.010152,-0.505077 -1.515229,-0.757615 -0.168358,-0.08418 -0.345456,-0.152778 -0.505076,-0.252538 -0.17846,-0.111537 -0.316845,-0.284687 -0.505076,-0.378807 -0.238095,-0.119048 -0.519519,-0.133491 -0.757614,-0.252538 -0.01122,-0.0056 -0.477937,-0.483367 -0.505077,-0.505077 -0.179395,-0.143516 -0.901411,-0.570935 -1.010152,-0.631345 -0.164544,-0.09141 -0.348459,-0.148126 -0.505077,-0.252538 -0.09905,-0.06604 -0.168358,-0.168358 -0.252538,-0.252538 -0.168358,-0.168359 -0.336717,-0.336718 -0.505076,-0.505076 -0.08418,-0.08418 -0.178168,-0.159579 -0.252538,-0.252539 -0.0948,-0.118502 -0.14523,-0.271499 -0.252538,-0.378807 -0.14881,-0.148809 -0.336718,-0.252538 -0.505077,-0.378807 -0.168358,0 -0.336717,0 -0.505076,0 -0.08418,0 -0.168358,0 -0.252538,0 -0.04209,0 -0.08544,-0.01021 -0.126269,0 -0.129125,0.03228 -0.248293,0.100169 -0.378807,0.126269 -0.08254,0.01651 -0.168358,0 -0.252538,0 -0.168359,0 -0.336718,0 -0.505077,0 -0.08418,0 -0.177248,-0.03765 -0.252538,0 -0.03765,0.01882 0.03765,0.107449 0,0.126269 -0.07529,0.03765 -0.168358,0 -0.252538,0 -0.336717,0 -0.673435,0 -1.010152,0 -0.08418,0 -0.168359,0 -0.252539,0 -0.08418,0 -0.177248,-0.03765 -0.252538,0 -0.03765,0.01882 0.03765,0.107449 0,0.126269 -0.07529,0.03765 -0.168358,0 -0.252538,0 -0.08418,0 -0.168358,0 -0.252538,0 -0.252538,0 -0.505076,0 -0.757614,0 -1.052243,0 -2.104485,0 -3.156727,0 -0.715525,0 -1.43105,0 -2.146574,0 -0.252538,0 -0.505077,0 -0.757615,0 -0.08418,0 -0.170868,0.02042 -0.252538,0 -0.0913,-0.02283 -0.161238,-0.103439 -0.252538,-0.126269 -0.08167,-0.02042 -0.168358,0 -0.252538,0 -0.252538,0 -0.505076,0 -0.757615,0 -0.08418,0 -0.168358,0 -0.252538,0 -0.08418,0 -0.170868,0.02042 -0.252538,0 -0.09131,-0.02283 -0.161228,-0.103439 -0.252538,-0.126269 -0.08167,-0.02042 -0.168358,0 -0.252538,0 -0.08418,0 -0.168358,0 -0.252538,0 -0.252538,0 -0.505076,0 -0.757615,0 -0.08418,0 -0.170868,0.02042 -0.252538,0 -0.09131,-0.02283 -0.161238,-0.103439 -0.252538,-0.126269 -0.104334,-0.02608 -0.880933,0 -1.010152,0 -0.08418,0 -0.170869,0.02042 -0.252539,0 -0.0913,-0.02283 -0.161228,-0.103439 -0.252538,-0.126269 -0.08167,-0.02042 -0.168358,0 -0.252538,0 -0.252538,0 -0.505076,0 -0.757614,0 -0.08418,0 -0.170868,0.02042 -0.252538,0 -0.09131,-0.02283 -0.161229,-0.103439 -0.252539,-0.126269 -0.125706,-0.03143 -0.679174,0.03922 -0.757614,0 -0.03765,-0.01882 0.03765,-0.107449 0,-0.126269 -0.09518,-0.04759 -0.493877,0.03437 -0.631345,0 -0.129126,-0.03228 -0.248293,-0.100169 -0.378807,-0.126269 -0.08254,-0.01651 -0.168359,0 -0.252539,0 -0.168358,0 -0.336717,0 -0.505076,0 -0.08418,0 -0.177248,0.03765 -0.252538,0 -0.03765,-0.01882 0.03765,-0.107449 0,-0.126269 -0.07529,-0.03765 -0.168358,0 -0.252538,0 -0.08418,0 -0.168358,0 -0.252538,0 -0.336718,0 -0.673435,0 -1.010153,0 -0.08418,0 -0.170868,0.02042 -0.252538,0 -0.09131,-0.02283 -0.161238,-0.103439 -0.252538,-0.126269 -0.08167,-0.02042 -0.168358,0 -0.252538,0 -0.250716,0 -0.809167,0.0335 -1.010153,0 -0.09283,-0.01547 -0.161238,-0.103439 -0.252538,-0.126269 -0.219234,-0.05481 -0.53838,0.05481 -0.757614,0 -0.09131,-0.02283 -0.161228,-0.10344 -0.252538,-0.12627 -0.08167,-0.02042 -0.168359,0 -0.252539,0 -0.168358,0 -0.338017,0.02088 -0.505076,0 -0.1722,-0.02152 -0.333897,-0.09774 -0.505076,-0.126269 -0.246282,-0.04105 -0.512424,0.04904 -0.757615,0 -0.09229,-0.01846 -0.161228,-0.103439 -0.252538,-0.126269 -0.163332,-0.04083 -0.339008,0.02768 -0.505076,0 -0.171179,-0.02853 -0.333897,-0.09774 -0.505076,-0.126269 -0.245713,-0.04095 -0.511902,0.04095 -0.757615,0 -0.09284,-0.01547 -0.159698,-0.110799 -0.252538,-0.126269 -0.08554,-0.01426 -0.910502,0.03322 -1.010152,0 -0.05647,-0.01882 -0.06852,-0.111829 -0.126269,-0.126269 -0.122499,-0.03063 -0.252539,0 -0.378808,0 -0.08418,0 -0.168358,0 -0.252538,0 -0.336717,0 -0.673435,0 -1.010152,0 -0.925973,0 -1.851947,0 -2.77792,0 -0.336717,0 -0.673435,0 -1.010152,0 -0.168359,0 -0.339009,-0.02768 -0.505077,0 -0.09284,0.01547 -0.161228,0.103439 -0.252538,0.126269 -0.08167,0.02042 -0.168358,0 -0.252538,0 -0.08418,0 -0.168358,0 -0.252538,0 -0.168359,0 -0.341744,-0.04083 -0.505076,0 -0.04083,0.01021 0.03765,0.107449 0,0.126269 -0.112939,0.05647 -0.252538,0 -0.378808,0 -0.08126,0 -0.798433,0.02136 -0.883883,0 -0.0913,-0.02283 -0.161228,-0.103439 -0.252538,-0.126269 -0.09933,-0.02483 -0.626304,0 -0.757615,0 -0.336717,0 -0.673435,0 -1.010152,0 -0.08418,0 -0.168358,0 -0.252538,0 -0.08418,0 -0.170868,0.02042 -0.252538,0 -0.09131,-0.02283 -0.163249,-0.09651 -0.252539,-0.126269 -0.03993,-0.01331 -0.08418,0 -0.126269,0 -0.126269,0 -0.252538,0 -0.378807,0 -0.08418,0 -0.170868,0.02042 -0.252538,0 -0.0913,-0.02283 -0.161238,-0.103439 -0.252538,-0.126269 -0.08167,-0.02042 -0.168358,0 -0.252538,0 -0.131311,0 -0.658285,0.02483 -0.757615,0 -0.09131,-0.02283 -0.161228,-0.103439 -0.252538,-0.126269 -0.09933,-0.02483 -0.626304,0 -0.757614,0 -0.08418,0 -0.170868,0.02042 -0.252538,0 -0.09131,-0.02283 -0.160248,-0.107809 -0.252538,-0.126269 -0.123817,-0.02476 -0.254257,0.02076 -0.378808,0 -0.131288,-0.02188 -0.247045,-0.107449 -0.378807,-0.126269 -0.166667,-0.02381 -0.336717,0 -0.505076,0 -0.08418,0 -0.170868,0.02042 -0.252538,0 -0.09131,-0.02283 -0.161238,-0.103439 -0.252538,-0.126269 -0.09933,-0.02483 -0.626304,0 -0.757615,0 -0.08418,0 -0.170868,0.02042 -0.252538,0 -0.09131,-0.02283 -0.161238,-0.103439 -0.252538,-0.126269 -0.08167,-0.02042 -0.168358,0 -0.252538,0 -0.08418,0 -0.168358,0 -0.252538,0 -0.420897,0 -0.841794,0 -1.262691,0 -0.420897,0 -0.841794,0 -1.262691,0 -0.08418,0 -0.168358,0 -0.252538,0 -0.08418,0 -0.170868,-0.02042 -0.252538,0 -0.09131,0.02283 -0.161238,0.103439 -0.252538,0.126269 -0.09933,0.02483 -0.626304,0 -0.757615,0 -0.420896,0 -0.841793,0 -1.26269,0 -0.252538,0 -0.507027,-0.03132 -0.757615,0 -0.09339,0.01167 -0.168358,0.08418 -0.252538,0.126269 -0.168359,0 -0.336717,0 -0.505076,0 -0.252538,0.126269 -0.522688,0.22219 -0.757614,0.378807 -0.03502,0.02335 0.02976,0.09651 0,0.126269 -0.06655,0.06655 -0.185989,0.05972 -0.252539,0.126269 -0.02976,0.02976 0.02976,0.09651 0,0.126269 -0.06655,0.06655 -0.185988,0.05972 -0.252538,0.126269 -0.06655,0.06655 -0.05972,0.185989 -0.126269,0.252538 -0.107308,0.107309 -0.255318,0.164332 -0.378807,0.252539 -0.171249,0.12232 -0.336718,0.252538 -0.505076,0.378807 -0.168359,0.126269 -0.356267,0.229997 -0.505077,0.378807 -0.107308,0.107308 -0.138329,0.278875 -0.252538,0.378807 -1.348906,0.899271 -0.234558,0.08483 -1.26269,1.010153 -0.252538,0.210448 -0.505077,0.420897 -0.757615,0.631345 -0.04209,0.08418 -0.05972,0.185989 -0.126269,0.252538 -0.190569,0.190569 -0.422759,0.334415 -0.631345,0.505077 -0.254424,0.208164 -0.513271,0.411435 -0.757615,0.631345 -0.265462,0.238916 -0.488837,0.522434 -0.757614,0.757614 -0.247395,0.216471 -0.513271,0.411436 -0.757614,0.631346 -0.265463,0.238916 -0.505077,0.505076 -0.757615,0.757614 -0.168359,0.168359 -0.319155,0.356339 -0.505076,0.505076 -0.237004,0.189603 -0.500236,0.344215 -0.757615,0.505077 -0.07981,0.04988 -0.180236,0.06602 -0.252538,0.126269 -0.182909,0.152424 -0.336717,0.336717 -0.505076,0.505076 -0.08418,0.08418 -0.15501,0.184269 -0.252538,0.252538 -0.325295,0.227707 -0.679768,0.411089 -1.0101526,0.631345 -0.5885122,0.392342 -0.6238696,0.531037 -1.2626907,1.010153 -0.2428104,0.182108 -0.5089668,0.331023 -0.7576144,0.505076 -0.6064641,0.424525 -0.5339351,0.458776 -1.2626907,0.883884 -0.2438847,0.142266 -0.5226881,0.222189 -0.7576144,0.378807 -0.1485804,0.09905 -0.2273789,0.284164 -0.3788072,0.378807 -0.1922072,0.12013 -0.4345494,0.140083 -0.6313453,0.252538 -0.1033623,0.05906 -0.1534846,0.186503 -0.2525382,0.252538 -0.1566175,0.104412 -0.3484587,0.148127 -0.5050762,0.252539 -0.099054,0.06603 -0.1683588,0.168358 -0.2525382,0.252538 -0.084179,0.08418 -0.1865024,0.153484 -0.2525381,0.252538 -0.023347,0.03502 0.037646,0.107446 0,0.126269 -0.075292,0.03765 -0.1772458,-0.03765 -0.2525382,0 -0.037646,0.01882 0.029762,0.09651 0,0.126269 -0.06655,0.06655 -0.1772458,0.0698 -0.2525381,0.126269 -0.095238,0.07143 -0.1573,0.18111 -0.2525381,0.252538 -0.075292,0.05647 -0.1683588,0.08418 -0.2525382,0.126269 -0.1683587,0.08418 -0.3367175,0.168359 -0.5050762,0.252538 -0.084179,0.04209 -0.1859885,0.05972 -0.2525382,0.126269 -0.06655,0.06655 -0.050977,0.196069 -0.126269,0.252539 -0.1064795,0.07986 -0.2646756,0.05779 -0.3788072,0.126269 -0.1020825,0.06125 -0.1460588,0.199298 -0.2525382,0.252538 -0.075292,0.03765 -0.1772458,-0.03765 -0.25253812,0 -0.10647943,0.05324 -0.15730004,0.181109 -0.25253814,0.252538 -0.15058465,0.112938 -0.37197699,0.119439 -0.50507627,0.252538 -0.02976191,0.02976 0.0297619,0.09651 0,0.126269 -0.06654964,0.06655 -0.1859885,0.05972 -0.25253814,0.126269 -0.0297619,0.02976 0.03764616,0.107446 0,0.126269 -0.0752923,0.03765 -0.17724581,-0.03765 -0.25253814,0 -0.0524136,0.02621 0.0440751,0.334732 0,0.378807 -0.0665496,0.06655 -0.18598849,0.05972 -0.25253813,0.126269 -0.0833333,0.08333 0.0833333,0.169205 0,0.252539 -0.0665496,0.06655 -0.1859885,0.05972 -0.25253814,0.126269 -0.044075,0.04408 0.0524136,0.3526 0,0.378807 -0.0752923,0.03765 -0.25253812,0.08418 -0.25253812,0 0,-0.09412 0.16835874,-0.08418 0.25253812,-0.126269"
       id="path5220"
       inkscape:connector-curvature="0" />
    <path
       style="fill:none;fill-rule:evenodd;stroke:#000000;stroke-width:1px;stroke-linecap:butt;stroke-linejoin:miter;stroke-opacity:1"
       d="m 21.844549,79.67068 c 0.302406,0.455606 0.252538,0.547503 0.252538,1.010153 0,0.126269 -0.03993,0.259017 0,0.378807 0.04799,0.143969 0.225391,0.229498 0.252538,0.378807 0.06023,0.331286 0,0.673435 0,1.010152 0,0.12627 0,0.252539 0,0.378808 0,0.799704 0,1.599408 0,2.399112 0,0.462987 0,0.925973 0,1.38896 0,0.168359 -0.04625,0.343195 0,0.505076 0.04169,0.145918 0.222776,0.229998 0.252538,0.378807 0.05778,0.288907 0,0.589256 0,0.883884 0,0.294628 0,0.589255 0,0.883883 0,0.126269 0,0.252538 0,0.378807 0,0.126269 -0.03993,0.259018 0,0.378808 0.04799,0.143968 0.196177,0.237904 0.252538,0.378807 0.03126,0.07816 0,0.168359 0,0.252538 0,0.294628 0,0.589256 0,0.883883 0,0.08418 -0.03765,0.177246 0,0.252539 0.05324,0.106479 0.208325,0.142005 0.252539,0.252538 0.04689,0.117238 0,0.252538 0,0.378807 0,0.378807 0,0.757614 0,1.136422 0,0.126269 0,0.252538 0,0.378807 0,0.08418 -0.03126,0.174379 0,0.252538 0.05636,0.140902 0.196177,0.237905 0.252538,0.378807 0.02218,0.05546 0,0.832268 0,0.883884 0,0.252538 0,0.505076 0,0.757614 0,0.08418 -0.04669,0.182497 0,0.252538 0.05221,0.07831 0.200332,0.04796 0.252538,0.126269 0.04669,0.07004 0,0.168359 0,0.252538 0,0.336718 0,0.673435 0,1.010153 0,0.04209 0.02976,0.09651 0,0.126269 -0.06655,0.06655 -0.185989,0.05972 -0.252538,0.126269 -0.02976,0.02976 0,0.08418 0,0.126269 0,0.04209 0,0.08418 0,0.126269 0,0.252538 0,0.505076 0,0.757615 0,0.04209 0.02976,0.09651 0,0.126269 -0.06655,0.06655 -0.185989,0.05972 -0.252538,0.126269 -0.01688,0.01688 0,0.622236 0,0.252538 0,-0.04209 0,-0.08418 0,-0.126269"
       id="path5222"
       inkscape:connector-curvature="0" />
    <path
       style="fill:none;fill-rule:evenodd;stroke:#000000;stroke-width:1px;stroke-linecap:butt;stroke-linejoin:miter;stroke-opacity:1"
       d="m 77.908015,81.438447 c 0.263626,0.51776 0.252538,0.559226 0.252538,1.010152 0,0.08418 -0.03126,0.17438 0,0.252539 0.05636,0.140902 0.196177,0.237904 0.252538,0.378807 0.03126,0.07816 0,0.168359 0,0.252538 0,0.252538 0,0.505076 0,0.757614 0,0.126269 0,0.252539 0,0.378808 0,0.126269 0.03993,0.259017 0,0.378807 -0.04799,0.143969 -0.204548,0.234838 -0.252538,0.378807 -0.03993,0.119789 0,0.252538 0,0.378807 0,0.252538 0,0.505076 0,0.757615 0,0.168358 0.04625,0.343195 0,0.505076 -0.04169,0.145917 -0.204548,0.234838 -0.252538,0.378807 -0.03993,0.119789 0,0.252538 0,0.378807 0,0.168359 0,0.336718 0,0.505077 0,0.126269 0.03993,0.259017 0,0.378807 -0.04799,0.143969 -0.222776,0.229997 -0.252538,0.378807 -0.05778,0.288906 0,0.589256 0,0.883883 0,0.12627 0,0.252539 0,0.378808 0,0.126269 0.02076,0.254256 0,0.378807 -0.02188,0.131288 -0.10976,0.246736 -0.126269,0.378807 -0.04176,0.334117 0,0.673435 0,1.010153 0,0.673435 0,1.34687 0,2.020305 0,1.178511 0,2.357022 0,3.535534 0,0.03685 0.0028,0.75485 0,0.757614 -0.09412,0.09412 -0.298948,0.01979 -0.378807,0.126269 -0.01577,0.02103 0,0.64898 0,0.757615 0,0.08418 0,0.336717 0,0.252538 0,-0.08418 0,-0.168359 0,-0.252538"
       id="path5224"
       inkscape:connector-curvature="0" />
  </g>
  <g
     inkscape:groupmode="layer"
     id="layer13"
     inkscape:label="Layer 2"
     style="display:inline">
    <path
       style="fill:none;fill-rule:evenodd;stroke:#000000;stroke-width:1px;stroke-linecap:butt;stroke-linejoin:miter;stroke-opacity:1"
       d="m 25,75 50,0 0,-30 C 75,30 75,10 50,10 25,10 25,30 25,45 Z"
       id="path5233"
       inkscape:connector-curvature="0"
       sodipodi:nodetypes="cccccc" />
    <path
       style="fill:none;fill-rule:evenodd;stroke:#000000;stroke-width:1px;stroke-linecap:butt;stroke-linejoin:miter;stroke-opacity:1"
       d="m 45,20 0,10 -10,0 0,10 10,0 0,25 10,0 0,-25 10,0 0,-10 -10,0 0,-10 z"
       id="path5235"
       inkscape:connector-curvature="0" />
    <path
       style="fill:none;fill-rule:evenodd;stroke:#000000;stroke-width:1px;stroke-linecap:butt;stroke-linejoin:miter;stroke-opacity:1"
       d="m -5,100 25,-20 60,0 25,20"
       id="path5237"
       inkscape:connector-curvature="0" />
    <path
       style="fill:none;fill-rule:evenodd;stroke:#000000;stroke-width:1px;stroke-linecap:butt;stroke-linejoin:miter;stroke-opacity:1"
       d="m 20,80 0,20"
       id="path5239"
       inkscape:connector-curvature="0" />
    <path
       style="fill:none;fill-rule:evenodd;stroke:#000000;stroke-width:1px;stroke-linecap:butt;stroke-linejoin:miter;stroke-opacity:1"
       d="m 80,80 0,20"
       id="path5241"
       inkscape:connector-curvature="0" />
  </g>
</svg>
