<?xml version="1.0" encoding="UTF-8" standalone="no"?>
<!-- Created with Inkscape (http://www.inkscape.org/) -->

<svg
   xmlns:dc="http://purl.org/dc/elements/1.1/"
   xmlns:cc="http://creativecommons.org/ns#"
   xmlns:rdf="http://www.w3.org/1999/02/22-rdf-syntax-ns#"
   xmlns:svg="http://www.w3.org/2000/svg"
   xmlns="http://www.w3.org/2000/svg"
   xmlns:sodipodi="http://sodipodi.sourceforge.net/DTD/sodipodi-0.dtd"
   xmlns:inkscape="http://www.inkscape.org/namespaces/inkscape"
   width="100"
   height="100"
   viewBox="0 0 100 100"
   id="svg2"
   version="1.1"
   inkscape:version="0.91 r13725"
   sodipodi:docname="wolf.svg">
  <defs
     id="defs4" />
  <sodipodi:namedview
     id="base"
     pagecolor="#ffffff"
     bordercolor="#666666"
     borderopacity="1.0"
     inkscape:pageopacity="0.0"
     inkscape:pageshadow="2"
     inkscape:zoom="7.9195959"
     inkscape:cx="43.485727"
     inkscape:cy="50.81194"
     inkscape:document-units="px"
     inkscape:current-layer="layer3"
     showgrid="false"
     units="px"
     inkscape:window-width="1920"
     inkscape:window-height="1017"
     inkscape:window-x="-8"
     inkscape:window-y="-8"
     inkscape:window-maximized="1" />
  <metadata
     id="metadata7">
    <rdf:RDF>
      <cc:Work
         rdf:about="">
        <dc:format>image/svg+xml</dc:format>
        <dc:type
           rdf:resource="http://purl.org/dc/dcmitype/StillImage" />
        <dc:title></dc:title>
        <cc:license
           rdf:resource="http://creativecommons.org/licenses/by/3.0/" />
      </cc:Work>
      <cc:License
         rdf:about="http://creativecommons.org/licenses/by/3.0/">
        <cc:permits
           rdf:resource="http://creativecommons.org/ns#Reproduction" />
        <cc:permits
           rdf:resource="http://creativecommons.org/ns#Distribution" />
        <cc:requires
           rdf:resource="http://creativecommons.org/ns#Notice" />
        <cc:requires
           rdf:resource="http://creativecommons.org/ns#Attribution" />
        <cc:permits
           rdf:resource="http://creativecommons.org/ns#DerivativeWorks" />
      </cc:License>
    </rdf:RDF>
  </metadata>
  <g
     inkscape:label="Ebene 1"
     inkscape:groupmode="layer"
     id="layer1"
     transform="translate(0,-952.36216)"
     style="display:none;opacity:0.47671234">
    <path
       style="fill:none;fill-rule:evenodd;stroke:#000000;stroke-width:1px;stroke-linecap:butt;stroke-linejoin:miter;stroke-opacity:1"
       d="m 62.442274,984.80821 c 0.412445,0.25778 1.103861,0.6502 1.515228,1.01015 0.179185,0.15679 0.319156,0.35634 0.505077,0.50508 0.474007,0.3792 1.029608,0.64593 1.515228,1.01015 0.262985,0.19724 0.505077,0.4209 0.757615,0.63134 0.252538,0.21045 0.505076,0.4209 0.757614,0.63135 0.51546,0.42955 1.541339,1.38896 2.272844,1.38896 0.119047,0 0.191288,-0.15046 0.252538,-0.25254 0.547628,-0.91271 0.55843,-1.10085 0.757614,-2.14657 0.09581,-0.503 0.174678,-1.00914 0.252538,-1.51523 0.09051,-0.58832 0.13194,-1.18487 0.252538,-1.76777 0.132384,-0.63985 0.376933,-1.25331 0.505077,-1.89403 0.241646,-1.20823 0.272386,-2.45182 0.505076,-3.66181 0.09832,-0.51125 0.259564,-1.00844 0.378807,-1.51523 0.04916,-0.20891 0.0813,-0.42149 0.126269,-0.63134 0.08131,-0.37943 0.201252,-0.75178 0.252538,-1.13642 0.0445,-0.33377 0,-0.67344 0,-1.01015 0,-0.16836 0,-0.33672 0,-0.50508 0,-0.0421 0.04209,-0.12627 0,-0.12627 -0.290184,0 -0.252538,0.097 -0.252538,0.25254"
       id="path4136"
       inkscape:connector-curvature="0" />
    <path
       style="fill:none;fill-rule:evenodd;stroke:#000000;stroke-width:1px;stroke-linecap:butt;stroke-linejoin:miter;stroke-opacity:1"
       d="m 34.789348,1001.602 c 0.210448,0.042 0.427742,0.058 0.631345,0.1263 0.178571,0.059 0.32883,0.1864 0.505076,0.2525 0.162491,0.061 0.340442,0.071 0.505076,0.1263 0.341161,0.1137 0.67104,0.2591 1.010153,0.3788 0.481213,0.1698 1.478364,0.5038 2.020305,0.6313 0.417822,0.098 0.842986,0.1626 1.262691,0.2526 0.610984,0.1309 0.54408,0.2395 1.26269,0 0.267858,-0.089 0.522689,-0.2222 0.757615,-0.3788 0.849651,-0.5665 1.102521,-0.9886 1.515229,-2.0204 0.144117,-0.3602 0.172596,-0.7566 0.252538,-1.13637 0.08843,-0.42003 0.252538,-0.83346 0.252538,-1.26269 0,-0.42923 -0.207604,-0.83582 -0.252538,-1.26269 -0.03965,-0.37673 0.06227,-0.76277 0,-1.13643 -0.02495,-0.14969 -0.168359,-0.25253 -0.252538,-0.3788 0,-0.25254 0,-0.50508 0,-0.75762 0,-0.63987 0.07529,0.11294 -0.252538,-0.3788 -0.04669,-0.07 0,-0.16836 0,-0.25254 0,-0.0421 0,-0.0842 0,-0.12627 0,-0.0421 -0.03765,-0.14509 0,-0.12627 0.558375,0.27919 0.07837,0.15673 0.252538,0.50508 0.05324,0.10648 0.175063,0.16215 0.252538,0.25253 0.175392,0.20463 0.346561,0.41339 0.505076,0.63135 0.178518,0.24546 0.336718,0.50508 0.505076,0.75761 0.210449,0.25254 0.434107,0.49463 0.631346,0.75762 0.189403,0.25254 0.126269,0.50507 0.378807,0.75761 0.133099,0.1331 0.336717,0.16836 0.505076,0.25254 0.08418,0.0421 0.158423,0.12627 0.252538,0.12627 0.09412,0 0.168359,-0.0842 0.252538,-0.12627 0.168359,-0.0842 0.371977,-0.11944 0.505077,-0.25254 0.133099,-0.1331 0.155694,-0.34367 0.252538,-0.50507 0.156156,-0.26026 0.336717,-0.50508 0.505076,-0.75762 0.08418,-0.12627 0.204549,-0.23484 0.252538,-0.37881 0.113886,-0.34165 0.349781,-1.77386 0.505077,-2.14657 0.08094,-0.19426 0.306887,-0.3073 0.378807,-0.50508 0.101709,-0.2797 0.05409,-0.59515 0.126269,-0.88388 0.05497,-0.21989 0.203369,-0.41008 0.252538,-0.63135 0,-1.32031 -0.150585,-0.0267 0.252538,-0.63134 0.07872,-0.11808 -0.06002,-0.3488 0,-0.37881 0.477017,-0.23851 0.161344,0.0351 0.252538,0.12627 0.06655,0.0666 0.17423,0.0741 0.252538,0.12627 0.754147,0.50277 0.330754,0.26282 1.010153,1.01015 0.24024,0.26427 0.505076,0.50508 0.757614,0.75762 0.168359,0.16836 0.311331,0.36668 0.505077,0.50507 0.108307,0.0774 0.259759,0.0667 0.378807,0.12627 0.441144,0.22057 0.623889,0.59423 1.136421,0.25254 0.175104,-0.11673 0.356267,-0.23 0.505077,-0.37881 0.107308,-0.1073 0.168358,-0.25253 0.252538,-0.3788 0.168359,-0.25254 0.354491,-0.49409 0.505076,-0.75762 0.812944,-1.42265 0.240931,-0.53432 0.757615,-1.64149 0.199,-0.42643 0.502067,-0.81023 0.631345,-1.2627 0.192089,-0.67231 0.126269,-1.88724 0.126269,-2.65165 0,-0.50507 0,-1.01015 0,-1.51522 0,-0.12627 0,-0.25254 0,-0.37881 0,-0.0842 0.02042,-0.17087 0,-0.25254 -0.182738,-0.73095 -0.126269,0.33192 -0.126269,-0.63135 0,-0.0421 0,-0.16835 0,-0.12626 0,0.12626 0,0.25253 0,0.3788"
       id="path4138"
       inkscape:connector-curvature="0" />
    <path
       style="fill:none;fill-rule:evenodd;stroke:#000000;stroke-width:1px;stroke-linecap:butt;stroke-linejoin:miter;stroke-opacity:1"
       d="m 48.0476,1020.4161 c 0.56243,-1.9685 -0.04443,0.042 0.505076,-1.5152 0.177193,-0.5021 0.358816,-1.0034 0.505076,-1.5153 0.106605,-0.3731 0.176436,-0.7559 0.252538,-1.1364 0.09229,-0.4614 0.123261,-0.9365 0.252539,-1.389 0.47465,-1.6612 0.556148,-0.7873 0.757614,-2.3991 0,-2.247 -0.16343,-0.015 0.252538,-1.2627 0.03993,-0.1197 0,-0.2525 0,-0.3788 0,-0.042 -0.03765,-0.1074 0,-0.1262 0.477017,-0.2385 0.161344,0.035 0.252538,0.1262 0.06655,0.067 0.185989,0.06 0.252538,0.1263 0.19057,0.1906 0.314508,0.4408 0.505077,0.6314 0.232448,0.2324 0.515289,0.4092 0.757614,0.6313 0.263269,0.2413 0.494345,0.5163 0.757615,0.7576 0.564905,0.5178 1.535073,1.2693 2.272843,1.5152 0.242883,0.081 0.502863,0.1008 0.757614,0.1263 0.433235,0.043 0.447265,0.051 0.757615,-0.1263 0.213086,-0.1217 0.471626,-0.1924 0.631345,-0.3788 0.112938,-0.1317 0.0764,-0.3388 0.126269,-0.505 0.07649,-0.255 0.174253,-0.5032 0.252538,-0.7577 0.08398,-0.2729 0.477147,-1.6566 0.505076,-1.894 0.04426,-0.3762 -0.0576,-0.762 0,-1.1364 0.02862,-0.1861 0.221594,-0.3194 0.252539,-0.5051 0.07611,-0.4567 0,-0.926 0,-1.389 0,-0.9331 -0.07004,0.2102 0.252538,-0.7576 0.03993,-0.1198 -0.05647,-0.2658 0,-0.3788 0.04209,-0.084 0.185988,-0.06 0.252538,-0.1262 0.02976,-0.03 -0.04209,-0.1263 0,-0.1263 0.169115,0 0.426197,0.2868 0.505076,0.3788 0.249304,0.2908 0.857157,1.0575 1.010153,1.389 0.128406,0.2782 0.124131,0.6056 0.252538,0.8838 0.254379,0.5512 0.738682,0.9723 1.010152,1.5153 0.865238,1.7304 -0.39219,-0.013 0.757615,1.1364 0.14408,0.1441 0.216442,0.5051 0.505076,0.5051 0.04209,0 -0.02976,-0.096 0,-0.1263 0.596432,-0.5964 -0.09553,0.8087 0.252538,-0.7576 0.04083,-0.1838 0.221593,-0.3194 0.252538,-0.5051 0.05536,-0.3321 0,-0.6734 0,-1.0101 0,-0.2105 -0.03765,-0.4243 0,-0.6314 0.04762,-0.2619 0.221435,-0.4932 0.252538,-0.7576 0.0541,-0.4598 -0.0541,-0.9292 0,-1.389 0.0311,-0.2643 0.191569,-0.4985 0.252539,-0.7576 0.172801,-0.7344 0.273449,-1.7842 0.505076,-2.5254 0.09561,-0.3059 0.294466,-0.5746 0.378807,-0.8838 0.0443,-0.1625 -0.02768,-0.3391 0,-0.5051 0.01547,-0.093 0.103443,-0.1613 0.126269,-0.2526 0.07289,-0.2915 -0.156789,-0.2764 0.252538,-0.3788 0.08167,-0.02 0.177246,-0.038 0.252538,0 0.03765,0.019 -0.02335,0.091 0,0.1263 0.06604,0.099 0.168359,0.1684 0.252538,0.2525 0.532069,0.5321 0.08065,0.036 0.757615,1.1365 0.15907,0.2585 0.385517,0.4786 0.505076,0.7576 0.136722,0.319 0.123636,0.6879 0.252538,1.0101 0.126027,0.3151 0.362874,0.5758 0.505077,0.8839 0.111552,0.2417 0.109622,0.533 0.252538,0.7576 0.159784,0.2511 0.466256,0.3837 0.631345,0.6314 0.09626,0.1444 0.04866,0.3498 0.126269,0.505 0.05324,0.1065 0.168359,0.1684 0.252538,0.2526 0.08418,0.084 0.168359,0.1683 0.252538,0.2525"
       id="path4140"
       inkscape:connector-curvature="0" />
    <path
       style="fill:none;fill-rule:evenodd;stroke:#000000;stroke-width:1px;stroke-linecap:butt;stroke-linejoin:miter;stroke-opacity:1"
       d="m 71.02857,1009.3044 c 0.149208,-1.1937 0.333959,-2.7165 0.505076,-3.9143 0.771916,-5.40344 -0.254696,2.6786 0.252539,-3.6618 0.03095,-0.3868 0.168358,-0.7577 0.252538,-1.1365 0,-0.71548 0,-1.43101 0,-2.14653 0,-0.92597 0,-1.85195 0,-2.77792 0,-0.21045 0,-0.4209 0,-0.63135 0,-0.21045 -0.05104,-0.42718 0,-0.63134 0.03681,-0.14723 0.204548,-0.23484 0.252538,-0.37881 0.03993,-0.11979 0,-0.25254 0,-0.37881 0,-0.0842 0,-0.16836 0,-0.25254 0,-0.3788 0,-0.75761 0,-1.13642 0,-0.15454 -0.0055,-0.50324 0,-0.50507 0.119789,-0.0399 0.259018,-0.0399 0.378807,0 0.04036,0.0135 -0.03415,0.34465 0,0.3788 0.02976,0.0298 0.09651,-0.0298 0.126269,0 0.05952,0.0595 -0.05952,0.19302 0,0.25254 0.06655,0.0666 0.185989,0.0597 0.252538,0.12627 0.05952,0.0595 -0.07529,0.21489 0,0.25254 0.07529,0.0376 0.177246,-0.0376 0.252538,0 0.03765,0.0188 -0.02335,0.0913 0,0.12627 0.06604,0.0991 0.186503,0.15348 0.252539,0.25254 0.104411,0.15661 0.159149,0.34164 0.252538,0.50507 0.07529,0.13177 0.190904,0.24013 0.252538,0.37881 0.108113,0.24326 0.127268,0.52273 0.252538,0.75761 0.214245,0.40171 0.531737,0.74114 0.757614,1.13643 0.112455,0.19679 0.172953,0.41911 0.252539,0.63134 0.17298,0.46128 0.308645,0.93717 0.505076,1.38896 0.62237,1.43145 0.642865,1.10593 1.010152,2.14661 0.282874,0.8014 0.618608,1.9948 1.010153,2.7779 0.439026,0.878 1.058009,1.6566 1.515229,2.5254 0.193068,0.3668 0.294898,0.7791 0.505076,1.1364 0.0044,0.01 1.505503,2.0057 1.515229,2.0203 0.188231,0.2823 0.330488,0.5929 0.505076,0.8839 0.07808,0.1301 0.151717,0.2654 0.252538,0.3788 0.237273,0.2669 0.528977,0.4832 0.757615,0.7576 0.194304,0.2332 0.302036,0.532 0.505076,0.7576 0.18029,0.2003 0.452296,0.3037 0.631345,0.5051 0.16305,0.1834 0.217195,0.4466 0.378807,0.6313 0.138582,0.1584 0.373611,0.2145 0.505077,0.3788 0.05259,0.066 -0.04669,0.1825 0,0.2526 0.05221,0.078 0.185988,0.06 0.252538,0.1262 0.107308,0.1074 0.157736,0.2604 0.252538,0.3789 0.07437,0.093 0.168359,0.1683 0.252538,0.2525 0.08418,0.084 0.1573,0.1811 0.252538,0.2525 0.290185,0.2177 0.252538,-3e-4 0.252538,0.2526 0,0.2852 -0.03765,-0.038 0.252539,0.2525 0.02976,0.03 0,0.1684 0,0.1263 0,-0.084 0.04669,-0.1825 0,-0.2526 -0.290185,-0.4352 -0.252539,0.098 -0.252539,-0.2525"
       id="path4142"
       inkscape:connector-curvature="0" />
    <path
       style="fill:none;fill-rule:evenodd;stroke:#000000;stroke-width:1px;stroke-linecap:butt;stroke-linejoin:miter;stroke-opacity:1"
       d="m 84.413091,1009.9358 c 0.580369,-0.4353 0.316846,-0.2847 0.757615,-0.5051 0.08418,-0.042 0.159703,-0.1108 0.252538,-0.1263 0.166068,-0.028 0.336718,0 0.505076,0 0.336718,0 0.675106,-0.034 1.010153,0 0.225939,0.023 0.354321,0.2582 0.505076,0.3788 0.118502,0.095 0.280045,0.1373 0.378807,0.2526 0.935237,1.0911 0.05652,0.1695 0.378808,1.1364 0.03765,0.1129 0.214891,0.1396 0.252538,0.2525 0.05324,0.1597 0,0.3367 0,0.5051 0,0.2525 0,0.5051 0,0.7576 0,0.2946 0,0.5893 0,0.8839 0,0.042 0.03765,0.1074 0,0.1263 -0.07529,0.038 -0.168359,0 -0.252538,0"
       id="path4148"
       inkscape:connector-curvature="0" />
    <path
       style="fill:none;fill-rule:evenodd;stroke:#000000;stroke-width:1px;stroke-linecap:butt;stroke-linejoin:miter;stroke-opacity:1"
       d="m 69.76588,1023.9516 c -0.241334,0.2521 -0.597179,0.2355 -0.883884,0.3788 -0.219513,0.1098 -0.41589,0.2613 -0.631345,0.3788 -0.247871,0.1352 -0.522688,0.2222 -0.757615,0.3788 -0.27352,0.1824 -0.499127,0.4283 -0.757614,0.6314 -0.330959,0.26 -0.697302,0.476 -1.010153,0.7576 -0.112799,0.1015 -0.151716,0.2654 -0.252538,0.3788 -0.237273,0.2669 -0.505076,0.5051 -0.757614,0.7576 -1.039271,1.0393 -0.54794,0.349 -1.010153,1.389 -0.07645,0.172 -0.252538,0.3168 -0.252538,0.5051 0,0.2511 0.305797,0.4386 0.505076,0.505 0.164635,0.055 0.331536,0.1263 0.505077,0.1263 0.646211,0 1.172624,-0.2968 1.767767,-0.5051 0.502507,-0.1758 1.016729,-0.3181 1.515228,-0.505 2.298444,-0.862 0.782419,-0.3496 3.030458,-1.5153 0.618506,-0.3207 1.270881,-0.5723 1.894036,-0.8839 0.555839,-0.2779 1.089806,-0.5978 1.641498,-0.8838 0.58486,-0.3033 1.187041,-0.5728 1.767767,-0.8839 0.598239,-0.3205 1.168935,-0.6908 1.767767,-1.0102 0.664344,-0.3543 1.355961,-0.6558 2.020305,-1.0101 0.598832,-0.3194 1.170212,-0.6884 1.767767,-1.0102 0.994391,-0.5354 2.040873,-0.9709 3.030458,-1.5152 0.347922,-0.1914 0.679767,-0.4111 1.010152,-0.6314 0.175104,-0.1167 0.316846,-0.2847 0.505076,-0.3788 0.15522,-0.078 0.336718,-0.084 0.505077,-0.1262"
       id="path4160"
       inkscape:connector-curvature="0" />
    <path
       style="fill:none;fill-rule:evenodd;stroke:#000000;stroke-width:1px;stroke-linecap:butt;stroke-linejoin:miter;stroke-opacity:1"
       d="m 86.938473,1018.2695 c -0.07365,0.1277 -0.576296,0.8839 0,0.8839 0.04209,0 -0.03765,-0.1075 0,-0.1263 0.07529,-0.038 0.170872,0.02 0.252538,0 0.132853,-0.033 0.586083,-0.3335 0.631345,-0.3788 0.437099,-0.4371 0.583521,-0.6859 0.883884,-1.1364 0.168359,-0.2525 0.336717,-0.5051 0.505076,-0.7576 0.08418,-0.1263 0.190904,-0.2401 0.252538,-0.3788 0.108114,-0.2433 0.168359,-0.5051 0.252538,-0.7576 0.08418,-0.2526 0.208776,-0.4951 0.252538,-0.7577 0.04152,-0.2491 0,-0.505 0,-0.7576 0,-0.083 0.02509,-0.72 0,-0.7576 -0.05221,-0.078 -0.168358,-0.084 -0.252538,-0.1263 -0.32783,-0.1639 -0.158422,-0.1262 -0.505076,-0.1262"
       id="path4162"
       inkscape:connector-curvature="0" />
    <path
       style="fill:none;fill-rule:evenodd;stroke:#000000;stroke-width:1px;stroke-linecap:butt;stroke-linejoin:miter;stroke-opacity:1"
       d="m 75.06918,1025.9719 c -0.465291,0.1181 -0.13993,0.9112 -0.252538,1.1364 -0.04209,0.084 -0.185988,0.06 -0.252538,0.1263 -0.02976,0.03 -0.02976,0.097 0,0.1263 0.582875,0.5829 2.386009,-0.8015 2.525381,-0.8839 1.820518,-1.0758 0.670283,-0.3852 2.020306,-1.2627 1.462812,-0.9508 1.960838,-1.1911 3.282995,-2.2728 0.438261,-0.3586 0.839464,-0.7603 1.262691,-1.1365 1.438796,-1.2789 0.566169,-0.4399 1.767767,-1.6415"
       id="path4164"
       inkscape:connector-curvature="0" />
    <path
       style="fill:none;fill-rule:evenodd;stroke:#000000;stroke-width:1px;stroke-linecap:butt;stroke-linejoin:miter;stroke-opacity:1"
       d="m 54.108515,1032.1591 c -0.23691,0.4738 -0.292846,0.4944 -0.378807,1.0102 -0.01384,0.083 -0.08418,0.2525 0,0.2525 0.22666,0 0.420897,-0.1684 0.631345,-0.2525 2.220315,-0.8882 0.346629,-0.027 2.525382,-1.389 0.575516,-0.3597 1.189767,-0.6545 1.767767,-1.0102 0.516978,-0.3181 1.000471,-0.6884 1.515228,-1.0101 1.226939,-0.7668 1.387198,-0.8199 2.525382,-1.389"
       id="path4166"
       inkscape:connector-curvature="0" />
    <path
       style="fill:none;fill-rule:evenodd;stroke:#000000;stroke-width:1px;stroke-linecap:butt;stroke-linejoin:miter;stroke-opacity:1"
       d="m 66.482884,960.31201 c -0.08418,0.21045 -0.180862,0.41632 -0.252538,0.63134 -0.01331,0.0399 0,0.0842 0,0.12627 0,0.0842 0,0.16836 0,0.25254 0,0.25254 0,0.50508 0,0.75762 0,0.12627 0,0.25253 0,0.3788 0,0.0842 -0.03126,0.17438 0,0.25254 0.376175,0.94044 0.1289,-0.18282 0.505076,0.75762 0.113801,0.2845 0.105809,0.61488 0.252538,0.88388 0.114012,0.20902 0.356339,0.31915 0.505076,0.50508 0.661296,0.82662 0.298853,0.9248 1.515229,1.26269 0.312288,0.0867 1.557129,0.16486 2.020305,0.12627 0.255137,-0.0213 0.505076,-0.0842 0.757615,-0.12627 1.86995,-0.31166 1.035787,-0.0728 2.525381,-0.63135"
       id="path4172"
       inkscape:connector-curvature="0" />
    <path
       style="fill:none;fill-rule:evenodd;stroke:#000000;stroke-width:1px;stroke-linecap:butt;stroke-linejoin:miter;stroke-opacity:1"
       d="m 68.503189,957.9129 c 0.347743,-0.15 0.652552,-0.12627 1.010152,-0.12627 0.08418,0 0.170873,0.0204 0.252539,0 0.0913,-0.0228 0.159149,-0.1146 0.252538,-0.12627 0.250588,-0.0313 0.505076,0 0.757614,0 0.08418,0 0.170872,-0.0204 0.252538,0 0.09131,0.0228 0.161233,0.10344 0.252538,0.12627 0.248378,0.0621 0.510614,0.0589 0.757615,0.12627 0.218673,0.0596 0.420897,0.16836 0.631345,0.25253 0.210449,0.0842 0.424221,0.16049 0.631345,0.25254 0.172008,0.0765 0.330309,0.18263 0.505077,0.25254 0.247159,0.0989 0.519519,0.13349 0.757614,0.25254 0.188231,0.0941 0.329973,0.26207 0.505076,0.37881 0.466492,0.31099 0.119728,-0.13281 0.757615,0.50507 0.107308,0.10731 0.14523,0.2715 0.252538,0.37881 0.107308,0.10731 0.287753,0.13113 0.378807,0.25254 0.05051,0.0673 0,0.16836 0,0.25254 0,0.25936 0.03993,0.11296 -0.378807,0.25253 1.137519,-0.12324 -0.445065,0.72137 -0.252538,1.01016 0.06604,0.099 0.214892,0.1396 0.252538,0.25254 0.05324,0.15971 0.05324,0.34535 0,0.50507 -0.03765,0.11294 -0.214892,0.1396 -0.252538,0.25254 -0.05324,0.15972 0,0.33672 0,0.50508 0,0.0842 0.03765,0.17724 0,0.25253 -0.05324,0.10648 -0.199299,0.14606 -0.252538,0.25254 -0.03765,0.0753 0,0.16836 0,0.25254 0,0.0421 0.02335,0.0912 0,0.12627 -0.06604,0.0991 -0.168359,0.16836 -0.252538,0.25254 -0.08418,0.0842 -0.157301,0.18111 -0.252539,0.25254 -0.07529,0.0565 -0.168358,0.0842 -0.252538,0.12626"
       id="path4174"
       inkscape:connector-curvature="0" />
    <path
       style="fill:none;fill-rule:evenodd;stroke:#000000;stroke-width:1px;stroke-linecap:butt;stroke-linejoin:miter;stroke-opacity:1"
       d="m 72.670068,958.41797 c -0.210448,-0.0421 -0.416729,-0.12627 -0.631345,-0.12627 -0.08418,0 0.05952,0.19302 0,0.25254 -0.06655,0.0666 -0.185989,0.0597 -0.252538,0.12627 -0.05952,0.0595 0.04669,0.1825 0,0.25254 -0.06604,0.0991 -0.199299,0.14606 -0.252539,0.25254 -0.03765,0.0753 0,0.16836 0,0.25254 0,0.12626 0,0.25253 0,0.3788 0,0.0972 -0.02088,0.58959 0,0.63135 0.05324,0.10648 0.17817,0.15958 0.252539,0.25254 0.562978,0.70372 -0.159479,0.10551 0.883883,0.75761 0.128689,0.0804 0.234838,0.20455 0.378807,0.25254 0.301329,0.10044 0.91085,0.16145 1.262691,0.12627 0.254751,-0.0255 0.502863,-0.1008 0.757614,-0.12627 0.866634,-0.0867 0.160707,0.17218 1.010153,-0.25254"
       id="path4176"
       inkscape:connector-curvature="0" />
    <path
       style="fill:none;fill-rule:evenodd;stroke:#000000;stroke-width:1px;stroke-linecap:butt;stroke-linejoin:miter;stroke-opacity:1"
       d="m 75.06918,965.86785 c 0.168359,0.0421 0.336718,0.0842 0.505077,0.12627 0,0.0421 -0.02976,0.0965 0,0.12627 0.133099,0.1331 0.371977,0.11943 0.505076,0.25253 0.02976,0.0298 -0.03502,0.10293 0,0.12627 0.110745,0.0738 0.284692,0.0322 0.378807,0.12627 0.05952,0.0595 -0.02662,0.17268 0,0.25254 0.01882,0.0565 0.08418,0.0842 0.126269,0.12627 0.08418,0.0842 0.199299,0.14606 0.252538,0.25254 0.03765,0.0753 0,0.16836 0,0.25254 0,0.0421 -0.02976,0.0965 0,0.12627 0.06655,0.0666 0.185989,0.0597 0.252538,0.12626 0.05952,0.0595 -0.05952,0.19302 0,0.25254 0.06655,0.0666 0.200333,0.048 0.252539,0.12627 0.01049,0.0157 -0.01475,0.49033 0,0.50508 0.06655,0.0666 0.185988,0.0597 0.252538,0.12627 0.02976,0.0298 0,0.0842 0,0.12627 0,0.0954 -0.02739,0.59026 0,0.63134 0.05221,0.0783 0.200332,0.048 0.252538,0.12627 0.03423,0.0513 -0.03366,0.59768 0,0.63135 0.06655,0.0666 0.185988,0.0597 0.252538,0.12627 0.02976,0.0298 0,0.0842 0,0.12626 0,0.4209 0,0.8418 0,1.26269 0,0.0421 0,0.0842 0,0.12627 0,0.0421 0.02976,0.0965 0,0.12627 -0.06655,0.0666 -0.210448,0.0421 -0.252538,0.12627 -0.05647,0.11294 0,0.25254 0,0.37881 0,0.0421 0.02335,0.0912 0,0.12627 -0.04217,0.0633 -0.688243,0.70558 -0.757615,0.75761 -0.07529,0.0565 -0.177245,0.0698 -0.252538,0.12627 -0.771274,0.57846 0.463688,-0.10557 -0.757614,0.50508 -0.252538,0.12627 -0.505076,0.25254 -0.757614,0.37881 -0.08418,0.0421 -0.159704,0.11079 -0.252539,0.12626 -0.166068,0.0277 -0.341744,-0.0408 -0.505076,0 -0.04083,0.0102 0,0.0842 0,0.12627 -0.08418,0 -0.168359,0 -0.252538,0"
       id="path4178"
       inkscape:connector-curvature="0" />
    <path
       style="fill:none;fill-rule:evenodd;stroke:#000000;stroke-width:1px;stroke-linecap:butt;stroke-linejoin:miter;stroke-opacity:1"
       d="m 74.564104,974.07534 c -0.336717,0 -0.673435,0 -1.010152,0 -0.08418,0.0421 -0.159369,0.11296 -0.252539,0.12627 -0.208333,0.0298 -0.422522,-0.0261 -0.631345,0 -0.132071,0.0165 -0.247046,0.10744 -0.378807,0.12627 -0.166667,0.0238 -0.338018,-0.0209 -0.505076,0 -0.172201,0.0215 -0.332136,0.11185 -0.505077,0.12627 -0.335554,0.028 -0.673435,0 -1.010152,0 -0.252538,0 -0.505076,0 -0.757615,0"
       id="path4180"
       inkscape:connector-curvature="0" />
    <path
       style="fill:none;fill-rule:evenodd;stroke:#000000;stroke-width:1px;stroke-linecap:butt;stroke-linejoin:miter;stroke-opacity:1"
       d="m 74.816642,971.54996 c -0.347728,-0.26797 -0.873599,-0.0614 -1.26269,-0.12627 -0.171179,-0.0285 -0.333281,-0.10173 -0.505077,-0.12627 -0.125,-0.0179 -0.252538,0 -0.378807,0 -0.210448,0 -0.420897,0 -0.631345,0"
       id="path4182"
       inkscape:connector-curvature="0" />
    <path
       style="fill:none;fill-rule:evenodd;stroke:#000000;stroke-width:1px;stroke-linecap:butt;stroke-linejoin:miter;stroke-opacity:1"
       d="m 71.281108,972.1813 c -0.505076,0 -1.010152,0 -1.515228,0 -0.168359,0 -0.338676,-0.0256 -0.505077,0 -0.93021,0.14311 -1.851421,0.33963 -2.777919,0.50508 -0.252035,0.045 -0.510933,0.0578 -0.757615,0.12627 -0.512974,0.14249 -1.010152,0.33671 -1.515228,0.50507"
       id="path4184"
       inkscape:connector-curvature="0" />
    <path
       style="fill:none;fill-rule:evenodd;stroke:#000000;stroke-width:1px;stroke-linecap:butt;stroke-linejoin:miter;stroke-opacity:1"
       d="m 63.704964,973.94907 c -1.038116,0.51911 -2.196788,0.64808 -3.282996,1.01015 -0.593598,0.19787 -1.178511,0.4209 -1.767766,0.63135 -0.589256,0.21044 -1.185389,0.40255 -1.767767,0.63134 -0.596697,0.23442 -1.175991,0.51104 -1.767767,0.75762 -0.418449,0.17435 -0.841794,0.33671 -1.262691,0.50507"
       id="path4186"
       inkscape:connector-curvature="0" />
    <path
       style="fill:none;fill-rule:evenodd;stroke:#000000;stroke-width:1px;stroke-linecap:butt;stroke-linejoin:miter;stroke-opacity:1"
       d="m 52.845824,978.11595 c -0.336717,0.21045 -0.673435,0.42089 -1.010152,0.63134 -0.252538,0.12627 -0.515505,0.23354 -0.757615,0.37881 -0.39039,0.23423 -0.754703,0.5095 -1.136421,0.75762 -0.674785,0.4386 -2.288796,1.43249 -2.904189,1.89403 -0.190476,0.14286 -0.336717,0.33672 -0.505076,0.50508 -1.242601,1.2426 -0.644333,0.7053 -1.767767,1.6415"
       id="path4188"
       inkscape:connector-curvature="0" />
    <path
       style="fill:none;fill-rule:evenodd;stroke:#000000;stroke-width:1px;stroke-linecap:butt;stroke-linejoin:miter;stroke-opacity:1"
       d="m 55.118668,1019.6585 c 0.336717,0.042 0.672498,0.092 1.010152,0.1262 0.251285,0.025 0.505076,0 0.757615,0 0.505076,0 1.010152,0 1.515228,0 0.168359,0 0.336718,0 0.505077,0 0.168358,0 0.338017,0.021 0.505076,0 0.1722,-0.022 0.332876,-0.1047 0.505076,-0.1262 0.167059,-0.021 0.338018,0.021 0.505076,0 0.172201,-0.022 0.336718,-0.084 0.505077,-0.1263 0.420897,-0.042 0.841794,-0.084 1.26269,-0.1263 1.934599,-0.1934 0.686185,-0.046 2.904189,-0.3788 0.98841,-0.1482 1.282578,-0.1641 2.399112,-0.3788 1.183579,-0.2276 2.34971,-0.542 3.535534,-0.7576 0.333865,-0.061 0.676288,-0.066 1.010153,-0.1263 0.592912,-0.1078 1.178511,-0.2525 1.767767,-0.3788 0.589255,-0.1262 1.181522,-0.2392 1.767767,-0.3788 3.381658,-0.8051 -3.36413,0.5971 2.777919,-0.6313"
       id="path4200"
       inkscape:connector-curvature="0" />
    <path
       style="fill:none;fill-rule:evenodd;stroke:#000000;stroke-width:1px;stroke-linecap:butt;stroke-linejoin:miter;stroke-opacity:1"
       d="m 73.553952,1018.1432 c 0.487769,-0.2845 1.027459,-0.473 1.515228,-0.7576 0.262169,-0.1529 0.491162,-0.3597 0.757615,-0.505 0.198984,-0.1086 0.422121,-0.1654 0.631345,-0.2526 2.729473,-1.1373 -0.749699,0.2654 1.641498,-0.6313 0.93676,-0.3513 1.841159,-0.7852 2.77792,-1.1365 1.159297,-0.4347 2.421142,-0.7054 3.535533,-1.2626 0.271471,-0.1358 0.505077,-0.3368 0.757615,-0.5051"
       id="path4202"
       inkscape:connector-curvature="0" />
    <path
       style="fill:none;fill-rule:evenodd;stroke:#000000;stroke-width:1px;stroke-linecap:butt;stroke-linejoin:miter;stroke-opacity:1"
       d="m 64.462579,958.2917 c -0.127177,-0.55638 -0.51952,-0.13349 -0.757615,-0.25253 -0.03765,-0.0188 0.03765,-0.10745 0,-0.12627 -0.150584,-0.0753 -0.341744,0.0408 -0.505076,0 -0.0913,-0.0228 -0.161233,-0.10345 -0.252538,-0.12627 -0.08167,-0.0204 -0.168359,0 -0.252538,0 -0.168359,0 -0.336718,0 -0.505077,0 -0.252538,0 -0.505076,0 -0.757614,0 -0.168359,0 -0.338018,-0.0209 -0.505076,0 -0.1722,0.0215 -0.336718,0.0842 -0.505077,0.12627 -0.168358,0.0421 -0.338213,0.0786 -0.505076,0.12627 -0.485445,0.13869 -1.471111,0.43163 -2.020305,0.63134 -0.675927,0.24579 -1.34687,0.50508 -2.020305,0.75762"
       id="path4204"
       inkscape:connector-curvature="0" />
    <path
       style="fill:none;fill-rule:evenodd;stroke:#000000;stroke-width:1px;stroke-linecap:butt;stroke-linejoin:miter;stroke-opacity:1"
       d="m 53.350901,960.69082 c -0.682321,0.22744 -1.337985,0.53017 -2.020305,0.75761 -0.164635,0.0549 -0.352727,0.0432 -0.505077,0.12627 -0.317859,0.17338 -0.587265,0.42371 -0.883883,0.63135 -0.372972,0.26107 -0.757615,0.50507 -1.136422,0.75761"
       id="path4206"
       inkscape:connector-curvature="0" />
    <path
       style="fill:none;fill-rule:evenodd;stroke:#000000;stroke-width:1px;stroke-linecap:butt;stroke-linejoin:miter;stroke-opacity:1"
       d="m 55.118668,960.69082 c -0.168359,-0.0842 -0.319407,-0.2216 -0.505077,-0.25254 -0.09284,-0.0155 -0.161232,0.10344 -0.252538,0.12627 -0.163332,0.0408 -0.339008,-0.0277 -0.505076,0 -0.171179,0.0285 -0.334906,0.0922 -0.505076,0.12627 -0.25105,0.0502 -0.512391,0.0527 -0.757615,0.12627 -0.180292,0.0541 -0.322465,0.20688 -0.505076,0.25253 -4.489105,0.74819 0.177633,-0.14053 -2.146574,0.50508 -0.54106,0.15029 -1.098136,0.23706 -1.641498,0.37881 -1.072648,0.27982 -1.693891,0.54512 -2.77792,0.88388 -0.16564,0.0518 -0.344885,0.0595 -0.505076,0.12627 -0.339548,0.14148 -1.456442,0.69883 -1.767767,1.01015 -0.05952,0.0595 0.03765,0.17725 0,0.25254 -0.371586,0.74317 -0.252538,-0.39201 -0.252538,0.75761"
       id="path4208"
       inkscape:connector-curvature="0" />
    <path
       style="fill:none;fill-rule:evenodd;stroke:#000000;stroke-width:1px;stroke-linecap:butt;stroke-linejoin:miter;stroke-opacity:1"
       d="m 47.289985,963.97381 c -0.510964,-0.14991 -0.9979,-0.12627 -1.515228,-0.12627 -0.168359,0 -0.339009,-0.0277 -0.505077,0 -0.09284,0.0155 -0.159703,0.1108 -0.252538,0.12627 -0.166068,0.0277 -0.338017,-0.0209 -0.505076,0 -0.1722,0.0215 -0.333897,0.0977 -0.505076,0.12627 -0.553657,0.0923 -1.100805,0.0981 -1.641498,0.25254 -0.383935,0.10969 -0.750606,0.27592 -1.136422,0.37881 -0.247377,0.066 -0.522293,0.0254 -0.757614,0.12627 -0.364968,0.15641 -0.655,0.45376 -1.010153,0.63134 -0.405461,0.20273 -0.848442,0.32097 -1.262691,0.50508 -0.686357,0.30505 -1.176836,0.56695 -1.767767,1.01015 -0.09524,0.0714 -0.168358,0.16836 -0.252538,0.25254"
       id="path4210"
       inkscape:connector-curvature="0" />
    <path
       style="fill:none;fill-rule:evenodd;stroke:#000000;stroke-width:1px;stroke-linecap:butt;stroke-linejoin:miter;stroke-opacity:1"
       d="m 39.713841,967.00427 c -0.372957,0.094 -0.760539,-0.047 -1.136421,0 -0.212959,0.0266 -0.418887,0.0959 -0.631346,0.12627 -0.08333,0.0119 -0.169504,-0.0138 -0.252538,0 -0.171179,0.0285 -0.333897,0.0977 -0.505076,0.12627 -0.334721,0.0558 -0.675432,0.0705 -1.010153,0.12627 -0.171179,0.0285 -0.335388,0.0899 -0.505076,0.12627 -0.342132,0.0733 -1.28726,0.23465 -1.767767,0.3788 -1.259937,0.37799 -2.44535,0.892 -3.535534,1.6415 -0.1962,0.13489 -0.327121,0.3469 -0.505076,0.50508 -0.580061,0.51561 -1.178511,1.01015 -1.767767,1.51523"
       id="path4212"
       inkscape:connector-curvature="0" />
    <path
       style="fill:none;fill-rule:evenodd;stroke:#000000;stroke-width:1px;stroke-linecap:butt;stroke-linejoin:miter;stroke-opacity:1"
       d="m 29.864854,972.68638 c -0.237458,0.1225 -0.512617,-0.0612 -0.757614,0 -0.09131,0.0228 -0.168359,0.0842 -0.252539,0.12627 -0.08418,0.0421 -0.174229,0.0741 -0.252538,0.12627 -0.175103,0.11673 -0.316845,0.28469 -0.505076,0.3788 -0.155219,0.0776 -0.336718,0.0842 -0.505076,0.12627 -0.336718,0.21045 -0.665397,0.43434 -1.010153,0.63135 -0.245145,0.14008 -0.511528,0.24038 -0.757614,0.37881 -0.42781,0.24064 -0.834882,0.51697 -1.262691,0.75761 -0.246086,0.13842 -0.511528,0.24038 -0.757614,0.37881 -2.665932,1.49958 0.134777,0.0589 -2.525382,1.38896"
       id="path4214"
       inkscape:connector-curvature="0" />
    <path
       style="fill:none;fill-rule:evenodd;stroke:#000000;stroke-width:1px;stroke-linecap:butt;stroke-linejoin:miter;stroke-opacity:1"
       d="m 10.924494,972.30757 c 0,0.46299 0,0.92597 0,1.38896 0,0.12627 0,0.25254 0,0.37881 0,0.0842 -0.03126,0.17438 0,0.25254 0.423216,1.05804 0.164172,-0.5681 0.505076,1.13642 0.03302,0.16509 -0.04625,0.34319 0,0.50507 0.04169,0.14592 0.189741,0.24066 0.252538,0.37881 0.14881,0.32738 0.265087,0.66899 0.378807,1.01015 0.20392,0.61176 0.07271,0.67473 0.378808,1.38896 0.17411,0.40626 0.498529,0.87407 0.757614,1.26269 0.263402,0.39511 0.662813,1.04162 1.010152,1.38896 0.14881,0.14881 0.346698,0.24023 0.505077,0.37881 0.179185,0.15679 0.306969,0.37301 0.505076,0.50508 0.313235,0.20882 0.673435,0.33672 1.010153,0.50507 0.08418,0.0421 0.162391,0.0992 0.252538,0.12627 0.332442,0.0997 0.667794,0.19548 1.010152,0.25254 0.166068,0.0277 0.336718,0 0.505076,0 0.626118,0 0.544271,0.0277 1.262691,-0.12627 0.283198,-0.0607 1.436501,-0.33944 1.767767,-0.50508 0.439026,-0.21951 0.851144,-0.4901 1.262691,-0.75761 0.803751,-0.52244 1.510133,-1.06946 2.272843,-1.6415"
       id="path4218"
       inkscape:connector-curvature="0" />
    <path
       style="fill:none;fill-rule:evenodd;stroke:#000000;stroke-width:1px;stroke-linecap:butt;stroke-linejoin:miter;stroke-opacity:1"
       d="m 11.177032,966.49919 c -0.618015,0.30901 -0.505077,0.0643 -0.505077,0.63135 0,0.0842 0.03765,0.17724 0,0.25254 -0.05324,0.10648 -0.199298,0.14606 -0.252538,0.25254 -0.03765,0.0753 0,0.16835 0,0.25253 0,0.12627 0,0.25254 0,0.37881 0,0.33672 0,0.67343 0,1.01015 0,0.12627 -0.03062,0.25631 0,0.37881 0.05497,0.21989 0.203369,0.41008 0.252538,0.63135 0.03652,0.16435 -0.03652,0.34072 0,0.50507 0.04917,0.22126 0.19027,0.41341 0.252539,0.63135 0.709158,3.19121 -0.129573,-0.29484 0.505076,1.76776 0.102071,0.33174 0.123636,0.6879 0.252538,1.01016 0.126027,0.31506 0.336718,0.58925 0.505076,0.88388"
       id="path4220"
       inkscape:connector-curvature="0" />
    <path
       style="fill:none;fill-rule:evenodd;stroke:#000000;stroke-width:1px;stroke-linecap:butt;stroke-linejoin:miter;stroke-opacity:1"
       d="m 11.42957,965.99412 c 0.336718,-0.12627 0.664375,-0.28002 1.010153,-0.37881 0.414027,-0.11829 1.759894,-0.22886 2.020305,-0.25254 0.504745,-0.0459 1.008841,-0.14737 1.515228,-0.12627 0.5116,0.0213 1.007881,0.18336 1.515229,0.25254 0.419118,0.0571 0.844375,0.0635 1.262691,0.12627 0.424483,0.0637 0.844132,0.15741 1.262691,0.25254 1.305352,0.29667 1.597523,0.3527 2.777919,0.88388 0.429129,0.19311 0.871147,0.37032 1.262691,0.63135 0.372275,0.24818 0.683743,0.57787 1.010152,0.88388 0.365524,0.34268 1.449162,1.41613 1.767767,1.89404 0.208824,0.31323 0.336718,0.67343 0.505077,1.01015"
       id="path4222"
       inkscape:connector-curvature="0" />
    <path
       style="fill:none;fill-rule:evenodd;stroke:#000000;stroke-width:1px;stroke-linecap:butt;stroke-linejoin:miter;stroke-opacity:1"
       d="m 25.319167,969.78219 c 0,1.38896 0,2.77792 0,4.16688 0,0.46298 0.05743,0.92955 0,1.38896 -0.02811,0.22491 -0.194136,0.41234 -0.252538,0.63134 -0.110597,0.41474 -0.134619,0.84998 -0.252538,1.26269 -0.05171,0.18099 -0.168359,0.33672 -0.252538,0.50508 -0.168359,0.33672 -0.336717,0.67344 -0.505076,1.01015 -0.179891,0.35978 -0.39352,0.81932 -0.631346,1.13643 -0.107142,0.14285 -0.252538,0.25253 -0.378807,0.3788"
       id="path4224"
       inkscape:connector-curvature="0" />
    <path
       style="fill:none;fill-rule:evenodd;stroke:#000000;stroke-width:1px;stroke-linecap:butt;stroke-linejoin:miter;stroke-opacity:1"
       d="m 26.581858,971.67623 c 0,0.21044 0.02781,0.42274 0,0.63134 -0.05673,0.42547 -0.159424,0.84368 -0.252538,1.26269 -0.07529,0.33882 -0.142782,0.68088 -0.252538,1.01015 -0.261967,0.7859 -0.866429,2.10428 -1.262691,2.77792 -0.136645,0.2323 -0.362238,0.40281 -0.505076,0.63135 -0.279512,0.44722 -0.455181,0.95691 -0.757614,1.38896 -0.363833,0.51976 -1.274409,1.40068 -1.767767,1.89404"
       id="path4226"
       inkscape:connector-curvature="0" />
    <path
       style="fill:none;fill-rule:evenodd;stroke:#000000;stroke-width:1px;stroke-linecap:butt;stroke-linejoin:miter;stroke-opacity:1"
       d="m 19.258252,970.41354 c -0.398909,0 -0.54528,-0.11905 -0.757614,0.25253 -0.346329,0.60608 -0.252538,0.69409 -0.252538,1.38896 0,0.16836 -0.05324,0.34536 0,0.50508 0.03765,0.11294 0.168358,0.16836 0.252538,0.25254 0.436137,0.43613 0.539014,0.73472 1.26269,0.63134 0.97971,-0.13996 1.531433,-0.79583 2.272844,-1.38896"
       id="path4228"
       inkscape:connector-curvature="0" />
    <path
       style="fill:none;fill-rule:evenodd;stroke:#000000;stroke-width:1px;stroke-linecap:butt;stroke-linejoin:miter;stroke-opacity:1"
       d="m 11.682108,961.32216 c 0.168359,-0.0842 0.31778,-0.23381 0.505076,-0.25254 0.693171,-0.0693 1.621594,0.46193 2.020305,1.01016 0.199589,0.27443 0.327231,0.59488 0.505077,0.88388 0.355094,0.57703 0.598251,0.75151 0.757614,1.38896 0.03063,0.1225 0,0.25254 0,0.37881"
       id="path4230"
       inkscape:connector-curvature="0" />
    <path
       style="fill:none;fill-rule:evenodd;stroke:#000000;stroke-width:1px;stroke-linecap:butt;stroke-linejoin:miter;stroke-opacity:1"
       d="m 12.187184,961.06962 c -0.168358,0.0842 -0.354491,0.1396 -0.505076,0.25254 -0.03367,0.0253 0,0.0842 0,0.12627 -0.08418,0.0842 -0.1573,0.18111 -0.252538,0.25254 -0.24281,0.18211 -0.508967,0.33102 -0.757614,0.50508 -0.408799,0.28615 -1.69177,1.31296 -1.767767,1.38896 -0.214617,0.21461 -0.303434,0.53076 -0.505077,0.75761 -0.357333,0.402 -3.048496,2.99638 -3.282996,3.283 -0.238389,0.29136 -0.305552,0.69091 -0.505076,1.01015 -1.718058,2.74889 0.312436,-1.53122 -1.767767,3.40926"
       id="path4232"
       inkscape:connector-curvature="0" />
    <path
       style="fill:none;fill-rule:evenodd;stroke:#000000;stroke-width:1px;stroke-linecap:butt;stroke-linejoin:miter;stroke-opacity:1"
       d="m 3.853426,971.29742 c -0.237458,0.1225 -0.512617,-0.0612 -0.757615,0 -0.09131,0.0228 -0.168358,0.0842 -0.252538,0.12627 -0.252538,0.12627 -0.505076,0.25254 -0.757614,0.3788 -0.1683589,0.0842 -0.3528473,0.14183 -0.5050764,0.25254 -0.2823188,0.20532 -1.2441818,1.05537 -1.5152288,1.38896 -0.3610027,0.44431 -0.6586828,0.93707 -1.0101526,1.38896 -0.2382382,0.30631 -0.5423642,0.56101 -0.7576144,0.88389 -1.0855322,1.62829 -0.8264515,1.37164 -1.3889597,2.77792 -1.2418211,3.10455 -0.5323836,1.09207 -1.3889601,3.6618"
       id="path4234"
       inkscape:connector-curvature="0" />
    <path
       style="fill:none;fill-rule:evenodd;stroke:#000000;stroke-width:1px;stroke-linecap:butt;stroke-linejoin:miter;stroke-opacity:1"
       d="m -6.753176,986.44971 c 0,-1.30478 0,-2.60956 0,-3.91434 0,-0.25254 0,-0.50508 0,-0.75762 0,-0.25254 -0.04152,-0.50851 0,-0.75761 0.04376,-0.26258 0.212061,-0.49452 0.252538,-0.75762 0.0448,-0.2912 -0.0448,-0.59268 0,-0.88388 0.04048,-0.2631 0.200333,-0.49659 0.252538,-0.75762 0.116736,-0.58367 0.141162,-1.18304 0.252539,-1.76776 0.431699,-2.26642 0.157029,0.95509 0.505076,-2.52538 0.02932,-0.29317 0,-0.58926 0,-0.88389 0,-0.29463 0,-0.58925 0,-0.88388 0,-0.25254 0,-0.50508 0,-0.75762 0,-0.25253 0.04518,-0.50914 0,-0.75761 -0.04055,-0.223 -0.203369,-0.41008 -0.252538,-0.63134 -0.03652,-0.16436 0.04083,-0.34175 0,-0.50508 -0.04565,-0.18261 -0.200828,-0.32409 -0.252538,-0.50508 -0.06938,-0.24282 0.07986,-0.51803 0,-0.75761 -0.04799,-0.14397 -0.204549,-0.23484 -0.252539,-0.37881 -0.03993,-0.11979 0.05647,-0.26587 0,-0.37881 -0.32783,-0.65566 -0.252538,0.40768 -0.252538,-0.3788"
       id="path4240"
       inkscape:connector-curvature="0" />
    <path
       style="fill:none;fill-rule:evenodd;stroke:#000000;stroke-width:1px;stroke-linecap:butt;stroke-linejoin:miter;stroke-opacity:1"
       d="m -4.732871,969.65592 c -0.08418,-0.21045 -0.180862,-0.41632 -0.252538,-0.63134 -0.02338,-0.0701 0,-0.84048 0,-0.88389 0,-0.0842 -0.02662,-0.17268 0,-0.25254 0.05952,-0.17857 0.200827,-0.32408 0.252538,-0.50507 0.03469,-0.12141 -0.03469,-0.2574 0,-0.37881 0.05171,-0.18099 0.197182,-0.32517 0.252538,-0.50508 0.179176,-0.58232 0.134391,-1.14725 0.5050766,-1.64149 0.2684517,-0.35794 0.6356998,-0.63788 0.8838835,-1.01016 0.096263,-0.14439 0.038827,-0.35517 0.126269,-0.50507 0.7852805,-1.3462 0.5251573,-0.63019 1.2626907,-1.51523 0.2694517,-0.32334 0.4704288,-0.70246 0.7576144,-1.01015 0.2343339,-0.82515 1.1533664,-0.77456 1.6414979,-1.2627 0.1735403,-0.17354 0.2525382,-0.42089 0.3788072,-0.63134"
       id="path4242"
       inkscape:connector-curvature="0" />
    <path
       style="fill:none;fill-rule:evenodd;stroke:#000000;stroke-width:1px;stroke-linecap:butt;stroke-linejoin:miter;stroke-opacity:1"
       d="m 4.105964,958.41797 c -0.57242,0.42932 -0.505076,0.16836 -0.505076,0.63135 0,0.12627 0.0469,0.26157 0,0.37881 -0.04421,0.11053 -0.226713,0.13632 -0.252538,0.25253 -0.06391,0.28762 0,0.58926 0,0.88389 0,0.33671 0,0.67343 0,1.01015 0,0.4209 0,0.84179 0,1.26269 0,0.4209 -0.05563,0.84549 0,1.26269 0.02996,0.22467 0.175078,0.41833 0.252538,0.63135 0.09097,0.25017 0.151183,0.51146 0.252538,0.75761 0.193638,0.47027 0.457544,0.91101 0.631345,1.38896 0.412137,1.13338 0.281766,1.59795 0.883884,2.65165 0.118128,0.20673 0.380291,0.3023 0.505076,0.50508 0.434514,0.70608 0.589797,1.55824 1.010153,2.27284 0.213403,0.36279 0.524142,0.65995 0.757614,1.01015 0.104412,0.15662 0.162403,0.33983 0.252538,0.50508 0.162493,0.2979 0.32723,0.59488 0.505076,0.88388 0.210722,0.34243 0.709591,1.0884 1.010153,1.38896 0.148809,0.14881 0.343405,0.24408 0.505076,0.37881 0.09145,0.0762 0.1573,0.18111 0.252538,0.25254 0.290185,0.21764 0.252538,-2.9e-4 0.252538,0.25254"
       id="path4246"
       inkscape:connector-curvature="0" />
    <path
       style="fill:none;fill-rule:evenodd;stroke:#000000;stroke-width:1px;stroke-linecap:butt;stroke-linejoin:miter;stroke-opacity:1"
       d="m 1.3280445,961.19589 c -0.7897211,1.18458 -0.4365981,0.39385 -0.6313454,2.14658 -0.3977466,3.57972 -0.6055825,2.60909 0,6.06091 0.2524711,1.43909 0.4716204,2.89146 0.8838835,4.29315 0.2231353,0.75866 0.6418434,1.44679 1.0101524,2.14658 1.446831,2.74897 1.11835,2.17539 2.77792,4.16687"
       id="path4248"
       inkscape:connector-curvature="0" />
    <path
       style="fill:none;fill-rule:evenodd;stroke:#000000;stroke-width:1px;stroke-linecap:butt;stroke-linejoin:miter;stroke-opacity:1"
       d="m 5.873731,981.1464 c 0.753316,0.52474 0.923409,1.50096 1.515229,2.14658 0.262213,0.28605 0.647286,0.45004 0.883883,0.75761 0.19544,0.25408 0.19635,0.62034 0.378807,0.88389 0.20329,0.29364 0.517375,0.49335 0.757615,0.75761 0.362578,0.39884 0.629014,0.88155 1.010152,1.26269 0.776547,0.77655 -0.425739,-0.89115 0.505077,0.50508"
       id="path4250"
       inkscape:connector-curvature="0" />
    <path
       style="fill:none;fill-rule:evenodd;stroke:#000000;stroke-width:1px;stroke-linecap:butt;stroke-linejoin:miter;stroke-opacity:1"
       d="m 4.9244937,954.6299 c 0.00582,0.44327 -0.4237792,0.72994 -0.5050763,1.13642 -0.049527,0.24764 0.054783,0.51109 0,0.75762 -0.032921,0.14814 -0.1683588,0.25254 -0.2525381,0.3788 -0.084179,0.37881 -0.1976599,0.75228 -0.2525382,1.13643 -0.029762,0.20833 0,0.42089 0,0.63134 0,0.71553 0,1.43105 0,2.14658 0,0.54716 0,1.09433 0,1.64149 0,0.29463 -0.041667,0.59222 0,0.88389 0.043334,0.30333 0.2092042,0.58054 0.2525382,0.88388 0.041667,0.29167 -0.0448,0.59268 0,0.88388 0.040477,0.26311 0.1683587,0.50508 0.2525381,0.75762 0.1683588,0.50507 0.2783831,1.0335 0.5050763,1.51523 0.1147546,0.24385 0.3684315,0.39905 0.5050762,0.63134 0.2863105,0.48673 0.5050763,1.01016 0.7576145,1.51523"
       id="path4252"
       inkscape:connector-curvature="0" />
    <path
       style="fill:none;fill-rule:evenodd;stroke:#000000;stroke-width:1px;stroke-linecap:butt;stroke-linejoin:miter;stroke-opacity:1"
       d="m -0.88388348,964.22635 c 0.21933481,-0.98701 0.37061714,-1.81043 0.75761441,-2.77792 0.20972151,-0.5243 0.52394302,-1.00115 0.75761441,-1.51523 0.28437133,-0.62561 0.66357066,-1.78296 1.01015256,-2.39911 0.1775085,-0.31557 0.4305055,-0.58262 0.6313453,-0.88388 0.8624445,-1.29369 -0.1533366,0.0338 0.8838835,-1.26269 -0.2525381,0.16836 -0.5206108,0.31547 -0.7576144,0.50507 -0.5305572,0.42445 -0.4251596,0.42676 -0.7576144,0.88389 -1.23938099,1.70414 -0.3489001,0.29972 -1.51522883,2.39911 -0.67776306,1.21997 -1.41565237,2.40211 -2.02030507,3.6618 -0.023212,0.0484 -1.2988625,2.72044 -1.5152288,3.283 -0.2723871,0.7082 -0.4983057,1.43347 -0.7576145,2.14657 -0.95081,2.61473 -0.6106578,1.21204 -1.0101525,3.40927"
       id="path4254"
       inkscape:connector-curvature="0" />
    <path
       style="fill:none;fill-rule:evenodd;stroke:#000000;stroke-width:1px;stroke-linecap:butt;stroke-linejoin:miter;stroke-opacity:1"
       d="m 5.4295699,978.74729 c -1.9254683,-1.92547 -0.1088618,-0.01 -1.0101525,-1.13642 -0.074369,-0.093 -0.1865024,-0.15348 -0.2525381,-0.25254 -0.023347,-0.035 0,-0.16836 0,-0.12627 0,0.21045 -0.051041,0.42719 0,0.63135 0.073613,0.29445 0.4013527,0.47237 0.5050762,0.75761 0.2074805,0.57057 0.1465136,1.03715 0.5050763,1.51523 0.2684517,0.35794 0.6570328,0.62451 0.8838835,1.01016 0.202452,0.34416 0.2002358,0.77927 0.3788072,1.13642 0.5862117,0.87931 0.6680469,0.90027 1.0101525,1.6415 0.1737145,0.37638 0.344213,0.75437 0.5050763,1.13642 0.1759139,0.41779 0.3023455,0.85723 0.5050763,1.26269 0.05324,0.10648 0.1992984,0.14606 0.2525381,0.25253 0.9015833,1.80317 -0.2377766,0.0221 0.5050763,1.13643"
       id="path4256"
       inkscape:connector-curvature="0" />
    <path
       style="fill:none;fill-rule:evenodd;stroke:#000000;stroke-width:1px;stroke-linecap:butt;stroke-linejoin:miter;stroke-opacity:1"
       d="m 6.6922606,983.04044 c 0.084179,0.29463 0.1683588,0.58926 0.2525382,0.88389 0.084179,0.0842 0.2083249,0.142 0.2525381,0.25253 0.09379,0.23448 -0.07986,0.51804 0,0.75762 0.04799,0.14397 0.1683588,0.25254 0.2525381,0.37881"
       id="path4258"
       inkscape:connector-curvature="0" />
    <path
       style="fill:none;fill-rule:evenodd;stroke:#000000;stroke-width:1px;stroke-linecap:butt;stroke-linejoin:miter;stroke-opacity:1"
       d="m 8.9651039,973.57026 c 0.2617848,-0.75206 -0.3881912,-1.25117 -0.5050763,-1.89403 -0.045175,-0.24847 0.049527,-0.50999 0,-0.75762 -0.036915,-0.18457 -0.2008272,-0.32409 -0.2525382,-0.50507 -0.034689,-0.12142 0,-0.25254 0,-0.37881 0,-0.16836 0,-0.33672 0,-0.50508 0,-0.16836 0.036522,-0.34072 0,-0.50507 -0.049169,-0.22127 -0.2180728,-0.40733 -0.2525381,-0.63135 -0.1641498,-1.06697 0.1025936,-0.76945 0,-1.6415 -0.059828,-0.50853 -0.1683588,-1.01015 -0.2525381,-1.51523"
       id="path4260"
       inkscape:connector-curvature="0" />
    <path
       style="fill:none;fill-rule:evenodd;stroke:#000000;stroke-width:1px;stroke-linecap:butt;stroke-linejoin:miter;stroke-opacity:1"
       d="m 6.6922606,967.76188 c 0.1683588,0.37881 0.3671106,0.74552 0.5050763,1.13643 0.1155154,0.32729 0.1339258,0.68396 0.2525381,1.01015 0.2190885,0.60249 0.5088346,1.17691 0.7576144,1.76777 0.087957,0.20889 0.1469721,0.43076 0.2525382,0.63134 0.3160908,0.60057 0.6962201,1.16606 1.0101525,1.76777 0.2719982,0.52133 0.6702139,1.63666 1.0101529,2.14657 0.21525,0.32288 0.529375,0.57006 0.757614,0.88389 0.110712,0.15222 0.130039,0.36216 0.252538,0.50507 0.367984,0.42932 0.376402,0.37881 0.757615,0.37881"
       id="path4262"
       inkscape:connector-curvature="0" />
    <path
       style="fill:none;fill-rule:evenodd;stroke:#000000;stroke-width:1px;stroke-linecap:butt;stroke-linejoin:miter;stroke-opacity:1"
       d="m 7.449875,984.4294 c 0.1683588,0.16836 0.3730048,0.30697 0.5050763,0.50508 0.093389,0.14008 -0.062527,0.34876 0,0.50507 0.056361,0.14091 0.1846706,0.24308 0.2525381,0.37881 0.1013654,0.20273 0.1400834,0.43455 0.2525382,0.63135 0.059064,0.10336 0.1992984,0.14606 0.2525381,0.25253 0.7084285,1.41686 -0.3238902,0.0965 0.7576144,1.6415 0.102404,0.14629 0.286933,0.22569 0.3788072,0.37881 0.5274657,0.87911 0.2640247,0.84946 0.6313457,1.76777 0.05636,0.1409 0.190904,0.24013 0.252538,0.3788 0.108113,0.24326 0.11558,0.52936 0.252538,0.75762 0.5646,0.941 0.505076,0.1339 0.505076,0.75761"
       id="path4264"
       inkscape:connector-curvature="0" />
    <path
       style="fill:none;fill-rule:evenodd;stroke:#000000;stroke-width:1px;stroke-linecap:butt;stroke-linejoin:miter;stroke-opacity:1"
       d="m 10.732871,989.35389 c 0.618714,1.85615 -0.08262,0.12862 0.505076,1.01016 0.104412,0.15661 0.193014,0.3265 0.252538,0.50507 0.185793,0.55738 -0.322274,-0.0697 0.252538,0.50508"
       id="path4266"
       inkscape:connector-curvature="0" />
    <path
       style="fill:none;fill-rule:evenodd;stroke:#000000;stroke-width:1px;stroke-linecap:butt;stroke-linejoin:miter;stroke-opacity:1"
       d="m 61.998113,984.93448 c -0.505077,-0.25254 -1.010153,-0.50508 -1.515229,-0.75762 -0.168359,-0.0842 -0.34367,-0.15569 -0.505077,-0.25253 -0.52052,-0.31232 -0.994708,-0.69784 -1.515228,-1.01016 -1.011411,-0.60684 0.01031,0.22999 -1.262691,-0.88388 -0.08959,-0.0784 -0.162946,-0.17415 -0.252538,-0.25254 -0.247395,-0.21647 -0.525167,-0.3989 -0.757615,-0.63135 -0.609488,-0.60948 0.07219,-0.21644 -0.505076,-0.50507"
       id="path4270"
       inkscape:connector-curvature="0" />
    <path
       style="fill:none;fill-rule:evenodd;stroke:#000000;stroke-width:1px;stroke-linecap:butt;stroke-linejoin:miter;stroke-opacity:1"
       d="m 58.210041,985.18702 c -0.290185,-0.58037 -0.252539,-0.31685 -0.252539,-0.75762 0,-0.0842 0.03126,-0.17438 0,-0.25254 -0.05636,-0.1409 -0.204548,-0.23483 -0.252538,-0.3788 -0.03993,-0.11979 0,-0.25254 0,-0.37881 0,-0.12627 0,-0.25254 0,-0.37881 0,-0.12627 0.03993,-0.25902 0,-0.37881 -0.04799,-0.14397 -0.219617,-0.23066 -0.252538,-0.3788 -0.250475,-1.12714 0.296647,-0.46097 -0.252538,-1.01015"
       id="path4272"
       inkscape:connector-curvature="0" />
    <path
       style="fill:none;fill-rule:evenodd;stroke:#000000;stroke-width:1px;stroke-linecap:butt;stroke-linejoin:miter;stroke-opacity:1"
       d="m 69.826795,1029.0024 c -0.168359,0 -0.339008,-0.028 -0.505076,0 -0.09284,0.015 -0.172729,0.076 -0.252539,0.1263 -0.257378,0.1608 -0.486144,0.3693 -0.757614,0.505 -0.238095,0.1191 -0.519519,0.1335 -0.757614,0.2526 -0.10648,0.053 -0.146059,0.1993 -0.252539,0.2525 -0.321649,0.1608 -0.688503,0.218 -1.010152,0.3788 -0.27147,0.1357 -0.486144,0.3694 -0.757615,0.5051 -0.321648,0.1608 -0.680689,0.2347 -1.010152,0.3788 -3.483481,1.524 1.778676,-0.5631 -2.272843,0.8839 -0.177265,0.063 -0.327812,0.1892 -0.505077,0.2525 -0.413829,0.1478 -0.841793,0.2526 -1.26269,0.3788 -0.420897,0.1263 -0.838745,0.2632 -1.262691,0.3788 -0.502276,0.137 -1.010152,0.2526 -1.515229,0.3788 -0.168359,0.042 -0.333659,0.099 -0.505076,0.1263 -0.631345,0.084 -1.262691,0.1684 -1.894036,0.2525 -0.210449,0 -0.422184,-0.023 -0.631345,0 -0.852538,0.095 -0.182431,0.2613 -1.262691,0.1263 -0.09339,-0.012 -0.200332,-0.048 -0.252538,-0.1263 -0.125934,-0.1889 0.243951,-0.7404 0.252538,-0.7576"
       id="path4314"
       inkscape:connector-curvature="0" />
    <path
       style="fill:none;fill-rule:evenodd;stroke:#000000;stroke-width:1px;stroke-linecap:butt;stroke-linejoin:miter;stroke-opacity:1"
       d="m 23.359778,1046.6801 c 1.502901,-0.5781 1.477369,-0.5362 2.777919,-1.1365 0.170906,-0.079 0.332627,-0.1771 0.505076,-0.2525 0.501291,-0.2193 1.015223,-0.4091 1.515229,-0.6314 0.774034,-0.344 1.500411,-0.7888 2.272843,-1.1364 0.327941,-0.1475 0.682213,-0.2312 1.010153,-0.3788 4.208969,-1.894 -0.561196,0.1403 2.525381,-1.2627 0.583628,-0.2653 1.185683,-0.4889 1.767767,-0.7576 4.857474,-2.4287 -0.937122,0.4025 2.525382,-1.1364 0.430018,-0.1911 0.825771,-0.4566 1.26269,-0.6314 0.199266,-0.08 0.427743,-0.058 0.631346,-0.1262 0.304096,-0.1014 0.574632,-0.2945 0.883883,-0.3788 0.162427,-0.044 0.338018,0.021 0.505076,0 0.172201,-0.022 0.336718,-0.084 0.505077,-0.1263 0.919184,0.4596 0.316845,0.2525 1.894036,0.2525 0.126269,0 0.253807,0.018 0.378807,0 0.171796,-0.024 0.332397,-0.109 0.505076,-0.1262 2.130392,-0.2131 -1.244149,0.5004 2.272844,-0.3788 1.010152,-0.2526 2.031526,-0.4638 3.030457,-0.7577 0.766145,-0.2253 1.511316,-0.5171 2.272843,-0.7576 0.838065,-0.2646 1.695864,-0.4672 2.525382,-0.7576 0.855739,-0.2995 1.683587,-0.6734 2.525381,-1.0101 3.628636,-1.4515 1.690396,-0.6569 5.808377,-2.3991"
       id="path4316"
       inkscape:connector-curvature="0" />
    <path
       style="fill:none;fill-rule:evenodd;stroke:#000000;stroke-width:1px;stroke-linecap:butt;stroke-linejoin:miter;stroke-opacity:1"
       d="m 48.108515,980.51506 c -0.8469,0.2823 -0.519519,0.13349 -1.010152,0.37881 -0.08418,0.0421 -0.185989,0.0597 -0.252539,0.12627 -0.02976,0.0298 0.02976,0.0965 0,0.12626 -0.06655,0.0666 -0.185988,0.0597 -0.252538,0.12628 -0.107308,0.1073 -0.14523,0.27149 -0.252538,0.3788 -0.06655,0.0666 -0.168359,0.0842 -0.252538,0.12627 -0.168359,0.12627 -0.37361,0.21447 -0.505076,0.37881 -0.05259,0.0657 0.04669,0.1825 0,0.25254 -0.05221,0.0783 -0.17423,0.0741 -0.252538,0.12627 -0.175104,0.11673 -0.329973,0.26207 -0.505077,0.3788 -0.07831,0.0522 -0.185988,0.0597 -0.252538,0.12627 -0.02976,0.0298 0.02335,0.0913 0,0.12627 -0.06604,0.0991 -0.168359,0.16836 -0.252538,0.25254 -0.126269,0.12627 -0.271664,0.23595 -0.378807,0.37881 -0.02525,0.0337 0.03502,0.10292 0,0.12627 -0.577475,0.38498 -0.273879,-0.25743 -0.883884,0.50507 -0.05259,0.0657 0.04669,0.1825 0,0.25254 -0.05221,0.0783 -0.185988,0.0597 -0.252538,0.12627 -0.107308,0.10731 -0.14523,0.2715 -0.252538,0.37881 -0.06655,0.0666 -0.177246,0.0698 -0.252538,0.12627 -0.09524,0.0714 -0.153485,0.1865 -0.252538,0.25253 -0.156618,0.10442 -0.354492,0.1396 -0.505077,0.25254 -0.03367,0.0253 0.02976,0.0965 0,0.12627 -0.06655,0.0666 -0.177245,0.0698 -0.252538,0.12627 -0.09524,0.0714 -0.146058,0.1993 -0.252538,0.25254 -0.07529,0.0376 -0.177246,-0.0376 -0.252538,0 -0.03765,0.0188 0.02976,0.0965 0,0.12627 -0.133099,0.1331 -0.392138,0.10195 -0.505076,0.25253 -0.07986,0.10648 -0.03215,0.2847 -0.126269,0.37881 -0.09412,0.0941 -0.264676,0.0578 -0.378807,0.12627 -0.102083,0.0612 -0.157301,0.18111 -0.252539,0.25254 -0.621989,0.46649 0.227975,-0.48051 -0.757614,0.50508 -0.02976,0.0298 0,0.0842 0,0.12626 -0.08418,0.0842 -0.1573,0.18111 -0.252538,0.25254 -0.07529,0.0565 -0.185989,0.0597 -0.252538,0.12627 -0.107308,0.10731 -0.157737,0.26031 -0.252538,0.37881 -0.252539,0.31567 -0.505077,0.37881 -0.757615,0.75761 -0.04669,0.07 0.03765,0.17725 0,0.25254 -0.0849,0.1698 -0.71671,0.59044 -0.757614,0.63135 -0.06655,0.0666 -0.06748,0.17904 -0.126269,0.25254 -0.372343,0.46542 -0.376442,0.2478 -0.631346,0.75761 -0.01882,0.0377 0.02976,0.0965 0,0.12627 -0.06655,0.0666 -0.200332,0.048 -0.252538,0.12627 -0.04669,0.07 0.04669,0.18249 0,0.25253 -0.05221,0.0783 -0.200332,0.048 -0.252538,0.12627 -0.04669,0.07 0.04669,0.1825 0,0.25254 -0.05221,0.0783 -0.193745,0.0528 -0.252538,0.12627 -0.117587,0.14698 -0.148127,0.34846 -0.252538,0.50508 -0.277831,0.41674 -0.37565,0.15389 -0.757615,0.63134 -0.05259,0.0657 0.04669,0.1825 0,0.25254 -0.05221,0.0783 -0.180236,0.066 -0.252538,0.12627 -0.168359,0.16836 -0.336717,0.33672 -0.505076,0.50508 0,0.0421 0.02335,0.0912 0,0.12627 -0.06604,0.0991 -0.168359,0.16835 -0.252538,0.25253 -0.08418,0.0842 -0.161083,0.17633 -0.252538,0.25254 -0.161671,0.13473 -0.37361,0.21448 -0.505077,0.37881 -0.05259,0.0657 0,0.16836 0,0.25254 -0.08418,0.0842 -0.1573,0.18111 -0.252538,0.25254 -0.585268,0.43895 0.117011,-0.46194 -0.757614,0.63134 -0.02629,0.0329 0,0.0842 0,0.12627 -0.08418,0.0842 -0.168359,0.16836 -0.252538,0.25254 -0.08418,0.0842 -0.168359,0.16836 -0.252538,0.25254 -0.168359,0.16836 -0.373005,0.30697 -0.505077,0.50507 -0.04669,0.07 0.03765,0.17725 0,0.25254 -0.05324,0.10648 -0.168358,0.16836 -0.252538,0.25254 -0.168359,0.16836 -0.373005,0.30697 -0.505076,0.50508 -0.04669,0.07 0.03765,0.17724 0,0.25253 -0.05324,0.10648 -0.186502,0.15349 -0.252538,0.25254 -0.155408,0.23311 -0.223399,0.5245 -0.378807,0.75765 -0.116736,0.1751 -0.26727,0.3266 -0.378808,0.505 -0.556382,0.1272 -0.13349,0.5196 -0.252538,0.7577 -0.347762,0.6955 -0.123389,-0.098 -0.505076,0.3788 -0.117587,0.1469 -0.15915,0.3416 -0.252538,0.505 -0.07529,0.1318 -0.196177,0.2379 -0.252538,0.3788 -0.03126,0.078 0.04669,0.1825 0,0.2526 -0.05221,0.078 -0.193745,0.053 -0.252538,0.1263 -0.833636,-0.02 -0.12681,0.4427 -0.252539,0.6313 -0.06603,0.099 -0.199298,0.1461 -0.252538,0.2525 -0.03765,0.075 0,0.1684 0,0.2526 0,0.042 0.02335,0.091 0,0.1262 -0.06603,0.099 -0.186502,0.1535 -0.252538,0.2526 -0.02335,0.035 0.02335,0.091 0,0.1263 -0.06604,0.099 -0.208325,0.142 -0.252538,0.2525 -0.0469,0.1172 0.05647,0.2659 0,0.3788 -0.04209,0.084 -0.185988,0.06 -0.252538,0.1263 -0.03038,0.03 0.03038,0.4747 0,0.505 -0.06655,0.067 -0.200332,0.048 -0.252538,0.1263 -0.04669,0.07 0,0.1684 0,0.2526 0,0.042 0.02976,0.096 0,0.1262 -0.06655,0.067 -0.200333,0.048 -0.252538,0.1263 -0.07549,0.1132 0.04487,0.3705 0,0.5051 -0.02976,0.089 -0.09651,0.1632 -0.126269,0.2525 -0.02662,0.08 0.05952,0.193 0,0.2525 -0.107309,0.1073 -0.2715,0.1453 -0.378808,0.2526 -0.02976,0.03 0.02335,0.091 0,0.1262 -0.06604,0.099 -0.186502,0.1535 -0.252538,0.2526 -0.02335,0.035 0.02976,0.096 0,0.1263 -0.06655,0.067 -0.210448,0.042 -0.252538,0.1262 -0.05647,0.113 0.0469,0.2616 0,0.3788 -0.04421,0.1106 -0.199298,0.1461 -0.252538,0.2526 -0.03765,0.075 0.04669,0.1825 0,0.2525 -0.05221,0.078 -0.200332,0.048 -0.252538,0.1263 -0.0494,0.074 0.04939,0.6588 0,0.7576 -0.05324,0.1065 -0.186503,0.1535 -0.252538,0.2525 -0.04157,0.062 0.04039,0.5708 0,0.6314 -0.05221,0.078 -0.185989,0.06 -0.252538,0.1262 -0.02976,0.03 0,0.084 0,0.1263 0,0.1684 0,0.3367 0,0.5051 0,0.042 0.02976,0.096 0,0.1263 -0.06655,0.067 -0.185989,0.06 -0.252539,0.1262 -0.02976,0.03 0,0.084 0,0.1263 0,0.042 0,0.084 0,0.1263 0,0.2525 0,0.505 0,0.7576 0,0.042 0.02976,0.096 0,0.1262 -0.06655,0.067 -0.185988,0.06 -0.252538,0.1263 -0.02976,0.03 0,0.084 0,0.1263 0,0.2525 0,0.5051 0,0.7576 0,0.042 0.02976,0.096 0,0.1263 -0.290184,0.2902 -0.252538,0.1555 -0.252538,0"
       id="path4336"
       inkscape:connector-curvature="0" />
    <path
       style="fill:none;fill-rule:evenodd;stroke:#000000;stroke-width:1px;stroke-linecap:butt;stroke-linejoin:miter;stroke-opacity:1"
       d="m 22.602163,1015.9967 c 0.258101,0.3592 0.674364,0.4075 1.010153,0.6313 0.175103,0.1167 0.329972,0.2621 0.505076,0.3788 0.179062,0.1194 0.830349,0.3521 0.883884,0.3788 0.05324,0.027 0.07523,0.096 0.126269,0.1263 0.645778,0.3875 0.335849,0.154 1.010152,0.3788 0.08929,0.03 0.161233,0.1034 0.252538,0.1263 0.248378,0.062 0.50357,0.094 0.757615,0.1262 0.167058,0.021 0.341744,-0.041 0.505076,0 0.0913,0.023 0.158998,0.1159 0.252538,0.1263 0.292826,0.033 0.591531,-0.037 0.883884,0 0.05906,0.01 0.0679,0.1146 0.126269,0.1263 0.165089,0.033 0.339008,-0.028 0.505076,0 0.09284,0.015 0.159703,0.1108 0.252538,0.1262 0.249102,0.042 0.508512,-0.042 0.757614,0 1.065703,0.1777 -0.126759,0.1136 1.262691,0.2526 0.167523,0.017 0.33841,-0.024 0.505076,0 0.131762,0.019 0.252539,0.084 0.378808,0.1263 0.210448,0.042 0.418041,0.1025 0.631345,0.1262 0.167329,0.019 0.338018,-0.021 0.505076,0 0.344401,0.043 0.665753,0.2095 1.010153,0.2526 0.250588,0.031 0.508512,-0.042 0.757614,0 0.171179,0.029 0.332876,0.1047 0.505076,0.1262 0.167059,0.021 0.339009,-0.028 0.505077,0 0.09284,0.015 0.168359,0.084 0.252538,0.1263 0.252538,0.042 0.502863,0.1008 0.757614,0.1263 0.167524,0.017 0.336718,0 0.505077,0 0.08418,0 0.170872,-0.02 0.252538,0 0.0913,0.023 0.159149,0.1146 0.252538,0.1262 0.250588,0.031 0.505076,0 0.757614,0 0.08418,0 0.170872,-0.02 0.252538,0 0.09131,0.023 0.159704,0.1108 0.252539,0.1263 0.166068,0.028 0.336717,0 0.505076,0 0.08418,0 0.170872,-0.02 0.252538,0 0.09131,0.023 0.161233,0.1035 0.252538,0.1263 0.08167,0.02 0.170872,-0.02 0.252538,0 0.09131,0.023 0.161233,0.1034 0.252538,0.1262 0.505077,0.1263 0,-0.2525 0.757615,0 0.112938,0.038 0.137045,0.2237 0.252538,0.2526 0.244998,0.061 0.505076,0 0.757614,0 0.08418,0 0.170872,-0.02 0.252538,0 0.09131,0.023 0.160251,0.1078 0.252539,0.1263 0.123817,0.025 0.254256,-0.021 0.378807,0 0.131288,0.022 0.248292,0.1001 0.378807,0.1262 0.08255,0.017 0.170872,-0.02 0.252538,0 0.0913,0.023 0.15915,0.1146 0.252538,0.1263 0.250588,0.031 0.507027,-0.031 0.757615,0 0.09339,0.012 0.161232,0.1034 0.252538,0.1263 0.08167,0.02 0.169504,-0.014 0.252538,0 0.171179,0.029 0.332876,0.1047 0.505076,0.1262 0.167059,0.021 0.339008,-0.028 0.505077,0 0.09283,0.015 0.159703,0.1108 0.252538,0.1263 0.249102,0.041 0.505076,0 0.757614,0 0.08418,0 0.169504,-0.014 0.252538,0 0.171179,0.028 0.333897,0.098 0.505076,0.1263 0.08303,0.014 0.168359,0 0.252539,0 0.168358,0 0.336717,0 0.505076,0 0.08418,0 0.169504,0.014 0.252538,0 0.171179,-0.029 0.333897,-0.098 0.505076,-0.1263 0.08303,-0.014 0.168359,0 0.252538,0 0.420897,0 0.841794,0 1.262691,0 0.168359,0 0.336718,0 0.505076,0 0.08418,0 0.169504,0.014 0.252539,0 0.171179,-0.029 0.332876,-0.1047 0.505076,-0.1263 0.334117,-0.042 0.676035,0.042 1.010152,0 0.1722,-0.022 0.332598,-0.1071 0.505077,-0.1262 0.334658,-0.037 0.676819,0.048 1.010152,0 0.171796,-0.025 0.332876,-0.1048 0.505076,-0.1263 0.167059,-0.021 0.336718,0 0.505077,0 0.336717,0 0.673435,0 1.010152,0 0.168359,0 0.338018,0.021 0.505077,0 0.1722,-0.021 0.332876,-0.1048 0.505076,-0.1263 0.167058,-0.021 0.336717,0 0.505076,0 0.168359,0 0.336718,0 0.505076,0 0.589256,0 1.178512,0 1.767767,0 0.336718,0 0.673435,0 1.010153,0 0.168359,0 0.339008,-0.028 0.505076,0 0.983492,0.1639 -0.428018,0.1263 0.505076,0.1263 0.08418,0 0.168359,0 0.252539,0 0.08418,0 0.252538,-0.084 0.252538,0 0,0.084 -0.168359,0 -0.252538,0"
       id="path4338"
       inkscape:connector-curvature="0" />
    <path
       style="fill:none;fill-rule:evenodd;stroke:#000000;stroke-width:1px;stroke-linecap:butt;stroke-linejoin:miter;stroke-opacity:1"
       d="m 47.098363,981.77775 c 0.702624,-0.55206 1.402215,-1.29325 2.272843,-1.6415 0.247159,-0.0989 0.505076,-0.16836 0.757614,-0.25253"
       id="path4340"
       inkscape:connector-curvature="0" />
    <path
       style="fill:none;fill-rule:evenodd;stroke:#000000;stroke-width:1px;stroke-linecap:butt;stroke-linejoin:miter;stroke-opacity:1"
       d="m 35.481608,1002.3596 c -0.620363,-0.09 -0.104878,-0.5361 -0.252538,-0.7576 -0.05221,-0.078 -0.177246,-0.07 -0.252538,-0.1263 -0.09524,-0.071 -0.17817,-0.1596 -0.252538,-0.2525 -0.0948,-0.1185 -0.14523,-0.2715 -0.252538,-0.3788 -0.327831,-0.3278 -0.610066,-0.4313 -1.010153,-0.6314 -0.168359,-0.084 -0.341646,-0.1591 -0.505076,-0.2525 -0.131762,-0.0753 -0.243072,-0.18467 -0.378807,-0.25254 -0.119048,-0.0595 -0.25647,-0.0738 -0.378808,-0.12627 -0.173011,-0.0742 -0.336717,-0.16836 -0.505076,-0.25254 -0.252538,-0.12627 -0.531737,-0.2094 -0.757614,-0.37881 -0.03367,-0.0253 0,-0.0842 0,-0.12627"
       id="path4342"
       inkscape:connector-curvature="0" />
    <path
       style="fill:none;fill-rule:evenodd;stroke:#000000;stroke-width:1px;stroke-linecap:butt;stroke-linejoin:miter;stroke-opacity:1"
       d="m 37.501913,1002.3596 c 0,0.3367 0,0.6734 0,1.0102 0,0.042 -0.02976,0.096 0,0.1262 0.06655,0.067 0.185989,0.06 0.252538,0.1263 0.02976,0.03 0,0.084 0,0.1263 0,0.059 -0.0057,0.6256 0,0.6313 0.06655,0.067 0.200333,0.048 0.252539,0.1263 0.04669,0.07 0,0.1683 0,0.2525 0,0.2105 0,0.4209 0,0.6314 0,0.042 0.02976,0.096 0,0.1262 -0.06655,0.067 -0.185989,0.06 -0.252539,0.1263 -0.05952,0.059 0.05952,0.193 0,0.2525 -0.06655,0.067 -0.185988,0.06 -0.252538,0.1263 -0.02976,0.03 0.02976,0.096 0,0.1263 -0.133099,0.1331 -0.354491,0.1396 -0.505076,0.2525 -0.09524,0.071 -0.168359,0.1684 -0.252538,0.2526 -0.126269,0.1262 -0.271664,0.2359 -0.378807,0.3788 -0.02525,0.034 0.03502,0.1029 0,0.1262 -0.457581,0.3051 -0.246395,0.03 -0.631346,0.1263 -0.09131,0.023 -0.168358,0.084 -0.252538,0.1263 -0.08418,0.042 -0.185988,0.06 -0.252538,0.1262 -0.02976,0.03 0.03765,0.1075 0,0.1263 -0.07529,0.038 -0.177246,-0.038 -0.252538,0 -0.03765,0.019 0,0.084 0,0.1263 -0.08418,0 -0.168359,0 -0.252538,0"
       id="path4346"
       inkscape:connector-curvature="0" />
    <path
       style="fill:none;fill-rule:evenodd;stroke:#000000;stroke-width:1px;stroke-linecap:butt;stroke-linejoin:miter;stroke-opacity:1"
       d="m 48.613591,1016.3755 c -0.632841,-0.3164 -0.482535,-0.2711 -1.26269,-0.5051 -0.166222,-0.05 -0.332398,-0.109 -0.505077,-0.1263 -0.251284,-0.025 -0.507026,0.031 -0.757614,0 -0.09339,-0.012 -0.15915,-0.1146 -0.252538,-0.1262 -0.250588,-0.031 -0.507027,0.031 -0.757615,0 -0.09339,-0.012 -0.159703,-0.1108 -0.252538,-0.1263 -0.166068,-0.028 -0.338409,0.024 -0.505076,0 -0.131762,-0.019 -0.248293,-0.1002 -0.378807,-0.1263 -0.29184,-0.058 -0.591065,-0.073 -0.883884,-0.1262 -0.170741,-0.031 -0.334906,-0.092 -0.505076,-0.1263 -0.25105,-0.05 -0.509237,-0.064 -0.757614,-0.1263 -0.437187,0.1321 -0.664375,-0.28 -1.010153,-0.3788 -0.206358,-0.059 -0.432079,-0.047 -0.631345,-0.1263 -0.03908,-0.016 0.03993,-0.1129 0,-0.1262 -0.11979,-0.04 -0.25499,0.025 -0.378807,0 -0.09229,-0.019 -0.158423,-0.1263 -0.252539,-0.1263 -0.04209,0 0,0.084 0,0.1263 0,0.084 0,0.1683 0,0.2525 0,0.9331 -0.07529,-0.4408 0.252539,0.3788 0.06253,0.1563 0,0.3367 0,0.5051 0,0.084 0.03765,0.1772 0,0.2525 -0.05324,0.1065 -0.168359,0.1684 -0.252539,0.2526 0,0.3367 0.06023,0.6788 0,1.0101 -0.02715,0.1493 -0.168358,0.2526 -0.252538,0.3788 -0.08418,0.3367 -0.203453,0.6666 -0.252538,1.0102 -0.03571,0.25 0.05478,0.5111 0,0.7576 -0.03292,0.1481 -0.204548,0.2348 -0.252538,0.3788 -0.122711,0.3681 -0.16366,0.7587 -0.252538,1.1364 -0.07949,0.3379 -0.168359,0.6735 -0.252538,1.0102"
       id="path4350"
       inkscape:connector-curvature="0" />
    <path
       style="fill:none;fill-rule:evenodd;stroke:#000000;stroke-width:1px;stroke-linecap:butt;stroke-linejoin:miter;stroke-opacity:1"
       d="m 69.574257,974.95922 c -0.168359,0.0421 -0.333898,0.0977 -0.505077,0.12627 -0.70985,0.11831 0.41414,-0.26432 -0.757614,0.12627 -0.585742,0.0222 -1.002901,0.43922 -1.515229,0.63135 -0.498499,0.18693 -1.010152,0.33671 -1.515229,0.50507 -0.757614,0.25254 -1.515228,0.50508 -2.272843,0.75762 -0.505076,0.16835 -1.01673,0.31813 -1.515229,0.50507 -0.176246,0.0661 -0.324088,0.20083 -0.505076,0.25254 -0.412717,0.11792 -0.841794,0.16836 -1.262691,0.25254"
       id="path4352"
       inkscape:connector-curvature="0" />
    <path
       style="fill:none;fill-rule:evenodd;stroke:#000000;stroke-width:1px;stroke-linecap:butt;stroke-linejoin:miter;stroke-opacity:1"
       d="m 64.018418,976.22191 c -0.492342,0.14067 -1.022887,0.11187 -1.515229,0.25254 -1.234628,0.35275 -0.663259,0.26622 -1.515229,0.63135 -0.416667,0.17857 -0.846024,0.3265 -1.262691,0.50507 -0.173011,0.0742 -0.336717,0.16836 -0.505076,0.25254 -0.757614,0.37881 -1.507342,0.77382 -2.272843,1.13642 -0.544622,0.25798 -1.094905,0.50384 -1.641498,0.75762 -0.631921,0.29339 -1.255106,0.60608 -1.894036,0.88388 -0.329792,0.14339 -0.673435,0.25254 -1.010153,0.37881 -0.505076,0.25254 -1.000273,0.52588 -1.515228,0.75761 -0.327941,0.14757 -0.674991,0.24847 -1.010153,0.37881 -0.422496,0.1643 -0.846024,0.3265 -1.262691,0.50507 -0.327364,0.1403 -0.982092,0.52613 -1.26269,0.63135 -0.07882,0.0296 -0.168359,0 -0.252538,0 -0.08418,0.0421 -0.168359,0.0842 -0.252539,0.12627"
       id="path4354"
       inkscape:connector-curvature="0" />
    <path
       style="fill:none;fill-rule:evenodd;stroke:#000000;stroke-width:1px;stroke-linecap:butt;stroke-linejoin:miter;stroke-opacity:1"
       d="m 50.381358,982.4091 c -0.306682,0.15334 -0.564795,0.21584 -0.757614,0.50507 -0.02335,0.035 0.02976,0.0965 0,0.12627 -0.06655,0.0666 -0.177246,0.0698 -0.252538,0.12627 -0.09524,0.0714 -0.1573,0.18111 -0.252538,0.25254 -0.07529,0.0565 -0.168359,0.0842 -0.252539,0.12627 -0.331124,0.16556 -0.694954,0.31596 -1.010152,0.50507 -0.476723,0.28604 0.54316,-0.0405 -0.505076,0.37881 -0.533386,0.21336 0.03153,-0.27618 -0.505077,0.12627 -0.09524,0.0714 -0.1573,0.18111 -0.252538,0.25254 -0.07529,0.0565 -0.177246,0.0698 -0.252538,0.12627 -0.09524,0.0714 -0.1573,0.18111 -0.252538,0.25254 -0.07529,0.0565 -0.177246,0.0698 -0.252538,0.12627 -0.190476,0.14285 -0.3146,0.36221 -0.505076,0.50507 -0.07529,0.0565 -0.168359,0.0842 -0.252539,0.12627 -0.252538,0.12627 -0.505076,0.25254 -0.757614,0.37881 -0.08418,0.0421 -0.185988,0.0597 -0.252538,0.12627 -0.06655,0.0666 -0.05972,0.18599 -0.126269,0.25253 -0.231705,0.23171 -0.619791,0.34002 -0.883884,0.50508 -0.17846,0.11154 -0.343405,0.24408 -0.505076,0.37881 -0.273238,0.2277 -0.484376,0.52991 -0.757614,0.75761 -0.161671,0.13473 -0.329973,0.26207 -0.505077,0.37881 -0.07831,0.0522 -0.193744,0.0528 -0.252538,0.12627 -0.117587,0.14698 -0.134951,0.35809 -0.252538,0.50508 -0.05879,0.0735 -0.185988,0.0597 -0.252538,0.12626 -0.14881,0.14881 -0.229998,0.35627 -0.378807,0.50508 -0.107308,0.10731 -0.263585,0.15378 -0.378807,0.25254 -0.180776,0.15495 -0.336718,0.33672 -0.505077,0.50508 -0.252538,0.25253 -0.505076,0.50507 -0.757614,0.75761 -0.08418,0.0842 -0.186503,0.15348 -0.252538,0.25254 -0.104412,0.15661 -0.148127,0.34846 -0.252538,0.50507 -0.06604,0.0991 -0.168359,0.16836 -0.252539,0.25254 -0.252538,0.25254 -0.505076,0.50508 -0.757614,0.75762 -0.168359,0.16835 -0.352651,0.32216 -0.505076,0.50507 -0.06025,0.0723 -0.07406,0.17423 -0.126269,0.25254 -0.06309,0.37435 -0.448999,0.48409 -0.631346,0.75761 -0.104411,0.15662 -0.148126,0.34846 -0.252538,0.50508 -0.06604,0.0991 -0.178169,0.15958 -0.252538,0.25254 -0.0948,0.1185 -0.157737,0.2603 -0.252538,0.37881 -0.07437,0.093 -0.161083,0.17632 -0.252538,0.25254 -0.161671,0.13472 -0.37361,0.21447 -0.505076,0.3788 -0.05259,0.0657 0,0.16836 0,0.25254 -0.08418,0.0842 -0.161084,0.17633 -0.252539,0.25254 -0.161671,0.13472 -0.37361,0.21447 -0.505076,0.3788 -0.05259,0.0657 0.03765,0.17725 0,0.25254 -0.227063,0.45413 -0.218811,0.0925 -0.505076,0.37881 -0.852834,-0.0204 -0.2094,0.53174 -0.378807,0.75761 -0.09105,0.12141 -0.252538,0.16836 -0.378808,0.25254 -0.168358,0.16836 -0.373004,0.30697 -0.505076,0.50508 -0.04669,0.07 0.03765,0.17725 0,0.25254 -0.05324,0.10648 -0.168359,0.16837 -0.252538,0.25257 -0.168359,0.1683 -0.373005,0.3069 -0.505076,0.505 -0.04669,0.07 0.03765,0.1773 0,0.2526 -0.05324,0.1065 -0.168359,0.1683 -0.252538,0.2525 -0.168359,0.1684 -0.35634,0.3192 -0.505077,0.5051 -0.02629,0.033 0.02335,0.091 0,0.1263 -0.06603,0.099 -0.178169,0.1595 -0.252538,0.2525 -0.0948,0.1185 -0.157736,0.2603 -0.252538,0.3788 -0.07437,0.093 -0.17817,0.1596 -0.252538,0.2525 -1.065264,1.3316 0.365413,-0.4782 -0.252538,0.7577 -0.04209,0.084 -0.204116,0.045 -0.252538,0.1262 -0.08929,0.1488 -0.03001,0.3607 -0.126269,0.5051 -0.08418,0.1263 -0.281655,0.136 -0.378808,0.2525 -0.120502,0.1446 -0.159149,0.3417 -0.252538,0.5051 -0.221684,0.388 -0.352447,0.426 -0.505076,0.8839 -0.02662,0.08 0.03765,0.1773 0,0.2525 -0.05324,0.1065 -0.168359,0.1684 -0.252538,0.2526 -0.19324,0.1932 -0.398885,0.3658 -0.505076,0.6313 -0.03126,0.078 0.03765,0.1773 0,0.2526 -0.05324,0.1064 -0.214892,0.1396 -0.252539,0.2525 -0.05324,0.1597 0.05324,0.3454 0,0.5051 -0.03765,0.1129 -0.199298,0.146 -0.252538,0.2525 -0.03765,0.075 0.03765,0.1773 0,0.2526 -0.05324,0.1064 -0.199298,0.146 -0.252538,0.2525 -0.03765,0.075 0.03765,0.1772 0,0.2525 -0.577884,1.1558 0.10467,-1.0716 -0.505076,0.7576 -0.05324,0.1598 0.07529,0.3545 0,0.5051 -0.05324,0.1065 -0.186503,0.1535 -0.252538,0.2526 -0.04116,0.062 0.03674,0.4683 0,0.505 -0.06655,0.067 -0.185989,0.06 -0.252538,0.1263 -0.02976,0.03 0,0.084 0,0.1263 0,0.084 0,0.1683 0,0.2525 0,0.26 0.03801,0.6558 0,0.8839 -0.01547,0.093 -0.107812,0.1602 -0.126269,0.2525 -0.02476,0.1239 0.07576,0.2778 0,0.3788 -0.07986,0.1065 -0.298948,0.02 -0.378808,0.1263 -0.07576,0.101 0.05647,0.2659 0,0.3788 -0.04209,0.084 -0.185988,0.06 -0.252538,0.1263 -0.02976,0.03 0,0.084 0,0.1263 0,0.042 0,0.084 0,0.1262"
       id="path4356"
       inkscape:connector-curvature="0" />
    <path
       style="fill:none;fill-rule:evenodd;stroke:#000000;stroke-width:1px;stroke-linecap:butt;stroke-linejoin:miter;stroke-opacity:1"
       d="m 24.117392,1014.8602 c 0.161827,0.041 0.702736,0.162 0.883884,0.2526 0.577883,0.2889 -0.535813,-0.052 0.378807,0.2525 0.164634,0.055 0.340441,0.071 0.505076,0.1263 0.653798,0.2179 -0.292444,0.078 0.757614,0.2525 0.166068,0.028 0.341745,-0.041 0.505077,0 0.715401,0.3577 -0.188231,-0.047 0.505076,0.1263 0.0913,0.023 0.161233,0.1034 0.252538,0.1263 0.08167,0.02 0.170872,-0.021 0.252538,0 0.09131,0.023 0.160251,0.1078 0.252538,0.1262 0.123817,0.025 0.252539,0 0.378808,0 0.04209,0 0.09651,-0.03 0.126269,0 0.02976,0.03 -0.03765,0.1075 0,0.1263 0.07529,0.038 0.170872,-0.02 0.252538,0 0.182611,0.046 0.322465,0.2069 0.505076,0.2525 0.08167,0.02 0.177246,-0.038 0.252538,0 0.03765,0.019 -0.03765,0.1075 0,0.1263 0.150585,0.075 0.341744,-0.041 0.505076,0 0.09131,0.023 0.161233,0.1035 0.252539,0.1263 0.163332,0.041 0.354491,-0.075 0.505076,0 0.03765,0.019 -0.03765,0.1074 0,0.1263 0.07529,0.038 0.168359,0 0.252538,0 0.252538,0 0.505076,0 0.757614,0 0.12627,0 0.252539,0 0.378808,0 0.04209,0 0.09651,-0.03 0.126269,0 0.02976,0.03 -0.03765,0.1074 0,0.1262 0.07844,0.039 0.631908,-0.031 0.757614,0 0.0913,0.023 0.161233,0.1035 0.252538,0.1263 0.163332,0.041 0.354492,-0.075 0.505077,0 0.03765,0.019 -0.03765,0.1074 0,0.1263 0.07844,0.039 0.631908,-0.032 0.757614,0 0.0913,0.023 0.161233,0.1034 0.252538,0.1262 0.163332,0.041 0.354492,-0.075 0.505076,0 0.03765,0.019 -0.03765,0.1075 0,0.1263 0.07529,0.038 0.169994,-0.016 0.252538,0 0.34178,-0.2146 0.326505,0.193 0.505077,0.2525 0.07986,0.027 0.177246,-0.038 0.252538,0 0.03765,0.019 -0.03765,0.1075 0,0.1263 0.150585,0.075 0.354492,-0.075 0.505076,0 0.03765,0.019 -0.03765,0.1074 0,0.1263 0.01321,0.01 0.744403,0.01 0.757615,0 0.03765,-0.019 -0.03765,-0.1075 0,-0.1263 0.07844,-0.039 0.631908,0.031 0.757614,0 0.0913,-0.023 0.161233,-0.1034 0.252538,-0.1263 0.08167,-0.02 0.168359,0 0.252538,0 0.08418,0 0.168359,0 0.252538,0 0.420897,0 0.841794,0 1.262691,0 0.673435,0 1.34687,0 2.020305,0 0.252538,0 0.505076,0 0.757615,0 0.126269,0 0.256308,-0.031 0.378807,0 0.05775,0.014 0.0679,0.1146 0.126269,0.1263 0.165089,0.033 0.341744,-0.041 0.505076,0 0.04083,0.01 -0.03765,0.1074 0,0.1263 0.07529,0.038 0.170872,-0.02 0.252538,0 0.09131,0.023 0.161233,0.1034 0.252538,0.1262 0.08167,0.02 0.177246,-0.038 0.252539,0 0.03765,0.019 -0.03765,0.1075 0,0.1263 0.113557,0.057 0.644056,-0.057 0.757614,0 0.03765,0.019 -0.03765,0.1075 0,0.1263 0.07529,0.038 0.168359,0 0.252538,0 0.336718,0 0.673435,0 1.010153,0 0.126269,0 0.259017,-0.04 0.378807,0 0.03993,0.013 -0.02976,0.096 0,0.1262 0.02976,0.03 0.08418,0 0.126269,0 0.08418,0 0.168359,0 0.252538,0 0.252538,0 0.505076,0 0.757614,0 0.08418,0 0.177246,-0.038 0.252539,0 0.03765,0.019 -0.03765,0.1075 0,0.1263 0.07529,0.038 0.168358,0 0.252538,0 0.252538,0 0.505076,0 0.757614,0 0.589256,0 1.178511,0 1.767767,0 0.13131,0 0.658289,0.025 0.757615,0 0.09131,-0.023 0.159703,-0.1108 0.252538,-0.1263 0.249102,-0.042 0.505076,0 0.757614,0 0.08418,0 0.168359,0 0.252538,0 0.08418,0 0.170872,-0.02 0.252538,0 0.09131,0.023 0.161233,0.1035 0.252538,0.1263 0.08167,0.02 0.170873,-0.02 0.252539,0 0.0913,0.023 0.163252,0.097 0.252538,0.1263 0.164634,0.055 0.336717,0.084 0.505076,0.1263"
       id="path4358"
       inkscape:connector-curvature="0" />
    <path
       style="fill:none;fill-rule:evenodd;stroke:#000000;stroke-width:1px;stroke-linecap:butt;stroke-linejoin:miter;stroke-opacity:1"
       d="m 54.421968,1019.0271 c 0.168359,0 0.341745,0.041 0.505077,0 0.04083,-0.01 -0.03993,-0.1129 0,-0.1262 0.119789,-0.04 0.252538,0 0.378807,0 0.04209,0 0.08634,0.013 0.126269,0 0.463973,-0.1547 0.05758,-0.1942 0.757614,-0.2526 0.331393,-0.028 1.929405,0 2.272844,0 0.158735,0 1.06319,-0.025 1.26269,0 0.1722,0.022 0.336718,0.084 0.505077,0.1263 0.420897,0 0.842863,-0.03 1.26269,0 0.1731,0.012 0.331536,0.1263 0.505077,0.1263 0.339337,0 0.671986,-0.098 1.010152,-0.1263 1.817517,-0.1515 -1.897147,0.3973 1.767767,-0.1263 0.171796,-0.024 0.333897,-0.098 0.505076,-0.1262 1.086474,-0.1811 2.192595,-0.2231 3.282996,-0.3789 0.253449,-0.036 0.506565,-0.076 0.757615,-0.1262 0.17017,-0.034 0.332597,-0.1071 0.505076,-0.1263 0.209161,-0.023 0.420897,0 0.631345,0"
       id="path4360"
       inkscape:connector-curvature="0" />
    <path
       style="fill:none;fill-rule:evenodd;stroke:#000000;stroke-width:1px;stroke-linecap:butt;stroke-linejoin:miter;stroke-opacity:1"
       d="m 63.76588,1018.6483 c 0.168358,0 0.341744,0.041 0.505076,0 0.04083,-0.01 -0.03765,-0.1074 0,-0.1262 0.155219,-0.078 0.335388,-0.09 0.505076,-0.1263 0.419704,-0.09 0.84368,-0.1594 1.262691,-0.2526 0.338815,-0.075 0.669812,-0.1844 1.010152,-0.2525 4.290532,-0.8581 -0.942255,0.2412 2.77792,-0.3788 0.511901,-0.085 1.003327,-0.2935 1.515229,-0.3788 1.640388,-0.2734 0.402686,0.1015 2.020305,-0.5051"
       id="path4362"
       inkscape:connector-curvature="0" />
    <path
       style="fill:none;fill-rule:evenodd;stroke:#000000;stroke-width:1px;stroke-linecap:butt;stroke-linejoin:miter;stroke-opacity:1"
       d="m 64.018418,1020.4161 c 0.336717,0 0.673435,0 1.010152,0 0.08418,0 0.172679,0.027 0.252538,0 0.818485,-0.2728 0.176623,-0.2597 1.010153,-0.3788 0.418745,-0.06 0.846939,-0.048 1.262691,-0.1263 0.261639,-0.049 0.501658,-0.1794 0.757614,-0.2525 0.333726,-0.095 0.672298,-0.1731 1.010153,-0.2526 0.378807,-0.084 0.757614,-0.1683 1.136421,-0.2525 0.210449,-0.084 0.412672,-0.1929 0.631345,-0.2525 0.247001,-0.067 0.509237,-0.064 0.757615,-0.1263 1.663463,-0.5545 -0.142582,0 1.515229,-0.3788 0.29857,-0.069 0.590388,-0.1645 0.883883,-0.2526 0.127486,-0.038 0.248878,-0.097 0.378807,-0.1262 0.249925,-0.056 0.506565,-0.076 0.757615,-0.1263 0.17017,-0.034 0.332876,-0.1047 0.505076,-0.1263 0.167059,-0.021 0.339008,0.028 0.505076,0 0.09283,-0.015 0.161233,-0.1034 0.252538,-0.1262 0.248378,-0.062 0.509237,-0.064 0.757615,-0.1263 0.0913,-0.023 0.163252,-0.096 0.252538,-0.1263 0.164635,-0.055 0.336718,-0.084 0.505076,-0.1262 0.505077,-0.1263 1.010153,-0.2526 1.515229,-0.3788 0.336718,-0.084 0.680883,-0.1428 1.010153,-0.2526 0.178571,-0.06 0.332065,-0.1784 0.505076,-0.2525 0.208333,-0.089 0.428615,-0.1512 0.631345,-0.2526 0.135735,-0.068 0.239321,-0.1927 0.378808,-0.2525 0.319017,-0.1367 0.680883,-0.1428 1.010152,-0.2525 0.178571,-0.06 0.322466,-0.2069 0.505076,-0.2526 0.08167,-0.02 0.168359,0 0.252538,0"
       id="path4364"
       inkscape:connector-curvature="0" />
    <path
       style="fill:none;fill-rule:evenodd;stroke:#000000;stroke-width:1px;stroke-linecap:butt;stroke-linejoin:miter;stroke-opacity:1"
       d="m 85.231621,1009.3044 c -0.168359,0 -0.336717,0 -0.505076,0 0,-0.042 0.03765,-0.1074 0,-0.1263 -0.01321,-0.01 -0.744403,-0.01 -0.757615,0 -0.03765,0.019 0.03765,0.1075 0,0.1263 -0.150584,0.075 -0.354491,-0.075 -0.505076,0 -0.03765,0.019 0.03765,0.1075 0,0.1263 -0.150584,0.075 -0.354491,-0.075 -0.505076,0 -0.03765,0.019 0.03765,0.1074 0,0.1262 -0.07529,0.038 -0.170872,-0.02 -0.252538,0 -0.0819,0.02 -0.677147,0.3252 -0.757615,0.3789 -0.04953,0.033 -0.06852,0.1118 -0.126269,0.1262 -0.122499,0.031 -0.259018,-0.04 -0.378807,0 0,0.1988 0.03765,0.1558 -0.252538,0.2526 -0.164635,0.055 -0.340442,0.071 -0.505076,0.1262 -0.08929,0.03 -0.161233,0.1035 -0.252538,0.1263 -0.08167,0.02 -0.177246,-0.038 -0.252539,0 -0.03765,0.019 0.03765,0.1074 0,0.1263 -0.07529,0.038 -0.170872,-0.02 -0.252538,0 -0.18261,0.046 -0.326505,0.193 -0.505076,0.2525 -0.164635,0.055 -0.342585,0.065 -0.505076,0.1263 -0.176246,0.066 -0.336718,0.1683 -0.505077,0.2525 -0.252538,0.1263 -0.505076,0.2526 -0.757614,0.3788 -0.08418,0.042 -0.163252,0.096 -0.252538,0.1263 -0.164635,0.055 -0.340442,0.071 -0.505076,0.1263 -0.08929,0.03 -0.163253,0.096 -0.252539,0.1262 -0.164634,0.055 -0.342585,0.065 -0.505076,0.1263 -0.176246,0.066 -0.32883,0.1864 -0.505076,0.2525 -0.937403,0.3516 -0.16144,0.027 -0.757614,0.1263 -0.171179,0.029 -0.336718,0.084 -0.505077,0.1263 -0.168358,0.042 -0.336717,0.084 -0.505076,0.1262 -0.08418,0.042 -0.163252,0.097 -0.252538,0.1263 -0.32927,0.1098 -0.673435,0.1684 -1.010153,0.2525 -0.168358,0.042 -0.336717,0.084 -0.505076,0.1263 -0.168359,0.042 -0.349857,0.049 -0.505076,0.1263 -0.10648,0.053 -0.168359,0.1683 -0.252538,0.2525 -0.168359,0.084 -0.332065,0.1784 -0.505077,0.2526 -0.122337,0.052 -0.259759,0.067 -0.378807,0.1262 -0.732685,0.3664 0.0016,0.1731 -0.883883,0.5051 -0.162491,0.061 -0.349857,0.049 -0.505077,0.1263 -0.106479,0.053 -0.1573,0.1811 -0.252538,0.2525 -0.24373,0.1828 -0.463683,0.1423 -0.757614,0.2526 -0.176246,0.066 -0.336718,0.1683 -0.505076,0.2525 -0.08418,0.042 -0.17423,0.074 -0.252539,0.1263 -0.175103,0.1167 -0.326616,0.2672 -0.505076,0.3788 -0.159619,0.1 -0.336717,0.1683 -0.505076,0.2525 -0.168359,0.1263 -0.329973,0.2621 -0.505076,0.3788 -0.07831,0.052 -0.168359,0.084 -0.252539,0.1263 -0.252538,0.1263 -0.515504,0.2335 -0.757614,0.3788 -0.180458,0.1083 -0.343405,0.2441 -0.505076,0.3788 -0.09145,0.076 -0.146059,0.1993 -0.252538,0.2525 -0.321649,0.1609 -0.679615,0.2372 -1.010153,0.3788 -0.259517,0.1113 -0.491717,0.2839 -0.757614,0.3789 -0.326861,0.1167 -0.680883,0.1427 -1.010153,0.2525 -0.178571,0.06 -0.330308,0.1826 -0.505076,0.2525 -0.494318,0.1978 -1.025879,0.2954 -1.515229,0.5051 -0.05471,0.024 -0.07053,0.1054 -0.126269,0.1263 -0.286908,0.1076 -0.59319,0.1556 -0.883883,0.2525 -0.08929,0.03 -0.168359,0.084 -0.252539,0.1263 -0.252538,0.1262 -0.505076,0.2525 -0.757614,0.3788"
       id="path4368"
       inkscape:connector-curvature="0" />
    <path
       style="fill:none;fill-rule:evenodd;stroke:#000000;stroke-width:1px;stroke-linecap:butt;stroke-linejoin:miter;stroke-opacity:1"
       d="m 80.180858,1015.7441 c 0.374347,-0.063 0.484094,-0.449 0.757615,-0.6313 0.156617,-0.1044 0.354491,-0.1396 0.505076,-0.2526 0.190476,-0.1428 0.3146,-0.3622 0.505076,-0.505 0.150585,-0.113 0.342487,-0.1577 0.505077,-0.2526 0.342983,-0.2 0.661563,-0.4412 1.010152,-0.6313 0.578365,-0.3155 1.178511,-0.5893 1.767767,-0.8839 0.841794,-0.4209 1.683588,-0.8418 2.525382,-1.2627"
       id="path4370"
       inkscape:connector-curvature="0" />
    <path
       style="fill:none;fill-rule:evenodd;stroke:#000000;stroke-width:1px;stroke-linecap:butt;stroke-linejoin:miter;stroke-opacity:1"
       d="m 37.501913,1003.3698 c -0.08418,-0.1684 -0.420897,-0.4209 -0.252538,-0.5051 0.168359,-0.084 0.293371,0.3213 0.252538,0.5051 -0.05846,0.263 -0.355581,0.4071 -0.505076,0.6313 -0.02335,0.035 0,0.084 0,0.1263 0,0.084 0,0.1683 0,0.2525 0,0.3367 0,0.6734 0,1.0102 0,0.084 0.04669,0.1825 0,0.2525 -0.05221,0.078 -0.200332,0.048 -0.252538,0.1263 -0.09713,0.1457 0.09713,0.4856 0,0.6313 -0.05221,0.078 -0.185989,0.06 -0.252538,0.1263 -0.05952,0.059 0.03765,0.1772 0,0.2525 -0.02662,0.053 -0.09965,0.073 -0.126269,0.1263 -0.01882,0.038 0.03502,0.1029 0,0.1263 -0.110746,0.074 -0.268062,0.052 -0.378808,0.1262 -0.03502,0.023 0.03765,0.1075 0,0.1263 -0.400086,0.2 -0.117505,-0.2613 -0.505076,0.1263 -0.02976,0.03 0.03765,0.1074 0,0.1262 -0.03642,0.018 -0.676913,0 -0.757614,0 -0.336718,0 -0.673435,0 -1.010153,0 -0.168359,0 -0.339008,0.028 -0.505076,0 -0.09284,-0.015 -0.16025,-0.1078 -0.252538,-0.1262 -0.123817,-0.025 -0.252538,0 -0.378807,0 -0.210449,0 -0.420897,0 -0.631346,0 -0.168358,0 -0.339008,0.028 -0.505076,0 -0.09284,-0.015 -0.159703,-0.1108 -0.252538,-0.1263 -0.166068,-0.028 -0.336718,0 -0.505076,0 -0.168359,0 -0.336718,0 -0.505077,0 -0.420897,0 -0.841793,0 -1.26269,0 -0.168359,0 -0.339987,0.033 -0.505077,0 -0.09229,-0.019 -0.161232,-0.1034 -0.252538,-0.1263 -0.08167,-0.02 -0.168359,0 -0.252538,0 -0.08418,0 -0.168359,0 -0.252538,0"
       id="path4372"
       inkscape:connector-curvature="0" />
  </g>
  <g
     inkscape:groupmode="layer"
     id="layer2"
     inkscape:label="Ebene 2"
     style="display:none;opacity:0.47671234">
    <path
       style="fill:none;fill-rule:evenodd;stroke:#000000;stroke-width:1px;stroke-linecap:butt;stroke-linejoin:miter;stroke-opacity:1"
       d="m 76.897863,72.725881 c -0.336718,0.126269 -0.670322,0.261174 -1.010153,0.378807 -0.754662,0.26123 -1.523061,0.482695 -2.272843,0.757615 -1.027442,0.376729 -2.010535,0.866054 -3.030458,1.262691 -1.024411,0.398382 -1.225897,0.2898 -2.525381,0.757614 -0.478509,0.172263 -0.923028,0.4275 -1.38896,0.631345 -0.720425,0.315186 -1.368175,0.498148 -2.146574,0.757615"
       id="path4275"
       inkscape:connector-curvature="0" />
    <path
       style="fill:none;fill-rule:evenodd;stroke:#000000;stroke-width:1px;stroke-linecap:butt;stroke-linejoin:miter;stroke-opacity:1"
       d="m 65.786185,76.261415 c -0.295294,0.01069 -0.483699,0.310328 -0.757615,0.378807 -0.08167,0.02042 -0.170872,-0.02042 -0.252538,0 -0.182611,0.04565 -0.322465,0.206886 -0.505076,0.252538 -0.248378,0.06209 -0.509237,0.06418 -0.757615,0.12627 -0.0913,0.02283 -0.162392,0.09923 -0.252538,0.126269 -0.332443,0.09973 -0.680883,0.142781 -1.010152,0.252538 -0.178572,0.05952 -0.327812,0.189229 -0.505077,0.252538 -0.413829,0.147796 -0.840168,0.258087 -1.26269,0.378807 -0.166863,0.04767 -0.341646,0.0679 -0.505077,0.126269 -0.42691,0.152468 -0.838234,0.345905 -1.26269,0.505076 -0.24925,0.09347 -0.508365,0.15907 -0.757615,0.252539 -0.424456,0.159171 -0.832633,0.361724 -1.26269,0.505076 -0.581387,0.193795 -1.180778,0.328979 -1.767767,0.505076 -0.947018,0.284106 -1.136422,0.441942 -2.272843,0.757615 -0.246682,0.06852 -0.509237,0.06417 -0.757615,0.126269 -0.594537,0.148634 -1.16327,0.404326 -1.767767,0.505076 -0.882908,0.147151 -0.81683,0.126269 -1.515229,0.126269"
       id="path4277"
       inkscape:connector-curvature="0" />
    <path
       style="fill:none;fill-rule:evenodd;stroke:#000000;stroke-width:1px;stroke-linecap:butt;stroke-linejoin:miter;stroke-opacity:1"
       d="m 55.937197,81.817254 c -0.757614,0.252538 -1.512557,0.513237 -2.272843,0.757615 -0.418349,0.134469 -0.836382,0.27223 -1.262691,0.378807 -0.605496,0.151374 -1.381033,0.272262 -2.020305,0.378807 -2.627993,0.437999 -0.457873,0.104585 -2.65165,0.378807 -0.295321,0.03691 -0.588303,0.09149 -0.883884,0.126269 -0.420099,0.04942 -0.840518,0.09988 -1.26269,0.126269 -0.252047,0.01575 -0.507027,-0.03132 -0.757615,0 -0.716075,0.08951 -1.818267,0.3485 -2.525381,0.631346 -0.174768,0.06991 -0.336718,0.168358 -0.505076,0.252538"
       id="path4279"
       inkscape:connector-curvature="0" />
    <path
       style="fill:none;fill-rule:evenodd;stroke:#000000;stroke-width:1px;stroke-linecap:butt;stroke-linejoin:miter;stroke-opacity:1"
       d="m 51.138973,82.32233 c -0.957923,0.135141 -1.846784,0.524831 -2.77792,0.757615 -0.416416,0.104104 -0.841794,0.168359 -1.26269,0.252538 -0.841794,0.168359 -1.684553,0.331964 -2.525382,0.505076 -3.034183,0.624685 -0.49731,0.151422 -3.788072,0.757615 -0.925581,0.170501 -1.851086,0.341517 -2.777919,0.505076 -0.504252,0.08899 -1.005727,0.201588 -1.515229,0.252538 -0.363189,0.03632 -1.304593,0 -1.767767,0"
       id="path4281"
       inkscape:connector-curvature="0" />
    <path
       style="fill:none;fill-rule:evenodd;stroke:#000000;stroke-width:1px;stroke-linecap:butt;stroke-linejoin:miter;stroke-opacity:1"
       d="m 46.845824,82.448599 c -0.245666,0.08303 -0.508512,-0.04152 -0.757614,0 -0.342358,0.05706 -0.67196,0.174494 -1.010153,0.252539 -0.37811,0.08726 -0.75996,0.158422 -1.136421,0.252538 -0.297269,0.07432 -0.589256,0.168359 -0.883884,0.252538 -0.589255,0.168359 -1.18378,0.319262 -1.767767,0.505076 -0.342686,0.109037 -0.670322,0.261174 -1.010152,0.378807 -0.754662,0.261229 -1.527478,0.470936 -2.272843,0.757615 -0.351369,0.135142 -0.673435,0.336717 -1.010153,0.505076 -0.673435,0.336718 -1.34687,0.673435 -2.020305,1.010153 -0.673435,0.336717 -1.34687,0.673435 -2.020305,1.010152 -0.336718,0.168359 -0.704963,0.284662 -1.010153,0.505076 -0.459054,0.33154 -0.836537,0.763538 -1.26269,1.136422 -0.144211,0.126185 -1.101925,0.875178 -1.262691,1.136422 -0.217257,0.353042 -0.336718,0.757614 -0.505076,1.136421"
       id="path4283"
       inkscape:connector-curvature="0" />
    <path
       style="fill:none;fill-rule:evenodd;stroke:#000000;stroke-width:1px;stroke-linecap:butt;stroke-linejoin:miter;stroke-opacity:1"
       d="m 41.289985,84.847712 c -2.237195,0.745732 0.15359,0.03754 -1.136421,0.252538 -0.131289,0.02188 -0.248293,0.100166 -0.378807,0.126269 -0.08255,0.01651 -0.170873,-0.02042 -0.252539,0 -0.09131,0.02283 -0.161232,0.103443 -0.252538,0.126269 -0.08167,0.02042 -0.177246,-0.03765 -0.252538,0 -0.03765,0.01882 0.03765,0.107446 0,0.126269 -0.07529,0.03765 -0.170872,-0.02042 -0.252538,0 -0.0913,0.02283 -0.161233,0.103443 -0.252538,0.126269 -0.08167,0.02042 -0.177246,-0.03765 -0.252538,0 -0.03765,0.01882 0.03765,0.107446 0,0.126269 -0.07529,0.03765 -0.170872,-0.02042 -0.252538,0 -0.182611,0.04565 -0.326505,0.193015 -0.505077,0.252538 -0.164634,0.05488 -0.346493,0.05579 -0.505076,0.126269 -0.22427,0.09968 -0.411832,0.269051 -0.631345,0.378808 -0.202731,0.101365 -0.420897,0.168358 -0.631346,0.252538 -0.420897,0.252538 -0.833614,0.519238 -1.26269,0.757614 -0.329087,0.182826 -0.673435,0.336718 -1.010153,0.505077 -0.673435,0.378807 -1.352894,0.747098 -2.020305,1.136421 -0.342984,0.200074 -0.676143,0.416625 -1.010153,0.631345 -0.844539,0.542919 -1.694599,1.077753 -2.525381,1.641498 -0.348282,0.236335 -0.66187,0.521281 -1.010152,0.757615 -0.830783,0.563745 -1.676515,1.105371 -2.525382,1.641498 -0.750695,0.474123 -1.525005,0.910343 -2.272843,1.388959 -0.304961,0.195175 -0.572169,0.447151 -0.883884,0.631346 -1.621651,0.958248 -1.520441,0.870054 -2.904188,1.388959"
       id="path4285"
       inkscape:connector-curvature="0" />
    <path
       style="fill:none;fill-rule:evenodd;stroke:#000000;stroke-width:1px;stroke-linecap:butt;stroke-linejoin:miter;stroke-opacity:1"
       d="m 37.249375,86.362941 c -0.84186,-0.285736 -1.465107,-0.0981 -2.272843,0.126269 -0.590478,0.164021 -1.183378,0.320532 -1.767767,0.505076 -0.216139,0.06825 -0.421561,0.166717 -0.631345,0.252538 -0.716197,0.29299 -1.42811,0.596498 -2.146575,0.883884 -1.607274,0.642909 -1.150127,0.296447 -3.282995,1.515228 -0.739962,0.422835 -1.433266,0.922566 -2.146574,1.38896 -2.133094,1.394715 -0.398999,0.332669 -3.661803,2.399112 -1.884636,1.193603 -1.041319,0.458153 -3.282996,2.272844 -0.231323,0.187261 -0.390072,0.457092 -0.631346,0.631345 -0.520838,0.376161 -1.102098,0.661129 -1.641497,1.010153 -0.176687,0.114326 -0.368119,0.219022 -0.505077,0.378807 -0.122499,0.142915 -0.168358,0.336717 -0.252538,0.505076"
       id="path4287"
       inkscape:connector-curvature="0" />
    <path
       style="fill:none;fill-rule:evenodd;stroke:#000000;stroke-width:1px;stroke-linecap:butt;stroke-linejoin:miter;stroke-opacity:1"
       d="m 24.36993,92.928932 c -0.850449,0.141742 -0.528622,0.01177 -1.010152,0.252538 -0.168359,0.08418 -0.348459,0.148127 -0.505077,0.252538 -0.09905,0.06604 -0.159577,0.17817 -0.252538,0.252539 -0.929953,0.743962 -1.159139,0.780332 -2.020305,1.641497 -0.190569,0.19057 -0.304754,0.451056 -0.505076,0.631346 -0.2256,0.203039 -0.53619,0.297491 -0.757615,0.505076 -0.832896,0.457263 -1.13502,1.387558 -1.767766,2.020305 -0.400406,0.400406 -0.84774,0.75111 -1.262691,1.136422 -0.174475,0.162012 -0.329564,0.344189 -0.505076,0.505077 -0.943495,0.86487 -1.532124,1.45632 -2.77792,1.76777 -0.08167,0.0204 -0.168359,0 -0.252538,0"
       id="path4289"
       inkscape:connector-curvature="0" />
    <path
       style="fill:none;fill-rule:evenodd;stroke:#000000;stroke-width:1px;stroke-linecap:butt;stroke-linejoin:miter;stroke-opacity:1"
       d="m 21.592011,95.075506 c -0.62674,0.530508 -1.357791,0.910477 -2.020305,1.38896 -0.511819,0.369647 -1.013715,0.752911 -1.515229,1.136422 -0.214084,0.163711 -0.428522,0.327605 -0.631346,0.505076 -0.470893,0.412032 -0.931532,0.835759 -1.388959,1.262691 -0.174061,0.162456 -0.311331,0.366686 -0.505077,0.505076 -0.399417,0.285299 -0.841793,0.505079 -1.26269,0.757619"
       id="path4291"
       inkscape:connector-curvature="0" />
    <path
       style="fill:none;fill-rule:evenodd;stroke:#000000;stroke-width:1px;stroke-linecap:butt;stroke-linejoin:miter;stroke-opacity:1"
       d="m 51.51778,82.827407 c 1.141471,-0.790374 2.222921,-1.674124 3.409265,-2.399113 0.498938,-0.304906 1.010152,-0.589255 1.515229,-0.883883 0.505076,-0.294628 0.9873,-0.632489 1.515228,-0.883884 3.645865,-1.736126 -1.069299,0.881605 2.020305,-0.883883"
       id="path4293"
       inkscape:connector-curvature="0" />
    <path
       style="fill:none;fill-rule:evenodd;stroke:#000000;stroke-width:1px;stroke-linecap:butt;stroke-linejoin:miter;stroke-opacity:1"
       d="m 60.230346,79.165604 c 2.811101,-1.405551 0.276127,-0.190494 2.777919,-1.262691 0.173012,-0.07415 0.336718,-0.168359 0.505076,-0.252538 0.505077,-0.210449 1.005268,-0.433027 1.515229,-0.631345 0.248099,-0.09648 0.508365,-0.15907 0.757615,-0.252539 1.204958,-0.451859 1.480984,-0.656442 2.777919,-1.010152 0.475747,-0.129749 1.458424,-0.285161 2.020305,-0.378807"
       id="path4295"
       inkscape:connector-curvature="0" />
    <path
       style="fill:none;fill-rule:evenodd;stroke:#000000;stroke-width:1px;stroke-linecap:butt;stroke-linejoin:miter;stroke-opacity:1"
       d="m 69.06918,76.008877 c 1.014193,-1.014193 0.02943,-0.06662 1.767767,-1.515229 2.227933,-1.85661 -0.395714,0.170517 2.525382,-2.020305"
       id="path4297"
       inkscape:connector-curvature="0" />
  </g>
  <g
     inkscape:groupmode="layer"
     id="layer3"
     inkscape:label="Ebene 3">
    <path
       style="fill:none;fill-rule:evenodd;stroke:#000000;stroke-width:1px;stroke-linecap:butt;stroke-linejoin:miter;stroke-opacity:1"
       d="m 12.248099,100.88388 c 3.385464,-2.502357 12.113237,-10.67452 9.571647,-6.98124 -1.49077,2.166295 5.241269,-3.183514 11.389019,-6.529547 -3.272543,3.110061 16.948141,-7.268696 10.32094,-3.117131 -3.492755,2.188013 4.579103,-1.103032 10.892263,-2.817515 -3.51072,2.810455 15.350847,-7.004068 9.309654,-2.729656 -3.403459,2.408099 5.277009,-1.937633 11.398474,-4.846488 -1.729514,3.004019 5.025362,-3.08238 7.625935,-4.71774 -1.235162,3.835055 6.952549,-3.5098 6.895008,-4.75244 1.850713,-2.966706 -1.988211,-6.624128 -3.409265,-7.954951"
       id="path4375"
       inkscape:connector-curvature="0"
       sodipodi:nodetypes="cscscscccc" />
    <path
       style="fill:none;fill-rule:evenodd;stroke:#000000;stroke-width:1px;stroke-linecap:butt;stroke-linejoin:miter;stroke-opacity:1"
       d="M 86.494312,56.68971 C 63.148543,69.99389 47.278079,67.353557 23.612316,62.624356 32.320891,44.905481 42.053592,27.634661 77.150401,21.460639"
       id="path4377"
       inkscape:connector-curvature="0"
       sodipodi:nodetypes="ccc" />
    <path
       style="fill:none;fill-rule:evenodd;stroke:#000000;stroke-width:1px;stroke-linecap:butt;stroke-linejoin:miter;stroke-opacity:1"
       d="M 87.504464,57.447324 C 59.733588,74.093652 40.981854,66.679519 21.592011,63.38197"
       id="path4379"
       inkscape:connector-curvature="0"
       sodipodi:nodetypes="cc" />
    <path
       style="fill:none;fill-rule:evenodd;stroke:#000000;stroke-width:1px;stroke-linecap:butt;stroke-linejoin:miter;stroke-opacity:1"
       d="M 77.402939,19.566604 C 38.041503,27.285069 30.455972,47.026938 21.592011,63.508239"
       id="path4381"
       inkscape:connector-curvature="0"
       sodipodi:nodetypes="cc" />
    <path
       style="fill:none;fill-rule:evenodd;stroke:#000000;stroke-width:1px;stroke-linecap:butt;stroke-linejoin:miter;stroke-opacity:1"
       d="m 28.158002,54.795674 c 7.198402,1.495666 12.613007,3.090658 4.040611,-7.197337 7.478157,4.098211 16.232626,4.680527 7.702413,-9.722719 8.113279,10.342241 13.077566,8.918298 6.944799,-5.3033 5.469467,6.228574 16.631365,15.613054 9.596448,-4.04061 19.434923,11.057646 11.23648,13.708936 16.667518,-6.060916"
       id="path4383"
       inkscape:connector-curvature="0"
       sodipodi:nodetypes="cccccc" />
    <path
       style="fill:none;fill-rule:evenodd;stroke:#000000;stroke-width:1px;stroke-linecap:butt;stroke-linejoin:miter;stroke-opacity:1"
       d="m 39.26968,65.276006 c 2.360232,-2.515119 0.507422,-10.211374 10.101525,1.010152 0.965546,-8.783114 1.108168,-13.396452 8.838836,-0.252537 -0.625365,-7.076776 -3.2022,-18.704971 6.944798,-1.767768 0.140997,-6.97944 -2.394147,-21.1864 8.460028,-2.020305 -2.780171,-28.096387 -1.848349,-21.88026 9.848987,-4.04061"
       id="path4385"
       inkscape:connector-curvature="0"
       sodipodi:nodetypes="cccccc" />
    <path
       style="fill:none;fill-rule:evenodd;stroke:#000000;stroke-width:1px;stroke-linecap:butt;stroke-linejoin:miter;stroke-opacity:1"
       d="m 76.897863,21.713177 c 2.227565,-2.596855 0.509476,-5.914884 -1.515229,-8.838834 -9.214505,3.355243 -9.625005,-1.464662 -9.596449,-6.6922608 0.504809,-2.2221618 -4.41185,-0.4910552 -10.606602,1.6414979 3.633714,-3.1658272 -4.390726,1.2461456 -6.81853,2.0203051 5.203324,-3.7578122 -6.227754,2.1877768 -9.343911,3.2829958 3.844985,-4.8915356 -7.828682,4.714045 -11.616754,6.69226"
       id="path4387"
       inkscape:connector-curvature="0"
       sodipodi:nodetypes="ccccccc" />
    <path
       style="fill:none;fill-rule:evenodd;stroke:#000000;stroke-width:1px;stroke-linecap:butt;stroke-linejoin:miter;stroke-opacity:1"
       d="M 64.523494,5.0456605 C 69.92387,4.437061 77.405667,2.7266356 75.635172,12.874343"
       id="path4389"
       inkscape:connector-curvature="0"
       sodipodi:nodetypes="cc" />
    <path
       style="fill:none;fill-rule:evenodd;stroke:#000000;stroke-width:1px;stroke-linecap:butt;stroke-linejoin:miter;stroke-opacity:1"
       d="m 71.847099,4.6668533 c -0.357864,4.6100186 0.837759,4.3226769 3.788073,4.6719556"
       id="path4391"
       inkscape:connector-curvature="0"
       sodipodi:nodetypes="cc" />
    <path
       style="fill:none;fill-rule:evenodd;stroke:#000000;stroke-width:1px;stroke-linecap:butt;stroke-linejoin:miter;stroke-opacity:1"
       d="m 12.248099,14.010764 c -4.9025276,4.31602 0.408075,23.503752 10.859141,14.142136 2.038233,-2.690873 4.598504,-7.264335 4.04061,-9.343911 -2.078946,-5.9206 -13.460869,-6.179527 -14.899751,-4.798225 z"
       id="path4393"
       inkscape:connector-curvature="0"
       sodipodi:nodetypes="cccc" />
    <path
       style="fill:none;fill-rule:evenodd;stroke:#000000;stroke-width:1px;stroke-linecap:butt;stroke-linejoin:miter;stroke-opacity:1"
       d="M 6.1871842,41.66369 C -4.1487502,32.283044 -3.2524753,14.788398 6.6922606,2.015203 4.4243804,2.936921 0.03689529,6.1826077 -2.3991124,9.9701539"
       id="path4397"
       inkscape:connector-curvature="0"
       sodipodi:nodetypes="ccc" />
    <path
       style="fill:none;fill-rule:evenodd;stroke:#000000;stroke-width:1px;stroke-linecap:butt;stroke-linejoin:miter;stroke-opacity:1"
       d="M 8.9651038,24.11229 C 5.5278164,21.148516 2.9615024,7.0770313 8.2074895,1.5101267"
       id="path4399"
       inkscape:connector-curvature="0"
       sodipodi:nodetypes="cc" />
    <path
       style="fill:none;fill-rule:evenodd;stroke:#000000;stroke-width:1px;stroke-linecap:butt;stroke-linejoin:miter;stroke-opacity:1"
       d="M 17.172594,13.25315 C 16.88595,12.251275 12.822795,11.522646 10.480332,12.495536 12.373108,9.7610453 8.8400414,12.752053 5.42957,15.652262"
       id="path4401"
       inkscape:connector-curvature="0"
       sodipodi:nodetypes="ccc" />
    <ellipse
       style="fill:none;fill-opacity:1;stroke:#000000;stroke-width:1;stroke-linecap:round;stroke-miterlimit:4;stroke-dasharray:none;stroke-opacity:1"
       id="path4403"
       cx="20.834396"
       cy="18.935259"
       rx="1.767767"
       ry="1.6414979" />
  </g>
</svg>
