<?xml version="1.0" encoding="UTF-8" standalone="no"?>
<!-- Created with Inkscape (http://www.inkscape.org/) -->

<svg
   xmlns:dc="http://purl.org/dc/elements/1.1/"
   xmlns:cc="http://creativecommons.org/ns#"
   xmlns:rdf="http://www.w3.org/1999/02/22-rdf-syntax-ns#"
   xmlns:svg="http://www.w3.org/2000/svg"
   xmlns="http://www.w3.org/2000/svg"
   xmlns:sodipodi="http://sodipodi.sourceforge.net/DTD/sodipodi-0.dtd"
   xmlns:inkscape="http://www.inkscape.org/namespaces/inkscape"
   width="100"
   height="100"
   viewBox="0 0 100 100"
   id="svg4405"
   version="1.1"
   inkscape:version="0.91 r13725">
  <defs
     id="defs4407" />
  <sodipodi:namedview
     id="base"
     pagecolor="#ffffff"
     bordercolor="#666666"
     borderopacity="1.0"
     inkscape:pageopacity="0.0"
     inkscape:pageshadow="2"
     inkscape:zoom="7.9195959"
     inkscape:cx="43.020422"
     inkscape:cy="51.942138"
     inkscape:document-units="px"
     inkscape:current-layer="layer5"
     showgrid="false"
     units="px"
     inkscape:window-width="1920"
     inkscape:window-height="1017"
     inkscape:window-x="-8"
     inkscape:window-y="-8"
     inkscape:window-maximized="1">
    <inkscape:grid
       type="xygrid"
       id="grid4953" />
  </sodipodi:namedview>
  <metadata
     id="metadata4410">
    <rdf:RDF>
      <cc:Work
         rdf:about="">
        <dc:format>image/svg+xml</dc:format>
        <dc:type
           rdf:resource="http://purl.org/dc/dcmitype/StillImage" />
        <dc:title></dc:title>
        <cc:license
           rdf:resource="http://creativecommons.org/licenses/by/3.0/" />
      </cc:Work>
      <cc:License
         rdf:about="http://creativecommons.org/licenses/by/3.0/">
        <cc:permits
           rdf:resource="http://creativecommons.org/ns#Reproduction" />
        <cc:permits
           rdf:resource="http://creativecommons.org/ns#Distribution" />
        <cc:requires
           rdf:resource="http://creativecommons.org/ns#Notice" />
        <cc:requires
           rdf:resource="http://creativecommons.org/ns#Attribution" />
        <cc:permits
           rdf:resource="http://creativecommons.org/ns#DerivativeWorks" />
      </cc:License>
    </rdf:RDF>
  </metadata>
  <g
     inkscape:groupmode="layer"
     id="layer4"
     inkscape:label="Layer 1"
     style="display:none;opacity:0.26849317">
    <path
       style="fill:none;fill-rule:evenodd;stroke:#000000;stroke-width:1px;stroke-linecap:butt;stroke-linejoin:miter;stroke-opacity:1"
       d="m 90,35 c -0.221193,-0.03095 -1.116742,-0.323483 -1.485383,-0.02857 -0.009,0.0072 -0.480653,0.727085 -0.505076,0.757614 -0.07437,0.09296 -0.193474,0.149176 -0.252538,0.252538 -0.112455,0.196796 -0.101954,0.461938 -0.252539,0.631346 -0.201643,0.226848 -0.529197,0.305211 -0.757614,0.505076 -0.114208,0.09993 -0.168359,0.252538 -0.252538,0.378807 -0.252538,0.252538 -0.486452,0.525189 -0.757615,0.757615 -0.319568,0.273916 -0.712533,0.459995 -1.010152,0.757614 -0.133099,0.133099 -0.125921,0.365797 -0.252538,0.505076 -0.300967,0.331064 -0.693779,0.56751 -1.010153,0.883884 -1.442981,1.442981 -0.0785,0.31364 -1.515229,1.894036 -0.141563,0.155719 -0.356266,0.229997 -0.505076,0.378807 -0.274391,0.274391 -0.496585,0.596751 -0.757614,0.883883 -0.841794,0.925974 -0.336718,0.168359 -1.515229,1.515229 -0.88556,1.012068 -0.629813,1.07185 -1.641498,2.020305 -0.435734,0.556384 -1.132624,0.796223 -1.641498,1.262691 -0.351026,0.321774 -0.653087,0.695095 -1.010152,1.010153 -0.561918,0.495809 -1.217116,0.880666 -1.767767,1.388959 -2.838322,2.61999 0.565922,-0.439653 -1.767767,1.894036 -0.316374,0.316374 -0.69378,0.56751 -1.010153,0.883884 -0.107308,0.107308 -0.14523,0.271499 -0.252538,0.378807 -0.316373,0.316373 -0.693779,0.56751 -1.010153,0.883884 -0.107308,0.107308 -0.157736,0.260305 -0.252538,0.378807 -0.242411,0.303014 -0.496585,0.596751 -0.757614,0.883883 -0.656794,0.722473 -0.55006,0.417191 -1.262691,1.38896 -0.234815,0.320202 -0.377145,0.705112 -0.631345,1.010153 -0.172533,0.207039 -0.454838,0.301413 -0.631346,0.505076 -0.336717,0.462986 -0.673435,0.925973 -1.010152,1.38896 -0.168359,0.126269 -0.363513,0.223087 -0.505076,0.378807 -0.539023,0.592925 -0.635787,0.854152 -1.010153,1.388959 -0.207633,0.296619 -0.385761,0.617834 -0.631345,0.883884 -0.471817,0.404414 -0.973244,0.79501 -1.38896,1.262691 -0.17905,0.201431 -0.346561,0.413386 -0.505076,0.631345 -0.178518,0.245462 -0.300912,0.533033 -0.505077,0.757614 -0.221128,0.243242 -0.560375,0.368361 -0.757614,0.631346 -0.07576,0.101015 0.04689,0.261569 0,0.378807 -0.04421,0.110533 -0.189443,0.151586 -0.252538,0.252538 -0.824515,1.649029 0.05222,0.0952 -0.757614,1.136422 -0.186339,0.239578 -0.336718,0.505076 -0.505077,0.757614 -0.08418,0.126269 -0.17446,0.248677 -0.252538,0.378807 -0.174588,0.29098 -0.298178,0.614916 -0.505076,0.883884 -0.217754,0.28308 -0.534509,0.478732 -0.757615,0.757614 -0.117586,0.146984 -0.155694,0.34367 -0.252538,0.505076 -0.244496,0.407494 -0.879103,1.287686 -1.136421,1.641498 -0.12378,0.170198 -0.245544,0.342199 -0.378808,0.505077 -0.245726,0.300332 -0.529375,0.570055 -0.757614,0.883883 -0.110712,0.152229 -0.163959,0.33899 -0.252538,0.505076 -0.01723,0.03231 -0.699034,1.378869 -1.010153,1.767767 -0.686405,0.858008 -0.820476,0.794896 -1.26269,1.767767 -0.07181,0.157986 -0.04866,0.349857 -0.126269,0.505077 -0.177577,0.355153 -0.431272,0.667169 -0.631346,1.010152 -0.09484,0.16259 -0.139599,0.354492 -0.252538,0.505076 -0.142857,0.190477 -0.365035,0.31252 -0.505076,0.505077 -0.199589,0.274435 -0.336718,0.589255 -0.505076,0.883883 -0.168359,0.294628 -0.336718,0.589256 -0.505077,0.883884 -0.08418,0.168358 -0.162403,0.339829 -0.252538,0.505076 -0.162493,0.297903 -0.330488,0.592904 -0.505076,0.883883 -0.07808,0.130131 -0.189741,0.240654 -0.252538,0.378808 -0.14881,0.327381 -0.209577,0.692845 -0.378807,1.010152 -0.170386,0.319473 -0.423713,0.587265 -0.631346,0.883884 -0.174053,0.248647 -0.34892,0.497354 -0.505076,0.757614 -0.174588,0.29098 -0.316846,0.601537 -0.505076,0.883884 -0.149495,0.224242 -0.343373,0.41574 -0.505077,0.631345 -0.09105,0.121405 -0.168358,0.252538 -0.252538,0.378807 -0.08418,0.126269 -0.18467,0.243072 -0.252538,0.378807 -0.101365,0.202731 -0.135922,0.436986 -0.252538,0.631346 -0.138659,0.231099 -0.329684,0.426721 -0.505076,0.631345 -0.07747,0.09039 -0.199299,0.146059 -0.252538,0.252538 -0.07761,0.155219 -0.09224,0.334906 -0.126269,0.505076 -0.01739,0.08695 0.02535,0.24409 0,0.252538 -0.11979,0.03993 -0.259018,-0.03993 -0.378808,0 -0.07986,0.02662 0.08418,0.252539 0,0.252539 -0.04209,0 -0.02994,-0.09669 0,-0.126269 C 43.684487,91.173349 44.352584,90.597504 45,90"
       id="path4962"
       inkscape:connector-curvature="0" />
    <path
       style="fill:none;fill-rule:evenodd;stroke:#000000;stroke-width:1px;stroke-linecap:butt;stroke-linejoin:miter;stroke-opacity:1"
       d="m 90,35 c 1.165517,-1.590668 -0.8385,-0.881379 -1.106576,-1.41753 -0.01882,-0.03765 0.03993,-0.112959 0,-0.126269 -0.119789,-0.03993 -0.259018,0.03993 -0.378807,0 -0.03993,-0.01331 0.02976,-0.09651 0,-0.126269 -0.06655,-0.06655 -0.168359,-0.08418 -0.252538,-0.126269 -0.107158,-0.05358 -0.699607,-0.3208 -0.757615,-0.378807 -0.497006,-0.497006 -0.0053,-0.256481 -0.505076,-0.631346 -0.150585,-0.112938 -0.371977,-0.119439 -0.505076,-0.252538 -0.05952,-0.05952 0.05952,-0.193014 0,-0.252538 -0.06655,-0.06655 -0.185989,-0.05972 -0.252538,-0.126269 -0.06314,-0.06313 0.06313,-0.315673 0,-0.378807 -0.06655,-0.06655 -0.185989,-0.05972 -0.252538,-0.126269 -0.02616,-0.02616 0.0135,-0.498328 0,-0.505077 -0.07529,-0.03765 -0.177246,0.03765 -0.252539,0 -0.07529,-0.03765 0.08418,-0.252538 0,-0.252538 -0.341882,0 -0.543555,0.661045 -0.631345,0.757615 -0.261029,0.287132 -0.59291,0.500873 -0.883883,0.757614 -0.424603,0.374649 -0.849584,0.749134 -1.262691,1.136422 -0.156333,0.146562 -1.550304,1.561703 -1.641498,1.641498 -0.361159,0.316014 -0.765975,0.57881 -1.136422,0.883883 -0.690753,0.568856 -1.33287,1.194905 -2.020305,1.767767 -0.161671,0.134726 -0.343405,0.244081 -0.505076,0.378807 -0.343717,0.286431 -0.656981,0.609195 -1.010153,0.883884 -0.405545,0.315424 -0.868001,0.554976 -1.26269,0.883883 -0.36582,0.30485 -0.662754,0.684466 -1.010153,1.010153 -1.935243,1.81429 -0.291586,0.242988 -1.515229,1.26269 -0.343717,0.286431 -0.682286,0.579437 -1.010152,0.883884 -0.566436,0.525976 -1.031046,1.036269 -1.515229,1.641498 -0.0948,0.118502 -0.150456,0.266516 -0.252538,0.378807 -0.32032,0.352352 -0.685239,0.662031 -1.010153,1.010153 -0.529544,0.567368 -0.966446,1.218984 -1.515228,1.767766 -0.14881,0.14881 -0.356267,0.229998 -0.505077,0.378808 -0.274391,0.274391 -0.483223,0.609492 -0.757614,0.883883 -0.14881,0.14881 -0.356267,0.229998 -0.505076,0.378807 -0.274392,0.274392 -0.49441,0.598745 -0.757615,0.883884 -0.242243,0.26243 -0.520341,0.490682 -0.757614,0.757614 -0.100822,0.113425 -0.14523,0.271499 -0.252538,0.378807 -0.316374,0.316374 -0.680336,0.581552 -1.010153,0.883884 -1.326445,1.215908 0.623077,-0.392962 -1.515229,1.38896 -0.161671,0.134726 -0.356266,0.229997 -0.505076,0.378807 -0.274391,0.274391 -0.496585,0.596751 -0.757614,0.883883 -0.160161,0.176177 -0.344916,0.3289 -0.505077,0.505077 -0.261029,0.287132 -0.492842,0.600199 -0.757614,0.883883 -0.324914,0.348122 -0.705303,0.644333 -1.010153,1.010153 -0.120502,0.144603 -0.132035,0.360473 -0.252538,0.505076 -0.304849,0.36582 -0.673435,0.673435 -1.010152,1.010153 -0.168359,0.168358 -0.352652,0.322166 -0.505077,0.505076 -0.269451,0.323342 -0.488162,0.68681 -0.757614,1.010152 -0.152425,0.18291 -0.352651,0.322167 -0.505076,0.505077 -0.269452,0.323342 -0.488163,0.68681 -0.757615,1.010152 -0.152425,0.18291 -0.352651,0.322167 -0.505076,0.505076 -0.269452,0.323342 -0.494682,0.681488 -0.757614,1.010153 -0.242412,0.303014 -0.515203,0.580869 -0.757615,0.883883 -0.683842,0.854803 0.22079,-0.153067 -0.505076,0.883884 -0.188515,0.269307 -0.398897,0.525166 -0.631345,0.757614 -0.274392,0.274392 -0.609493,0.483224 -0.883884,0.757615 -0.107308,0.107308 -0.151716,0.265383 -0.252538,0.378807 -0.237273,0.266932 -0.515372,0.495185 -0.757614,0.757614 -0.263205,0.285139 -0.496586,0.596752 -0.757615,0.883884 -0.16016,0.176176 -0.356339,0.319155 -0.505076,0.505076 -0.189603,0.237004 -0.320021,0.517043 -0.505076,0.757615 -0.236597,0.307575 -0.515203,0.580869 -0.757615,0.883883 -0.0948,0.118502 -0.151716,0.265383 -0.252538,0.378807 -0.237273,0.266932 -0.505076,0.505076 -0.757614,0.757615 -0.336718,0.336717 -0.673435,0.673435 -1.010153,1.010152 -0.08418,0.08418 -0.181109,0.1573 -0.252538,0.252538 -0.182108,0.242811 -0.300911,0.533033 -0.505076,0.757615 -0.221129,0.243241 -0.515289,0.409213 -0.757615,0.631345 -2.427936,2.225608 0.104646,-0.117727 -1.010152,1.136422 -1.494896,1.681758 -0.01858,-0.107692 -1.515229,1.388959 -0.107308,0.107308 -0.161484,0.257402 -0.252538,0.378808 -0.161703,0.215604 -0.362239,0.402805 -0.505076,0.631345 -0.07054,0.112868 -0.03215,0.284692 -0.12627,0.378807 -2.411682,2.411683 -0.09445,-0.379148 -1.136421,1.010153 -0.161703,0.215604 -0.346561,0.413386 -0.505076,0.631345 -0.734379,1.009771 -0.244608,0.495824 -1.010153,1.38896 -0.365272,0.42615 -0.878259,0.746365 -1.136422,1.26269 -0.03765,0.07529 0.05051,0.185195 0,0.252539 -0.09105,0.121405 -0.260305,0.157736 -0.378807,0.252538 -0.09296,0.07437 -0.178169,0.159577 -0.252538,0.252538 -0.500045,0.11241 -0.104878,0.536124 -0.252538,0.757614 -0.04669,0.07004 -0.193014,-0.05952 -0.252538,0 -0.119048,0.119048 0.09339,0.364994 0,0.505077 -0.05221,0.07831 -0.200333,0.04796 -0.252538,0.126269 -0.05828,0.08742 0.05828,0.29139 0,0.378807 -0.06604,0.09905 -0.186503,0.153484 -0.252538,0.252538 -0.0318,0.0477 0.0318,0.457373 0,0.505076 -0.05221,0.07831 -0.210449,0.04209 -0.252539,0.126269 -0.05647,0.112939 0,0.252538 0,0.378808 0,0.210448 0,0.420896 0,0.631345 0,0.04209 0,0.08418 0,0.126269 0,0.04209 -0.02976,0.09651 0,0.126269 0.06655,0.06655 0.177246,0.0698 0.252539,0.126269 0.09524,0.07143 0.1573,0.18111 0.252538,0.252538 0.150584,0.112939 0.371977,0.119439 0.505076,0.252538 0.107308,0.107308 0.137316,0.280046 0.252538,0.378808 0.301481,0.258411 0.70009,0.383295 1.010153,0.631345 0.09296,0.07437 0.153484,0.186502 0.252538,0.252538 0.156617,0.104412 0.345457,0.152776 0.505076,0.252538 0.17846,0.111538 0.329973,0.262072 0.505076,0.378807 0.07831,0.05221 0.168359,0.08418 0.252538,0.126269 0.336718,0.168359 0.673435,0.336718 1.010153,0.505077 0.501063,0.250531 0.950872,0.537286 1.515229,0.631345 0.08418,0 0.168359,0 0.252538,0 0,0.04209 -0.03765,0.107446 0,0.126269 0.07529,0.03765 0.177246,-0.03765 0.252538,0 0.03765,0.01882 0.04209,0.126269 0,0.126269 C 40.389756,91.161165 40.131595,90.255812 40,90"
       id="path4964"
       inkscape:connector-curvature="0" />
    <path
       style="fill:none;fill-rule:evenodd;stroke:#000000;stroke-width:1px;stroke-linecap:butt;stroke-linejoin:miter;stroke-opacity:1"
       d="m 85,30 c 0.957271,-0.463129 1.959372,-0.770366 2.757003,-1.468293 0.268777,-0.23518 0.483249,-0.528977 0.757614,-0.757614 0.161671,-0.134726 0.336717,-0.252538 0.505076,-0.378807 0.168359,-0.126269 0.329973,-0.262072 0.505076,-0.378808 0.233113,-0.155408 0.524503,-0.223399 0.757615,-0.378807 0.138038,-0.09202 0.289191,-0.378807 0.505076,-0.378807 0.290184,0 0.252538,0.09704 0.252538,0.252538 0,0.04209 -0.03765,0.107446 0,0.126269 0.07529,0.03765 0.177246,-0.03765 0.252538,0 0.07529,0.03765 -0.05952,0.193015 0,0.252538 0.715401,0.357701 -0.09412,-0.141173 0.252539,0.378808 0.05221,0.07831 0.185988,0.05972 0.252538,0.126269 0.02976,0.02976 -0.02335,0.09125 0,0.126269 0.06603,0.09905 0.178169,0.159577 0.252538,0.252538 0.0948,0.118502 0.14523,0.271499 0.252538,0.378807 0.107308,0.107308 0.271499,0.14523 0.378807,0.252538 0.286265,0.286266 -0.07532,0.278014 0.378807,0.505077 0.07529,0.03765 0.177246,-0.03765 0.252539,0 0.07529,0.03765 -0.07529,0.214891 0,0.252538 0.07529,0.03765 0.177245,-0.03765 0.252538,0 0.03765,0.01882 -0.03765,0.107446 0,0.126269 0.07529,0.03765 0.177245,-0.03765 0.252538,0 0.03765,0.01882 0,0.08418 0,0.126269 0,0.04209 0.02976,0.09651 0,0.126269 -0.06655,0.06655 -0.200333,0.04796 -0.252538,0.126269 -0.04669,0.07004 0,0.168359 0,0.252538 0,0.04209 0.02976,0.09651 0,0.126269 -0.06655,0.06655 -0.168359,0.08418 -0.252538,0.126269 0,0.126269 0.05647,0.265869 0,0.378807 -0.04209,0.08418 -0.193745,0.05278 -0.252539,0.126269 -0.117586,0.146984 -0.17839,0.332065 -0.252538,0.505077 -0.05243,0.122337 -0.04312,0.274874 -0.126269,0.378807 -0.0948,0.118502 -0.263585,0.153776 -0.378807,0.252538 -0.361551,0.309901 -0.644333,0.705303 -1.010153,1.010153 -0.0723,0.06025 -0.172728,0.07639 -0.252538,0.126269 -1.218976,0.76186 -0.29715,0.274844 -1.26269,0.757614 -0.08418,0.04209 -0.168359,0.08418 -0.252539,0.126269 -0.08418,0.04209 -0.288086,0.03912 -0.252538,0.126269 C 89.431914,34.352728 89.75741,34.653759 90,35"
       id="path4966"
       inkscape:connector-curvature="0" />
    <path
       style="fill:none;fill-rule:evenodd;stroke:#000000;stroke-width:1px;stroke-linecap:butt;stroke-linejoin:miter;stroke-opacity:1"
       d="m 5,50 c 0.3115487,-0.295478 0.6015294,-0.615504 0.9346462,-0.886435 0.032653,-0.02656 0,0.08418 0,0.12627 0,0.04209 0,0.08418 0,0.126269 0,0.04209 -0.018823,0.08862 0,0.126269 0.067868,0.135735 0.1846706,0.243072 0.2525382,0.378807 0.041141,0.08228 -0.038267,0.535677 0,0.631345 0.056361,0.140903 0.1961771,0.237905 0.2525381,0.378807 0.031263,0.07816 -0.031263,0.17438 0,0.252539 0.056361,0.140902 0.2045485,0.234838 0.2525381,0.378807 0.03993,0.119789 -0.03993,0.259018 0,0.378807 0.04799,0.143969 0.2157318,0.231582 0.2525382,0.378807 0.051041,0.204165 -0.051041,0.427181 0,0.631345 0.036806,0.147226 0.2045485,0.234839 0.2525381,0.378808 0.03993,0.119789 -0.046895,0.261569 0,0.378807 0.044213,0.110533 0.208325,0.142005 0.2525381,0.252538 0.046895,0.117238 -0.046895,0.261569 0,0.378807 0.044213,0.110533 0.193474,0.149176 0.2525382,0.252538 0.1124548,0.196796 0.1400833,0.43455 0.2525381,0.631346 0.059064,0.103362 0.193474,0.149176 0.2525381,0.252538 0.1124549,0.196796 0.1511728,0.428614 0.2525382,0.631345 0.067868,0.135735 0.1772458,0.247046 0.2525381,0.378807 0.093389,0.163431 0.1320357,0.360474 0.2525382,0.505077 0.097152,0.116582 0.2840056,0.134036 0.3788072,0.252538 0.083146,0.103933 0.073839,0.256469 0.126269,0.378807 0.074148,0.173011 0.1395997,0.354492 0.2525382,0.505076 0.1428571,0.190476 0.3730047,0.306969 0.5050767,0.505077 0.04669,0.07004 -0.03765,0.177245 0,0.252538 0.08159,0.163183 0.722554,0.602128 0.757614,0.631345 0.227284,0.189404 0.555584,0.631345 0.757614,0.757614 0.147162,0.09198 0.349858,0.04866 0.505077,0.12627 0.18823,0.09412 0.326616,0.267269 0.505076,0.378807 0.159619,0.09976 0.345457,0.152776 0.505076,0.252538 0.17846,0.111537 0.326617,0.26727 0.505076,0.378807 0.882645,0.551653 0.129261,-0.06164 1.262691,0.505076 0.10648,0.05324 0.142005,0.208325 0.252538,0.252538 0.322256,0.128903 0.67771,0.152806 1.010153,0.252539 0.09015,0.02704 0.162392,0.09923 0.252538,0.126269 0.332443,0.09973 0.680883,0.142781 1.010153,0.252538 0.178571,0.05952 0.336717,0.168359 0.505076,0.252538 0.252538,0.08418 0.502642,0.176047 0.757614,0.252538 0.83021,0.249063 1.695172,0.382283 2.525382,0.631345 0.09015,0.02704 0.162391,0.09923 0.252538,0.12627 0.332442,0.09973 0.673435,0.168358 1.010152,0.252538 0.673435,0.168358 1.34687,0.336717 2.020305,0.505076 0.336718,0.08418 0.673435,0.168359 1.010153,0.252538 0.336717,0.08418 0.667794,0.195479 1.010152,0.252538 0.166068,0.02768 0.338018,-0.02088 0.505077,0 0.1722,0.02153 0.335668,0.08862 0.505076,0.126269 1.177782,0.26173 0.06582,-0.01099 1.515229,0.252538 0.170741,0.03104 0.333897,0.09774 0.505076,0.126269 2.336116,0.389353 -0.129489,-0.04621 1.767767,0.12627 0.213735,0.01943 0.417794,0.104914 0.631345,0.126269 0.209404,0.02094 0.420897,0 0.631346,0 0.168358,0 0.339008,-0.02768 0.505076,0 0.09284,0.01547 0.159703,0.110796 0.252538,0.126269 0.245713,0.04095 0.511902,-0.04095 0.757615,0 0.342358,0.05706 0.669812,0.18447 1.010152,0.252538 0.25105,0.05021 0.514731,0.04531 0.757614,0.126269 0.267858,0.08929 0.495463,0.273946 0.757615,0.378807 0.161128,0.06445 0.340441,0.07139 0.505076,0.126269 0.08929,0.02976 0.164415,0.09322 0.252538,0.126269 0.24925,0.09347 0.508365,0.15907 0.757615,0.252538 0.264369,0.09914 0.499603,0.264136 0.757614,0.378808 0.207125,0.09206 0.436986,0.135922 0.631345,0.252538 0.03609,0.02165 0,0.08418 0,0.126269 0.04209,0.04209 0.071,0.104162 0.12627,0.126269 0.161128,0.06445 0.349857,0.04866 0.505076,0.126269 0.03765,0.01882 -0.02976,0.09651 0,0.126269 0.06655,0.06655 0.185988,0.05972 0.252538,0.126269 0.02976,0.02976 -0.03765,0.107446 0,0.126269 0.07529,0.03765 0.177246,-0.03765 0.252538,0 0.03765,0.01882 0.0232,0.09115 0,0.126269 C 40.542291,69.305166 40.261636,69.645936 40,70"
       id="path4968"
       inkscape:connector-curvature="0" />
    <path
       style="fill:none;fill-rule:evenodd;stroke:#000000;stroke-width:1px;stroke-linecap:butt;stroke-linejoin:miter;stroke-opacity:1"
       d="m 40,70 c 0.177457,-0.564512 0.267389,-1.164434 0.532371,-1.693536 0.04214,-0.08415 0.161233,0.103443 0.252538,0.126269 0.08167,0.02042 0.177246,-0.03765 0.252538,0 0.10648,0.05324 0.151586,0.189443 0.252538,0.252538 0.239429,0.149643 0.518186,0.229164 0.757615,0.378807 0.100952,0.0631 0.144161,0.203276 0.252538,0.252538 0.363507,0.165231 0.769409,0.221516 1.136422,0.378808 0.36332,0.217992 0.741191,0.466666 1.136421,0.631345 0.331952,0.138313 0.678201,0.240494 1.010153,0.378807 0.173751,0.0724 0.329392,0.184967 0.505076,0.252538 0.372683,0.14334 0.762547,0.238605 1.136422,0.378807 0.300136,0.112552 0.586264,0.25976 0.883883,0.378808 0.333894,0.133557 0.678201,0.240494 1.010153,0.378807 0.173751,0.0724 0.326504,0.193014 0.505076,0.252538 0.329269,0.109757 0.683968,0.133926 1.010152,0.252538 0.14262,0.05186 0.243072,0.184671 0.378808,0.252538 0.193339,0.09667 1.637503,0.629748 1.641498,0.631346 0.08738,0.03495 0.165154,0.09131 0.252538,0.126269 0.333893,0.133557 0.676259,0.245249 1.010152,0.378807 0.08738,0.03495 0.162392,0.09922 0.252538,0.126269 0.332443,0.09973 0.676427,0.157188 1.010153,0.252538 0.511912,0.146261 1.005285,0.352093 1.515229,0.505076 0.515398,0.15462 0.685096,0.147521 1.26269,0.252539 0.422309,0.07678 0.836084,0.205137 1.262691,0.252538 0.167329,0.01859 0.336718,0 0.505076,0 0.168359,0 0.336718,0 0.505077,0 0.168358,0 0.336717,0 0.505076,0 0.168359,0 0.338017,0.02088 0.505076,0 0.1722,-0.02152 0.332136,-0.111858 0.505076,-0.126269 0.335555,-0.02796 0.674599,0.02796 1.010153,0 0.172941,-0.01441 0.33328,-0.101727 0.505076,-0.126269 0.418745,-0.05982 0.843946,-0.06645 1.262691,-0.12627 0.171796,-0.02454 0.33598,-0.08725 0.505076,-0.126269 0.378111,-0.08726 0.75591,-0.176435 1.136422,-0.252538 0.04127,-0.0083 0.08418,0 0.126269,0 0.168359,0 0.338017,0.02088 0.505076,0 0.1722,-0.02152 0.332397,-0.109001 0.505076,-0.126269 0.251285,-0.02513 0.505077,0 0.757615,0 0.08418,0 0.169504,0.01384 0.252538,0 0.171179,-0.02853 0.333897,-0.09774 0.505076,-0.126269 0.596174,-0.09936 -0.179789,0.225257 0.757615,-0.126269 0.176246,-0.06609 0.32883,-0.186446 0.505076,-0.252538 0.162491,-0.06093 0.360682,-0.03001 0.505076,-0.126269 0.126269,-0.08418 0.321879,-0.513796 0.252538,-0.378807 C 70.573133,73.997076 70.278982,74.494499 70,75"
       id="path4970"
       inkscape:connector-curvature="0" />
    <path
       style="fill:none;fill-rule:evenodd;stroke:#000000;stroke-width:1px;stroke-linecap:butt;stroke-linejoin:miter;stroke-opacity:1"
       d="m 70,75 c 0.363162,-0.337143 0.675828,-0.738592 1.089485,-1.011428 0.07857,-0.05182 0.168359,0.08418 0.252539,0.126269 0.554033,0.277017 0.593986,0.326755 1.26269,0.505076 0.374946,0.09999 0.763305,0.145933 1.136422,0.252538 0.217939,0.06227 0.41049,0.201572 0.631345,0.252539 0.330648,0.0763 0.675432,0.07048 1.010153,0.126269 1.138909,0.189818 -0.262787,0.141412 1.515229,0.252538 0.504092,0.03151 1.010152,0 1.515228,0 0.168359,0 0.336718,0 0.505077,0 0.168358,0 0.338017,0.02088 0.505076,0 0.1722,-0.02152 0.332876,-0.104744 0.505076,-0.126269 0.167059,-0.02088 0.339008,0.02768 0.505077,0 0.09283,-0.01547 0.158889,-0.116905 0.252538,-0.126269 0.335046,-0.0335 0.675106,0.0335 1.010152,0 0.09365,-0.0094 0.161233,-0.103443 0.252538,-0.126269 0.248378,-0.06209 0.509237,-0.06418 0.757615,-0.12627 0.09131,-0.02283 0.161233,-0.103442 0.252538,-0.126269 0.248377,-0.06209 0.509237,-0.06417 0.757614,-0.126269 0.09131,-0.02283 0.160211,-0.144525 0.252538,-0.126269 C 84.328271,74.690971 84.65631,74.873306 85,75"
       id="path4972"
       inkscape:connector-curvature="0" />
    <path
       style="fill:none;fill-rule:evenodd;stroke:#000000;stroke-width:1px;stroke-linecap:butt;stroke-linejoin:miter;stroke-opacity:1"
       d="M 5,40 C 4.8906518,39.92322 4.805264,39.760636 4.6719555,39.769654 c -0.083987,0.0057 -0.068892,0.204164 0,0.252539 C 4.7616499,40.085174 5,39.890402 5,40 c 0,0.206996 -0.2575779,0.332636 -0.3280445,0.527269 -0.042985,0.118727 0,0.252538 0,0.378807 0,0.252538 0,0.505076 0,0.757614 0,0.168359 0,0.336718 0,0.505077 0,0.210448 -0.045653,0.425908 0,0.631345 0.040833,0.183749 0.2117052,0.321328 0.2525382,0.505076 0.091305,0.410874 -0.082545,0.849968 0,1.262691 0.044452,0.222258 0.1763041,0.41789 0.2525381,0.631345 0.1342984,0.376036 0.2819633,0.749046 0.3788072,1.136422 0.072183,0.288733 -0.00683,0.617685 0.1262691,0.883883 0.1735402,0.347081 0.8500693,0.507011 0.7576144,0.883884 C 6.2506149,48.87427 5.4799075,49.367804 5,50"
       id="path4974"
       inkscape:connector-curvature="0" />
    <path
       style="fill:none;fill-rule:evenodd;stroke:#000000;stroke-width:1px;stroke-linecap:butt;stroke-linejoin:miter;stroke-opacity:1"
       d="m 25,45 c -0.462561,0.02432 -0.925438,0.04325 -1.387684,0.07296 -0.08401,0.0054 0.177246,0.03765 0.252538,0 0.03765,-0.01882 -0.03765,-0.107446 0,-0.126269 0.07529,-0.03765 0.169993,0.01651 0.252538,0 0.130515,-0.0261 0.252538,-0.08418 0.378807,-0.126269 0.126269,-0.04209 0.252538,-0.08418 0.378807,-0.126269 0.252539,-0.08418 0.502643,-0.176046 0.757615,-0.252538 0.166221,-0.04987 0.340441,-0.07139 0.505076,-0.126269 0.34116,-0.11372 0.678201,-0.240494 1.010153,-0.378807 0.173751,-0.0724 0.336717,-0.168359 0.505076,-0.252538 0.336717,-0.168359 0.673435,-0.336718 1.010153,-0.505077 0.168358,-0.08418 0.332064,-0.17839 0.505076,-0.252538 0.416666,-0.178571 0.846024,-0.326505 1.26269,-0.505076 0.383545,-0.164376 1.512622,-0.81024 1.641498,-0.883884 0.350851,-0.200486 1.427924,-0.867769 1.641498,-1.010152 1.09772,-0.731813 -0.164609,0.0054 1.262691,-1.136422 0.146984,-0.117587 0.350872,-0.144595 0.505076,-0.252538 0.269307,-0.188515 0.505076,-0.420897 0.757615,-0.631345 0.252538,-0.210449 0.525166,-0.398898 0.757614,-0.631346 0.107308,-0.107308 0.151717,-0.265383 0.252538,-0.378807 0.474546,-0.533864 1.040683,-0.981365 1.515229,-1.515229 0.100822,-0.113424 0.165511,-0.254483 0.252538,-0.378807 0.207633,-0.296619 0.445062,-0.573412 0.631345,-0.883883 0.06848,-0.114132 0.04455,-0.273745 0.12627,-0.378808 0.219264,-0.281911 0.528977,-0.483249 0.757614,-0.757614 0.194304,-0.233165 0.303433,-0.530766 0.505076,-0.757614 0.139815,-0.157292 0.348651,-0.238025 0.505076,-0.378808 0.265463,-0.238916 0.520342,-0.490682 0.757615,-0.757614 0.100821,-0.113424 0.151018,-0.266007 0.252538,-0.378807 0.278735,-0.309706 0.623594,-0.558522 0.883884,-0.883884 0.08315,-0.103933 0.04455,-0.273745 0.126269,-0.378807 0.202843,-0.618152 0.886488,-0.713194 1.26269,-1.136421 0.201643,-0.226849 0.303433,-0.530766 0.505077,-0.757615 0.139814,-0.157291 0.356266,-0.229998 0.505076,-0.378807 0.190569,-0.190569 0.302253,-0.453875 0.505076,-0.631345 0.141658,-0.123951 0.358093,-0.134952 0.505076,-0.252539 0.278882,-0.223105 0.494345,-0.516284 0.757615,-0.757614 0.776831,-0.712095 0.585826,-0.468661 1.26269,-1.010153 0.256696,-0.205356 0.500919,-0.425988 0.757615,-0.631345 0.164332,-0.131466 0.334879,-0.255027 0.505076,-0.378807 0.292819,-0.212959 0.627862,-0.375324 0.883884,-0.631345 0.09412,-0.09412 0.03215,-0.284692 0.126269,-0.378808 0.518962,-0.518962 0.731279,-0.425482 1.26269,-0.757614 0.17846,-0.111538 0.326617,-0.26727 0.505077,-0.378807 0.159619,-0.09976 0.345457,-0.152776 0.505076,-0.252538 0.17846,-0.111538 0.320324,-0.278034 0.505076,-0.378808 0.281406,-0.153494 0.597179,-0.235454 0.883884,-0.378807 0.336691,-0.168346 0.547192,-0.462999 0.883883,-0.631345 0.155219,-0.07761 0.349857,-0.04866 0.505076,-0.126269 0.188231,-0.09412 0.316846,-0.284692 0.505077,-0.378807 0.238095,-0.119048 0.508365,-0.15907 0.757614,-0.252539 0.08812,-0.03305 0.166534,-0.08805 0.252538,-0.126269 0.292918,-0.130185 0.597179,-0.235455 0.883884,-0.378807 0.05324,-0.02662 0.07156,-0.102821 0.126269,-0.126269 0.244675,-0.104861 0.508365,-0.159069 0.757614,-0.252538 0.08812,-0.03305 0.164415,-0.09322 0.252538,-0.126269 0.24925,-0.09347 0.508365,-0.15907 0.757615,-0.252538 0.08812,-0.03305 0.168359,-0.08418 0.252538,-0.126269 0.252538,-0.08418 0.502642,-0.176047 0.757614,-0.252538 1.049281,-0.314785 -0.102531,0.08877 1.262691,-0.252539 1.288441,-0.32211 0.260636,-0.178396 1.262691,-0.378807 0.400782,-0.259696 0.84545,-0.05673 1.26269,-0.126269 0.09283,-0.01547 0.168359,-0.08418 0.252538,-0.126269 0.336718,-0.04209 0.671677,-0.102092 1.010153,-0.126269 0.251896,-0.01799 0.505076,0 0.757614,0 0.420897,0 0.841794,0 1.262691,0 0.336718,0 0.673435,0 1.010153,0 0.126269,0 0.254256,-0.02076 0.378807,0 0.131288,0.02188 0.248292,0.100166 0.378807,0.126269 0.08254,0.01651 0.170872,-0.02042 0.252538,0 0.09131,0.02283 0.159703,0.110797 0.252538,0.126269 0.166068,0.02768 0.339009,-0.02768 0.505077,0 0.09283,0.01547 0.161232,0.103443 0.252538,0.126269 0.248377,0.06209 0.509237,0.06418 0.757614,0.126269 0.09131,0.02283 0.163253,0.09651 0.252538,0.126269 1.116253,0.372085 -0.200921,-0.206637 1.262691,0.378808 0.174768,0.06991 0.32883,0.186445 0.505076,0.252538 0.162491,0.06093 0.342586,0.06533 0.505077,0.126269 0.176246,0.06609 0.336717,0.168359 0.505076,0.252538 0.168359,0.08418 0.336717,0.168359 0.505076,0.252538 0.420897,0.210448 0.851332,0.402813 1.262691,0.631345 0.132659,0.0737 0.250118,0.172108 0.378807,0.252539 0.208118,0.130073 0.427141,0.242671 0.631345,0.378807 0.175104,0.116736 0.329973,0.262071 0.505077,0.378807 0.07831,0.05221 0.168358,0.08418 0.252538,0.126269 0.252538,0.126269 0.518185,0.229164 0.757614,0.378807 0.100952,0.06309 0.161083,0.176326 0.252538,0.252538 0.161671,0.134726 0.343406,0.244082 0.505077,0.378808 0.09145,0.07621 0.151586,0.189443 0.252538,0.252538 0.239429,0.149643 0.518185,0.229164 0.757614,0.378807 0.100952,0.06309 0.168359,0.168359 0.252538,0.252538 0.168359,0.168359 0.325892,0.348289 0.505077,0.505076 0.158378,0.138582 0.343405,0.244082 0.505076,0.378808 0.273238,0.227698 0.484376,0.529916 0.757614,0.757614 0.0723,0.06025 0.17423,0.07406 0.252538,0.126269 0.175104,0.116736 0.336718,0.252538 0.505077,0.378807 0.168358,0.126269 0.356266,0.229998 0.505076,0.378807 0.02976,0.02976 -0.03502,0.102922 0,0.126269 0.110745,0.07383 0.259759,0.06675 0.378807,0.12627 0.05324,0.02662 0.07674,0.09325 0.126269,0.126269 0.02352,0.01568 0.496985,0.244446 0.505076,0.252538 0.02976,0.02976 0.04209,0.126269 0,0.126269 -0.08418,0 0.08167,-0.232122 0,-0.252538 C 84.957554,25.306464 85.400644,25.867031 85,25"
       id="path4976"
       inkscape:connector-curvature="0" />
    <path
       style="fill:none;fill-rule:evenodd;stroke:#000000;stroke-width:1px;stroke-linecap:butt;stroke-linejoin:miter;stroke-opacity:1"
       d="M 5,40 C 4.922368,38.464928 4.924494,39.005278 4.924494,38.380695 c 0,-0.08418 -0.037646,-0.177246 0,-0.252539 0.05324,-0.106479 0.1992984,-0.146058 0.2525381,-0.252538 0.037646,-0.07529 -0.04331,-0.180355 0,-0.252538 0.091874,-0.153124 0.3062825,-0.215626 0.3788072,-0.378807 0.4854287,-1.092215 -0.091712,-0.390767 0.1262691,-1.262691 0.045653,-0.18261 0.1971821,-0.325169 0.2525381,-0.505076 0.1141194,-0.370888 0.1356848,-0.766386 0.2525382,-1.136422 0.4558407,-1.443495 0.3518167,-0.854722 0.7576144,-1.767767 0.092055,-0.207124 0.1632524,-0.423012 0.2525381,-0.631345 0.1632935,-0.381018 0.3671106,-0.745519 0.5050763,-1.136421 0.1155153,-0.327294 0.1427816,-0.680884 0.2525381,-1.010153 0.078726,-0.236177 0.7460773,-1.373577 0.7576144,-1.38896 0.1785714,-0.238095 0.4583578,-0.389163 0.6313454,-0.631345 0.048928,-0.0685 0,-0.168359 0,-0.252538 0.04209,-0.08418 0.066018,-0.180237 0.126269,-0.252538 0.1524249,-0.18291 0.3563394,-0.319156 0.5050763,-0.505077 0.026294,-0.03287 -0.029762,-0.09651 0,-0.126269 0.06655,-0.06655 0.2003323,-0.04796 0.2525383,-0.126269 0.04669,-0.07004 -0.05952,-0.193014 0,-0.252538 0.05952,-0.05952 0.177245,0.03765 0.252538,0 0.07529,-0.03765 -0.07529,-0.214892 0,-0.252538 0.07529,-0.03765 0.177245,0.03765 0.252538,0 0,-0.284105 -0.04209,0.02104 0.252538,-0.126269 0.03765,-0.01882 -0.04209,-0.126269 0,-0.126269 0.04209,0 0,0.08418 0,0.126269 0,0.04209 0.03139,0.154305 0,0.126269 C 10.635245,25.693598 10.32847,25.335442 10,25"
       id="path4980"
       inkscape:connector-curvature="0" />
    <path
       style="fill:none;fill-rule:evenodd;stroke:#000000;stroke-width:1px;stroke-linecap:butt;stroke-linejoin:miter;stroke-opacity:1"
       d="m 10,25 c 1.137802,0.740843 1.118093,0.753788 1.995561,0.753788 0.252539,0 0.506621,-0.02789 0.757615,0 0.132285,0.0147 0.249682,0.09399 0.378807,0.126269 0.04083,0.01021 0.08634,-0.01331 0.126269,0 0.178572,0.05952 0.326505,0.193014 0.505076,0.252538 1.031531,0.343843 -0.02309,-0.137816 1.010153,0.378807 0.08418,0.04209 0.177246,0.0698 0.252538,0.126269 0.304878,0.228659 0.256573,0.320717 0.505076,0.631346 0.313189,0.391485 0.24598,0.113152 0.505077,0.631345 0.01882,0.03765 -0.02335,0.09125 0,0.126269 0.06603,0.09905 0.186502,0.153485 0.252538,0.252538 0.02335,0.03502 -0.02976,0.09651 0,0.126269 0.06655,0.06655 0.210448,0.04209 0.252538,0.126269 0.05647,0.112939 -0.06497,0.270533 0,0.378808 0.07808,0.13013 0.271499,0.14523 0.378807,0.252538 0.02976,0.02976 -0.01882,0.08862 0,0.126269 0.02662,0.05324 0.09965,0.07303 0.126269,0.126269 0.01882,0.03765 -0.02335,0.09125 0,0.126269 0.469783,0.704674 0.04636,-0.286086 0.505077,0.631345 0.01882,0.03765 -0.02976,0.09651 0,0.126269 0.06655,0.06655 0.210448,0.04209 0.252538,0.126269 0.05647,0.112939 -0.0469,0.26157 0,0.378808 0.04421,0.110532 0.199298,0.146058 0.252538,0.252538 0.03765,0.07529 0,0.168358 0,0.252538 0,0.04209 -0.02335,0.09125 0,0.126269 0.06604,0.09905 0.186502,0.153484 0.252538,0.252538 0.05828,0.08742 -0.05828,0.29139 0,0.378807 0.05221,0.07831 0.222776,0.03698 0.252538,0.126269 0.06655,0.199649 0,0.420897 0,0.631346 0,0.04209 -0.02335,0.09125 0,0.126269 0.06604,0.09905 0.199298,0.146058 0.252538,0.252538 0.05203,0.104057 -0.05231,0.77926 0,0.883883 0.05324,0.10648 0.199299,0.146059 0.252538,0.252538 0.08418,0.168359 -0.08418,0.462987 0,0.631346 0.05324,0.106479 0.214892,0.139599 0.252538,0.252538 0.05324,0.159719 0,0.336717 0,0.505076 0,0.08418 -0.03765,0.177246 0,0.252538 0.05324,0.10648 0.199299,0.146059 0.252539,0.252538 0.04107,0.08214 -0.04272,0.567269 0,0.631346 0.06603,0.09905 0.199298,0.146059 0.252538,0.252538 0.07529,0.150585 -0.07529,0.354492 0,0.505076 0.05324,0.10648 0.208325,0.142005 0.252538,0.252538 0,0.860414 -0.08929,-0.0523 0.252538,0.631346 0.03765,0.07529 0,0.168358 0,0.252538 0,0.04209 -0.02976,0.09651 0,0.126269 0.107308,0.107308 0.287753,0.131133 0.378807,0.252538 0.07576,0.101015 -0.03788,0.265165 0,0.378807 0.252261,0.756783 -0.03231,-0.317149 0.378807,0.505077 0.03765,0.07529 -0.04669,0.182496 0,0.252538 0.05221,0.07831 0.185989,0.05972 0.252539,0.126269 0.107308,0.107308 0.18467,0.243072 0.252538,0.378807 0.01882,0.03765 -0.02976,0.09651 0,0.126269 0.06655,0.06655 0.185988,0.05972 0.252538,0.126269 0.107308,0.107308 0.14523,0.271499 0.252538,0.378807 0.06655,0.06655 0.177246,0.0698 0.252538,0.126269 0.09524,0.07143 0.1573,0.18111 0.252538,0.252538 0.07529,0.05647 0.177246,0.0698 0.252538,0.12627 0.09524,0.07143 0.146059,0.199298 0.252539,0.252538 0.155219,0.07761 0.349857,0.04866 0.505076,0.126269 0.03765,0.01882 0,0.08418 0,0.126269 0.08418,0.04209 0.161233,0.103443 0.252538,0.126269 0.08167,0.02042 0.177246,-0.03765 0.252538,0 0.03765,0.01882 -0.03993,0.112959 0,0.126269 0.119789,0.03993 0.256308,-0.03063 0.378807,0 0.05775,0.01444 0.0698,0.107446 0.126269,0.126269 0.07986,0.02662 0.177246,-0.03765 0.252538,0 0.03765,0.01882 -0.03765,0.107446 0,0.126269 0.07529,0.03765 0.177246,-0.03765 0.252539,0 0.03765,0.01882 0.0026,0.08426 0,0.126269 C 25.087609,43.701931 25.042515,44.350883 25,45"
       id="path4982"
       inkscape:connector-curvature="0" />
    <path
       style="fill:none;fill-rule:evenodd;stroke:#000000;stroke-width:1px;stroke-linecap:butt;stroke-linejoin:miter;stroke-opacity:1"
       d="m 25,45 c -0.462561,0.02432 -0.925123,0.04864 -1.387684,0.07296 -0.08418,0.04209 -0.161233,0.103443 -0.252538,0.126269 -0.08167,0.02042 -0.177246,-0.03765 -0.252538,0 -0.03765,0.01882 0.02976,0.09651 0,0.126269 -0.06655,0.06655 -0.168359,0.08418 -0.252539,0.126269 -0.08418,0.04209 -0.163252,0.09651 -0.252538,0.12627 -0.164634,0.05488 -0.349857,0.04866 -0.505076,0.126269 -0.106479,0.05324 -0.153485,0.186502 -0.252538,0.252538 -0.156618,0.104411 -0.336718,0.168358 -0.505076,0.252538 -0.08418,0.04209 -0.179047,0.06748 -0.252539,0.126269 -0.13944,0.111553 -0.219088,0.298948 -0.378807,0.378807 -0.191958,0.09598 -0.435226,0.0391 -0.631345,0.126269 -0.19231,0.08547 -0.316846,0.284692 -0.505076,0.378807 -1.919548,0.959774 -0.149235,0.03731 -1.010153,0.252539 -0.0913,0.02283 -0.163252,0.09651 -0.252538,0.126269 -0.164635,0.05488 -0.336718,0.08418 -0.505076,0.126269 -0.168359,0.04209 -0.333898,0.09774 -0.505077,0.126269 -0.124551,0.02076 -0.252538,0 -0.378807,0 -0.210448,0 -0.420897,0 -0.631345,0 -0.08418,0 -0.168359,0 -0.252538,0 -0.08418,0 -0.21598,-0.07583 -0.252538,0 C 15.452479,48.537723 15.261211,49.283625 15,50"
       id="path4984"
       inkscape:connector-curvature="0" />
    <path
       style="fill:none;fill-rule:evenodd;stroke:#000000;stroke-width:1px;stroke-linecap:butt;stroke-linejoin:miter;stroke-opacity:1"
       d="m 50,55 c 1.053093,-0.404826 2.068029,-0.928012 3.159278,-1.214479 0.182062,-0.04779 0.330308,0.182631 0.505076,0.252538 0.247159,0.09886 0.505076,0.168359 0.757614,0.252538 0.12627,0.04209 0.25976,0.06675 0.378808,0.126269 0.05073,0.02537 0.665437,0.423159 0.883883,0.505077 0.01406,0.0053 1.51169,0.503306 1.515229,0.505076 0.106479,0.05324 0.146059,0.199298 0.252538,0.252538 0.238095,0.119048 0.519519,0.133491 0.757615,0.252538 0.18823,0.09412 0.326616,0.26727 0.505076,0.378807 0.159619,0.09976 0.345457,0.152776 0.505076,0.252538 0.17846,0.111538 0.33267,0.258123 0.505076,0.378808 0.512704,0.358892 1.176449,0.782722 1.767767,1.010152 0.285994,0.109998 0.596976,0.144948 0.883884,0.252538 0.05573,0.0209 0.07523,0.09565 0.126269,0.126269 0.161406,0.09684 0.336717,0.168359 0.505076,0.252539 0.08418,0.04209 0.161233,0.103442 0.252538,0.126269 0.248378,0.06209 0.51239,0.0527 0.757615,0.126269 0.141494,0.04245 1.108084,0.554042 1.26269,0.631345 0.08418,0.04209 0.162044,0.100414 0.252538,0.126269 0.592904,0.169401 0.532525,0.04784 1.010153,0.252538 0.173011,0.07415 0.326505,0.193015 0.505076,0.252538 0.07986,0.02662 0.177246,-0.03765 0.252538,0 0.03765,0.01882 -0.03765,0.107446 0,0.126269 0.07529,0.03765 0.170873,-0.02042 0.252539,0 0.18261,0.04565 0.326504,0.193015 0.505076,0.252539 0.164635,0.05488 0.340441,0.07139 0.505076,0.126269 0.08929,0.02976 0.163253,0.09651 0.252538,0.126269 0.164635,0.05488 0.349857,0.04866 0.505077,0.126269 0.03765,0.01882 -0.03765,0.107446 0,0.126269 0.07529,0.03765 0.169993,-0.01651 0.252538,0 0.130514,0.0261 0.259759,0.06674 0.378807,0.126269 0.05324,0.02662 0.0698,0.107446 0.126269,0.126269 0.07986,0.02662 0.170872,-0.02042 0.252538,0 0.0913,0.02283 0.161233,0.103443 0.252538,0.126269 0.248378,0.06209 0.509237,0.06417 0.757615,0.126269 0.09131,0.02283 0.159703,0.110797 0.252538,0.126269 0.196957,0.03283 0.757727,0 1.010152,0 0.08418,0 0.170872,-0.02042 0.252538,0 0.09131,0.02283 0.159369,0.112959 0.252539,0.126269 0.229255,0.03275 0.958869,0 1.26269,0 0.252538,0 0.505077,0 0.757615,0 0.08418,0 0.168358,0 0.252538,0 0.08418,0 0.170872,-0.02042 0.252538,0 0.09131,0.02283 0.159149,0.114596 0.252538,0.126269 0.344633,0.04308 0.877704,0 1.262691,0 0.336717,0 0.673435,0 1.010152,0 0.168359,0 0.339009,0.02768 0.505077,0 0.09283,-0.01547 0.161232,-0.103442 0.252538,-0.126269 0.09933,-0.02483 0.626304,0 0.757614,0 0.71069,0 -0.41587,0.02042 0.757615,-0.126269 0.167058,-0.02088 0.336717,0 0.505076,0 0.126269,0 0.256308,0.03062 0.378807,0 0.05775,-0.01444 0.0679,-0.114595 0.126269,-0.126269 0.165089,-0.03302 0.336718,0 0.505076,0 0.08418,0 0.170873,0.02042 0.252539,0 0.0913,-0.02283 0.159703,-0.110796 0.252538,-0.126269 0.166068,-0.02768 0.336717,0 0.505076,0 0.505076,0 1.010152,0 1.515229,0 0.815409,0 1.726832,-0.07337 2.525381,0.126269 0.09131,0.02283 0.163253,0.09651 0.252538,0.126269 1.507834,0.502611 -0.539716,-0.310023 1.010153,0.378807 0.207124,0.09206 0.442753,0.12681 0.631345,0.252539 0.07831,0.05221 0.06602,0.180236 0.126269,0.252538 0.152425,0.18291 0.373005,0.306969 0.505076,0.505076 0.04669,0.07004 -0.03765,0.177246 0,0.252538 0.05324,0.10648 0.223665,0.137045 0.252539,0.252538 0.06125,0.244998 -0.06125,0.512617 0,0.757615 0.02887,0.115493 0.214892,0.139599 0.252538,0.252538 0.05324,0.159719 0,0.336717 0,0.505076 0,0.252538 0,0.505076 0,0.757614 0,0.378808 0,0.757615 0,1.136422 0,0.126269 0.05647,0.265869 0,0.378807 -0.05324,0.10648 -0.214892,0.1396 -0.252538,0.252538 -0.05324,0.15972 0.04625,0.343196 0,0.505077 -0.04169,0.145917 -0.196178,0.237905 -0.252539,0.378807 -0.03126,0.07816 0.03765,0.177246 0,0.252538 -0.05324,0.106479 -0.193474,0.149176 -0.252538,0.252538 -0.112454,0.196796 -0.180862,0.416317 -0.252538,0.631346 -0.05488,0.164634 -0.01333,0.373314 -0.126269,0.505076 -0.159719,0.186339 -0.445006,0.219088 -0.631345,0.378807 -0.717734,0.6152 0.352093,0.20276 -0.757615,0.757614 -0.238095,0.119048 -0.519519,0.133491 -0.757614,0.252539 -0.106479,0.05324 -0.146059,0.199298 -0.252538,0.252538 -0.238095,0.119047 -0.506924,0.163006 -0.757615,0.252538 -0.338664,0.120951 -0.673435,0.252538 -1.010152,0.378807 -0.336718,0.126269 -0.673435,0.252538 -1.010153,0.378807 -0.771891,0.289459 -1.204887,0.495443 -2.020305,0.631346 -0.198253,0.03304 -1.330033,0.170042 -1.767767,0.126269 -0.854233,-0.08542 -1.090519,-0.246803 -2.020305,-0.505077 -0.334418,-0.09289 -0.725169,-0.450652 -1.010152,-0.252538 C 76.087172,73.289454 75.632621,74.24196 75,75"
       id="path4988"
       inkscape:connector-curvature="0" />
    <path
       style="fill:none;fill-rule:evenodd;stroke:#000000;stroke-width:1px;stroke-linecap:butt;stroke-linejoin:miter;stroke-opacity:1"
       d="m 15,60 c 0.42957,0.916875 0.826405,1.849812 1.28871,2.750625 0.101124,0.197043 0.483291,0.394036 0.631345,0.505076 0.235702,0.176777 0.395643,0.454569 0.631346,0.631345 0.07529,0.05647 0.177245,0.0698 0.252538,0.12627 0.09524,0.07143 0.161083,0.176325 0.252538,0.252538 0.161671,0.134725 0.343405,0.244081 0.505076,0.378807 0.74973,0.624775 -0.310503,-0.184235 0.505076,0.631345 0.14881,0.14881 0.356267,0.229998 0.505077,0.378807 0.107308,0.107308 0.135955,0.281655 0.252538,0.378808 0.223703,0.186419 0.684742,0.25615 0.883883,0.505076 0.08315,0.103933 0.04106,0.276557 0.126269,0.378807 0.134726,0.161671 0.336718,0.252538 0.505077,0.378807 0.168358,0.126269 0.33267,0.258123 0.505076,0.378807 0.248647,0.174054 0.52061,0.315474 0.757614,0.505077 1.670033,1.336026 -0.852596,-0.350034 1.262691,0.883883 0.575624,-0.05117 0.653233,0.53454 1.010152,0.757615 0.23943,0.149643 0.51373,0.236541 0.757615,0.378807 0.262168,0.152931 0.495446,0.352145 0.757614,0.505076 0.243885,0.142266 0.51373,0.236541 0.757615,0.378807 0.262168,0.152932 0.495446,0.352145 0.757614,0.505077 0.844508,0.492629 0.792245,0.339533 1.767767,0.757614 0.259517,0.111222 0.495463,0.273946 0.757614,0.378807 0.161129,0.06445 0.341647,0.0679 0.505077,0.126269 0.735305,0.07484 1.148782,0.510021 1.767767,0.757615 0.247159,0.09886 0.506924,0.163006 0.757614,0.252538 0.677328,0.241903 1.342977,0.515711 2.020305,0.757614 0.250691,0.08953 0.506924,0.163006 0.757615,0.252538 0.677328,0.241903 1.333815,0.543087 2.020305,0.757615 0.673435,0.210448 0.925973,0.210448 1.515229,0.378807 0.422521,0.120721 0.836381,0.27223 1.26269,0.378807 0.416417,0.104104 0.842666,0.164112 1.262691,0.252538 0.379724,0.07994 0.757614,0.168359 1.136422,0.252538 1.475237,0.327831 0.75996,0.158423 2.146574,0.505077 0.673435,0.168359 1.342674,0.354491 2.020305,0.505076 0.419011,0.09311 0.843679,0.159425 1.26269,0.252538 1.010325,0.224517 2.028408,0.507102 3.030458,0.757615 0.168359,0.04209 0.333897,0.09774 0.505076,0.126269 0.334721,0.05579 0.676627,0.06373 1.010153,0.126269 0.632582,0.01215 1.168535,0.376669 1.767767,0.505076 2.191727,0.273966 -0.03146,-0.071 1.767767,0.378807 0.537074,0.134269 1.104424,0.11827 1.641498,0.252538 0.05775,0.01444 0.06903,0.109917 0.126269,0.126269 0.246171,0.07034 0.509237,0.06418 0.757614,0.126269 1.288441,0.322111 0.260636,0.178397 1.262691,0.378808 0.754488,0.150897 1.521036,0.211739 2.272843,0.378807 0.169408,0.03765 0.336718,0.08418 0.505076,0.126269 0.252539,0.04209 0.506565,0.07606 0.757615,0.126269 0.34034,0.06807 0.665752,0.209488 1.010152,0.252538 0.167059,0.02088 0.336718,0 0.505077,0 0.168358,0.04209 0.333897,0.09774 0.505076,0.126269 0.08303,0.01384 0.168359,0 0.252538,0 0.252538,0 0.508512,-0.04152 0.757614,0 0.09284,0.01547 0.15915,0.114596 0.252539,0.126269 0.250588,0.03132 0.505076,0 0.757614,0 0.08418,0 0.169504,-0.01384 0.252538,0 0.171179,0.02853 0.333897,0.09774 0.505076,0.126269 0.08303,0.01384 0.168359,0 0.252539,0 0.210448,0 0.420896,0 0.631345,0 0.547166,0 1.094332,0 1.641498,0 0.420897,0 0.841794,0 1.26269,0 0.168359,0 0.336718,0 0.505077,0 0.168358,0 0.338017,0.02088 0.505076,0 0.1722,-0.02152 0.333897,-0.09774 0.505076,-0.126269 0.08303,-0.01384 0.168359,0 0.252538,0 0.252539,0 0.505077,0 0.757615,0 0.168359,0 0.336717,0 0.505076,0 0.08418,-0.04209 0.15915,-0.114595 0.252538,-0.126269 0.250588,-0.03132 0.506114,0.02286 0.757615,0 0.213734,-0.01943 0.420897,-0.08418 0.631345,-0.126269 0.210448,-0.04209 0.424987,-0.06731 0.631345,-0.126269 0.0905,-0.02585 0.163253,-0.09651 0.252538,-0.126269 0.164635,-0.05488 0.338855,-0.0764 0.505077,-0.126269 0.254972,-0.07649 0.502642,-0.176047 0.757614,-0.252538 0.166222,-0.04987 0.340442,-0.07139 0.505076,-0.126269 0.08929,-0.02976 0.168359,-0.08418 0.252539,-0.126269 0.168358,-0.08418 0.341646,-0.15915 0.505076,-0.252538 0.126269,-0.08418 0.252538,-0.168359 0.378807,-0.252539 0.04209,-0.04209 0.07674,-0.09325 0.126269,-0.126269 0.466492,-0.310994 0.119728,0.132811 0.757615,-0.505076 0.02976,-0.02976 -0.02976,-0.09651 0,-0.126269 0.06655,-0.06655 0.177245,-0.0698 0.252538,-0.126269 0.09524,-0.07143 0.1573,-0.18111 0.252538,-0.252538 0.07529,-0.05647 0.177246,-0.0698 0.252538,-0.126269 0.09524,-0.07143 0.1573,-0.18111 0.252538,-0.252538 0.150585,-0.112939 0.354492,-0.1396 0.505076,-0.252539 0.09524,-0.07143 0.1573,-0.181109 0.252538,-0.252538 0.270298,-0.202723 0.414696,-0.105572 0.757615,-0.252538 0.139486,-0.05978 0.243072,-0.18467 0.378807,-0.252538 0.119048,-0.05952 0.255228,-0.07684 0.378807,-0.126269 0.262152,-0.104861 0.505077,-0.252538 0.757615,-0.378807 0.08418,-0.04209 0.168358,-0.08418 0.252538,-0.126269 0.08418,-0.04209 0.177246,-0.0698 0.252538,-0.126269 0.09524,-0.07143 0.153484,-0.186503 0.252538,-0.252539 0.156618,-0.104411 0.371977,-0.119438 0.505076,-0.252538 0.06314,-0.06313 -0.06313,-0.315672 0,-0.378807 0.314733,-0.314732 0.318913,0.146495 0.505077,-0.505076 0.04625,-0.161881 0,-0.336718 0,-0.505076 0,-0.04209 -0.02335,-0.09125 0,-0.126269 0.06603,-0.09905 0.186502,-0.153485 0.252538,-0.252539 0.04669,-0.07004 -0.04669,-0.182496 0,-0.252538 0.06604,-0.09905 0.208325,-0.142005 0.252538,-0.252538 0.04689,-0.117238 0,-0.252538 0,-0.378807 0,-0.04209 -0.03502,-0.102922 0,-0.126269 0.110745,-0.07383 0.268062,-0.05244 0.378807,-0.126269 0.02092,-0.01395 -0.03584,-0.433396 0,-0.505076 0.02662,-0.05324 0.111833,-0.06852 0.126269,-0.12627 0.02269,-0.09074 0,-0.618387 0,-0.757614 0,-0.04209 -0.02976,-0.09651 0,-0.126269 0.06655,-0.06655 0.210449,-0.04209 0.252538,-0.126269 0.0232,-0.04641 -0.03328,-0.58143 0,-0.631345 0.06604,-0.09905 0.186503,-0.153485 0.252538,-0.252539 0.03876,-0.05815 -0.03649,-0.468589 0,-0.505076 0.06655,-0.06655 0.210449,-0.04209 0.252539,-0.126269 0.05647,-0.112938 0,-0.252538 0,-0.378807 0,-0.04209 -0.02976,-0.09651 0,-0.126269 0.06655,-0.06655 0.200332,-0.04796 0.252538,-0.126269 0.0318,-0.0477 -0.0318,-0.457373 0,-0.505077 0.06603,-0.09905 0.186502,-0.153484 0.252538,-0.252538 0.03093,-0.04639 -0.04474,-0.356436 0,-0.378807 0.07529,-0.03765 0.177246,0.03765 0.252538,0 0.03765,-0.01882 0,-0.08418 0,-0.126269 0,-0.08589 -0.01676,-0.60621 0,-0.631345 0.05221,-0.07831 0.185989,-0.05972 0.252538,-0.126269 0.02976,-0.02976 0,-0.08418 0,-0.126269 0,-0.12627 0,-0.252539 0,-0.378808 0,-0.589255 0,-1.178511 0,-1.767767 0,-0.04209 0,-0.08418 0,-0.126269 0,-0.04209 0.02976,-0.09651 0,-0.126269 -0.06655,-0.06655 -0.185988,-0.05972 -0.252538,-0.126269 -0.05952,-0.05952 0.07529,-0.214892 0,-0.252538 -0.07529,-0.03765 -0.177246,0.03765 -0.252538,0 -0.07529,-0.03765 0.07529,-0.214892 0,-0.252538 -0.328093,-0.164047 -0.235806,-0.0022 -0.252538,0.126269 C 90.025236,64.932582 90.009949,64.965733 90,65"
       id="path4994"
       inkscape:connector-curvature="0" />
    <path
       style="fill:none;fill-rule:evenodd;stroke:#000000;stroke-width:1px;stroke-linecap:butt;stroke-linejoin:miter;stroke-opacity:1"
       d="m 69.06918,16.788684 c 0.168359,-0.08418 0.332065,-0.17839 0.505077,-0.252538 0.122337,-0.05243 0.259759,-0.06674 0.378807,-0.126269 0.05324,-0.02662 0.07674,-0.09325 0.126269,-0.126269 0.09992,-0.06661 0.646138,-0.341649 0.757614,-0.378808 0.164635,-0.05488 0.333898,-0.09774 0.505077,-0.126269 0.08303,-0.01384 0.177245,0.03765 0.252538,0 0.106479,-0.05324 0.146058,-0.199298 0.252538,-0.252538 0.446431,-0.223215 0.809559,-0.242868 1.262691,-0.378807 0.254972,-0.07649 0.508365,-0.15907 0.757614,-0.252538 0.08812,-0.03305 0.168359,-0.08418 0.252538,-0.126269 0.252538,-0.08418 0.502643,-0.176047 0.757615,-0.252538 0.586582,-0.175975 0.580079,-0.116016 1.26269,-0.252538 0.425066,-0.08501 1.004369,-0.28266 1.38896,-0.378808 0.04083,-0.01021 0.08418,0 0.126269,0 0.168359,-0.04209 0.338855,-0.0764 0.505076,-0.126269 0.254972,-0.07649 0.499364,-0.187975 0.757615,-0.252538 0.08167,-0.02042 0.168358,0 0.252538,0 0.168359,-0.04209 0.338855,-0.0764 0.505076,-0.126269 0.254972,-0.07649 0.508365,-0.159069 0.757615,-0.252538 0.08812,-0.03305 0.161232,-0.103443 0.252538,-0.126269 0.248377,-0.06209 0.509237,-0.06418 0.757614,-0.126269 0.0913,-0.02283 0.168359,-0.08418 0.252538,-0.126269 0.168359,-0.08418 0.326505,-0.193015 0.505077,-0.252538 0.07986,-0.02662 0.170872,0.02042 0.252538,0 0.0913,-0.02283 0.163252,-0.09651 0.252538,-0.126269 0.164635,-0.05488 0.340441,-0.07139 0.505076,-0.12627 0.08929,-0.02976 0.159703,-0.110796 0.252538,-0.126269 0.166068,-0.02768 0.339008,0.02768 0.505076,0 0.09283,-0.01547 0.159704,-0.110796 0.252539,-0.126269 0.166068,-0.02768 0.336717,0 0.505076,0 0.126269,0 0.252538,0 0.378807,0 0.547166,0 1.094332,0 1.641498,0 0.505076,0 1.010153,0 1.515229,0 0.08418,0 0.168359,0 0.252538,0 0.126269,0 0.259018,0.03993 0.378807,0 0.03993,-0.01331 -0.02976,-0.09651 0,-0.126269 0.02976,-0.02976 0.08418,0 0.126269,0 0.420897,0 0.841794,0 1.262691,0 0.0807,0 0.721191,-0.01821 0.757614,0 0.03765,0.01882 0,0.08418 0,0.126269"
       id="path4996"
       inkscape:connector-curvature="0" />
    <path
       style="fill:none;fill-rule:evenodd;stroke:#000000;stroke-width:1px;stroke-linecap:butt;stroke-linejoin:miter;stroke-opacity:1"
       d="m 77.655477,14.263303 c -0.610005,0.04474 -1.154096,-0.0649 -1.767767,-0.126269 -0.08376,-0.0084 -0.168359,0 -0.252538,0 -0.08418,0 -0.170872,-0.02042 -0.252538,0 -0.09131,0.02283 -0.168359,0.08418 -0.252538,0.126269 -0.168359,0 -0.339009,-0.02768 -0.505077,0 -0.09283,0.01547 -0.162044,0.100413 -0.252538,0.126269 -0.206358,0.05896 -0.423137,0.07422 -0.631345,0.126269 -0.386235,0.09656 -0.750187,0.282248 -1.136422,0.378807 -0.436429,0.109107 -0.842978,0.09515 -1.26269,0.252538 -0.176246,0.06609 -0.328831,0.186446 -0.505077,0.252538 -0.16249,0.06093 -0.338855,0.0764 -0.505076,0.126269 -0.254972,0.07649 -0.499364,0.187976 -0.757614,0.252538 -0.08167,0.02042 -0.169504,-0.01384 -0.252538,0 -0.171179,0.02853 -0.334907,0.09224 -0.505077,0.126269 -0.25105,0.05021 -0.509237,0.06418 -0.757614,0.12627 -0.09131,0.02283 -0.161233,0.103442 -0.252538,0.126269 -0.248378,0.06209 -0.506565,0.07606 -0.757615,0.126269 -0.17017,0.03403 -0.334906,0.09223 -0.505076,0.126269 -0.25105,0.05021 -0.509237,0.06417 -0.757614,0.126269 -0.258251,0.06456 -0.502643,0.176046 -0.757615,0.252538 -0.166221,0.04987 -0.338855,0.0764 -0.505076,0.126269 -0.254972,0.07649 -0.502642,0.176047 -0.757614,0.252538 -0.166222,0.04987 -0.343949,0.06182 -0.505077,0.126269 -0.262152,0.104861 -0.495462,0.273947 -0.757614,0.378807 -0.161128,0.06445 -0.336718,0.08418 -0.505076,0.126269 -0.336718,0.12627 -0.678201,0.240494 -1.010153,0.378808 -0.230769,0.09615 -1.108845,0.567242 -1.262691,0.631345 -0.245721,0.102384 -0.519519,0.133491 -0.757614,0.252538 -0.106479,0.05324 -0.146059,0.199299 -0.252538,0.252538 -0.30608,0.15304 -0.710728,0.179191 -1.010153,0.378808 -0.175103,0.116735 -0.329972,0.262071 -0.505076,0.378807 -0.07831,0.05221 -0.168359,0.08418 -0.252538,0.126269 -0.223607,0.111803 -0.645811,0.322905 -0.757615,0.378807 -0.168358,0.08418 -0.326504,0.193014 -0.505076,0.252538 -0.07986,0.02662 -0.170872,-0.02042 -0.252538,0 -0.52828,-0.228655 -0.146059,0.199299 -0.252538,0.252538 -0.07529,0.03765 -0.172679,-0.02662 -0.252538,0 -0.05647,0.01882 -0.08418,0.08418 -0.126269,0.126269 -0.126269,0 -0.252538,0 -0.378808,0"
       id="path4998"
       inkscape:connector-curvature="0" />
    <path
       style="fill:none;fill-rule:evenodd;stroke:#000000;stroke-width:1px;stroke-linecap:butt;stroke-linejoin:miter;stroke-opacity:1"
       d="m 90.029846,11.737921 c 0.168359,0.04209 0.340441,0.07139 0.505076,0.126269 0.653798,0.217933 -0.292444,0.07753 0.757614,0.252538 0.08303,0.01384 0.170873,-0.02042 0.252539,0 0.18261,0.04565 0.324087,0.200828 0.505076,0.252539 0.206358,0.05896 0.427742,0.0584 0.631345,0.126269 0.275079,-0.0472 0.04209,0.210448 0.126269,0.252538 0.07529,0.03765 0.170872,-0.02042 0.252538,0 0.09131,0.02283 0.161233,0.103442 0.252539,0.126269 0.08167,0.02042 0.252538,-0.08418 0.252538,0 0,0.08418 -0.168359,0 -0.252538,0"
       id="path5000"
       inkscape:connector-curvature="0" />
    <path
       style="fill:none;fill-rule:evenodd;stroke:#000000;stroke-width:1px;stroke-linecap:butt;stroke-linejoin:miter;stroke-opacity:1"
       d="m 96.848375,15.525993 -4.04061,-3.156726"
       id="path5006"
       inkscape:connector-curvature="0" />
    <path
       style="fill:none;fill-rule:evenodd;stroke:#000000;stroke-width:1px;stroke-linecap:butt;stroke-linejoin:miter;stroke-opacity:1"
       d="m 65.533646,66.15989 c -0.360067,0.11518 -0.214603,-0.826982 -0.252538,-0.883884 -0.06603,-0.09905 -0.199298,-0.146059 -0.252538,-0.252538 -0.03765,-0.07529 0.03765,-0.177246 0,-0.252538 -0.05324,-0.10648 -0.214892,-0.1396 -0.252538,-0.252538 -0.05324,-0.159719 0.06253,-0.348759 0,-0.505076 -0.03495,-0.08738 -0.222776,-0.03698 -0.252538,-0.12627 -0.06655,-0.199648 0.06655,-0.431696 0,-0.631345 -0.02976,-0.08929 -0.217585,-0.03889 -0.252538,-0.126269 0,-1.149625 0.119047,-0.01444 -0.252538,-0.757614 -0.07529,-0.150585 0.07529,-0.354492 0,-0.505077 -0.05324,-0.106479 -0.186503,-0.153484 -0.252538,-0.252538 -0.02335,-0.03502 0,-0.08418 0,-0.126269 0,-0.126269 0.04689,-0.261569 0,-0.378807 -0.04421,-0.110533 -0.214892,-0.1396 -0.252539,-0.252538 -0.09317,-0.279509 0.09317,-0.604375 0,-0.883884 -0.04799,-0.143969 -0.196177,-0.237904 -0.252538,-0.378807 -0.03126,-0.07816 0,-0.168359 0,-0.252538 0,-0.168359 0.04625,-0.343195 0,-0.505076 -0.04169,-0.145918 -0.204548,-0.234839 -0.252538,-0.378807 -0.03993,-0.11979 0,-0.252539 0,-0.378808 0,-0.378807 0,-0.757614 0,-1.136421 0,-0.126269 0.03993,-0.259018 0,-0.378808 -0.04799,-0.143968 -0.204548,-0.234838 -0.252538,-0.378807 -0.03993,-0.119789 0,-0.252538 0,-0.378807 0,-0.336717 0,-0.673435 0,-1.010152 0,-0.252539 0,-0.505077 0,-0.757615 0,-0.126269 -0.03993,-0.259018 0,-0.378807 0.04799,-0.143969 0.204548,-0.234838 0.252538,-0.378807 0.03993,-0.11979 0,-0.252538 0,-0.378808 0,-0.126269 0,-0.252538 0,-0.378807 0,-0.126269 -0.03993,-0.259018 0,-0.378807 0.04799,-0.143969 0.196177,-0.237905 0.252538,-0.378807 0.04503,-0.112567 -0.04398,-0.795922 0,-0.883884 0.05324,-0.106479 0.208325,-0.142005 0.252538,-0.252538 0.07816,-0.195396 -0.07816,-0.435949 0,-0.631345 0.05636,-0.140902 0.196178,-0.237905 0.252539,-0.378807 0.03126,-0.07816 -0.03126,-0.17438 0,-0.252538 0.05636,-0.140903 0.190903,-0.240131 0.252538,-0.378808 0.108113,-0.243255 0.144424,-0.514359 0.252538,-0.757614 0.06163,-0.138677 0.190904,-0.24013 0.252538,-0.378807 0.108113,-0.243256 0.13349,-0.519519 0.252538,-0.757615 0.135735,-0.27147 0.381808,-0.48026 0.505076,-0.757614 0.05128,-0.115386 -0.03993,-0.259018 0,-0.378807 0.04799,-0.143969 0.184671,-0.243072 0.252538,-0.378807 0.101366,-0.202731 0.132409,-0.439139 0.252539,-0.631346 0.09464,-0.151428 0.298947,-0.219088 0.378807,-0.378807 0.09598,-0.191959 0.04173,-0.434082 0.126269,-0.631345 0.04689,-0.109422 0.199298,-0.146059 0.252538,-0.252538 0.119048,-0.238096 0.144425,-0.51436 0.252538,-0.757615 0.06163,-0.138677 0.190904,-0.24013 0.252538,-0.378807 0.108114,-0.243255 0.144425,-0.514359 0.252538,-0.757615 0.06164,-0.138676 0.168359,-0.252538 0.252539,-0.378807 0.168358,-0.252538 0.381808,-0.48026 0.505076,-0.757614 0.05128,-0.115386 -0.03993,-0.259018 0,-0.378807 0.04799,-0.143969 0.18467,-0.243072 0.252538,-0.378808 0.101365,-0.20273 0.151173,-0.428614 0.252538,-0.631345 0.378188,-0.756375 0.200084,0.01199 0.757615,-1.010152 0.59077,-1.772313 -0.124706,-0.0023 0.631345,-1.136422 0.07383,-0.110745 0.08418,-0.252538 0.126269,-0.378807 0.08418,-0.252538 0.161567,-0.507443 0.252538,-0.757615 0.11691,-0.321502 0.321861,-0.831062 0.505076,-1.136421 0.156157,-0.260261 0.381808,-0.480261 0.505077,-0.757615 0.05128,-0.115386 -0.0469,-0.261569 0,-0.378807 0.04421,-0.110533 0.175063,-0.16215 0.252538,-0.252538 0.175392,-0.204624 0.343373,-0.415741 0.505076,-0.631345 0.272741,-0.363655 0.484873,-0.772767 0.757614,-1.136422 0.07143,-0.09524 0.174145,-0.162946 0.252539,-0.252538 0.21647,-0.247395 0.434106,-0.49463 0.631345,-0.757615 0.05647,-0.07529 0.08056,-0.170266 0.126269,-0.252538 0.17646,-0.317627 0.745456,-1.343714 1.010153,-1.641498 0.139814,-0.157291 0.365261,-0.221516 0.505076,-0.378807 0.201643,-0.226848 0.336717,-0.505076 0.505076,-0.757614 0.207156,-0.310734 0.50382,-0.77943 0.757614,-1.010153 0.26791,-0.243554 0.627862,-0.375323 0.883884,-0.631345 0.09412,-0.09412 0.08418,-0.252538 0.126269,-0.378807 0.168359,-0.210449 0.302253,-0.453875 0.505076,-0.631346 0.141658,-0.12395 0.363418,-0.128587 0.505077,-0.252538 0.202823,-0.17747 0.314507,-0.440776 0.505076,-0.631345 0.148809,-0.14881 0.356267,-0.229998 0.505076,-0.378807 0.190569,-0.190569 0.314507,-0.440776 0.505076,-0.631346 0.14881,-0.148809 0.338959,-0.249604 0.505077,-0.378807 0.212734,-0.16546 0.431023,-0.324786 0.631345,-0.505076 0.221219,-0.199097 0.420897,-0.420897 0.631345,-0.631345 0.08418,-0.08418 0.1573,-0.18111 0.252539,-0.252539 0.24281,-0.182107 0.514803,-0.322968 0.757614,-0.505076 0.09524,-0.07143 0.1573,-0.181109 0.252538,-0.252538 0.242811,-0.182108 0.505076,-0.336718 0.757614,-0.505076 0.252539,-0.168359 0.497355,-0.34892 0.757615,-0.505077 0.161406,-0.09684 0.34367,-0.155694 0.505076,-0.252538 0.26026,-0.156156 0.486144,-0.369341 0.757615,-0.505076 0.155219,-0.07761 0.349857,-0.04866 0.505076,-0.126269 0.106479,-0.05324 0.150455,-0.191289 0.252538,-0.252538 0.245523,-0.147314 1.436311,-0.699741 1.767767,-0.883884 0.506824,-0.281569 0.371888,-0.347672 1.010152,-0.631345 0.158584,-0.07048 0.343949,-0.06182 0.505077,-0.126269 0.262152,-0.104861 0.505076,-0.252538 0.757614,-0.378807 0.08418,-0.04209 0.161233,-0.103443 0.252538,-0.126269 0.248378,-0.06209 0.509237,-0.06418 0.757615,-0.126269 0.09131,-0.02283 0.164415,-0.09322 0.252538,-0.126269 0.249249,-0.09347 0.499364,-0.187976 0.757614,-0.252539 0.09933,-0.02483 0.626304,0 0.757615,0 0.08418,0 0.177245,0.03765 0.252538,0 0.106479,-0.05324 0.146059,-0.199298 0.252538,-0.252538 0.07529,-0.03765 0.168359,0 0.252538,0 0.08418,0 0.168359,0 0.252538,0 0.08418,0 0.193015,-0.05952 0.252538,0 0.336718,0.336718 -0.420897,0.252538 0.252538,0.252538 0.336718,0 0.673436,0 1.010153,0 0.126269,0 0.378807,-0.126269 0.378807,0 0,0.126269 -0.252538,0 -0.378807,0"
       id="path5008"
       inkscape:connector-curvature="0" />
  </g>
  <g
     inkscape:groupmode="layer"
     id="layer5"
     inkscape:label="Layer 2">
    <path
       style="fill:none;fill-rule:evenodd;stroke:#000000;stroke-width:1px;stroke-linecap:butt;stroke-linejoin:miter;stroke-opacity:1"
       d="m 84.726545,30.299474 4.545686,-5.3033 5.555839,4.545686 -4.545686,5.42957"
       id="path5015"
       inkscape:connector-curvature="0"
       sodipodi:nodetypes="cccc" />
    <path
       style="fill:none;fill-rule:evenodd;stroke:#000000;stroke-width:1px;stroke-linecap:butt;stroke-linejoin:miter;stroke-opacity:1"
       d="M 26.642774,43.936533 C 19.912484,46.177692 19.307992,20.374265 9.8303965,25.948656 -3.0658704,44.828851 9.5057291,69.427558 43.562829,77.01903"
       id="path5017"
       inkscape:connector-curvature="0"
       sodipodi:nodetypes="ccc" />
    <path
       style="fill:none;fill-rule:evenodd;stroke:#000000;stroke-width:1px;stroke-linecap:butt;stroke-linejoin:miter;stroke-opacity:1"
       d="M 52.401663,78.913066 C 76.678276,83.337711 89.567893,82.021293 90.534922,64.139585 88.866409,57.120623 78.210439,65.568114 67.80649,60.351513"
       id="path5019"
       inkscape:connector-curvature="0"
       sodipodi:nodetypes="ccc" />
    <path
       style="fill:none;fill-rule:evenodd;stroke:#000000;stroke-width:1px;stroke-linecap:butt;stroke-linejoin:miter;stroke-opacity:1"
       d="M 65.786185,66.917504 64.776032,64.518392"
       id="path5021"
       inkscape:connector-curvature="0" />
    <path
       style="fill:none;fill-rule:evenodd;stroke:#000000;stroke-width:1px;stroke-linecap:butt;stroke-linejoin:miter;stroke-opacity:1"
       d="M 63.008265,55.174481 C 63.460239,44.913066 78.378698,16.837645 97.100914,13.631958 83.287378,8.6121678 64.71732,14.46215 53.069843,21.961272 39.583348,30.644429 34.833017,44.939461 17.046324,46.966991"
       id="path5023"
       inkscape:connector-curvature="0"
       sodipodi:nodetypes="ccsc" />
  </g>
  <path
     style="fill:none;fill-rule:evenodd;stroke:#000000;stroke-width:1px;stroke-linecap:butt;stroke-linejoin:miter;stroke-opacity:1"
     d="m 84.979083,30.173205 -50.507628,56.94735 6.060916,4.924494 49.750013,-57.326157 z"
     id="path5013"
     inkscape:connector-curvature="0"
     sodipodi:nodetypes="ccccc" />
</svg>
